<?xml version="1.0" encoding="utf-8" standalone="no"?>
<!DOCTYPE svg PUBLIC "-//W3C//DTD SVG 1.1//EN"
  "http://www.w3.org/Graphics/SVG/1.1/DTD/svg11.dtd">
<svg xmlns:xlink="http://www.w3.org/1999/xlink" width="460.8pt" height="345.6pt" viewBox="0 0 460.8 345.6" xmlns="http://www.w3.org/2000/svg" version="1.1">
 <metadata>
  <rdf:RDF xmlns:dc="http://purl.org/dc/elements/1.1/" xmlns:cc="http://creativecommons.org/ns#" xmlns:rdf="http://www.w3.org/1999/02/22-rdf-syntax-ns#">
   <cc:Work>
    <dc:type rdf:resource="http://purl.org/dc/dcmitype/StillImage"/>
    <dc:date>2024-09-02T23:44:01.000502</dc:date>
    <dc:format>image/svg+xml</dc:format>
    <dc:creator>
     <cc:Agent>
      <dc:title>Matplotlib v3.9.0, https://matplotlib.org/</dc:title>
     </cc:Agent>
    </dc:creator>
   </cc:Work>
  </rdf:RDF>
 </metadata>
 <defs>
  <style type="text/css">*{stroke-linejoin: round; stroke-linecap: butt}</style>
 </defs>
 <g id="figure_1">
  <g id="patch_1">
   <path d="M 0 345.6 
L 460.8 345.6 
L 460.8 0 
L 0 0 
z
" style="fill: #ffffff"/>
  </g>
  <g id="axes_1">
   <g id="patch_2">
    <path d="M 57.6 307.584 
L 414.72 307.584 
L 414.72 41.472 
L 57.6 41.472 
z
" style="fill: #ffffff"/>
   </g>
   <g id="matplotlib.axis_1">
    <g id="xtick_1">
     <g id="line2d_1">
      <defs>
       <path id="mabc71827c1" d="M 0 0 
L 0 3.5 
" style="stroke: #000000; stroke-width: 0.8"/>
      </defs>
      <g>
       <use xlink:href="#mabc71827c1" x="93.466713" y="307.584" style="stroke: #000000; stroke-width: 0.8"/>
      </g>
     </g>
     <g id="text_1">
      <!-- $\mathdefault{0.98}$ -->
      <g transform="translate(84.611006 321.502498) scale(0.1 -0.1)">
       <defs>
        <path id="CMR17-30" d="M 2688 2025 
C 2688 2416 2682 3080 2413 3591 
C 2176 4039 1798 4198 1466 4198 
C 1158 4198 768 4058 525 3597 
C 269 3118 243 2524 243 2025 
C 243 1661 250 1106 448 619 
C 723 -39 1216 -128 1466 -128 
C 1760 -128 2208 -7 2470 600 
C 2662 1042 2688 1559 2688 2025 
z
M 1466 -26 
C 1056 -26 813 325 723 812 
C 653 1188 653 1738 653 2096 
C 653 2588 653 2997 736 3387 
C 858 3929 1216 4096 1466 4096 
C 1728 4096 2067 3923 2189 3400 
C 2272 3036 2278 2607 2278 2096 
C 2278 1680 2278 1169 2202 792 
C 2067 95 1690 -26 1466 -26 
z
" transform="scale(0.015625)"/>
        <path id="CMMI12-3a" d="M 1178 307 
C 1178 492 1024 619 870 619 
C 685 619 557 466 557 313 
C 557 128 710 0 864 0 
C 1050 0 1178 153 1178 307 
z
" transform="scale(0.015625)"/>
        <path id="CMR17-39" d="M 2253 1864 
C 2253 464 1670 31 1190 31 
C 1043 31 685 31 538 294 
C 704 268 826 357 826 518 
C 826 692 685 749 595 749 
C 538 749 365 723 365 506 
C 365 71 742 -128 1203 -128 
C 1939 -128 2688 674 2688 2073 
C 2688 3817 1971 4179 1485 4179 
C 851 4179 243 3628 243 2778 
C 243 1991 762 1408 1414 1408 
C 1952 1408 2189 1903 2253 2112 
L 2253 1864 
z
M 1427 1510 
C 1254 1510 1011 1542 813 1922 
C 678 2169 678 2461 678 2771 
C 678 3146 678 3405 858 3684 
C 947 3817 1114 4032 1485 4032 
C 2240 4032 2240 2885 2240 2632 
C 2240 2182 2035 1510 1427 1510 
z
" transform="scale(0.015625)"/>
        <path id="CMR17-38" d="M 1741 2264 
C 2144 2467 2554 2773 2554 3263 
C 2554 3841 1990 4179 1472 4179 
C 890 4179 378 3759 378 3180 
C 378 3021 416 2747 666 2505 
C 730 2442 998 2251 1171 2130 
C 883 1983 211 1634 211 934 
C 211 279 838 -128 1459 -128 
C 2144 -128 2720 362 2720 1010 
C 2720 1590 2330 1857 2074 2029 
L 1741 2264 
z
M 902 2822 
C 851 2854 595 3051 595 3351 
C 595 3739 998 4032 1459 4032 
C 1965 4032 2336 3676 2336 3262 
C 2336 2669 1670 2331 1638 2331 
C 1632 2331 1626 2331 1574 2370 
L 902 2822 
z
M 2080 1519 
C 2176 1449 2483 1240 2483 851 
C 2483 381 2010 25 1472 25 
C 890 25 448 438 448 940 
C 448 1443 838 1862 1280 2060 
L 2080 1519 
z
" transform="scale(0.015625)"/>
       </defs>
       <use xlink:href="#CMR17-30" transform="scale(0.996264)"/>
       <use xlink:href="#CMMI12-3a" transform="translate(45.690477 0) scale(0.996264)"/>
       <use xlink:href="#CMR17-39" transform="translate(72.787654 0) scale(0.996264)"/>
       <use xlink:href="#CMR17-38" transform="translate(118.478131 0) scale(0.996264)"/>
      </g>
     </g>
    </g>
    <g id="xtick_2">
     <g id="line2d_2">
      <g>
       <use xlink:href="#mabc71827c1" x="147.224017" y="307.584" style="stroke: #000000; stroke-width: 0.8"/>
      </g>
     </g>
     <g id="text_2">
      <!-- $\mathdefault{0.99}$ -->
      <g transform="translate(138.36831 321.502498) scale(0.1 -0.1)">
       <use xlink:href="#CMR17-30" transform="scale(0.996264)"/>
       <use xlink:href="#CMMI12-3a" transform="translate(45.690477 0) scale(0.996264)"/>
       <use xlink:href="#CMR17-39" transform="translate(72.787654 0) scale(0.996264)"/>
       <use xlink:href="#CMR17-39" transform="translate(118.478131 0) scale(0.996264)"/>
      </g>
     </g>
    </g>
    <g id="xtick_3">
     <g id="line2d_3">
      <g>
       <use xlink:href="#mabc71827c1" x="200.981322" y="307.584" style="stroke: #000000; stroke-width: 0.8"/>
      </g>
     </g>
     <g id="text_3">
      <!-- $\mathdefault{1.00}$ -->
      <g transform="translate(192.125614 321.502498) scale(0.1 -0.1)">
       <defs>
        <path id="CMR17-31" d="M 1702 4058 
C 1702 4192 1696 4192 1606 4192 
C 1357 3916 979 3827 621 3827 
C 602 3827 570 3827 563 3808 
C 557 3795 557 3782 557 3648 
C 755 3648 1088 3686 1344 3839 
L 1344 461 
C 1344 236 1331 160 781 160 
L 589 160 
L 589 0 
C 896 0 1216 0 1523 0 
C 1830 0 2150 0 2458 0 
L 2458 160 
L 2266 160 
C 1715 160 1702 230 1702 458 
L 1702 4058 
z
" transform="scale(0.015625)"/>
       </defs>
       <use xlink:href="#CMR17-31" transform="scale(0.996264)"/>
       <use xlink:href="#CMMI12-3a" transform="translate(45.690477 0) scale(0.996264)"/>
       <use xlink:href="#CMR17-30" transform="translate(72.787654 0) scale(0.996264)"/>
       <use xlink:href="#CMR17-30" transform="translate(118.478131 0) scale(0.996264)"/>
      </g>
     </g>
    </g>
    <g id="xtick_4">
     <g id="line2d_4">
      <g>
       <use xlink:href="#mabc71827c1" x="254.738626" y="307.584" style="stroke: #000000; stroke-width: 0.8"/>
      </g>
     </g>
     <g id="text_4">
      <!-- $\mathdefault{1.01}$ -->
      <g transform="translate(245.882919 321.502498) scale(0.1 -0.1)">
       <use xlink:href="#CMR17-31" transform="scale(0.996264)"/>
       <use xlink:href="#CMMI12-3a" transform="translate(45.690477 0) scale(0.996264)"/>
       <use xlink:href="#CMR17-30" transform="translate(72.787654 0) scale(0.996264)"/>
       <use xlink:href="#CMR17-31" transform="translate(118.478131 0) scale(0.996264)"/>
      </g>
     </g>
    </g>
    <g id="xtick_5">
     <g id="line2d_5">
      <g>
       <use xlink:href="#mabc71827c1" x="308.49593" y="307.584" style="stroke: #000000; stroke-width: 0.8"/>
      </g>
     </g>
     <g id="text_5">
      <!-- $\mathdefault{1.02}$ -->
      <g transform="translate(299.640223 321.502498) scale(0.1 -0.1)">
       <defs>
        <path id="CMR17-32" d="M 2669 989 
L 2554 989 
C 2490 536 2438 459 2413 420 
C 2381 369 1920 369 1830 369 
L 602 369 
C 832 619 1280 1072 1824 1597 
C 2214 1967 2669 2402 2669 3035 
C 2669 3790 2067 4224 1395 4224 
C 691 4224 262 3604 262 3030 
C 262 2780 448 2748 525 2748 
C 589 2748 781 2787 781 3010 
C 781 3207 614 3264 525 3264 
C 486 3264 448 3258 422 3245 
C 544 3790 915 4058 1306 4058 
C 1862 4058 2227 3617 2227 3035 
C 2227 2479 1901 2000 1536 1584 
L 262 146 
L 262 0 
L 2515 0 
L 2669 989 
z
" transform="scale(0.015625)"/>
       </defs>
       <use xlink:href="#CMR17-31" transform="scale(0.996264)"/>
       <use xlink:href="#CMMI12-3a" transform="translate(45.690477 0) scale(0.996264)"/>
       <use xlink:href="#CMR17-30" transform="translate(72.787654 0) scale(0.996264)"/>
       <use xlink:href="#CMR17-32" transform="translate(118.478131 0) scale(0.996264)"/>
      </g>
     </g>
    </g>
    <g id="xtick_6">
     <g id="line2d_6">
      <g>
       <use xlink:href="#mabc71827c1" x="362.253234" y="307.584" style="stroke: #000000; stroke-width: 0.8"/>
      </g>
     </g>
     <g id="text_6">
      <!-- $\mathdefault{1.03}$ -->
      <g transform="translate(353.397527 321.502498) scale(0.1 -0.1)">
       <defs>
        <path id="CMR17-33" d="M 1414 2157 
C 1984 2157 2234 1662 2234 1090 
C 2234 320 1824 25 1453 25 
C 1114 25 563 194 390 693 
C 422 680 454 680 486 680 
C 640 680 755 782 755 948 
C 755 1133 614 1216 486 1216 
C 378 1216 211 1165 211 926 
C 211 335 787 -128 1466 -128 
C 2176 -128 2720 430 2720 1085 
C 2720 1707 2208 2157 1600 2227 
C 2086 2328 2554 2756 2554 3329 
C 2554 3820 2048 4179 1472 4179 
C 890 4179 378 3829 378 3329 
C 378 3110 544 3072 627 3072 
C 762 3072 877 3155 877 3321 
C 877 3486 762 3569 627 3569 
C 602 3569 570 3569 544 3557 
C 730 3959 1235 4032 1459 4032 
C 1683 4032 2106 3925 2106 3320 
C 2106 3143 2080 2828 1862 2550 
C 1670 2304 1453 2304 1242 2284 
C 1210 2284 1062 2269 1037 2269 
C 992 2263 966 2257 966 2208 
C 966 2163 973 2157 1101 2157 
L 1414 2157 
z
" transform="scale(0.015625)"/>
       </defs>
       <use xlink:href="#CMR17-31" transform="scale(0.996264)"/>
       <use xlink:href="#CMMI12-3a" transform="translate(45.690477 0) scale(0.996264)"/>
       <use xlink:href="#CMR17-30" transform="translate(72.787654 0) scale(0.996264)"/>
       <use xlink:href="#CMR17-33" transform="translate(118.478131 0) scale(0.996264)"/>
      </g>
     </g>
    </g>
    <g id="text_7">
     <!-- \(\omega (\unit{\kilo\hertz})\) -->
     <g transform="translate(220.427311 334.911657) scale(0.1 -0.1)">
      <defs>
       <path id="CMMI12-21" d="M 3802 2395 
C 3802 2580 3750 2816 3526 2816 
C 3398 2816 3251 2657 3251 2529 
C 3251 2472 3277 2434 3328 2376 
C 3424 2268 3546 2096 3546 1797 
C 3546 1567 3405 1204 3302 1007 
C 3123 656 2829 357 2496 357 
C 2093 357 1939 615 1869 975 
C 1939 1143 2086 1560 2086 1728 
C 2086 1798 2061 1856 1978 1856 
C 1933 1856 1882 1831 1850 1779 
C 1760 1638 1677 1129 1683 994 
C 1562 756 1216 357 806 357 
C 378 357 262 733 262 1096 
C 262 1758 678 2338 794 2497 
C 858 2593 902 2657 902 2669 
C 902 2714 877 2784 819 2784 
C 717 2784 685 2701 634 2625 
C 307 2121 77 1414 77 803 
C 77 408 224 -64 704 -64 
C 1235 -64 1568 391 1702 634 
C 1754 275 1946 -64 2413 -64 
C 2899 -64 3206 363 3437 879 
C 3603 1249 3802 2045 3802 2395 
z
" transform="scale(0.015625)"/>
       <path id="CMR17-28" d="M 1958 -1561 
C 1958 -1555 1958 -1542 1939 -1523 
C 1645 -1224 858 -407 858 1581 
C 858 3569 1632 4379 1946 4697 
C 1946 4704 1958 4717 1958 4736 
C 1958 4755 1939 4768 1914 4768 
C 1843 4768 1299 4296 986 3594 
C 666 2887 576 2199 576 1588 
C 576 1128 621 351 1005 -471 
C 1312 -1135 1837 -1600 1914 -1600 
C 1946 -1600 1958 -1587 1958 -1561 
z
" transform="scale(0.015625)"/>
       <path id="CMR17-6b" d="M 1670 1673 
C 1664 1686 1632 1724 1632 1743 
C 1632 1756 2086 2171 2144 2222 
C 2509 2528 2739 2560 2906 2560 
L 2906 2733 
C 2867 2733 2854 2733 2848 2720 
L 2534 2720 
C 2355 2720 2080 2720 1907 2733 
L 1907 2566 
C 1997 2559 2061 2508 2061 2419 
C 2061 2291 1933 2170 1926 2170 
L 960 1289 
L 960 4396 
L 198 4326 
L 198 4160 
C 576 4160 634 4122 634 3817 
L 634 426 
C 634 184 608 153 198 153 
L 198 -13 
C 352 0 634 0 794 0 
C 954 0 1235 0 1389 -13 
L 1389 153 
C 979 153 954 178 954 428 
L 954 1130 
L 1395 1532 
L 2042 574 
C 2118 459 2182 369 2182 286 
C 2182 172 2067 153 1990 153 
L 1990 -13 
C 2144 0 2419 0 2579 0 
C 2694 0 2931 0 3040 0 
L 3040 153 
C 2739 153 2669 210 2477 491 
L 1670 1673 
z
" transform="scale(0.015625)"/>
       <path id="CMR17-48" d="M 3590 3905 
C 3590 4192 3661 4192 4102 4192 
L 4102 4352 
C 3917 4352 3578 4352 3379 4352 
C 3181 4352 2842 4352 2656 4352 
L 2656 4192 
C 3098 4192 3168 4192 3168 3904 
L 3168 2341 
L 1261 2341 
L 1261 3904 
C 1261 4192 1331 4192 1773 4192 
L 1773 4352 
C 1587 4352 1248 4352 1050 4352 
C 851 4352 512 4352 326 4352 
L 326 4192 
C 768 4192 838 4192 838 3905 
L 838 447 
C 838 160 768 160 326 160 
L 326 0 
C 512 0 851 0 1050 0 
C 1248 0 1587 0 1773 0 
L 1773 160 
C 1331 160 1261 160 1261 446 
L 1261 2176 
L 3168 2176 
L 3168 446 
C 3168 160 3098 160 2656 160 
L 2656 0 
C 2842 0 3181 0 3379 0 
C 3578 0 3917 0 4102 0 
L 4102 160 
C 3661 160 3590 160 3590 447 
L 3590 3905 
z
" transform="scale(0.015625)"/>
       <path id="CMR17-7a" d="M 2310 2605 
C 2362 2670 2362 2682 2362 2695 
C 2362 2752 2336 2752 2221 2752 
L 275 2752 
L 211 1760 
L 326 1760 
C 371 2381 442 2650 1178 2650 
L 1958 2650 
L 128 96 
C 128 0 134 0 269 0 
L 2291 0 
L 2381 1152 
L 2266 1152 
C 2214 442 2131 115 1350 115 
L 531 115 
L 2310 2605 
z
" transform="scale(0.015625)"/>
       <path id="CMR17-29" d="M 1683 1581 
C 1683 2040 1638 2817 1254 3639 
C 947 4303 422 4768 346 4768 
C 326 4768 301 4761 301 4729 
C 301 4717 307 4710 314 4697 
C 621 4378 1402 3568 1402 1584 
C 1402 -407 627 -1217 314 -1537 
C 307 -1549 301 -1556 301 -1568 
C 301 -1600 326 -1600 346 -1600 
C 416 -1600 960 -1128 1274 -426 
C 1594 281 1683 969 1683 1581 
z
" transform="scale(0.015625)"/>
      </defs>
      <use xlink:href="#CMMI12-21" transform="scale(0.996264)"/>
      <use xlink:href="#CMR17-28" transform="translate(64.318346 0) scale(0.996264)"/>
      <use xlink:href="#CMR17-6b" transform="translate(99.599114 0) scale(0.996264)"/>
      <use xlink:href="#CMR17-48" transform="translate(147.89203 0) scale(0.996264)"/>
      <use xlink:href="#CMR17-7a" transform="translate(216.964459 0) scale(0.996264)"/>
      <use xlink:href="#CMR17-29" transform="translate(257.45012 0) scale(0.996264)"/>
     </g>
    </g>
   </g>
   <g id="matplotlib.axis_2">
    <g id="ytick_1">
     <g id="line2d_7">
      <defs>
       <path id="me0a70af018" d="M 0 0 
L -3.5 0 
" style="stroke: #000000; stroke-width: 0.8"/>
      </defs>
      <g>
       <use xlink:href="#me0a70af018" x="57.6" y="307.584" style="stroke: #000000; stroke-width: 0.8"/>
      </g>
     </g>
     <g id="text_8">
      <!-- \(-\pi\) -->
      <g transform="translate(37.172281 311.043249) scale(0.1 -0.1)">
       <defs>
        <path id="CMSY10-0" d="M 4218 1472 
C 4326 1472 4442 1472 4442 1600 
C 4442 1728 4326 1728 4218 1728 
L 755 1728 
C 646 1728 531 1728 531 1600 
C 531 1472 646 1472 755 1472 
L 4218 1472 
z
" transform="scale(0.015625)"/>
        <path id="CMMI12-19" d="M 1658 2408 
L 2381 2408 
C 2208 1692 2099 1226 2099 716 
C 2099 626 2099 -64 2362 -64 
C 2496 -64 2611 57 2611 166 
C 2611 197 2611 210 2566 306 
C 2394 747 2394 1296 2394 1341 
C 2394 1379 2394 1832 2528 2408 
L 3245 2408 
C 3328 2408 3539 2408 3539 2612 
C 3539 2752 3418 2752 3302 2752 
L 1197 2752 
C 1050 2752 832 2752 538 2440 
C 371 2254 166 1916 166 1878 
C 166 1840 198 1827 237 1827 
C 282 1827 288 1846 320 1884 
C 653 2408 986 2408 1146 2408 
L 1510 2408 
C 1370 1929 1210 1373 685 256 
C 634 154 634 140 634 102 
C 634 -32 749 -64 806 -64 
C 992 -64 1043 102 1120 370 
C 1222 696 1222 709 1286 964 
L 1658 2408 
z
" transform="scale(0.015625)"/>
       </defs>
       <use xlink:href="#CMSY10-0" transform="scale(0.996264)"/>
       <use xlink:href="#CMMI12-19" transform="translate(77.487468 0) scale(0.996264)"/>
      </g>
     </g>
    </g>
    <g id="ytick_2">
     <g id="line2d_8">
      <g>
       <use xlink:href="#me0a70af018" x="57.6" y="241.056" style="stroke: #000000; stroke-width: 0.8"/>
      </g>
     </g>
     <g id="text_9">
      <!-- \(-\pi/2\) -->
      <g transform="translate(26.852171 244.79199) scale(0.1 -0.1)">
       <defs>
        <path id="CMMI12-3d" d="M 2746 4562 
C 2746 4569 2784 4666 2784 4678 
C 2784 4755 2720 4800 2669 4800 
C 2637 4800 2579 4800 2528 4659 
L 384 -1363 
C 384 -1370 346 -1465 346 -1478 
C 346 -1555 410 -1600 461 -1600 
C 499 -1600 557 -1593 602 -1459 
L 2746 4562 
z
" transform="scale(0.015625)"/>
       </defs>
       <use xlink:href="#CMSY10-0" transform="scale(0.996264)"/>
       <use xlink:href="#CMMI12-19" transform="translate(77.487468 0) scale(0.996264)"/>
       <use xlink:href="#CMMI12-3d" transform="translate(136.398068 0) scale(0.996264)"/>
       <use xlink:href="#CMR17-32" transform="translate(185.172987 0) scale(0.996264)"/>
      </g>
     </g>
    </g>
    <g id="ytick_3">
     <g id="line2d_9">
      <g>
       <use xlink:href="#me0a70af018" x="57.6" y="174.528" style="stroke: #000000; stroke-width: 0.8"/>
      </g>
     </g>
     <g id="text_10">
      <!-- \(0\) -->
      <g transform="translate(45.618665 177.987249) scale(0.1 -0.1)">
       <use xlink:href="#CMR17-30" transform="scale(0.996264)"/>
      </g>
     </g>
    </g>
    <g id="ytick_4">
     <g id="line2d_10">
      <g>
       <use xlink:href="#me0a70af018" x="57.6" y="108" style="stroke: #000000; stroke-width: 0.8"/>
      </g>
     </g>
     <g id="text_11">
      <!-- \(\pi/2\) -->
      <g transform="translate(34.600915 111.73599) scale(0.1 -0.1)">
       <use xlink:href="#CMMI12-19" transform="scale(0.996264)"/>
       <use xlink:href="#CMMI12-3d" transform="translate(58.910601 0) scale(0.996264)"/>
       <use xlink:href="#CMR17-32" transform="translate(107.68552 0) scale(0.996264)"/>
      </g>
     </g>
    </g>
    <g id="ytick_5">
     <g id="line2d_11">
      <g>
       <use xlink:href="#me0a70af018" x="57.6" y="41.472" style="stroke: #000000; stroke-width: 0.8"/>
      </g>
     </g>
     <g id="text_12">
      <!-- \(\pi\) -->
      <g transform="translate(44.921025 44.931249) scale(0.1 -0.1)">
       <use xlink:href="#CMMI12-19" transform="scale(0.996264)"/>
      </g>
     </g>
    </g>
    <g id="text_13">
     <!-- \(\phi (\unit{\radian})\) -->
     <g transform="translate(20.361511 188.579509) rotate(-90) scale(0.1 -0.1)">
      <defs>
       <path id="CMMI12-1e" d="M 2752 4390 
C 2752 4448 2707 4448 2688 4448 
C 2630 4448 2624 4435 2598 4326 
L 2253 2939 
C 2234 2856 2227 2849 2221 2843 
C 2214 2830 2170 2824 2157 2824 
C 1107 2734 301 1864 301 1057 
C 301 361 832 -64 1498 -64 
C 1446 -261 1402 -463 1350 -659 
C 1261 -995 1210 -1204 1210 -1229 
C 1210 -1241 1210 -1280 1274 -1280 
C 1293 -1280 1318 -1280 1331 -1254 
C 1344 -1241 1382 -1089 1408 -1008 
L 1645 -64 
C 2739 -64 3571 854 3571 1680 
C 3571 2343 3085 2816 2374 2816 
L 2752 4390 
z
M 2336 2701 
C 2758 2701 3181 2463 3181 1828 
C 3181 1097 2675 128 1677 50 
L 2336 2701 
z
M 1530 50 
C 1216 50 691 220 691 938 
C 691 1761 1274 2676 2195 2676 
L 1530 50 
z
" transform="scale(0.015625)"/>
       <path id="CMR17-72" d="M 960 1497 
C 960 2112 1222 2688 1702 2688 
C 1747 2688 1792 2682 1837 2662 
C 1837 2662 1696 2617 1696 2452 
C 1696 2298 1818 2234 1914 2234 
C 1990 2234 2131 2279 2131 2458 
C 2131 2663 1926 2790 1709 2790 
C 1222 2790 1011 2317 947 2093 
L 941 2093 
L 941 2790 
L 198 2720 
L 198 2554 
C 576 2554 634 2515 634 2208 
L 634 428 
C 634 184 608 153 198 153 
L 198 -13 
C 352 0 646 0 813 0 
C 998 0 1325 0 1498 -13 
L 1498 153 
C 1037 153 960 153 960 440 
L 960 1497 
z
" transform="scale(0.015625)"/>
       <path id="CMR17-61" d="M 2304 1653 
C 2304 2072 2304 2294 2035 2543 
C 1798 2752 1523 2816 1306 2816 
C 800 2816 435 2407 435 1971 
C 435 1728 627 1728 666 1728 
C 749 1728 896 1778 896 1954 
C 896 2112 774 2181 666 2181 
C 640 2181 608 2174 589 2168 
C 723 2592 1069 2714 1293 2714 
C 1613 2714 1965 2429 1965 1885 
L 1965 1600 
C 1587 1600 1133 1549 774 1357 
C 371 1133 256 813 256 570 
C 256 77 832 -64 1171 -64 
C 1523 -64 1850 139 1990 511 
C 2003 233 2182 -18 2464 -18 
C 2598 -18 2938 70 2938 567 
L 2938 920 
L 2822 920 
L 2822 562 
C 2822 178 2650 128 2566 128 
C 2304 128 2304 458 2304 738 
L 2304 1653 
z
M 1965 870 
C 1965 317 1568 38 1216 38 
C 896 38 646 275 646 570 
C 646 761 730 1100 1101 1305 
C 1408 1478 1760 1504 1965 1504 
L 1965 870 
z
" transform="scale(0.015625)"/>
       <path id="CMR17-64" d="M 1869 4326 
L 1869 4160 
C 2246 4160 2304 4122 2304 3820 
L 2304 2345 
C 2278 2377 2016 2790 1498 2790 
C 845 2790 211 2208 211 1364 
C 211 525 806 -64 1434 -64 
C 1978 -64 2259 337 2291 380 
L 2291 -63 
L 3066 -63 
L 3066 128 
C 2688 128 2630 166 2630 473 
L 2630 4396 
L 1869 4326 
z
M 2291 755 
C 2291 563 2176 390 2029 262 
C 1811 70 1594 38 1472 38 
C 1286 38 621 134 621 1356 
C 621 2612 1363 2688 1530 2688 
C 1824 2688 2061 2522 2208 2291 
C 2291 2157 2291 2138 2291 2023 
L 2291 755 
z
" transform="scale(0.015625)"/>
      </defs>
      <use xlink:href="#CMMI12-1e" transform="scale(0.996264)"/>
      <use xlink:href="#CMR17-28" transform="translate(57.73418 0) scale(0.996264)"/>
      <use xlink:href="#CMR17-72" transform="translate(93.014948 0) scale(0.996264)"/>
      <use xlink:href="#CMR17-61" transform="translate(128.295716 0) scale(0.996264)"/>
      <use xlink:href="#CMR17-64" transform="translate(173.986193 0) scale(0.996264)"/>
      <use xlink:href="#CMR17-29" transform="translate(224.881563 0) scale(0.996264)"/>
     </g>
    </g>
   </g>
   <g id="line2d_12">
    <path d="M 73.832727 183.930654 
L 93.137469 184.905599 
L 109.310323 185.938803 
L 123.017013 187.031438 
L 134.755179 188.184783 
L 144.899522 189.399781 
L 153.749787 190.678954 
L 161.53088 192.023738 
L 168.430865 193.437761 
L 174.592663 194.923589 
L 180.140885 196.486706 
L 185.172798 198.132312 
L 189.768473 199.866357 
L 194.000708 201.698472 
L 197.928836 203.639233 
L 201.605304 205.70217 
L 205.075782 207.903457 
L 208.385612 210.265923 
L 211.573504 212.815051 
L 214.681102 215.58599 
L 217.752981 218.625141 
L 220.846108 222.001451 
L 224.042378 225.824852 
L 227.492495 230.30787 
L 231.695105 236.157345 
L 235.454094 241.316583 
L 235.959231 241.697079 
L 236.156863 241.622254 
L 236.297553 241.285933 
L 236.422313 240.308165 
L 236.518285 237.442118 
L 236.579067 226.892668 
L 236.620656 149.186563 
L 236.748623 114.643618 
L 236.93418 112.638895 
L 237.14534 112.280276 
L 237.362906 112.305166 
L 237.746869 112.627084 
L 238.630086 113.721844 
L 241.575185 117.859115 
L 246.287472 124.338162 
L 249.813955 128.80946 
L 253.066763 132.580489 
L 256.212355 135.890924 
L 259.337283 138.859453 
L 262.496153 141.555248 
L 265.737268 144.029598 
L 269.099392 146.316546 
L 272.624612 148.444706 
L 276.351914 150.433851 
L 280.326859 152.301438 
L 284.601624 154.061963 
L 289.231824 155.725673 
L 294.283022 157.30128 
L 299.830815 158.795506 
L 305.967429 160.214391 
L 312.801888 161.562465 
L 320.46673 162.843454 
L 329.124844 164.06044 
L 338.976467 165.215748 
L 350.272923 166.311366 
L 363.330769 167.348817 
L 378.556328 168.329465 
L 396.474495 169.254382 
L 398.487273 169.346009 
L 398.487273 169.346009 
" clip-path="url(#pe58289433b)" style="fill: none; stroke: #1f77b4; stroke-width: 1.5; stroke-linecap: square"/>
   </g>
   <g id="line2d_13">
    <path d="M 73.832727 183.96818 
L 92.820743 184.942364 
L 108.704355 185.973664 
L 122.137987 187.062824 
L 133.61185 188.210643 
L 143.496827 189.417692 
L 152.085788 190.685503 
L 159.606655 192.01581 
L 166.237612 193.410228 
L 172.121501 194.870656 
L 177.379668 196.401126 
L 182.106154 198.004984 
L 186.381034 199.687278 
L 190.27073 201.454172 
L 193.831437 203.313521 
L 197.10929 205.274123 
L 200.143689 207.346703 
L 202.967386 209.543385 
L 205.612914 211.882718 
L 208.099918 214.378532 
L 210.451098 217.053331 
L 212.685869 219.933955 
L 214.814057 223.041993 
L 216.848601 226.409715 
L 218.796063 230.066776 
L 220.662972 234.049783 
L 222.45583 238.404882 
L 224.174804 243.172436 
L 225.823208 248.409483 
L 227.404336 254.184416 
L 228.93091 260.617488 
L 230.418759 267.871475 
L 231.899382 276.224835 
L 233.441883 286.24554 
L 235.240712 299.490467 
L 236.271961 307.577649 
M 236.27516 41.490985 
L 239.478239 65.975324 
L 241.162135 77.04117 
L 242.724849 85.873224 
L 244.275199 93.387243 
L 245.858039 99.977269 
L 247.49263 105.846019 
L 249.191845 111.130892 
L 250.962159 115.920846 
L 252.806851 120.279008 
L 254.729206 124.256652 
L 256.732517 127.895673 
L 258.820085 131.230891 
L 261.001647 134.300362 
L 263.286962 137.134211 
L 265.689023 139.760073 
L 268.224074 142.202653 
L 270.911617 144.483544 
L 273.777645 146.623455 
L 276.844998 148.635018 
L 280.149488 150.534411 
L 283.727041 152.331995 
L 287.620173 154.03673 
L 291.881263 155.65698 
L 296.572624 157.199653 
L 301.76335 158.668962 
L 307.54236 160.0699 
L 314.012098 161.40543 
L 321.30171 162.678745 
L 329.564128 163.891556 
L 338.992765 165.04578 
L 349.825455 166.142548 
L 362.36501 167.183026 
L 377.000382 168.168308 
L 394.228686 169.098985 
L 398.487273 169.299187 
L 398.487273 169.299187 
" clip-path="url(#pe58289433b)" style="fill: none; stroke: #ff7f0e; stroke-width: 1.5; stroke-linecap: square"/>
   </g>
   <g id="line2d_14">
    <path d="M 73.832727 183.784543 
L 94.487245 184.764059 
L 111.940993 185.808585 
L 126.91106 186.921919 
L 139.950475 188.109887 
L 151.500508 189.381365 
L 161.942083 190.751348 
L 171.660488 192.248965 
L 181.213637 193.947412 
L 192.786798 196.249651 
L 202.757396 198.170229 
L 207.322019 198.824507 
L 210.720651 199.095174 
L 213.4905 199.099109 
L 215.858445 198.885015 
L 217.948989 198.476458 
L 219.845 197.88177 
L 221.603762 197.098255 
L 223.272894 196.110576 
L 224.887258 194.894634 
L 226.481616 193.411225 
L 228.09063 191.604 
L 229.755163 189.391058 
L 231.537957 186.639114 
L 233.580062 183.058323 
L 236.447905 177.527201 
L 240.5026 169.763954 
L 242.603146 166.23973 
L 244.435385 163.586658 
L 246.149665 161.485706 
L 247.813196 159.791925 
L 249.46441 158.42301 
L 251.141789 157.318372 
L 252.877443 156.440403 
L 254.713157 155.761902 
L 256.690774 155.270234 
L 258.871481 154.960791 
L 261.335867 154.84061 
L 264.209716 154.929771 
L 267.70603 155.269762 
L 272.280038 155.951303 
L 279.511001 157.281835 
L 296.964022 160.537493 
L 306.822891 162.111982 
L 316.933275 163.498893 
L 327.829975 164.765803 
L 339.889244 165.939834 
L 353.478118 167.034605 
L 369.023985 168.058653 
L 387.049492 169.017384 
L 398.487273 169.527994 
L 398.487273 169.527994 
" clip-path="url(#pe58289433b)" style="fill: none; stroke: #2ca02c; stroke-width: 1.5; stroke-linecap: square"/>
   </g>
   <g id="line2d_15">
    <path d="M 73.832727 182.954271 
L 97.760147 183.867289 
L 117.533369 184.837647 
L 134.083664 185.866212 
L 148.096493 186.953984 
L 160.086239 188.102238 
L 170.441432 189.312143 
L 179.466149 190.585619 
L 187.396498 191.924704 
L 194.422235 193.332403 
L 200.691503 194.811424 
L 206.331017 196.366853 
L 211.440365 198.003623 
L 216.102068 199.727625 
L 220.388241 201.547226 
L 224.36082 203.473054 
L 228.074892 205.519168 
L 231.57253 207.698814 
L 234.898632 210.033069 
L 238.092459 212.546468 
L 241.190951 215.26894 
L 244.230348 218.237236 
L 247.252218 221.501862 
L 250.295016 225.119876 
L 253.38124 229.138654 
L 256.417845 233.457673 
L 258.967851 237.455238 
L 260.632102 240.449851 
L 261.647609 242.716011 
L 262.306505 244.725342 
L 262.769387 246.870446 
L 263.110145 249.556084 
L 263.37055 253.503246 
L 263.573095 260.346944 
L 263.730636 274.361344 
L 263.865674 306.743145 
M 263.86889 41.672405 
L 264.129331 90.662356 
L 264.383353 100.531595 
L 264.704918 105.062874 
L 265.113332 107.832904 
L 265.647211 109.957738 
L 266.377359 111.939074 
L 267.435766 114.14081 
L 269.04468 116.943268 
L 271.426747 120.624674 
L 274.399353 124.808773 
L 277.518629 128.82117 
L 280.613889 132.445064 
L 283.685091 135.701859 
L 286.767708 138.649169 
L 289.903755 141.341257 
L 293.128882 143.817213 
L 296.478822 146.108593 
L 299.992643 148.242044 
L 303.712761 150.239215 
L 307.678487 152.114154 
L 311.942249 153.881886 
L 316.559927 155.552998 
L 321.594146 157.135467 
L 327.124107 158.63734 
L 333.235958 160.063257 
L 340.042475 161.418911 
L 347.670275 162.707124 
L 356.279693 163.931055 
L 366.068548 165.093202 
L 377.282652 166.195462 
L 390.233253 167.239472 
L 398.487273 167.80561 
L 398.487273 167.80561 
" clip-path="url(#pe58289433b)" style="fill: none; stroke: #d62728; stroke-width: 1.5; stroke-linecap: square"/>
   </g>
   <g id="patch_3">
    <path d="M 57.6 307.584 
L 57.6 41.472 
" style="fill: none; stroke: #000000; stroke-width: 0.8; stroke-linejoin: miter; stroke-linecap: square"/>
   </g>
   <g id="patch_4">
    <path d="M 414.72 307.584 
L 414.72 41.472 
" style="fill: none; stroke: #000000; stroke-width: 0.8; stroke-linejoin: miter; stroke-linecap: square"/>
   </g>
   <g id="patch_5">
    <path d="M 57.6 307.584 
L 414.72 307.584 
" style="fill: none; stroke: #000000; stroke-width: 0.8; stroke-linejoin: miter; stroke-linecap: square"/>
   </g>
   <g id="patch_6">
    <path d="M 57.6 41.472 
L 414.72 41.472 
" style="fill: none; stroke: #000000; stroke-width: 0.8; stroke-linejoin: miter; stroke-linecap: square"/>
   </g>
   <g id="legend_1">
    <g id="patch_7">
     <path d="M 64.6 109.32256 
L 212.246222 109.32256 
Q 214.246222 109.32256 214.246222 107.32256 
L 214.246222 48.472 
Q 214.246222 46.472 212.246222 46.472 
L 64.6 46.472 
Q 62.6 46.472 62.6 48.472 
L 62.6 107.32256 
Q 62.6 109.32256 64.6 109.32256 
z
" style="fill: #ffffff; opacity: 0.8; stroke: #cccccc; stroke-linejoin: miter"/>
    </g>
    <g id="line2d_16">
     <path d="M 66.6 54.44398 
L 76.6 54.44398 
L 86.6 54.44398 
" style="fill: none; stroke: #1f77b4; stroke-width: 1.5; stroke-linecap: square"/>
    </g>
    <g id="text_14">
     <!-- \(Z (R = 50\unit{\kilo\ohm}\text{, }L = L_0)\) -->
     <g transform="translate(94.6 57.94398) scale(0.1 -0.1)">
      <defs>
       <path id="CMMI12-5a" d="M 4480 4154 
C 4518 4199 4550 4237 4550 4301 
C 4550 4346 4544 4352 4397 4352 
L 1754 4352 
C 1606 4352 1600 4346 1562 4231 
L 1210 3084 
C 1190 3020 1190 3007 1190 2995 
C 1190 2969 1210 2931 1254 2931 
C 1306 2931 1318 2956 1344 3039 
C 1581 3727 1894 4167 2906 4167 
L 3955 4167 
L 448 216 
C 390 147 365 121 365 51 
C 365 0 397 0 518 0 
L 3251 0 
C 3398 0 3405 6 3443 121 
L 3891 1529 
C 3898 1548 3910 1593 3910 1618 
C 3910 1650 3885 1682 3846 1682 
C 3795 1682 3789 1676 3738 1516 
C 3469 695 3187 198 2074 198 
L 966 198 
L 4480 4154 
z
" transform="scale(0.015625)"/>
       <path id="CMMI12-52" d="M 2355 3924 
C 2413 4160 2438 4160 2688 4160 
L 3149 4160 
C 3699 4160 4109 3995 4109 3499 
C 4109 3175 3942 2240 2656 2240 
L 1933 2240 
L 2355 3924 
z
M 3245 2169 
C 4038 2341 4659 2851 4659 3398 
C 4659 3894 4154 4352 3264 4352 
L 1530 4352 
C 1402 4352 1344 4352 1344 4226 
C 1344 4160 1389 4160 1510 4160 
C 1894 4160 1894 4112 1894 4045 
C 1894 4033 1894 3994 1869 3899 
L 1005 479 
C 947 256 934 192 493 192 
C 346 192 301 192 301 71 
C 301 7 371 7 390 7 
C 506 7 640 7 762 7 
L 1517 7 
C 1632 7 1766 7 1882 7 
C 1933 7 2003 7 2003 128 
C 2003 192 1946 192 1850 192 
C 1459 192 1459 243 1459 306 
C 1459 313 1459 357 1472 407 
L 1901 2112 
L 2669 2112 
C 3277 2112 3392 1731 3392 1522 
C 3392 1427 3328 1179 3283 1014 
C 3213 723 3194 652 3194 532 
C 3194 82 3565 -128 3994 -128 
C 4512 -128 4736 501 4736 591 
C 4736 635 4704 654 4666 654 
C 4614 654 4602 616 4589 565 
C 4435 114 4173 0 4013 0 
C 3853 0 3750 70 3750 356 
C 3750 509 3827 1088 3834 1120 
C 3866 1355 3866 1380 3866 1432 
C 3866 1896 3488 2093 3245 2169 
z
" transform="scale(0.015625)"/>
       <path id="CMR17-3d" d="M 4115 2017 
C 4211 2017 4307 2017 4307 2125 
C 4307 2240 4198 2240 4090 2240 
L 512 2240 
C 403 2240 294 2240 294 2125 
C 294 2017 390 2017 486 2017 
L 4115 2017 
z
M 4090 896 
C 4198 896 4307 896 4307 1011 
C 4307 1119 4211 1119 4115 1119 
L 486 1119 
C 390 1119 294 1119 294 1011 
C 294 896 403 896 512 896 
L 4090 896 
z
" transform="scale(0.015625)"/>
       <path id="CMR17-35" d="M 730 3692 
C 794 3666 1056 3584 1325 3584 
C 1920 3584 2246 3911 2432 4100 
C 2432 4157 2432 4192 2394 4192 
C 2387 4192 2374 4192 2323 4163 
C 2099 4058 1837 3973 1517 3973 
C 1325 3973 1037 3999 723 4139 
C 653 4171 640 4171 634 4171 
C 602 4171 595 4164 595 4037 
L 595 2203 
C 595 2089 595 2057 659 2057 
C 691 2057 704 2070 736 2114 
C 941 2401 1222 2522 1542 2522 
C 1766 2522 2246 2382 2246 1289 
C 2246 1085 2246 715 2054 421 
C 1894 159 1645 25 1370 25 
C 947 25 518 320 403 814 
C 429 807 480 795 506 795 
C 589 795 749 840 749 1038 
C 749 1210 627 1280 506 1280 
C 358 1280 262 1190 262 1011 
C 262 454 704 -128 1382 -128 
C 2042 -128 2669 440 2669 1264 
C 2669 2030 2170 2624 1549 2624 
C 1222 2624 947 2503 730 2274 
L 730 3692 
z
" transform="scale(0.015625)"/>
       <path id="CMR17-a" d="M 4038 935 
L 3923 935 
C 3866 641 3846 563 3814 461 
C 3782 365 3763 314 3392 314 
L 2874 314 
C 2944 686 3098 961 3366 1391 
C 3699 1935 3974 2377 3974 2910 
C 3974 3775 3155 4480 2138 4480 
C 1094 4480 294 3768 294 2910 
C 294 2377 576 1922 890 1416 
C 1171 961 1325 686 1395 314 
L 877 314 
C 512 314 493 365 461 454 
C 422 557 410 641 346 935 
L 230 935 
L 416 0 
L 1382 0 
C 1517 0 1523 6 1523 102 
C 1523 558 1286 1154 1178 1429 
C 973 1929 781 2416 781 2916 
C 781 3871 1466 4377 2131 4377 
C 2829 4377 3488 3851 3488 2916 
C 3488 2422 3315 1981 3078 1397 
C 2976 1135 2746 551 2746 102 
C 2746 0 2752 0 2886 0 
L 3853 0 
L 4038 935 
z
" transform="scale(0.015625)"/>
       <path id="CMR17-2c" d="M 1011 102 
C 1024 45 1024 25 1024 -77 
C 1024 -463 896 -817 627 -1139 
C 595 -1170 595 -1183 595 -1197 
C 595 -1222 621 -1248 646 -1248 
C 685 -1248 1126 -799 1126 -87 
C 1126 124 1101 522 800 522 
C 659 522 538 427 538 261 
C 538 96 659 0 800 0 
C 877 0 960 32 1011 102 
z
" transform="scale(0.015625)"/>
       <path id="CMMI12-4c" d="M 2349 3861 
C 2406 4103 2426 4167 2989 4167 
C 3162 4167 3206 4167 3206 4288 
C 3206 4352 3136 4352 3110 4352 
C 2982 4352 2835 4352 2707 4352 
L 1850 4352 
C 1728 4352 1587 4352 1466 4352 
C 1414 4352 1344 4352 1344 4231 
C 1344 4167 1402 4167 1498 4167 
C 1888 4167 1888 4116 1888 4046 
C 1888 4034 1888 3995 1862 3899 
L 998 472 
C 941 249 928 185 480 185 
C 358 185 294 185 294 70 
C 294 0 333 0 461 0 
L 3328 0 
C 3469 0 3475 6 3520 121 
L 4013 1478 
C 4026 1510 4038 1548 4038 1567 
C 4038 1605 4006 1631 3974 1631 
C 3968 1631 3936 1631 3923 1605 
C 3910 1599 3910 1586 3859 1465 
C 3654 905 3366 185 2285 185 
L 1670 185 
C 1581 185 1568 185 1530 192 
C 1459 198 1453 211 1453 262 
C 1453 307 1466 345 1478 401 
L 2349 3861 
z
" transform="scale(0.015625)"/>
      </defs>
      <use xlink:href="#CMMI12-5a" transform="scale(0.996264)"/>
      <use xlink:href="#CMR17-28" transform="translate(73.923592 0) scale(0.996264)"/>
      <use xlink:href="#CMMI12-52" transform="translate(109.20436 0) scale(0.996264)"/>
      <use xlink:href="#CMR17-3d" transform="translate(211.949331 0) scale(0.996264)"/>
      <use xlink:href="#CMR17-35" transform="translate(311.338128 0) scale(0.996264)"/>
      <use xlink:href="#CMR17-30" transform="translate(357.028605 0) scale(0.996264)"/>
      <use xlink:href="#CMR17-6b" transform="translate(402.719082 0) scale(0.996264)"/>
      <use xlink:href="#CMR17-a" transform="translate(451.011998 0) scale(0.996264)"/>
      <use xlink:href="#CMR17-2c" transform="translate(517.521878 0) scale(0.996264)"/>
      <use xlink:href="#CMMI12-4c" transform="translate(572.468903 0) scale(0.996264)"/>
      <use xlink:href="#CMR17-3d" transform="translate(666.513787 0) scale(0.996264)"/>
      <use xlink:href="#CMMI12-4c" transform="translate(765.902585 0) scale(0.996264)"/>
      <use xlink:href="#CMR17-30" transform="translate(832.27346 -14.943915) scale(0.697382)"/>
      <use xlink:href="#CMR17-29" transform="translate(864.754774 0) scale(0.996264)"/>
     </g>
    </g>
    <g id="line2d_17">
     <path d="M 66.6 69.40662 
L 76.6 69.40662 
L 86.6 69.40662 
" style="fill: none; stroke: #ff7f0e; stroke-width: 1.5; stroke-linecap: square"/>
    </g>
    <g id="text_15">
     <!-- \(Z_{\text{over}} (R = 100\unit{\kilo\ohm}\text{, }L = L_0)\) -->
     <g transform="translate(94.6 72.90662) scale(0.1 -0.1)">
      <defs>
       <path id="CMR17-6f" d="M 2758 1356 
C 2758 2176 2163 2816 1466 2816 
C 768 2816 173 2176 173 1356 
C 173 551 768 -64 1466 -64 
C 2163 -64 2758 551 2758 1356 
z
M 1466 51 
C 1165 51 909 230 762 480 
C 602 767 582 1126 582 1408 
C 582 1677 595 2010 762 2298 
C 890 2509 1139 2714 1466 2714 
C 1754 2714 1997 2554 2150 2330 
C 2349 2029 2349 1607 2349 1408 
C 2349 1158 2336 775 2163 467 
C 1984 173 1709 51 1466 51 
z
" transform="scale(0.015625)"/>
       <path id="CMR17-76" d="M 2502 2163 
C 2560 2304 2662 2560 3034 2560 
L 3034 2726 
C 2912 2726 2752 2726 2630 2726 
C 2496 2726 2285 2726 2157 2732 
L 2157 2566 
C 2317 2553 2406 2477 2406 2311 
C 2406 2253 2406 2240 2368 2151 
L 1664 377 
L 902 2286 
C 864 2369 864 2381 864 2407 
C 864 2560 1075 2560 1171 2560 
L 1171 2732 
C 1018 2726 736 2726 576 2726 
C 403 2726 205 2726 64 2732 
L 64 2560 
C 307 2560 442 2560 518 2362 
L 1446 44 
C 1485 -51 1491 -64 1549 -64 
C 1606 -64 1613 -51 1651 44 
L 2502 2163 
z
" transform="scale(0.015625)"/>
       <path id="CMR17-65" d="M 2438 1472 
C 2464 1498 2464 1511 2464 1576 
C 2464 2238 2118 2816 1389 2816 
C 710 2816 173 2169 173 1383 
C 173 551 781 -64 1459 -64 
C 2176 -64 2458 607 2458 740 
C 2458 784 2419 784 2406 784 
C 2362 784 2355 771 2330 696 
C 2189 265 1837 51 1504 51 
C 1229 51 954 203 781 480 
C 582 803 582 1176 582 1472 
L 2438 1472 
z
M 589 1568 
C 634 2505 1126 2714 1382 2714 
C 1818 2714 2112 2297 2118 1568 
L 589 1568 
z
" transform="scale(0.015625)"/>
      </defs>
      <use xlink:href="#CMMI12-5a" transform="scale(0.996264)"/>
      <use xlink:href="#CMR17-6f" transform="translate(66.768782 -14.943915) scale(0.697382)"/>
      <use xlink:href="#CMR17-76" transform="translate(96.930243 -14.943915) scale(0.697382)"/>
      <use xlink:href="#CMR17-65" transform="translate(128.91341 -14.943915) scale(0.697382)"/>
      <use xlink:href="#CMR17-72" transform="translate(157.253242 -14.943915) scale(0.697382)"/>
      <use xlink:href="#CMR17-28" transform="translate(182.447794 0) scale(0.996264)"/>
      <use xlink:href="#CMMI12-52" transform="translate(217.728562 0) scale(0.996264)"/>
      <use xlink:href="#CMR17-3d" transform="translate(320.473532 0) scale(0.996264)"/>
      <use xlink:href="#CMR17-31" transform="translate(419.86233 0) scale(0.996264)"/>
      <use xlink:href="#CMR17-30" transform="translate(465.552807 0) scale(0.996264)"/>
      <use xlink:href="#CMR17-30" transform="translate(511.243284 0) scale(0.996264)"/>
      <use xlink:href="#CMR17-6b" transform="translate(556.933761 0) scale(0.996264)"/>
      <use xlink:href="#CMR17-a" transform="translate(605.226677 0) scale(0.996264)"/>
      <use xlink:href="#CMR17-2c" transform="translate(671.736557 0) scale(0.996264)"/>
      <use xlink:href="#CMMI12-4c" transform="translate(726.683582 0) scale(0.996264)"/>
      <use xlink:href="#CMR17-3d" transform="translate(820.728466 0) scale(0.996264)"/>
      <use xlink:href="#CMMI12-4c" transform="translate(920.117264 0) scale(0.996264)"/>
      <use xlink:href="#CMR17-30" transform="translate(986.488139 -14.943915) scale(0.697382)"/>
      <use xlink:href="#CMR17-29" transform="translate(1018.969453 0) scale(0.996264)"/>
     </g>
    </g>
    <g id="line2d_18">
     <path d="M 66.6 84.36926 
L 76.6 84.36926 
L 86.6 84.36926 
" style="fill: none; stroke: #2ca02c; stroke-width: 1.5; stroke-linecap: square"/>
    </g>
    <g id="text_16">
     <!-- \(Z_{\text{under}} (R = 25\unit{\kilo\ohm}\text{, }L = L_0)\) -->
     <g transform="translate(94.6 87.86926) scale(0.1 -0.1)">
      <defs>
       <path id="CMR17-75" d="M 1882 2693 
L 1882 2528 
C 2259 2528 2317 2489 2317 2186 
L 2317 1032 
C 2317 500 2029 38 1555 38 
C 1030 38 986 348 986 678 
L 986 2763 
L 211 2693 
L 211 2528 
C 467 2528 640 2528 646 2274 
L 646 1058 
C 646 633 646 361 813 183 
C 896 101 1056 -64 1517 -64 
C 2061 -64 2272 377 2323 506 
L 2330 506 
L 2330 -63 
L 3091 -63 
L 3091 128 
C 2714 128 2656 166 2656 473 
L 2656 2763 
L 1882 2693 
z
" transform="scale(0.015625)"/>
       <path id="CMR17-6e" d="M 2656 1933 
C 2656 2259 2592 2790 1837 2790 
C 1331 2790 1069 2400 973 2144 
L 966 2144 
L 966 2790 
L 211 2720 
L 211 2554 
C 589 2554 646 2515 646 2208 
L 646 428 
C 646 184 621 153 211 153 
L 211 -13 
C 365 0 646 0 813 0 
C 979 0 1267 0 1421 -13 
L 1421 153 
C 1011 153 986 178 986 428 
L 986 1658 
C 986 2247 1344 2688 1792 2688 
C 2266 2688 2317 2266 2317 1958 
L 2317 428 
C 2317 184 2291 153 1882 153 
L 1882 -13 
C 2035 0 2317 0 2483 0 
C 2650 0 2938 0 3091 -13 
L 3091 153 
C 2682 153 2656 178 2656 428 
L 2656 1933 
z
" transform="scale(0.015625)"/>
      </defs>
      <use xlink:href="#CMMI12-5a" transform="scale(0.996264)"/>
      <use xlink:href="#CMR17-75" transform="translate(66.768782 -14.943915) scale(0.697382)"/>
      <use xlink:href="#CMR17-6e" transform="translate(102.39539 -14.943915) scale(0.697382)"/>
      <use xlink:href="#CMR17-64" transform="translate(138.021999 -14.943915) scale(0.697382)"/>
      <use xlink:href="#CMR17-65" transform="translate(173.648607 -14.943915) scale(0.697382)"/>
      <use xlink:href="#CMR17-72" transform="translate(201.988439 -14.943915) scale(0.697382)"/>
      <use xlink:href="#CMR17-28" transform="translate(227.182991 0) scale(0.996264)"/>
      <use xlink:href="#CMMI12-52" transform="translate(262.463759 0) scale(0.996264)"/>
      <use xlink:href="#CMR17-3d" transform="translate(365.20873 0) scale(0.996264)"/>
      <use xlink:href="#CMR17-32" transform="translate(464.597527 0) scale(0.996264)"/>
      <use xlink:href="#CMR17-35" transform="translate(510.288004 0) scale(0.996264)"/>
      <use xlink:href="#CMR17-6b" transform="translate(555.978481 0) scale(0.996264)"/>
      <use xlink:href="#CMR17-a" transform="translate(604.271397 0) scale(0.996264)"/>
      <use xlink:href="#CMR17-2c" transform="translate(670.781277 0) scale(0.996264)"/>
      <use xlink:href="#CMMI12-4c" transform="translate(725.728302 0) scale(0.996264)"/>
      <use xlink:href="#CMR17-3d" transform="translate(819.773186 0) scale(0.996264)"/>
      <use xlink:href="#CMMI12-4c" transform="translate(919.161984 0) scale(0.996264)"/>
      <use xlink:href="#CMR17-30" transform="translate(985.532859 -14.943915) scale(0.697382)"/>
      <use xlink:href="#CMR17-29" transform="translate(1018.014173 0) scale(0.996264)"/>
     </g>
    </g>
    <g id="line2d_19">
     <path d="M 66.6 99.3319 
L 76.6 99.3319 
L 86.6 99.3319 
" style="fill: none; stroke: #d62728; stroke-width: 1.5; stroke-linecap: square"/>
    </g>
    <g id="text_17">
     <!-- \(Z_{\lambda} (R = 50\unit{\kilo\ohm}\text{, }L = \lambda L_0)\) -->
     <g transform="translate(94.6 102.8319) scale(0.1 -0.1)">
      <defs>
       <path id="CMMI12-15" d="M 1978 3965 
C 1818 4416 1312 4416 1229 4416 
C 1190 4416 1120 4416 1120 4352 
C 1120 4302 1158 4295 1190 4289 
C 1286 4276 1363 4263 1466 4080 
C 1530 3959 2189 2059 2189 2046 
C 2189 2040 2182 2033 2131 1982 
L 467 311 
C 390 234 339 183 339 102 
C 339 12 416 -64 518 -64 
C 544 -64 614 -51 653 -13 
C 755 82 1670 1194 2253 1881 
C 2419 1383 2624 797 2822 261 
C 2854 166 2886 76 2976 -6 
C 3040 -64 3053 -64 3232 -64 
L 3354 -64 
C 3379 -64 3424 -64 3424 -13 
C 3424 13 3418 19 3392 45 
C 3334 115 3290 229 3264 306 
L 1978 3965 
z
" transform="scale(0.015625)"/>
      </defs>
      <use xlink:href="#CMMI12-5a" transform="scale(0.996264)"/>
      <use xlink:href="#CMMI12-15" transform="translate(66.768782 -14.943915) scale(0.697382)"/>
      <use xlink:href="#CMR17-28" transform="translate(107.099582 0) scale(0.996264)"/>
      <use xlink:href="#CMMI12-52" transform="translate(142.38035 0) scale(0.996264)"/>
      <use xlink:href="#CMR17-3d" transform="translate(245.12532 0) scale(0.996264)"/>
      <use xlink:href="#CMR17-35" transform="translate(344.514118 0) scale(0.996264)"/>
      <use xlink:href="#CMR17-30" transform="translate(390.204595 0) scale(0.996264)"/>
      <use xlink:href="#CMR17-6b" transform="translate(435.895072 0) scale(0.996264)"/>
      <use xlink:href="#CMR17-a" transform="translate(484.187988 0) scale(0.996264)"/>
      <use xlink:href="#CMR17-2c" transform="translate(550.697868 0) scale(0.996264)"/>
      <use xlink:href="#CMMI12-4c" transform="translate(605.644893 0) scale(0.996264)"/>
      <use xlink:href="#CMR17-3d" transform="translate(699.689777 0) scale(0.996264)"/>
      <use xlink:href="#CMMI12-15" transform="translate(799.078574 0) scale(0.996264)"/>
      <use xlink:href="#CMMI12-4c" transform="translate(855.982646 0) scale(0.996264)"/>
      <use xlink:href="#CMR17-30" transform="translate(922.353522 -14.943915) scale(0.697382)"/>
      <use xlink:href="#CMR17-29" transform="translate(954.834836 0) scale(0.996264)"/>
     </g>
    </g>
   </g>
  </g>
 </g>
 <defs>
  <clipPath id="pe58289433b">
   <rect x="57.6" y="41.472" width="357.12" height="266.112"/>
  </clipPath>
 </defs>
</svg>
