<?xml version="1.0" encoding="utf-8" standalone="no"?>
<!DOCTYPE svg PUBLIC "-//W3C//DTD SVG 1.1//EN"
  "http://www.w3.org/Graphics/SVG/1.1/DTD/svg11.dtd">
<svg xmlns:xlink="http://www.w3.org/1999/xlink" width="921.6pt" height="365.76pt" viewBox="0 0 921.6 365.76" xmlns="http://www.w3.org/2000/svg" version="1.1">
 <metadata>
  <rdf:RDF xmlns:dc="http://purl.org/dc/elements/1.1/" xmlns:cc="http://creativecommons.org/ns#" xmlns:rdf="http://www.w3.org/1999/02/22-rdf-syntax-ns#">
   <cc:Work>
    <dc:type rdf:resource="http://purl.org/dc/dcmitype/StillImage"/>
    <dc:date>2024-09-09T23:58:53.732048</dc:date>
    <dc:format>image/svg+xml</dc:format>
    <dc:creator>
     <cc:Agent>
      <dc:title>Matplotlib v3.9.0, https://matplotlib.org/</dc:title>
     </cc:Agent>
    </dc:creator>
   </cc:Work>
  </rdf:RDF>
 </metadata>
 <defs>
  <style type="text/css">*{stroke-linejoin: round; stroke-linecap: butt}</style>
 </defs>
 <g id="figure_1">
  <g id="patch_1">
   <path d="M 0 365.76 
L 921.6 365.76 
L 921.6 0 
L 0 0 
z
" style="fill: #ffffff"/>
  </g>
  <g id="axes_1">
   <g id="patch_2">
    <path d="M 45.1584 295.16832 
L 330.8544 295.16832 
L 330.8544 16.09344 
L 45.1584 16.09344 
z
" style="fill: #ffffff"/>
   </g>
   <g id="line2d_1">
    <path d="M 58.144582 295.16832 
L 58.144582 16.09344 
" clip-path="url(#p0fd002a3e7)" style="fill: none; stroke-dasharray: 1.5,2.475; stroke-dashoffset: 0; stroke: #000000; stroke-width: 1.5"/>
   </g>
   <g id="matplotlib.axis_1">
    <g id="xtick_1">
     <g id="line2d_2">
      <defs>
       <path id="md8c2b9c907" d="M 0 0 
L 0 3.5 
" style="stroke: #000000; stroke-width: 0.8"/>
      </defs>
      <g>
       <use xlink:href="#md8c2b9c907" x="87.002764" y="295.16832" style="stroke: #000000; stroke-width: 0.8"/>
      </g>
     </g>
     <g id="text_1">
      <!-- $\mathdefault{0.2}$ -->
      <g transform="translate(80.637724 309.086818) scale(0.1 -0.1)">
       <defs>
        <path id="CMR17-30" d="M 2688 2025 
C 2688 2416 2682 3080 2413 3591 
C 2176 4039 1798 4198 1466 4198 
C 1158 4198 768 4058 525 3597 
C 269 3118 243 2524 243 2025 
C 243 1661 250 1106 448 619 
C 723 -39 1216 -128 1466 -128 
C 1760 -128 2208 -7 2470 600 
C 2662 1042 2688 1559 2688 2025 
z
M 1466 -26 
C 1056 -26 813 325 723 812 
C 653 1188 653 1738 653 2096 
C 653 2588 653 2997 736 3387 
C 858 3929 1216 4096 1466 4096 
C 1728 4096 2067 3923 2189 3400 
C 2272 3036 2278 2607 2278 2096 
C 2278 1680 2278 1169 2202 792 
C 2067 95 1690 -26 1466 -26 
z
" transform="scale(0.015625)"/>
        <path id="CMMI12-3a" d="M 1178 307 
C 1178 492 1024 619 870 619 
C 685 619 557 466 557 313 
C 557 128 710 0 864 0 
C 1050 0 1178 153 1178 307 
z
" transform="scale(0.015625)"/>
        <path id="CMR17-32" d="M 2669 989 
L 2554 989 
C 2490 536 2438 459 2413 420 
C 2381 369 1920 369 1830 369 
L 602 369 
C 832 619 1280 1072 1824 1597 
C 2214 1967 2669 2402 2669 3035 
C 2669 3790 2067 4224 1395 4224 
C 691 4224 262 3604 262 3030 
C 262 2780 448 2748 525 2748 
C 589 2748 781 2787 781 3010 
C 781 3207 614 3264 525 3264 
C 486 3264 448 3258 422 3245 
C 544 3790 915 4058 1306 4058 
C 1862 4058 2227 3617 2227 3035 
C 2227 2479 1901 2000 1536 1584 
L 262 146 
L 262 0 
L 2515 0 
L 2669 989 
z
" transform="scale(0.015625)"/>
       </defs>
       <use xlink:href="#CMR17-30" transform="scale(0.996264)"/>
       <use xlink:href="#CMMI12-3a" transform="translate(45.690477 0) scale(0.996264)"/>
       <use xlink:href="#CMR17-32" transform="translate(72.787654 0) scale(0.996264)"/>
      </g>
     </g>
    </g>
    <g id="xtick_2">
     <g id="line2d_3">
      <g>
       <use xlink:href="#md8c2b9c907" x="144.719127" y="295.16832" style="stroke: #000000; stroke-width: 0.8"/>
      </g>
     </g>
     <g id="text_2">
      <!-- $\mathdefault{0.4}$ -->
      <g transform="translate(138.354088 309.086818) scale(0.1 -0.1)">
       <defs>
        <path id="CMR17-34" d="M 2150 4122 
C 2150 4256 2144 4256 2029 4256 
L 128 1254 
L 128 1088 
L 1779 1088 
L 1779 457 
C 1779 224 1766 160 1318 160 
L 1197 160 
L 1197 0 
C 1402 0 1747 0 1965 0 
C 2182 0 2528 0 2733 0 
L 2733 160 
L 2611 160 
C 2163 160 2150 224 2150 457 
L 2150 1088 
L 2803 1088 
L 2803 1254 
L 2150 1254 
L 2150 4122 
z
M 1798 3703 
L 1798 1254 
L 256 1254 
L 1798 3703 
z
" transform="scale(0.015625)"/>
       </defs>
       <use xlink:href="#CMR17-30" transform="scale(0.996264)"/>
       <use xlink:href="#CMMI12-3a" transform="translate(45.690477 0) scale(0.996264)"/>
       <use xlink:href="#CMR17-34" transform="translate(72.787654 0) scale(0.996264)"/>
      </g>
     </g>
    </g>
    <g id="xtick_3">
     <g id="line2d_4">
      <g>
       <use xlink:href="#md8c2b9c907" x="202.435491" y="295.16832" style="stroke: #000000; stroke-width: 0.8"/>
      </g>
     </g>
     <g id="text_3">
      <!-- $\mathdefault{0.6}$ -->
      <g transform="translate(196.070451 309.086818) scale(0.1 -0.1)">
       <defs>
        <path id="CMR17-36" d="M 678 2176 
C 678 3690 1395 4032 1811 4032 
C 1946 4032 2272 4009 2400 3776 
C 2298 3776 2106 3776 2106 3553 
C 2106 3381 2246 3323 2336 3323 
C 2394 3323 2566 3348 2566 3560 
C 2566 3954 2246 4179 1805 4179 
C 1043 4179 243 3390 243 1984 
C 243 253 966 -128 1478 -128 
C 2099 -128 2688 427 2688 1283 
C 2688 2081 2170 2662 1517 2662 
C 1126 2662 838 2407 678 1960 
L 678 2176 
z
M 1478 25 
C 691 25 691 1200 691 1436 
C 691 1896 909 2560 1504 2560 
C 1613 2560 1926 2560 2138 2120 
C 2253 1870 2253 1609 2253 1289 
C 2253 944 2253 690 2118 434 
C 1978 171 1773 25 1478 25 
z
" transform="scale(0.015625)"/>
       </defs>
       <use xlink:href="#CMR17-30" transform="scale(0.996264)"/>
       <use xlink:href="#CMMI12-3a" transform="translate(45.690477 0) scale(0.996264)"/>
       <use xlink:href="#CMR17-36" transform="translate(72.787654 0) scale(0.996264)"/>
      </g>
     </g>
    </g>
    <g id="xtick_4">
     <g id="line2d_5">
      <g>
       <use xlink:href="#md8c2b9c907" x="260.151855" y="295.16832" style="stroke: #000000; stroke-width: 0.8"/>
      </g>
     </g>
     <g id="text_4">
      <!-- $\mathdefault{0.8}$ -->
      <g transform="translate(253.786815 309.086818) scale(0.1 -0.1)">
       <defs>
        <path id="CMR17-38" d="M 1741 2264 
C 2144 2467 2554 2773 2554 3263 
C 2554 3841 1990 4179 1472 4179 
C 890 4179 378 3759 378 3180 
C 378 3021 416 2747 666 2505 
C 730 2442 998 2251 1171 2130 
C 883 1983 211 1634 211 934 
C 211 279 838 -128 1459 -128 
C 2144 -128 2720 362 2720 1010 
C 2720 1590 2330 1857 2074 2029 
L 1741 2264 
z
M 902 2822 
C 851 2854 595 3051 595 3351 
C 595 3739 998 4032 1459 4032 
C 1965 4032 2336 3676 2336 3262 
C 2336 2669 1670 2331 1638 2331 
C 1632 2331 1626 2331 1574 2370 
L 902 2822 
z
M 2080 1519 
C 2176 1449 2483 1240 2483 851 
C 2483 381 2010 25 1472 25 
C 890 25 448 438 448 940 
C 448 1443 838 1862 1280 2060 
L 2080 1519 
z
" transform="scale(0.015625)"/>
       </defs>
       <use xlink:href="#CMR17-30" transform="scale(0.996264)"/>
       <use xlink:href="#CMMI12-3a" transform="translate(45.690477 0) scale(0.996264)"/>
       <use xlink:href="#CMR17-38" transform="translate(72.787654 0) scale(0.996264)"/>
      </g>
     </g>
    </g>
    <g id="xtick_5">
     <g id="line2d_6">
      <g>
       <use xlink:href="#md8c2b9c907" x="317.868218" y="295.16832" style="stroke: #000000; stroke-width: 0.8"/>
      </g>
     </g>
     <g id="text_5">
      <!-- $\mathdefault{1.0}$ -->
      <g transform="translate(311.503179 309.086818) scale(0.1 -0.1)">
       <defs>
        <path id="CMR17-31" d="M 1702 4058 
C 1702 4192 1696 4192 1606 4192 
C 1357 3916 979 3827 621 3827 
C 602 3827 570 3827 563 3808 
C 557 3795 557 3782 557 3648 
C 755 3648 1088 3686 1344 3839 
L 1344 461 
C 1344 236 1331 160 781 160 
L 589 160 
L 589 0 
C 896 0 1216 0 1523 0 
C 1830 0 2150 0 2458 0 
L 2458 160 
L 2266 160 
C 1715 160 1702 230 1702 458 
L 1702 4058 
z
" transform="scale(0.015625)"/>
       </defs>
       <use xlink:href="#CMR17-31" transform="scale(0.996264)"/>
       <use xlink:href="#CMMI12-3a" transform="translate(45.690477 0) scale(0.996264)"/>
       <use xlink:href="#CMR17-30" transform="translate(72.787654 0) scale(0.996264)"/>
      </g>
     </g>
    </g>
    <g id="text_6">
     <!-- \(\lambda\) -->
     <g transform="translate(185.100617 321.942495) scale(0.1 -0.1)">
      <defs>
       <path id="CMMI12-15" d="M 1978 3965 
C 1818 4416 1312 4416 1229 4416 
C 1190 4416 1120 4416 1120 4352 
C 1120 4302 1158 4295 1190 4289 
C 1286 4276 1363 4263 1466 4080 
C 1530 3959 2189 2059 2189 2046 
C 2189 2040 2182 2033 2131 1982 
L 467 311 
C 390 234 339 183 339 102 
C 339 12 416 -64 518 -64 
C 544 -64 614 -51 653 -13 
C 755 82 1670 1194 2253 1881 
C 2419 1383 2624 797 2822 261 
C 2854 166 2886 76 2976 -6 
C 3040 -64 3053 -64 3232 -64 
L 3354 -64 
C 3379 -64 3424 -64 3424 -13 
C 3424 13 3418 19 3392 45 
C 3334 115 3290 229 3264 306 
L 1978 3965 
z
" transform="scale(0.015625)"/>
      </defs>
      <use xlink:href="#CMMI12-15" transform="scale(0.996264)"/>
     </g>
    </g>
   </g>
   <g id="matplotlib.axis_2">
    <g id="ytick_1">
     <g id="line2d_7">
      <path d="M 45.1584 295.16832 
L 330.8544 295.16832 
" clip-path="url(#p0fd002a3e7)" style="fill: none; stroke: #b0b0b0; stroke-width: 0.8; stroke-linecap: square"/>
     </g>
     <g id="line2d_8">
      <defs>
       <path id="m019f2e8e9e" d="M 0 0 
L -3.5 0 
" style="stroke: #000000; stroke-width: 0.8"/>
      </defs>
      <g>
       <use xlink:href="#m019f2e8e9e" x="45.1584" y="295.16832" style="stroke: #000000; stroke-width: 0.8"/>
      </g>
     </g>
     <g id="text_7">
      <!-- $\mathdefault{0.00}$ -->
      <g transform="translate(20.446986 298.627569) scale(0.1 -0.1)">
       <use xlink:href="#CMR17-30" transform="scale(0.996264)"/>
       <use xlink:href="#CMMI12-3a" transform="translate(45.690477 0) scale(0.996264)"/>
       <use xlink:href="#CMR17-30" transform="translate(72.787654 0) scale(0.996264)"/>
       <use xlink:href="#CMR17-30" transform="translate(118.478131 0) scale(0.996264)"/>
      </g>
     </g>
    </g>
    <g id="ytick_2">
     <g id="line2d_9">
      <path d="M 45.1584 260.28396 
L 330.8544 260.28396 
" clip-path="url(#p0fd002a3e7)" style="fill: none; stroke: #b0b0b0; stroke-width: 0.8; stroke-linecap: square"/>
     </g>
     <g id="line2d_10">
      <g>
       <use xlink:href="#m019f2e8e9e" x="45.1584" y="260.28396" style="stroke: #000000; stroke-width: 0.8"/>
      </g>
     </g>
     <g id="text_8">
      <!-- $\mathdefault{0.25}$ -->
      <g transform="translate(20.446986 263.743209) scale(0.1 -0.1)">
       <defs>
        <path id="CMR17-35" d="M 730 3692 
C 794 3666 1056 3584 1325 3584 
C 1920 3584 2246 3911 2432 4100 
C 2432 4157 2432 4192 2394 4192 
C 2387 4192 2374 4192 2323 4163 
C 2099 4058 1837 3973 1517 3973 
C 1325 3973 1037 3999 723 4139 
C 653 4171 640 4171 634 4171 
C 602 4171 595 4164 595 4037 
L 595 2203 
C 595 2089 595 2057 659 2057 
C 691 2057 704 2070 736 2114 
C 941 2401 1222 2522 1542 2522 
C 1766 2522 2246 2382 2246 1289 
C 2246 1085 2246 715 2054 421 
C 1894 159 1645 25 1370 25 
C 947 25 518 320 403 814 
C 429 807 480 795 506 795 
C 589 795 749 840 749 1038 
C 749 1210 627 1280 506 1280 
C 358 1280 262 1190 262 1011 
C 262 454 704 -128 1382 -128 
C 2042 -128 2669 440 2669 1264 
C 2669 2030 2170 2624 1549 2624 
C 1222 2624 947 2503 730 2274 
L 730 3692 
z
" transform="scale(0.015625)"/>
       </defs>
       <use xlink:href="#CMR17-30" transform="scale(0.996264)"/>
       <use xlink:href="#CMMI12-3a" transform="translate(45.690477 0) scale(0.996264)"/>
       <use xlink:href="#CMR17-32" transform="translate(72.787654 0) scale(0.996264)"/>
       <use xlink:href="#CMR17-35" transform="translate(118.478131 0) scale(0.996264)"/>
      </g>
     </g>
    </g>
    <g id="ytick_3">
     <g id="line2d_11">
      <path d="M 45.1584 225.3996 
L 330.8544 225.3996 
" clip-path="url(#p0fd002a3e7)" style="fill: none; stroke: #b0b0b0; stroke-width: 0.8; stroke-linecap: square"/>
     </g>
     <g id="line2d_12">
      <g>
       <use xlink:href="#m019f2e8e9e" x="45.1584" y="225.3996" style="stroke: #000000; stroke-width: 0.8"/>
      </g>
     </g>
     <g id="text_9">
      <!-- $\mathdefault{0.50}$ -->
      <g transform="translate(20.446986 228.858849) scale(0.1 -0.1)">
       <use xlink:href="#CMR17-30" transform="scale(0.996264)"/>
       <use xlink:href="#CMMI12-3a" transform="translate(45.690477 0) scale(0.996264)"/>
       <use xlink:href="#CMR17-35" transform="translate(72.787654 0) scale(0.996264)"/>
       <use xlink:href="#CMR17-30" transform="translate(118.478131 0) scale(0.996264)"/>
      </g>
     </g>
    </g>
    <g id="ytick_4">
     <g id="line2d_13">
      <path d="M 45.1584 190.51524 
L 330.8544 190.51524 
" clip-path="url(#p0fd002a3e7)" style="fill: none; stroke: #b0b0b0; stroke-width: 0.8; stroke-linecap: square"/>
     </g>
     <g id="line2d_14">
      <g>
       <use xlink:href="#m019f2e8e9e" x="45.1584" y="190.51524" style="stroke: #000000; stroke-width: 0.8"/>
      </g>
     </g>
     <g id="text_10">
      <!-- $\mathdefault{0.75}$ -->
      <g transform="translate(20.446986 193.974489) scale(0.1 -0.1)">
       <defs>
        <path id="CMR17-37" d="M 2886 3941 
L 2886 4081 
L 1382 4081 
C 634 4081 621 4165 595 4288 
L 480 4288 
L 294 3094 
L 410 3094 
C 429 3215 474 3540 550 3661 
C 589 3712 1062 3712 1171 3712 
L 2579 3712 
L 1869 2661 
C 1395 1954 1069 999 1069 165 
C 1069 89 1069 -128 1299 -128 
C 1530 -128 1530 89 1530 171 
L 1530 465 
C 1530 1508 1709 2196 2003 2636 
L 2886 3941 
z
" transform="scale(0.015625)"/>
       </defs>
       <use xlink:href="#CMR17-30" transform="scale(0.996264)"/>
       <use xlink:href="#CMMI12-3a" transform="translate(45.690477 0) scale(0.996264)"/>
       <use xlink:href="#CMR17-37" transform="translate(72.787654 0) scale(0.996264)"/>
       <use xlink:href="#CMR17-35" transform="translate(118.478131 0) scale(0.996264)"/>
      </g>
     </g>
    </g>
    <g id="ytick_5">
     <g id="line2d_15">
      <path d="M 45.1584 155.63088 
L 330.8544 155.63088 
" clip-path="url(#p0fd002a3e7)" style="fill: none; stroke: #b0b0b0; stroke-width: 0.8; stroke-linecap: square"/>
     </g>
     <g id="line2d_16">
      <g>
       <use xlink:href="#m019f2e8e9e" x="45.1584" y="155.63088" style="stroke: #000000; stroke-width: 0.8"/>
      </g>
     </g>
     <g id="text_11">
      <!-- $\mathdefault{1.00}$ -->
      <g transform="translate(20.446986 159.090129) scale(0.1 -0.1)">
       <use xlink:href="#CMR17-31" transform="scale(0.996264)"/>
       <use xlink:href="#CMMI12-3a" transform="translate(45.690477 0) scale(0.996264)"/>
       <use xlink:href="#CMR17-30" transform="translate(72.787654 0) scale(0.996264)"/>
       <use xlink:href="#CMR17-30" transform="translate(118.478131 0) scale(0.996264)"/>
      </g>
     </g>
    </g>
    <g id="ytick_6">
     <g id="line2d_17">
      <path d="M 45.1584 120.74652 
L 330.8544 120.74652 
" clip-path="url(#p0fd002a3e7)" style="fill: none; stroke: #b0b0b0; stroke-width: 0.8; stroke-linecap: square"/>
     </g>
     <g id="line2d_18">
      <g>
       <use xlink:href="#m019f2e8e9e" x="45.1584" y="120.74652" style="stroke: #000000; stroke-width: 0.8"/>
      </g>
     </g>
     <g id="text_12">
      <!-- $\mathdefault{1.25}$ -->
      <g transform="translate(20.446986 124.205769) scale(0.1 -0.1)">
       <use xlink:href="#CMR17-31" transform="scale(0.996264)"/>
       <use xlink:href="#CMMI12-3a" transform="translate(45.690477 0) scale(0.996264)"/>
       <use xlink:href="#CMR17-32" transform="translate(72.787654 0) scale(0.996264)"/>
       <use xlink:href="#CMR17-35" transform="translate(118.478131 0) scale(0.996264)"/>
      </g>
     </g>
    </g>
    <g id="ytick_7">
     <g id="line2d_19">
      <path d="M 45.1584 85.86216 
L 330.8544 85.86216 
" clip-path="url(#p0fd002a3e7)" style="fill: none; stroke: #b0b0b0; stroke-width: 0.8; stroke-linecap: square"/>
     </g>
     <g id="line2d_20">
      <g>
       <use xlink:href="#m019f2e8e9e" x="45.1584" y="85.86216" style="stroke: #000000; stroke-width: 0.8"/>
      </g>
     </g>
     <g id="text_13">
      <!-- $\mathdefault{1.50}$ -->
      <g transform="translate(20.446986 89.321409) scale(0.1 -0.1)">
       <use xlink:href="#CMR17-31" transform="scale(0.996264)"/>
       <use xlink:href="#CMMI12-3a" transform="translate(45.690477 0) scale(0.996264)"/>
       <use xlink:href="#CMR17-35" transform="translate(72.787654 0) scale(0.996264)"/>
       <use xlink:href="#CMR17-30" transform="translate(118.478131 0) scale(0.996264)"/>
      </g>
     </g>
    </g>
    <g id="ytick_8">
     <g id="line2d_21">
      <path d="M 45.1584 50.9778 
L 330.8544 50.9778 
" clip-path="url(#p0fd002a3e7)" style="fill: none; stroke: #b0b0b0; stroke-width: 0.8; stroke-linecap: square"/>
     </g>
     <g id="line2d_22">
      <g>
       <use xlink:href="#m019f2e8e9e" x="45.1584" y="50.9778" style="stroke: #000000; stroke-width: 0.8"/>
      </g>
     </g>
     <g id="text_14">
      <!-- $\mathdefault{1.75}$ -->
      <g transform="translate(20.446986 54.437049) scale(0.1 -0.1)">
       <use xlink:href="#CMR17-31" transform="scale(0.996264)"/>
       <use xlink:href="#CMMI12-3a" transform="translate(45.690477 0) scale(0.996264)"/>
       <use xlink:href="#CMR17-37" transform="translate(72.787654 0) scale(0.996264)"/>
       <use xlink:href="#CMR17-35" transform="translate(118.478131 0) scale(0.996264)"/>
      </g>
     </g>
    </g>
    <g id="ytick_9">
     <g id="line2d_23">
      <path d="M 45.1584 16.09344 
L 330.8544 16.09344 
" clip-path="url(#p0fd002a3e7)" style="fill: none; stroke: #b0b0b0; stroke-width: 0.8; stroke-linecap: square"/>
     </g>
     <g id="line2d_24">
      <g>
       <use xlink:href="#m019f2e8e9e" x="45.1584" y="16.09344" style="stroke: #000000; stroke-width: 0.8"/>
      </g>
     </g>
     <g id="text_15">
      <!-- $\mathdefault{2.00}$ -->
      <g transform="translate(20.446986 19.552689) scale(0.1 -0.1)">
       <use xlink:href="#CMR17-32" transform="scale(0.996264)"/>
       <use xlink:href="#CMMI12-3a" transform="translate(45.690477 0) scale(0.996264)"/>
       <use xlink:href="#CMR17-30" transform="translate(72.787654 0) scale(0.996264)"/>
       <use xlink:href="#CMR17-30" transform="translate(118.478131 0) scale(0.996264)"/>
      </g>
     </g>
    </g>
    <g id="text_16">
     <!-- Max \(|\Delta\Gamma|\) -->
     <g transform="translate(13.956326 177.009101) rotate(-90) scale(0.1 -0.1)">
      <defs>
       <path id="CMR17-4d" d="M 1338 4224 
C 1299 4320 1293 4320 1158 4320 
L 339 4320 
L 339 4160 
C 781 4160 851 4160 851 3875 
L 851 610 
C 851 451 851 153 339 153 
L 339 -13 
C 486 0 755 0 915 0 
C 1075 0 1344 0 1491 -13 
L 1491 153 
C 979 153 979 451 979 610 
L 979 4135 
L 986 4135 
L 2490 89 
C 2515 25 2528 -13 2579 -13 
C 2630 -13 2643 25 2669 89 
L 4186 4166 
L 4192 4166 
L 4192 438 
C 4192 153 4122 153 3680 153 
L 3680 -13 
C 3853 0 4198 0 4384 0 
C 4570 0 4922 0 5094 -13 
L 5094 153 
C 4653 153 4582 153 4582 438 
L 4582 3875 
C 4582 4160 4653 4160 5094 4160 
L 5094 4320 
L 4282 4320 
C 4147 4320 4141 4314 4102 4218 
L 2720 502 
L 1338 4224 
z
" transform="scale(0.015625)"/>
       <path id="CMR17-61" d="M 2304 1653 
C 2304 2072 2304 2294 2035 2543 
C 1798 2752 1523 2816 1306 2816 
C 800 2816 435 2407 435 1971 
C 435 1728 627 1728 666 1728 
C 749 1728 896 1778 896 1954 
C 896 2112 774 2181 666 2181 
C 640 2181 608 2174 589 2168 
C 723 2592 1069 2714 1293 2714 
C 1613 2714 1965 2429 1965 1885 
L 1965 1600 
C 1587 1600 1133 1549 774 1357 
C 371 1133 256 813 256 570 
C 256 77 832 -64 1171 -64 
C 1523 -64 1850 139 1990 511 
C 2003 233 2182 -18 2464 -18 
C 2598 -18 2938 70 2938 567 
L 2938 920 
L 2822 920 
L 2822 562 
C 2822 178 2650 128 2566 128 
C 2304 128 2304 458 2304 738 
L 2304 1653 
z
M 1965 870 
C 1965 317 1568 38 1216 38 
C 896 38 646 275 646 570 
C 646 761 730 1100 1101 1305 
C 1408 1478 1760 1504 1965 1504 
L 1965 870 
z
" transform="scale(0.015625)"/>
       <path id="CMR17-78" d="M 1664 1477 
C 1856 1726 2074 2006 2253 2216 
C 2464 2458 2707 2560 2989 2560 
L 2989 2726 
C 2880 2726 2656 2726 2541 2726 
C 2368 2726 2170 2726 2022 2732 
L 2022 2566 
C 2112 2553 2163 2489 2163 2400 
C 2163 2285 2099 2215 2067 2171 
L 1594 1573 
L 1030 2306 
C 973 2376 973 2388 973 2420 
C 973 2497 1037 2560 1146 2560 
L 1146 2732 
C 992 2726 717 2726 557 2726 
C 384 2726 179 2726 38 2732 
L 38 2560 
C 384 2560 461 2534 614 2343 
L 1350 1395 
C 1363 1382 1395 1344 1395 1325 
C 1395 1299 838 619 768 530 
C 480 185 179 160 6 160 
L 6 0 
C 115 0 339 0 454 0 
C 582 0 864 0 979 -6 
L 979 160 
C 941 166 838 179 838 325 
C 838 440 890 510 947 586 
L 1478 1236 
L 2035 512 
C 2086 442 2163 346 2163 301 
C 2163 211 2086 160 1984 160 
L 1984 -6 
C 2138 0 2413 0 2573 0 
C 2746 0 2950 0 3091 -6 
L 3091 160 
C 2771 160 2675 172 2522 370 
L 1664 1477 
z
" transform="scale(0.015625)"/>
       <path id="CMSY10-6a" d="M 1018 4570 
C 1018 4685 1018 4800 890 4800 
C 762 4800 762 4685 762 4570 
L 762 -1370 
C 762 -1485 762 -1600 890 -1600 
C 1018 -1600 1018 -1485 1018 -1370 
L 1018 4570 
z
" transform="scale(0.015625)"/>
       <path id="CMR17-1" d="M 2598 4403 
C 2547 4512 2522 4512 2470 4512 
C 2394 4512 2387 4499 2342 4409 
L 269 109 
C 262 96 237 38 237 32 
C 237 6 243 0 358 0 
L 4576 0 
C 4691 0 4698 6 4698 32 
C 4698 38 4672 96 4666 109 
L 2598 4403 
z
M 2310 4038 
L 4083 358 
L 531 358 
L 2310 4038 
z
" transform="scale(0.015625)"/>
       <path id="CMR17-0" d="M 3315 4352 
L 326 4352 
L 326 4186 
C 768 4186 838 4186 838 3898 
L 838 448 
C 838 160 768 160 326 160 
L 326 0 
C 512 0 870 0 1069 0 
C 1331 0 1638 0 1901 0 
L 1901 160 
L 1760 160 
C 1274 160 1261 224 1261 455 
L 1261 3936 
C 1261 4154 1274 4186 1530 4186 
L 2234 4186 
C 3206 4186 3258 3738 3354 2938 
L 3469 2938 
L 3315 4352 
z
" transform="scale(0.015625)"/>
      </defs>
      <use xlink:href="#CMR17-4d" transform="scale(0.996264)"/>
      <use xlink:href="#CMR17-61" transform="translate(84.686941 0) scale(0.996264)"/>
      <use xlink:href="#CMR17-78" transform="translate(130.377418 0) scale(0.996264)"/>
      <use xlink:href="#CMSY10-6a" transform="translate(208.7463 0) scale(0.996264)"/>
      <use xlink:href="#CMR17-1" transform="translate(236.420385 0) scale(0.996264)"/>
      <use xlink:href="#CMR17-0" transform="translate(313.339974 0) scale(0.996264)"/>
      <use xlink:href="#CMSY10-6a" transform="translate(370.721382 0) scale(0.996264)"/>
     </g>
    </g>
   </g>
   <g id="line2d_25">
    <path d="M 58.144582 34.406798 
L 66.557755 34.928359 
L 74.441517 35.446532 
L 81.858569 35.960553 
L 88.861095 36.473298 
L 95.492987 36.984149 
L 101.791514 37.495355 
L 107.788593 38.005554 
L 113.511765 38.51766 
L 118.984963 39.030453 
L 124.229111 39.54498 
L 129.262613 40.062644 
L 134.10174 40.582959 
L 138.760948 41.105762 
L 143.253138 41.63282 
L 147.589869 42.164473 
L 151.781544 42.700909 
L 155.837552 43.240974 
L 159.766401 43.786702 
L 163.575822 44.338438 
L 167.272863 44.896526 
L 170.863963 45.461321 
L 174.355027 46.033181 
L 177.751476 46.61126 
L 181.058304 47.197001 
L 184.28012 47.79095 
L 187.421185 48.393501 
L 190.485447 49.005055 
L 193.476575 49.626029 
L 196.397976 50.256853 
L 199.252829 50.897973 
L 202.044097 51.549851 
L 204.774552 52.212968 
L 207.446786 52.886755 
L 210.063232 53.572746 
L 212.62617 54.271509 
L 215.137746 54.983603 
L 217.599977 55.709619 
L 220.014766 56.450172 
L 222.383906 57.205909 
L 224.709092 57.977512 
L 226.991923 58.765697 
L 229.233917 59.571221 
L 231.436507 60.394882 
L 233.601056 61.237524 
L 235.728856 62.098688 
L 237.821132 62.98021 
L 239.879052 63.883403 
L 241.903727 64.809322 
L 243.896212 65.759093 
L 245.857516 66.733919 
L 247.788599 67.735088 
L 249.690379 68.763976 
L 251.563732 69.821097 
L 253.409495 70.906658 
L 255.228469 72.024375 
L 257.021421 73.176067 
L 258.789084 74.363697 
L 260.532162 75.589394 
L 262.251329 76.852282 
L 263.947234 78.155772 
L 265.620496 79.504316 
L 267.271712 80.900854 
L 268.901456 82.345557 
L 270.510279 83.840436 
L 272.098712 85.393145 
L 273.667265 87.006958 
L 275.216428 88.678663 
L 276.746677 90.421198 
L 278.258467 92.236096 
L 279.752238 94.125253 
L 281.228414 96.102792 
L 282.687406 98.161742 
L 284.129608 100.324017 
L 285.555404 102.58225 
L 286.965161 104.958685 
L 288.359237 107.451727 
L 289.737976 110.077827 
L 291.101714 112.8507 
L 292.450771 115.776108 
L 293.785462 118.872543 
L 295.106088 122.158536 
L 296.412944 125.65238 
L 297.706314 129.375379 
L 298.986472 133.352502 
L 300.253686 137.613181 
L 301.508216 142.192249 
L 302.750312 147.116737 
L 303.980219 152.444562 
L 305.198174 158.214115 
L 306.404407 164.490537 
L 307.59914 171.333564 
L 308.782592 178.81164 
L 309.954974 186.998362 
L 311.11649 195.938118 
L 312.26734 205.652485 
L 313.407719 216.036621 
L 314.537815 226.728232 
L 315.657811 236.810226 
L 316.767888 244.470344 
L 317.868218 247.304706 
" clip-path="url(#p0fd002a3e7)" style="fill: none; stroke: #1f77b4; stroke-width: 1.5; stroke-linecap: square"/>
   </g>
   <g id="line2d_26">
    <path d="M 58.144582 17.102504 
L 66.557755 17.39347 
L 74.441517 17.715679 
L 81.858569 18.057418 
L 88.861095 18.411943 
L 95.492987 18.775791 
L 101.791514 19.146423 
L 107.788593 19.523026 
L 113.511765 19.904728 
L 118.984963 20.291198 
L 124.229111 20.682446 
L 129.262613 21.077776 
L 134.10174 21.478067 
L 138.760948 21.882818 
L 143.253138 22.292894 
L 147.589869 22.707439 
L 151.781544 23.127715 
L 155.837552 23.553728 
L 159.766401 23.984968 
L 163.575822 24.422575 
L 167.272863 24.866808 
L 170.863963 25.31794 
L 174.355027 25.775344 
L 177.751476 26.240233 
L 181.058304 26.712934 
L 184.28012 27.193782 
L 187.421185 27.683131 
L 190.485447 28.18135 
L 193.476575 28.68857 
L 196.397976 29.204977 
L 199.252829 29.73146 
L 202.044097 30.268463 
L 204.774552 30.81645 
L 207.446786 31.37591 
L 210.063232 31.947355 
L 212.62617 32.531324 
L 215.137746 33.128385 
L 217.599977 33.739137 
L 220.014766 34.364211 
L 222.383906 35.004274 
L 224.709092 35.659389 
L 226.991923 36.330781 
L 229.233917 37.019338 
L 231.436507 37.725892 
L 233.601056 38.451326 
L 235.728856 39.19658 
L 237.821132 39.962658 
L 239.879052 40.750628 
L 241.903727 41.561634 
L 243.896212 42.396901 
L 245.857516 43.257742 
L 247.788599 44.144627 
L 249.690379 45.059109 
L 251.563732 46.003492 
L 253.409495 46.979517 
L 255.228469 47.989064 
L 257.021421 49.034174 
L 258.789084 50.117058 
L 260.532162 51.238252 
L 262.251329 52.400544 
L 263.947234 53.608048 
L 265.620496 54.863856 
L 267.271712 56.171356 
L 268.901456 57.530217 
L 270.510279 58.946859 
L 272.098712 60.426829 
L 273.667265 61.974178 
L 275.216428 63.588611 
L 276.746677 65.281961 
L 278.258467 67.059321 
L 279.752238 68.921397 
L 281.228414 70.883794 
L 282.687406 72.947406 
L 284.129608 75.1262 
L 285.555404 77.42729 
L 286.965161 79.864206 
L 288.359237 82.446202 
L 289.737976 85.194748 
L 291.101714 88.113566 
L 292.450771 91.231804 
L 293.785462 94.569089 
L 295.106088 98.143816 
L 296.412944 101.984554 
L 297.706314 106.124554 
L 298.986472 110.598854 
L 300.253686 115.448144 
L 301.508216 120.719689 
L 302.750312 126.468258 
L 303.980219 132.748773 
L 305.198174 139.635577 
L 306.404407 147.210335 
L 307.59914 155.539666 
L 308.782592 164.719746 
L 309.954974 174.812787 
L 311.11649 185.84952 
L 312.26734 197.787643 
L 313.407719 210.414017 
L 314.537815 223.19642 
L 315.657811 235.015249 
L 316.767888 243.884636 
L 317.868218 247.304706 
" clip-path="url(#p0fd002a3e7)" style="fill: none; stroke: #ff7f0e; stroke-width: 1.5; stroke-linecap: square"/>
   </g>
   <g id="line2d_27">
    <path d="M 58.144582 16.996196 
L 66.557755 17.090809 
L 74.441517 17.189831 
L 81.858569 17.28966 
L 88.861095 17.394256 
L 95.492987 17.501124 
L 101.791514 17.612045 
L 107.788593 17.725675 
L 113.511765 17.84447 
L 118.984963 17.968091 
L 124.229111 18.096004 
L 129.262613 18.22954 
L 134.10174 18.368991 
L 138.760948 18.510563 
L 143.253138 18.660388 
L 147.589869 18.816043 
L 151.781544 18.975024 
L 155.837552 19.14136 
L 159.766401 19.31453 
L 163.575822 19.494479 
L 167.272863 19.681537 
L 170.863963 19.876358 
L 174.355027 20.079866 
L 177.751476 20.288485 
L 181.058304 20.504751 
L 184.28012 20.73223 
L 187.421185 20.968003 
L 190.485447 21.210815 
L 193.476575 21.468465 
L 196.397976 21.729099 
L 199.252829 22.007609 
L 202.044097 22.289568 
L 204.774552 22.589 
L 207.446786 22.896621 
L 210.063232 23.217924 
L 212.62617 23.556268 
L 215.137746 23.901151 
L 217.599977 24.264025 
L 220.014766 24.645082 
L 222.383906 25.036443 
L 224.709092 25.445317 
L 226.991923 25.873869 
L 229.233917 26.322676 
L 231.436507 26.78571 
L 233.601056 27.269152 
L 235.728856 27.775391 
L 237.821132 28.305388 
L 239.879052 28.860217 
L 241.903727 29.437174 
L 243.896212 30.038629 
L 245.857516 30.668915 
L 247.788599 31.329574 
L 249.690379 32.022297 
L 251.563732 32.748932 
L 253.409495 33.511499 
L 255.228469 34.307063 
L 257.021421 35.141801 
L 258.789084 36.019488 
L 260.532162 36.942951 
L 262.251329 37.91529 
L 263.947234 38.939905 
L 265.620496 40.020528 
L 267.271712 41.154821 
L 268.901456 42.351412 
L 270.510279 43.616935 
L 272.098712 44.956824 
L 273.667265 46.377104 
L 275.216428 47.88135 
L 276.746677 49.470614 
L 278.258467 51.161498 
L 279.752238 52.963143 
L 281.228414 54.882782 
L 282.687406 56.920348 
L 284.129608 59.10159 
L 285.555404 61.440217 
L 286.965161 63.931188 
L 288.359237 66.61254 
L 289.737976 69.491879 
L 291.101714 72.589371 
L 292.450771 75.934116 
L 293.785462 79.543148 
L 295.106088 83.452762 
L 296.412944 87.696648 
L 297.706314 92.301184 
L 298.986472 97.322802 
L 300.253686 102.806233 
L 301.508216 108.791485 
L 302.750312 115.348527 
L 303.980219 122.541237 
L 305.198174 130.43748 
L 306.404407 139.107646 
L 307.59914 148.619879 
L 308.782592 159.031441 
L 309.954974 170.373702 
L 311.11649 182.62651 
L 312.26734 195.674284 
L 313.407719 209.229198 
L 314.537815 222.693488 
L 315.657811 234.914645 
L 316.767888 243.932477 
L 317.868218 247.304706 
" clip-path="url(#p0fd002a3e7)" style="fill: none; stroke: #2ca02c; stroke-width: 1.5; stroke-linecap: square"/>
   </g>
   <g id="patch_3">
    <path d="M 45.1584 295.16832 
L 45.1584 16.09344 
" style="fill: none; stroke: #000000; stroke-width: 0.8; stroke-linejoin: miter; stroke-linecap: square"/>
   </g>
   <g id="patch_4">
    <path d="M 330.8544 295.16832 
L 330.8544 16.09344 
" style="fill: none; stroke: #000000; stroke-width: 0.8; stroke-linejoin: miter; stroke-linecap: square"/>
   </g>
   <g id="patch_5">
    <path d="M 45.1584 295.16832 
L 330.8544 295.16832 
" style="fill: none; stroke: #000000; stroke-width: 0.8; stroke-linejoin: miter; stroke-linecap: square"/>
   </g>
   <g id="patch_6">
    <path d="M 45.1584 16.09344 
L 330.8544 16.09344 
" style="fill: none; stroke: #000000; stroke-width: 0.8; stroke-linejoin: miter; stroke-linecap: square"/>
   </g>
   <g id="text_17">
    <!-- \(|\Delta\Gamma_{\text{Opt}}|(\lambda)\) -->
    <g transform="translate(160.643093 10.09344) scale(0.12 -0.12)">
     <defs>
      <path id="CMR17-4f" d="M 4307 2135 
C 4307 3437 3366 4416 2304 4416 
C 1216 4416 294 3424 294 2135 
C 294 845 1229 -128 2298 -128 
C 3392 -128 4307 864 4307 2135 
z
M 2304 -13 
C 1574 -13 781 711 781 2217 
C 781 3716 1651 4301 2298 4301 
C 2976 4301 3821 3698 3821 2217 
C 3821 686 3008 -13 2304 -13 
z
" transform="scale(0.015625)"/>
      <path id="CMR17-70" d="M 1408 -1063 
C 998 -1063 973 -1037 973 -789 
L 973 402 
C 1158 134 1427 -38 1766 -38 
C 2406 -38 3053 523 3053 1388 
C 3053 2191 2496 2802 1837 2802 
C 1453 2802 1139 2592 960 2338 
L 960 2802 
L 198 2732 
L 198 2567 
C 576 2567 634 2528 634 2223 
L 634 -789 
C 634 -1031 608 -1063 198 -1063 
L 198 -1228 
C 352 -1216 634 -1216 800 -1216 
C 966 -1216 1254 -1216 1408 -1228 
L 1408 -1063 
z
M 973 2012 
C 973 2102 973 2235 1222 2471 
C 1254 2497 1472 2688 1792 2688 
C 2259 2688 2643 2108 2643 1382 
C 2643 656 2234 64 1728 64 
C 1498 64 1248 172 1056 472 
C 973 612 973 650 973 752 
L 973 2012 
z
" transform="scale(0.015625)"/>
      <path id="CMR17-74" d="M 966 2560 
L 1862 2560 
L 1862 2725 
L 966 2725 
L 966 3904 
L 851 3904 
C 838 3245 614 2668 70 2668 
L 70 2560 
L 627 2560 
L 627 771 
C 627 650 627 -64 1370 -64 
C 1747 -64 1965 306 1965 777 
L 1965 1140 
L 1850 1140 
L 1850 783 
C 1850 344 1677 51 1408 51 
C 1222 51 966 178 966 758 
L 966 2560 
z
" transform="scale(0.015625)"/>
      <path id="CMR17-28" d="M 1958 -1561 
C 1958 -1555 1958 -1542 1939 -1523 
C 1645 -1224 858 -407 858 1581 
C 858 3569 1632 4379 1946 4697 
C 1946 4704 1958 4717 1958 4736 
C 1958 4755 1939 4768 1914 4768 
C 1843 4768 1299 4296 986 3594 
C 666 2887 576 2199 576 1588 
C 576 1128 621 351 1005 -471 
C 1312 -1135 1837 -1600 1914 -1600 
C 1946 -1600 1958 -1587 1958 -1561 
z
" transform="scale(0.015625)"/>
      <path id="CMR17-29" d="M 1683 1581 
C 1683 2040 1638 2817 1254 3639 
C 947 4303 422 4768 346 4768 
C 326 4768 301 4761 301 4729 
C 301 4717 307 4710 314 4697 
C 621 4378 1402 3568 1402 1584 
C 1402 -407 627 -1217 314 -1537 
C 307 -1549 301 -1556 301 -1568 
C 301 -1600 326 -1600 346 -1600 
C 416 -1600 960 -1128 1274 -426 
C 1594 281 1683 969 1683 1581 
z
" transform="scale(0.015625)"/>
     </defs>
     <use xlink:href="#CMSY10-6a" transform="scale(0.996264)"/>
     <use xlink:href="#CMR17-1" transform="translate(27.674085 0) scale(0.996264)"/>
     <use xlink:href="#CMR17-0" transform="translate(104.593675 0) scale(0.996264)"/>
     <use xlink:href="#CMR17-4f" transform="translate(161.975082 -14.943915) scale(0.697382)"/>
     <use xlink:href="#CMR17-70" transform="translate(212.175214 -14.943915) scale(0.697382)"/>
     <use xlink:href="#CMR17-74" transform="translate(247.801822 -14.943915) scale(0.697382)"/>
     <use xlink:href="#CMSY10-6a" transform="translate(272.996375 0) scale(0.996264)"/>
     <use xlink:href="#CMR17-28" transform="translate(300.670459 0) scale(0.996264)"/>
     <use xlink:href="#CMMI12-15" transform="translate(335.951227 0) scale(0.996264)"/>
     <use xlink:href="#CMR17-29" transform="translate(392.855299 0) scale(0.996264)"/>
    </g>
   </g>
  </g>
  <g id="axes_2">
   <g id="patch_7">
    <path d="M 330.8544 295.16832 
L 616.5504 295.16832 
L 616.5504 16.09344 
L 330.8544 16.09344 
z
" style="fill: #ffffff"/>
   </g>
   <g id="line2d_28">
    <path d="M 473.7024 295.16832 
L 473.7024 16.09344 
" clip-path="url(#pf198e65f40)" style="fill: none; stroke-dasharray: 1.5,2.475; stroke-dashoffset: 0; stroke: #000000; stroke-width: 1.5"/>
   </g>
   <g id="line2d_29">
    <path d="M 343.840582 295.168313 
L 346.437818 295.16831 
L 349.035055 295.168307 
L 351.632291 295.168302 
L 354.229527 295.168295 
L 356.826764 295.168285 
L 359.424 295.168272 
L 362.021236 295.168253 
L 364.618473 295.168228 
L 367.215709 295.168193 
L 369.812945 295.168145 
L 372.410182 295.168078 
L 375.007418 295.167986 
L 377.604655 295.167859 
L 380.201891 295.167684 
L 382.799127 295.167442 
L 385.396364 295.167108 
L 387.9936 295.166646 
L 390.590836 295.16601 
L 393.188073 295.165131 
L 395.785309 295.163918 
L 398.382545 295.162244 
L 400.979782 295.159932 
L 403.577018 295.156742 
L 406.174255 295.152339 
L 408.771491 295.146261 
L 411.368727 295.137871 
L 413.965964 295.126293 
L 416.5632 295.110313 
L 419.160436 295.088261 
L 421.757673 295.057832 
L 424.354909 295.015849 
L 426.952145 294.957939 
L 429.549382 294.87808 
L 432.146618 294.767994 
L 434.743855 294.616318 
L 437.341091 294.407487 
L 439.938327 294.120244 
L 442.535564 293.725676 
L 445.1328 293.184671 
L 447.730036 292.444727 
L 450.327273 291.436108 
L 452.924509 290.067521 
L 455.521745 288.221806 
L 458.118982 285.752679 
L 460.716218 282.484274 
L 463.313455 278.216037 
L 465.910691 272.735893 
L 468.507927 265.843767 
L 471.105164 257.384774 
L 473.7024 247.28664 
L 476.299636 235.591205 
L 478.896873 222.468465 
L 481.494109 208.206035 
L 484.091345 193.175632 
L 486.688582 177.78637 
L 489.285818 162.437752 
L 491.883055 147.482618 
L 494.480291 133.20479 
L 497.077527 119.811005 
L 499.674764 107.433752 
L 502.272 96.140788 
L 504.869236 85.947661 
L 507.466473 76.830634 
L 510.063709 68.738452 
L 512.660945 61.602228 
L 515.258182 55.343258 
L 517.855418 49.878896 
L 520.452655 45.126745 
L 523.049891 41.007509 
L 525.647127 37.446776 
L 528.244364 34.376031 
L 530.8416 31.733099 
L 533.438836 29.462201 
L 536.036073 27.513745 
L 538.633309 25.843969 
L 541.230545 24.414481 
L 543.827782 23.191769 
L 546.425018 22.146694 
L 549.022255 21.254011 
L 551.619491 20.491904 
L 554.216727 19.841569 
L 556.813964 19.286828 
L 559.4112 18.813783 
L 562.008436 18.410516 
L 564.605673 18.066816 
L 567.202909 17.773943 
L 569.800145 17.524423 
L 572.397382 17.31187 
L 574.994618 17.13083 
L 577.591855 16.976647 
L 580.189091 16.845348 
L 582.786327 16.733546 
L 585.383564 16.638352 
L 587.9808 16.557303 
L 590.578036 16.4883 
L 593.175273 16.429556 
L 595.772509 16.379547 
L 598.369745 16.336975 
L 600.966982 16.300735 
L 603.564218 16.269887 
" clip-path="url(#pf198e65f40)" style="fill: none; stroke: #d62728; stroke-width: 1.5; stroke-linecap: square"/>
   </g>
   <g id="line2d_30">
    <path d="M 343.840582 295.145489 
L 346.437818 295.136806 
L 349.035055 295.12482 
L 351.632291 295.108278 
L 354.229527 295.085447 
L 356.826764 295.05394 
L 359.424 295.010461 
L 362.021236 294.950473 
L 364.618473 294.867719 
L 367.215709 294.753587 
L 369.812945 294.596239 
L 372.410182 294.379417 
L 375.007418 294.080857 
L 377.604655 293.670167 
L 380.201891 293.106081 
L 382.799127 292.333035 
L 385.396364 291.277106 
L 387.9936 289.841896 
L 390.590836 287.905484 
L 393.188073 285.320467 
L 395.785309 281.919944 
L 398.382545 277.531022 
L 400.979782 271.995068 
L 403.577018 265.191724 
L 406.174255 257.0621 
L 408.771491 247.624034 
L 411.368727 236.977282 
L 413.965964 225.290581 
L 416.5632 212.783697 
L 419.160436 199.701975 
L 421.757673 186.293045 
L 424.354909 172.798459 
L 426.952145 159.434645 
L 429.549382 146.395732 
L 432.146618 133.843224 
L 434.743855 121.911053 
L 437.341091 110.702025 
L 439.938327 100.285754 
L 442.535564 90.71004 
L 445.1328 81.994686 
L 447.730036 74.137263 
L 450.327273 67.121191 
L 452.924509 60.912221 
L 455.521745 55.469355 
L 458.118982 50.745243 
L 460.716218 46.685876 
L 463.313455 43.237119 
L 465.910691 40.341193 
L 468.507927 37.94245 
L 471.105164 35.983639 
L 473.7024 34.406798 
L 476.299636 33.157288 
L 478.896873 32.182096 
L 481.494109 31.430017 
L 484.091345 30.858406 
L 486.688582 30.428142 
L 489.285818 30.107008 
L 491.883055 29.869202 
L 494.480291 29.69434 
L 497.077527 29.565534 
L 499.674764 29.472112 
L 502.272 29.403121 
L 504.869236 29.353119 
L 507.466473 29.316885 
L 510.063709 29.290629 
L 512.660945 29.271605 
L 515.258182 29.257822 
L 517.855418 29.247836 
L 520.452655 29.240602 
L 523.049891 29.23536 
L 525.647127 29.231563 
L 528.244364 29.228812 
L 530.8416 29.22682 
L 533.438836 29.225367 
L 536.036073 29.224301 
L 538.633309 29.223528 
L 541.230545 29.222969 
L 543.827782 29.222564 
L 546.425018 29.22227 
L 549.022255 29.222057 
L 551.619491 29.221903 
L 554.216727 29.221792 
L 556.813964 29.221711 
L 559.4112 29.221652 
L 562.008436 29.22161 
L 564.605673 29.221579 
L 567.202909 29.221557 
L 569.800145 29.221541 
L 572.397382 29.221529 
L 574.994618 29.221521 
L 577.591855 29.221514 
L 580.189091 29.22151 
L 582.786327 29.221507 
L 585.383564 29.221504 
L 587.9808 29.221503 
L 590.578036 29.221502 
L 593.175273 29.221501 
L 595.772509 29.2215 
L 598.369745 29.2215 
L 600.966982 29.221499 
L 603.564218 29.221499 
" clip-path="url(#pf198e65f40)" style="fill: none; stroke: #1f77b4; stroke-width: 1.5; stroke-linecap: square"/>
   </g>
   <g id="matplotlib.axis_3">
    <g id="xtick_6">
     <g id="line2d_31">
      <g>
       <use xlink:href="#md8c2b9c907" x="362.39227" y="295.16832" style="stroke: #000000; stroke-width: 0.8"/>
      </g>
     </g>
     <g id="text_18">
      <!-- $\mathdefault{10^{-6}}$ -->
      <g transform="translate(352.311983 309.086818) scale(0.1 -0.1)">
       <defs>
        <path id="CMSY10-0" d="M 4218 1472 
C 4326 1472 4442 1472 4442 1600 
C 4442 1728 4326 1728 4218 1728 
L 755 1728 
C 646 1728 531 1728 531 1600 
C 531 1472 646 1472 755 1472 
L 4218 1472 
z
" transform="scale(0.015625)"/>
       </defs>
       <use xlink:href="#CMR17-31" transform="scale(0.996264)"/>
       <use xlink:href="#CMR17-30" transform="translate(45.690477 0) scale(0.996264)"/>
       <use xlink:href="#CMSY10-0" transform="translate(91.380954 36.153639) scale(0.697382)"/>
       <use xlink:href="#CMR17-36" transform="translate(145.621947 36.153639) scale(0.697382)"/>
      </g>
     </g>
    </g>
    <g id="xtick_7">
     <g id="line2d_32">
      <g>
       <use xlink:href="#md8c2b9c907" x="399.495647" y="295.16832" style="stroke: #000000; stroke-width: 0.8"/>
      </g>
     </g>
     <g id="text_19">
      <!-- $\mathdefault{10^{-4}}$ -->
      <g transform="translate(389.41536 309.086818) scale(0.1 -0.1)">
       <use xlink:href="#CMR17-31" transform="scale(0.996264)"/>
       <use xlink:href="#CMR17-30" transform="translate(45.690477 0) scale(0.996264)"/>
       <use xlink:href="#CMSY10-0" transform="translate(91.380954 36.153639) scale(0.697382)"/>
       <use xlink:href="#CMR17-34" transform="translate(145.621947 36.153639) scale(0.697382)"/>
      </g>
     </g>
    </g>
    <g id="xtick_8">
     <g id="line2d_33">
      <g>
       <use xlink:href="#md8c2b9c907" x="436.599023" y="295.16832" style="stroke: #000000; stroke-width: 0.8"/>
      </g>
     </g>
     <g id="text_20">
      <!-- $\mathdefault{10^{-2}}$ -->
      <g transform="translate(426.518737 309.086818) scale(0.1 -0.1)">
       <use xlink:href="#CMR17-31" transform="scale(0.996264)"/>
       <use xlink:href="#CMR17-30" transform="translate(45.690477 0) scale(0.996264)"/>
       <use xlink:href="#CMSY10-0" transform="translate(91.380954 36.153639) scale(0.697382)"/>
       <use xlink:href="#CMR17-32" transform="translate(145.621947 36.153639) scale(0.697382)"/>
      </g>
     </g>
    </g>
    <g id="xtick_9">
     <g id="line2d_34">
      <g>
       <use xlink:href="#md8c2b9c907" x="473.7024" y="295.16832" style="stroke: #000000; stroke-width: 0.8"/>
      </g>
     </g>
     <g id="text_21">
      <!-- $\mathdefault{10^{0}}$ -->
      <g transform="translate(466.735446 309.086818) scale(0.1 -0.1)">
       <use xlink:href="#CMR17-31" transform="scale(0.996264)"/>
       <use xlink:href="#CMR17-30" transform="translate(45.690477 0) scale(0.996264)"/>
       <use xlink:href="#CMR17-30" transform="translate(91.380954 36.153639) scale(0.697382)"/>
      </g>
     </g>
    </g>
    <g id="xtick_10">
     <g id="line2d_35">
      <g>
       <use xlink:href="#md8c2b9c907" x="510.805777" y="295.16832" style="stroke: #000000; stroke-width: 0.8"/>
      </g>
     </g>
     <g id="text_22">
      <!-- $\mathdefault{10^{2}}$ -->
      <g transform="translate(503.838823 309.086818) scale(0.1 -0.1)">
       <use xlink:href="#CMR17-31" transform="scale(0.996264)"/>
       <use xlink:href="#CMR17-30" transform="translate(45.690477 0) scale(0.996264)"/>
       <use xlink:href="#CMR17-32" transform="translate(91.380954 36.153639) scale(0.697382)"/>
      </g>
     </g>
    </g>
    <g id="xtick_11">
     <g id="line2d_36">
      <g>
       <use xlink:href="#md8c2b9c907" x="547.909153" y="295.16832" style="stroke: #000000; stroke-width: 0.8"/>
      </g>
     </g>
     <g id="text_23">
      <!-- $\mathdefault{10^{4}}$ -->
      <g transform="translate(540.942199 309.086818) scale(0.1 -0.1)">
       <use xlink:href="#CMR17-31" transform="scale(0.996264)"/>
       <use xlink:href="#CMR17-30" transform="translate(45.690477 0) scale(0.996264)"/>
       <use xlink:href="#CMR17-34" transform="translate(91.380954 36.153639) scale(0.697382)"/>
      </g>
     </g>
    </g>
    <g id="xtick_12">
     <g id="line2d_37">
      <g>
       <use xlink:href="#md8c2b9c907" x="585.01253" y="295.16832" style="stroke: #000000; stroke-width: 0.8"/>
      </g>
     </g>
     <g id="text_24">
      <!-- $\mathdefault{10^{6}}$ -->
      <g transform="translate(578.045576 309.086818) scale(0.1 -0.1)">
       <use xlink:href="#CMR17-31" transform="scale(0.996264)"/>
       <use xlink:href="#CMR17-30" transform="translate(45.690477 0) scale(0.996264)"/>
       <use xlink:href="#CMR17-36" transform="translate(91.380954 36.153639) scale(0.697382)"/>
      </g>
     </g>
    </g>
    <g id="text_25">
     <!-- \(\pi\) -->
     <g transform="translate(470.862912 321.942495) scale(0.1 -0.1)">
      <defs>
       <path id="CMMI12-19" d="M 1658 2408 
L 2381 2408 
C 2208 1692 2099 1226 2099 716 
C 2099 626 2099 -64 2362 -64 
C 2496 -64 2611 57 2611 166 
C 2611 197 2611 210 2566 306 
C 2394 747 2394 1296 2394 1341 
C 2394 1379 2394 1832 2528 2408 
L 3245 2408 
C 3328 2408 3539 2408 3539 2612 
C 3539 2752 3418 2752 3302 2752 
L 1197 2752 
C 1050 2752 832 2752 538 2440 
C 371 2254 166 1916 166 1878 
C 166 1840 198 1827 237 1827 
C 282 1827 288 1846 320 1884 
C 653 2408 986 2408 1146 2408 
L 1510 2408 
C 1370 1929 1210 1373 685 256 
C 634 154 634 140 634 102 
C 634 -32 749 -64 806 -64 
C 992 -64 1043 102 1120 370 
C 1222 696 1222 709 1286 964 
L 1658 2408 
z
" transform="scale(0.015625)"/>
      </defs>
      <use xlink:href="#CMMI12-19" transform="scale(0.996264)"/>
     </g>
    </g>
   </g>
   <g id="matplotlib.axis_4">
    <g id="ytick_10">
     <g id="line2d_38">
      <path d="M 330.8544 295.16832 
L 616.5504 295.16832 
" clip-path="url(#pf198e65f40)" style="fill: none; stroke: #b0b0b0; stroke-width: 0.8; stroke-linecap: square"/>
     </g>
    </g>
    <g id="ytick_11">
     <g id="line2d_39">
      <path d="M 330.8544 260.28396 
L 616.5504 260.28396 
" clip-path="url(#pf198e65f40)" style="fill: none; stroke: #b0b0b0; stroke-width: 0.8; stroke-linecap: square"/>
     </g>
    </g>
    <g id="ytick_12">
     <g id="line2d_40">
      <path d="M 330.8544 225.3996 
L 616.5504 225.3996 
" clip-path="url(#pf198e65f40)" style="fill: none; stroke: #b0b0b0; stroke-width: 0.8; stroke-linecap: square"/>
     </g>
    </g>
    <g id="ytick_13">
     <g id="line2d_41">
      <path d="M 330.8544 190.51524 
L 616.5504 190.51524 
" clip-path="url(#pf198e65f40)" style="fill: none; stroke: #b0b0b0; stroke-width: 0.8; stroke-linecap: square"/>
     </g>
    </g>
    <g id="ytick_14">
     <g id="line2d_42">
      <path d="M 330.8544 155.63088 
L 616.5504 155.63088 
" clip-path="url(#pf198e65f40)" style="fill: none; stroke: #b0b0b0; stroke-width: 0.8; stroke-linecap: square"/>
     </g>
    </g>
    <g id="ytick_15">
     <g id="line2d_43">
      <path d="M 330.8544 120.74652 
L 616.5504 120.74652 
" clip-path="url(#pf198e65f40)" style="fill: none; stroke: #b0b0b0; stroke-width: 0.8; stroke-linecap: square"/>
     </g>
    </g>
    <g id="ytick_16">
     <g id="line2d_44">
      <path d="M 330.8544 85.86216 
L 616.5504 85.86216 
" clip-path="url(#pf198e65f40)" style="fill: none; stroke: #b0b0b0; stroke-width: 0.8; stroke-linecap: square"/>
     </g>
    </g>
    <g id="ytick_17">
     <g id="line2d_45">
      <path d="M 330.8544 50.9778 
L 616.5504 50.9778 
" clip-path="url(#pf198e65f40)" style="fill: none; stroke: #b0b0b0; stroke-width: 0.8; stroke-linecap: square"/>
     </g>
    </g>
    <g id="ytick_18">
     <g id="line2d_46">
      <path d="M 330.8544 16.09344 
L 616.5504 16.09344 
" clip-path="url(#pf198e65f40)" style="fill: none; stroke: #b0b0b0; stroke-width: 0.8; stroke-linecap: square"/>
     </g>
    </g>
   </g>
   <g id="line2d_47">
    <path d="M 343.840582 295.149303 
L 346.437818 295.139172 
L 349.035055 295.125671 
L 351.632291 295.108282 
L 354.229527 295.085447 
L 356.826764 295.053939 
L 359.424 295.010461 
L 362.021236 294.950471 
L 364.618473 294.867714 
L 367.215709 294.753577 
L 369.812945 294.596209 
L 372.410182 294.379339 
L 375.007418 294.080653 
L 377.604655 293.669638 
L 380.201891 293.104713 
L 382.799127 292.329496 
L 385.396364 291.268059 
L 387.9936 289.819123 
L 390.590836 287.84929 
L 393.188073 285.186165 
L 395.785309 281.612443 
L 398.382545 276.863917 
L 400.979782 270.635611 
L 403.577018 262.601294 
L 406.174255 252.451914 
L 408.771491 239.954676 
L 411.368727 225.025905 
L 413.965964 207.800415 
L 416.5632 188.672593 
L 419.160436 168.286549 
L 421.757673 147.468499 
L 424.354909 127.105978 
L 426.952145 108.013891 
L 429.549382 90.813464 
L 432.146618 75.870944 
L 434.743855 63.293235 
L 437.341091 52.981814 
L 439.938327 44.704053 
L 442.535564 38.164865 
L 445.1328 33.059261 
L 447.730036 29.106437 
L 450.327273 26.063262 
L 452.924509 23.729524 
L 455.521745 21.944434 
L 458.118982 20.581685 
L 460.716218 19.543342 
L 463.313455 18.753496 
L 465.910691 18.154307 
L 468.507927 17.700901 
L 471.105164 17.359107 
L 473.7024 17.102504 
L 476.299636 16.910563 
L 478.896873 16.767688 
L 481.494109 16.661828 
L 484.091345 16.583683 
L 486.688582 16.526266 
L 489.285818 16.484144 
L 491.883055 16.453334 
L 494.480291 16.430922 
L 497.077527 16.414536 
L 499.674764 16.402665 
L 502.272 16.394065 
L 504.869236 16.387772 
L 507.466473 16.383208 
L 510.063709 16.379902 
L 512.660945 16.377506 
L 515.258182 16.375771 
L 517.855418 16.374514 
L 520.452655 16.373603 
L 523.049891 16.372944 
L 525.647127 16.372466 
L 528.244364 16.372119 
L 530.8416 16.371869 
L 533.438836 16.361564 
L 536.036073 16.324672 
L 538.633309 16.292606 
L 541.230545 16.264834 
L 543.827782 16.240795 
L 546.425018 16.220036 
L 549.022255 16.202147 
L 551.619491 16.186749 
L 554.216727 16.17351 
L 556.813964 16.162145 
L 559.4112 16.152409 
L 562.008436 16.14408 
L 564.605673 16.136967 
L 567.202909 16.130909 
L 569.800145 16.125768 
L 572.397382 16.121417 
L 574.994618 16.117752 
L 577.591855 16.114679 
L 580.189091 16.112125 
L 582.786327 16.110018 
L 585.383564 16.108296 
L 587.9808 16.106906 
L 590.578036 16.105798 
L 593.175273 16.104926 
L 595.772509 16.104249 
L 598.369745 16.103729 
L 600.966982 16.103335 
L 603.564218 16.103039 
" clip-path="url(#pf198e65f40)" style="fill: none; stroke: #ff7f0e; stroke-width: 1.5; stroke-linecap: square"/>
   </g>
   <g id="patch_8">
    <path d="M 330.8544 295.16832 
L 330.8544 16.09344 
" style="fill: none; stroke: #000000; stroke-width: 0.8; stroke-linejoin: miter; stroke-linecap: square"/>
   </g>
   <g id="patch_9">
    <path d="M 616.5504 295.16832 
L 616.5504 16.09344 
" style="fill: none; stroke: #000000; stroke-width: 0.8; stroke-linejoin: miter; stroke-linecap: square"/>
   </g>
   <g id="patch_10">
    <path d="M 330.8544 295.16832 
L 616.5504 295.16832 
" style="fill: none; stroke: #000000; stroke-width: 0.8; stroke-linejoin: miter; stroke-linecap: square"/>
   </g>
   <g id="patch_11">
    <path d="M 330.8544 16.09344 
L 616.5504 16.09344 
" style="fill: none; stroke: #000000; stroke-width: 0.8; stroke-linejoin: miter; stroke-linecap: square"/>
   </g>
   <g id="line2d_48">
    <path d="M 343.840582 295.146136 
L 346.437818 295.136847 
L 349.035055 295.12482 
L 351.632291 295.108278 
L 354.229527 295.085447 
L 356.826764 295.053939 
L 359.424 295.010461 
L 362.021236 294.950472 
L 364.618473 294.867714 
L 367.215709 294.753577 
L 369.812945 294.596212 
L 372.410182 294.379345 
L 375.007418 294.080666 
L 377.604655 293.669669 
L 380.201891 293.104795 
L 382.799127 292.329712 
L 385.396364 291.268627 
L 387.9936 289.820535 
L 390.590836 287.852866 
L 393.188073 285.195012 
L 395.785309 281.633762 
L 398.382545 276.91361 
L 400.979782 270.746498 
L 403.577018 262.834918 
L 406.174255 252.910295 
L 408.771491 240.782146 
L 411.368727 226.387411 
L 413.965964 209.828633 
L 416.5632 191.395997 
L 419.160436 171.570145 
L 421.757673 151.006977 
L 424.354909 130.484894 
L 426.952145 110.823648 
L 429.549382 92.764058 
L 432.146618 76.849692 
L 434.743855 63.358585 
L 437.341091 52.309365 
L 439.938327 43.516402 
L 442.535564 36.67907 
L 445.1328 31.459317 
L 447.730036 27.52617 
L 450.327273 24.595937 
L 452.924509 22.42576 
L 455.521745 20.832419 
L 458.118982 19.662477 
L 460.716218 18.809031 
L 463.313455 18.187642 
L 465.910691 17.735836 
L 468.507927 17.407661 
L 471.105164 17.169462 
L 473.7024 16.996196 
L 476.299636 16.870352 
L 478.896873 16.779119 
L 481.494109 16.712991 
L 484.091345 16.665068 
L 486.688582 16.63034 
L 489.285818 16.605177 
L 491.883055 16.586946 
L 494.480291 16.573737 
L 497.077527 16.564167 
L 499.674764 16.557234 
L 502.272 16.552211 
L 504.869236 16.548572 
L 507.466473 16.545936 
L 510.063709 16.544027 
L 512.660945 16.542643 
L 515.258182 16.541641 
L 517.855418 16.540915 
L 520.452655 16.540389 
L 523.049891 16.540008 
L 525.647127 16.539732 
L 528.244364 16.539532 
L 530.8416 16.539387 
L 533.438836 16.539282 
L 536.036073 16.539206 
L 538.633309 16.539151 
L 541.230545 16.539111 
L 543.827782 16.539082 
L 546.425018 16.539061 
L 549.022255 16.539046 
L 551.619491 16.539035 
L 554.216727 16.539027 
L 556.813964 16.539021 
L 559.4112 16.539017 
L 562.008436 16.539014 
L 564.605673 16.539012 
L 567.202909 16.53901 
L 569.800145 16.539009 
L 572.397382 16.539008 
L 574.994618 16.539007 
L 577.591855 16.539007 
L 580.189091 16.539007 
L 582.786327 16.539006 
L 585.383564 16.539006 
L 587.9808 16.539006 
L 590.578036 16.539006 
L 593.175273 16.539006 
L 595.772509 16.539006 
L 598.369745 16.539006 
L 600.966982 16.539006 
L 603.564218 16.539006 
" clip-path="url(#pf198e65f40)" style="fill: none; stroke: #2ca02c; stroke-width: 1.5; stroke-linecap: square"/>
   </g>
   <g id="text_26">
    <!-- \(|\Delta\Gamma_{\text{Opt}}|(\pi)\) -->
    <g transform="translate(446.218702 10.09344) scale(0.12 -0.12)">
     <use xlink:href="#CMSY10-6a" transform="scale(0.996264)"/>
     <use xlink:href="#CMR17-1" transform="translate(27.674085 0) scale(0.996264)"/>
     <use xlink:href="#CMR17-0" transform="translate(104.593675 0) scale(0.996264)"/>
     <use xlink:href="#CMR17-4f" transform="translate(161.975082 -14.943915) scale(0.697382)"/>
     <use xlink:href="#CMR17-70" transform="translate(212.175214 -14.943915) scale(0.697382)"/>
     <use xlink:href="#CMR17-74" transform="translate(247.801822 -14.943915) scale(0.697382)"/>
     <use xlink:href="#CMSY10-6a" transform="translate(272.996375 0) scale(0.996264)"/>
     <use xlink:href="#CMR17-28" transform="translate(300.670459 0) scale(0.996264)"/>
     <use xlink:href="#CMMI12-19" transform="translate(335.951227 0) scale(0.996264)"/>
     <use xlink:href="#CMR17-29" transform="translate(394.861828 0) scale(0.996264)"/>
    </g>
   </g>
  </g>
  <g id="axes_3">
   <g id="patch_12">
    <path d="M 616.5504 295.16832 
L 902.2464 295.16832 
L 902.2464 16.09344 
L 616.5504 16.09344 
z
" style="fill: #ffffff"/>
   </g>
   <g id="line2d_49">
    <path d="M 629.536582 295.16832 
L 694.077905 295.05911 
L 698.493207 294.818788 
L 701.220305 294.455122 
L 703.168233 293.986499 
L 704.726575 293.405 
L 706.155055 292.634398 
L 707.453673 291.661556 
L 708.622429 290.493613 
L 709.791185 288.973951 
L 710.83008 287.262942 
L 711.868975 285.15281 
L 713.037731 282.23786 
L 714.206487 278.704706 
L 715.505105 274.061039 
L 717.193309 267.118263 
L 720.180131 254.664583 
L 721.219025 251.273338 
L 721.998196 249.338974 
L 722.647505 248.196954 
L 723.166953 247.613945 
L 723.6864 247.332487 
L 724.205847 247.351172 
L 724.725295 247.660935 
L 725.244742 248.245813 
L 725.894051 249.33011 
L 726.673222 251.079169 
L 727.712116 254.001192 
L 729.270458 259.141878 
L 732.776727 270.880558 
L 734.464931 275.640715 
L 735.893411 279.055907 
L 737.321891 281.929269 
L 738.750371 284.315088 
L 740.178851 286.279725 
L 741.607331 287.88966 
L 743.165673 289.312518 
L 744.853876 290.537311 
L 746.671942 291.566514 
L 748.619869 292.412391 
L 750.82752 293.129749 
L 753.424756 293.735409 
L 756.54144 294.227405 
L 760.437295 294.610652 
L 765.761629 294.894662 
L 773.6832 295.073121 
L 789.006895 295.155928 
L 864.586473 295.168319 
L 889.260218 295.16832 
L 889.260218 295.16832 
" clip-path="url(#p9a60a1fd6c)" style="fill: none; stroke: #d62728; stroke-width: 1.5; stroke-linecap: square"/>
   </g>
   <g id="line2d_50">
    <path d="M 723.946124 295.16832 
L 723.946124 247.304706 
" clip-path="url(#p9a60a1fd6c)" style="fill: none; stroke-dasharray: 1.5,2.475; stroke-dashoffset: 0; stroke: #d62728; stroke-width: 1.5"/>
   </g>
   <g id="line2d_51">
    <path d="M 744.983738 295.16832 
L 744.983738 34.406798 
" clip-path="url(#p9a60a1fd6c)" style="fill: none; stroke-dasharray: 1.5,2.475; stroke-dashoffset: 0; stroke: #1f77b4; stroke-width: 1.5"/>
   </g>
   <g id="matplotlib.axis_5">
    <g id="xtick_13">
     <g id="line2d_52">
      <g>
       <use xlink:href="#md8c2b9c907" x="646.851491" y="295.16832" style="stroke: #000000; stroke-width: 0.8"/>
      </g>
     </g>
     <g id="text_27">
      <!-- $\mathdefault{10^{-5}}$ -->
      <g transform="translate(636.771204 309.086818) scale(0.1 -0.1)">
       <use xlink:href="#CMR17-31" transform="scale(0.996264)"/>
       <use xlink:href="#CMR17-30" transform="translate(45.690477 0) scale(0.996264)"/>
       <use xlink:href="#CMSY10-0" transform="translate(91.380954 36.153639) scale(0.697382)"/>
       <use xlink:href="#CMR17-35" transform="translate(145.621947 36.153639) scale(0.697382)"/>
      </g>
     </g>
    </g>
    <g id="xtick_14">
     <g id="line2d_53">
      <g>
       <use xlink:href="#md8c2b9c907" x="681.481309" y="295.16832" style="stroke: #000000; stroke-width: 0.8"/>
      </g>
     </g>
     <g id="text_28">
      <!-- $\mathdefault{10^{-3}}$ -->
      <g transform="translate(671.401022 309.086818) scale(0.1 -0.1)">
       <defs>
        <path id="CMR17-33" d="M 1414 2157 
C 1984 2157 2234 1662 2234 1090 
C 2234 320 1824 25 1453 25 
C 1114 25 563 194 390 693 
C 422 680 454 680 486 680 
C 640 680 755 782 755 948 
C 755 1133 614 1216 486 1216 
C 378 1216 211 1165 211 926 
C 211 335 787 -128 1466 -128 
C 2176 -128 2720 430 2720 1085 
C 2720 1707 2208 2157 1600 2227 
C 2086 2328 2554 2756 2554 3329 
C 2554 3820 2048 4179 1472 4179 
C 890 4179 378 3829 378 3329 
C 378 3110 544 3072 627 3072 
C 762 3072 877 3155 877 3321 
C 877 3486 762 3569 627 3569 
C 602 3569 570 3569 544 3557 
C 730 3959 1235 4032 1459 4032 
C 1683 4032 2106 3925 2106 3320 
C 2106 3143 2080 2828 1862 2550 
C 1670 2304 1453 2304 1242 2284 
C 1210 2284 1062 2269 1037 2269 
C 992 2263 966 2257 966 2208 
C 966 2163 973 2157 1101 2157 
L 1414 2157 
z
" transform="scale(0.015625)"/>
       </defs>
       <use xlink:href="#CMR17-31" transform="scale(0.996264)"/>
       <use xlink:href="#CMR17-30" transform="translate(45.690477 0) scale(0.996264)"/>
       <use xlink:href="#CMSY10-0" transform="translate(91.380954 36.153639) scale(0.697382)"/>
       <use xlink:href="#CMR17-33" transform="translate(145.621947 36.153639) scale(0.697382)"/>
      </g>
     </g>
    </g>
    <g id="xtick_15">
     <g id="line2d_54">
      <g>
       <use xlink:href="#md8c2b9c907" x="716.111127" y="295.16832" style="stroke: #000000; stroke-width: 0.8"/>
      </g>
     </g>
     <g id="text_29">
      <!-- $\mathdefault{10^{-1}}$ -->
      <g transform="translate(706.030841 309.086818) scale(0.1 -0.1)">
       <use xlink:href="#CMR17-31" transform="scale(0.996264)"/>
       <use xlink:href="#CMR17-30" transform="translate(45.690477 0) scale(0.996264)"/>
       <use xlink:href="#CMSY10-0" transform="translate(91.380954 36.153639) scale(0.697382)"/>
       <use xlink:href="#CMR17-31" transform="translate(145.621947 36.153639) scale(0.697382)"/>
      </g>
     </g>
    </g>
    <g id="xtick_16">
     <g id="line2d_55">
      <g>
       <use xlink:href="#md8c2b9c907" x="750.740945" y="295.16832" style="stroke: #000000; stroke-width: 0.8"/>
      </g>
     </g>
     <g id="text_30">
      <!-- $\mathdefault{10^{1}}$ -->
      <g transform="translate(743.773991 309.086818) scale(0.1 -0.1)">
       <use xlink:href="#CMR17-31" transform="scale(0.996264)"/>
       <use xlink:href="#CMR17-30" transform="translate(45.690477 0) scale(0.996264)"/>
       <use xlink:href="#CMR17-31" transform="translate(91.380954 36.153639) scale(0.697382)"/>
      </g>
     </g>
    </g>
    <g id="xtick_17">
     <g id="line2d_56">
      <g>
       <use xlink:href="#md8c2b9c907" x="785.370764" y="295.16832" style="stroke: #000000; stroke-width: 0.8"/>
      </g>
     </g>
     <g id="text_31">
      <!-- $\mathdefault{10^{3}}$ -->
      <g transform="translate(778.40381 309.086818) scale(0.1 -0.1)">
       <use xlink:href="#CMR17-31" transform="scale(0.996264)"/>
       <use xlink:href="#CMR17-30" transform="translate(45.690477 0) scale(0.996264)"/>
       <use xlink:href="#CMR17-33" transform="translate(91.380954 36.153639) scale(0.697382)"/>
      </g>
     </g>
    </g>
    <g id="xtick_18">
     <g id="line2d_57">
      <g>
       <use xlink:href="#md8c2b9c907" x="820.000582" y="295.16832" style="stroke: #000000; stroke-width: 0.8"/>
      </g>
     </g>
     <g id="text_32">
      <!-- $\mathdefault{10^{5}}$ -->
      <g transform="translate(813.033628 309.086818) scale(0.1 -0.1)">
       <use xlink:href="#CMR17-31" transform="scale(0.996264)"/>
       <use xlink:href="#CMR17-30" transform="translate(45.690477 0) scale(0.996264)"/>
       <use xlink:href="#CMR17-35" transform="translate(91.380954 36.153639) scale(0.697382)"/>
      </g>
     </g>
    </g>
    <g id="xtick_19">
     <g id="line2d_58">
      <g>
       <use xlink:href="#md8c2b9c907" x="854.6304" y="295.16832" style="stroke: #000000; stroke-width: 0.8"/>
      </g>
     </g>
     <g id="text_33">
      <!-- $\mathdefault{10^{7}}$ -->
      <g transform="translate(847.663446 309.086818) scale(0.1 -0.1)">
       <use xlink:href="#CMR17-31" transform="scale(0.996264)"/>
       <use xlink:href="#CMR17-30" transform="translate(45.690477 0) scale(0.996264)"/>
       <use xlink:href="#CMR17-37" transform="translate(91.380954 36.153639) scale(0.697382)"/>
      </g>
     </g>
    </g>
    <g id="xtick_20">
     <g id="line2d_59">
      <g>
       <use xlink:href="#md8c2b9c907" x="889.260218" y="295.16832" style="stroke: #000000; stroke-width: 0.8"/>
      </g>
     </g>
     <g id="text_34">
      <!-- $\mathdefault{10^{9}}$ -->
      <g transform="translate(882.293264 309.086818) scale(0.1 -0.1)">
       <defs>
        <path id="CMR17-39" d="M 2253 1864 
C 2253 464 1670 31 1190 31 
C 1043 31 685 31 538 294 
C 704 268 826 357 826 518 
C 826 692 685 749 595 749 
C 538 749 365 723 365 506 
C 365 71 742 -128 1203 -128 
C 1939 -128 2688 674 2688 2073 
C 2688 3817 1971 4179 1485 4179 
C 851 4179 243 3628 243 2778 
C 243 1991 762 1408 1414 1408 
C 1952 1408 2189 1903 2253 2112 
L 2253 1864 
z
M 1427 1510 
C 1254 1510 1011 1542 813 1922 
C 678 2169 678 2461 678 2771 
C 678 3146 678 3405 858 3684 
C 947 3817 1114 4032 1485 4032 
C 2240 4032 2240 2885 2240 2632 
C 2240 2182 2035 1510 1427 1510 
z
" transform="scale(0.015625)"/>
       </defs>
       <use xlink:href="#CMR17-31" transform="scale(0.996264)"/>
       <use xlink:href="#CMR17-30" transform="translate(45.690477 0) scale(0.996264)"/>
       <use xlink:href="#CMR17-39" transform="translate(91.380954 36.153639) scale(0.697382)"/>
      </g>
     </g>
    </g>
    <g id="text_35">
     <!-- \(C_c(\unit{\pico\farad})\) -->
     <g transform="translate(743.915392 322.495977) scale(0.1 -0.1)">
      <defs>
       <path id="CMMI12-43" d="M 4781 4423 
C 4781 4480 4736 4480 4723 4480 
C 4710 4480 4685 4480 4634 4416 
L 4192 3882 
C 3968 4264 3616 4480 3136 4480 
C 1754 4480 320 3088 320 1595 
C 320 533 1069 -128 2003 -128 
C 2515 -128 2963 88 3334 400 
C 3891 863 4058 1481 4058 1531 
C 4058 1588 4006 1588 3987 1588 
C 3930 1588 3923 1550 3910 1524 
C 3616 534 2752 57 2112 57 
C 1434 57 845 489 845 1391 
C 845 1595 909 2700 1632 3532 
C 1984 3939 2586 4295 3194 4295 
C 3898 4295 4211 3717 4211 3068 
C 4211 2903 4192 2764 4192 2738 
C 4192 2681 4256 2681 4275 2681 
C 4346 2681 4352 2687 4378 2801 
L 4781 4423 
z
" transform="scale(0.015625)"/>
       <path id="CMMI12-63" d="M 2502 2431 
C 2381 2431 2323 2431 2234 2355 
C 2195 2323 2125 2227 2125 2125 
C 2125 1997 2221 1920 2342 1920 
C 2496 1920 2669 2044 2669 2292 
C 2669 2588 2374 2816 1933 2816 
C 1094 2816 256 1903 256 996 
C 256 441 602 -64 1254 -64 
C 2125 -64 2675 622 2675 706 
C 2675 744 2637 776 2611 776 
C 2592 776 2586 770 2528 713 
C 2118 162 1510 64 1267 64 
C 826 64 685 446 685 764 
C 685 988 794 1605 1024 2039 
C 1190 2338 1536 2682 1939 2682 
C 2022 2682 2374 2682 2502 2431 
z
" transform="scale(0.015625)"/>
       <path id="CMR17-46" d="M 3482 4325 
L 326 4325 
L 326 4160 
C 768 4160 838 4160 838 3874 
L 838 446 
C 838 160 768 160 326 160 
L 326 0 
C 512 0 870 0 1069 0 
C 1331 0 1638 0 1901 0 
L 1901 160 
L 1760 160 
C 1274 160 1261 223 1261 452 
L 1261 2075 
L 1837 2075 
C 2432 2075 2490 1865 2490 1332 
L 2605 1332 
L 2605 2987 
L 2490 2987 
C 2490 2450 2432 2240 1837 2240 
L 1261 2240 
L 1261 3911 
C 1261 4128 1274 4160 1530 4160 
L 2355 4160 
C 3322 4160 3430 3765 3520 2916 
L 3635 2916 
L 3482 4325 
z
" transform="scale(0.015625)"/>
      </defs>
      <use xlink:href="#CMMI12-43" transform="scale(0.996264)"/>
      <use xlink:href="#CMMI12-63" transform="translate(69.792037 -14.943915) scale(0.697382)"/>
      <use xlink:href="#CMR17-28" transform="translate(99.6783 0) scale(0.996264)"/>
      <use xlink:href="#CMR17-70" transform="translate(134.959068 0) scale(0.996264)"/>
      <use xlink:href="#CMR17-46" transform="translate(185.854437 0) scale(0.996264)"/>
      <use xlink:href="#CMR17-29" transform="translate(245.838284 0) scale(0.996264)"/>
     </g>
    </g>
   </g>
   <g id="matplotlib.axis_6">
    <g id="ytick_19">
     <g id="line2d_60">
      <path d="M 616.5504 295.16832 
L 902.2464 295.16832 
" clip-path="url(#p9a60a1fd6c)" style="fill: none; stroke: #b0b0b0; stroke-width: 0.8; stroke-linecap: square"/>
     </g>
     <g id="line2d_61">
      <defs>
       <path id="mac8ee6ea10" d="M 0 0 
L 3.5 0 
" style="stroke: #000000; stroke-width: 0.8"/>
      </defs>
      <g>
       <use xlink:href="#mac8ee6ea10" x="902.2464" y="295.16832" style="stroke: #000000; stroke-width: 0.8"/>
      </g>
     </g>
    </g>
    <g id="ytick_20">
     <g id="line2d_62">
      <path d="M 616.5504 260.28396 
L 902.2464 260.28396 
" clip-path="url(#p9a60a1fd6c)" style="fill: none; stroke: #b0b0b0; stroke-width: 0.8; stroke-linecap: square"/>
     </g>
     <g id="line2d_63">
      <g>
       <use xlink:href="#mac8ee6ea10" x="902.2464" y="260.28396" style="stroke: #000000; stroke-width: 0.8"/>
      </g>
     </g>
    </g>
    <g id="ytick_21">
     <g id="line2d_64">
      <path d="M 616.5504 225.3996 
L 902.2464 225.3996 
" clip-path="url(#p9a60a1fd6c)" style="fill: none; stroke: #b0b0b0; stroke-width: 0.8; stroke-linecap: square"/>
     </g>
     <g id="line2d_65">
      <g>
       <use xlink:href="#mac8ee6ea10" x="902.2464" y="225.3996" style="stroke: #000000; stroke-width: 0.8"/>
      </g>
     </g>
    </g>
    <g id="ytick_22">
     <g id="line2d_66">
      <path d="M 616.5504 190.51524 
L 902.2464 190.51524 
" clip-path="url(#p9a60a1fd6c)" style="fill: none; stroke: #b0b0b0; stroke-width: 0.8; stroke-linecap: square"/>
     </g>
     <g id="line2d_67">
      <g>
       <use xlink:href="#mac8ee6ea10" x="902.2464" y="190.51524" style="stroke: #000000; stroke-width: 0.8"/>
      </g>
     </g>
    </g>
    <g id="ytick_23">
     <g id="line2d_68">
      <path d="M 616.5504 155.63088 
L 902.2464 155.63088 
" clip-path="url(#p9a60a1fd6c)" style="fill: none; stroke: #b0b0b0; stroke-width: 0.8; stroke-linecap: square"/>
     </g>
     <g id="line2d_69">
      <g>
       <use xlink:href="#mac8ee6ea10" x="902.2464" y="155.63088" style="stroke: #000000; stroke-width: 0.8"/>
      </g>
     </g>
    </g>
    <g id="ytick_24">
     <g id="line2d_70">
      <path d="M 616.5504 120.74652 
L 902.2464 120.74652 
" clip-path="url(#p9a60a1fd6c)" style="fill: none; stroke: #b0b0b0; stroke-width: 0.8; stroke-linecap: square"/>
     </g>
     <g id="line2d_71">
      <g>
       <use xlink:href="#mac8ee6ea10" x="902.2464" y="120.74652" style="stroke: #000000; stroke-width: 0.8"/>
      </g>
     </g>
    </g>
    <g id="ytick_25">
     <g id="line2d_72">
      <path d="M 616.5504 85.86216 
L 902.2464 85.86216 
" clip-path="url(#p9a60a1fd6c)" style="fill: none; stroke: #b0b0b0; stroke-width: 0.8; stroke-linecap: square"/>
     </g>
     <g id="line2d_73">
      <g>
       <use xlink:href="#mac8ee6ea10" x="902.2464" y="85.86216" style="stroke: #000000; stroke-width: 0.8"/>
      </g>
     </g>
    </g>
    <g id="ytick_26">
     <g id="line2d_74">
      <path d="M 616.5504 50.9778 
L 902.2464 50.9778 
" clip-path="url(#p9a60a1fd6c)" style="fill: none; stroke: #b0b0b0; stroke-width: 0.8; stroke-linecap: square"/>
     </g>
     <g id="line2d_75">
      <g>
       <use xlink:href="#mac8ee6ea10" x="902.2464" y="50.9778" style="stroke: #000000; stroke-width: 0.8"/>
      </g>
     </g>
    </g>
    <g id="ytick_27">
     <g id="line2d_76">
      <path d="M 616.5504 16.09344 
L 902.2464 16.09344 
" clip-path="url(#p9a60a1fd6c)" style="fill: none; stroke: #b0b0b0; stroke-width: 0.8; stroke-linecap: square"/>
     </g>
     <g id="line2d_77">
      <g>
       <use xlink:href="#mac8ee6ea10" x="902.2464" y="16.09344" style="stroke: #000000; stroke-width: 0.8"/>
      </g>
     </g>
    </g>
    <g id="text_36">
     <!-- \(|\Delta\Gamma|\) -->
     <g transform="translate(917.21838 165.662734) rotate(-90) scale(0.1 -0.1)">
      <use xlink:href="#CMSY10-6a" transform="scale(0.996264)"/>
      <use xlink:href="#CMR17-1" transform="translate(27.674085 0) scale(0.996264)"/>
      <use xlink:href="#CMR17-0" transform="translate(104.593675 0) scale(0.996264)"/>
      <use xlink:href="#CMSY10-6a" transform="translate(161.975082 0) scale(0.996264)"/>
     </g>
    </g>
   </g>
   <g id="line2d_78">
    <path d="M 629.536582 295.16832 
L 694.077905 295.059024 
L 698.363345 294.829682 
L 701.090444 294.475407 
L 703.038371 294.01598 
L 704.596713 293.441303 
L 706.025193 292.67179 
L 707.193949 291.800499 
L 708.362705 290.635982 
L 709.4016 289.281184 
L 710.440495 287.542624 
L 711.479389 285.323479 
L 712.518284 282.509097 
L 713.557178 278.967393 
L 714.596073 274.551631 
L 715.634967 269.106677 
L 716.673862 262.479777 
L 717.842618 253.445659 
L 719.011375 242.616134 
L 720.309993 228.450052 
L 721.868335 208.742571 
L 723.946124 179.200684 
L 727.841978 123.304515 
L 729.530182 102.521366 
L 730.958662 87.437477 
L 732.387142 74.730085 
L 733.68576 65.140384 
L 734.984378 57.247719 
L 736.153135 51.432954 
L 737.321891 46.689845 
L 738.490647 42.88529 
L 739.529542 40.196354 
L 740.568436 38.086083 
L 741.607331 36.495752 
L 742.516364 35.492884 
L 743.425396 34.825658 
L 744.204567 34.50538 
L 744.983738 34.406798 
L 745.762909 34.522377 
L 746.54208 34.846724 
L 747.451113 35.484434 
L 748.360145 36.398953 
L 749.39904 37.783122 
L 750.437935 39.532196 
L 751.606691 41.943696 
L 752.905309 45.187455 
L 754.203927 49.041167 
L 755.632407 54.001978 
L 757.190749 60.288902 
L 758.878953 68.125929 
L 760.697018 77.715136 
L 762.644945 89.195344 
L 764.982458 104.332441 
L 768.229004 126.946735 
L 774.462371 170.555668 
L 777.189469 187.929266 
L 779.656844 202.223152 
L 781.864495 213.76051 
L 784.072145 224.10476 
L 786.149935 232.786669 
L 788.227724 240.507098 
L 790.175651 246.936985 
L 792.123578 252.651873 
L 794.071505 257.718108 
L 796.019433 262.200222 
L 797.96736 266.159307 
L 800.045149 269.86968 
L 802.122938 273.112351 
L 804.200727 275.94395 
L 806.278516 278.415045 
L 808.486167 280.695678 
L 810.693818 282.667294 
L 813.031331 284.463941 
L 815.498705 286.081741 
L 818.095942 287.521739 
L 820.952902 288.843931 
L 823.939724 289.98265 
L 827.316131 291.025158 
L 831.082124 291.942793 
L 835.237702 292.721439 
L 840.042589 293.39057 
L 845.756509 293.952483 
L 852.769047 294.405578 
L 861.729513 294.747953 
L 874.196247 294.984823 
L 889.260218 295.100925 
L 889.260218 295.100925 
" clip-path="url(#p9a60a1fd6c)" style="fill: none; stroke: #1f77b4; stroke-width: 1.5; stroke-linecap: square"/>
   </g>
   <g id="line2d_79">
    <path d="M 629.536582 295.16832 
L 682.779927 295.059124 
L 687.065367 294.827869 
L 689.792465 294.467352 
L 691.740393 293.995611 
L 693.298735 293.40032 
L 694.597353 292.6819 
L 695.766109 291.792734 
L 696.805004 290.744021 
L 697.843898 289.377964 
L 698.882793 287.604145 
L 699.791825 285.629749 
L 700.700858 283.166476 
L 701.609891 280.107776 
L 702.518924 276.33167 
L 703.557818 270.963483 
L 704.596713 264.26578 
L 705.635607 256.025451 
L 706.674502 246.058276 
L 707.843258 232.636793 
L 709.141876 214.991212 
L 710.700218 190.529938 
L 713.816902 136.741989 
L 715.764829 105.510799 
L 717.193309 85.941087 
L 718.491927 71.0697 
L 719.660684 60.048303 
L 720.82944 51.080572 
L 721.998196 43.905642 
L 723.037091 38.801487 
L 724.075985 34.692128 
L 725.11488 31.399427 
L 726.153775 28.767503 
L 727.322531 26.432343 
L 728.491287 24.611354 
L 729.660044 23.181215 
L 730.958662 21.934348 
L 732.387142 20.865483 
L 734.075345 19.88835 
L 736.023273 19.023238 
L 738.360785 18.240643 
L 740.82816 17.646433 
L 743.425396 17.252909 
L 745.892771 17.104629 
L 748.230284 17.185618 
L 750.437935 17.486169 
L 752.515724 18.00025 
L 754.463651 18.723396 
L 756.281716 19.650032 
L 757.96992 20.770564 
L 759.528262 22.068746 
L 761.086604 23.665413 
L 762.515084 25.434776 
L 763.943564 27.542314 
L 765.372044 30.036946 
L 766.800524 32.971142 
L 768.229004 36.399452 
L 769.657484 40.376333 
L 771.215825 45.400698 
L 772.774167 51.196539 
L 774.462371 58.39364 
L 776.150575 66.566843 
L 777.96864 76.438451 
L 780.046429 88.969714 
L 782.513804 105.271086 
L 786.149935 130.975485 
L 791.344407 167.545658 
L 794.201367 186.004456 
L 796.668742 200.500721 
L 798.876393 212.218001 
L 801.084044 222.734818 
L 803.161833 231.56887 
L 805.239622 239.429554 
L 807.317411 246.389508 
L 809.265338 252.167118 
L 811.213265 257.289633 
L 813.161193 261.822007 
L 815.10912 265.825811 
L 817.186909 269.578338 
L 819.264698 272.858017 
L 821.342487 275.722046 
L 823.420276 278.221518 
L 825.627927 280.528393 
L 827.835578 282.522732 
L 830.173091 284.340111 
L 832.640465 285.976598 
L 835.237702 287.43324 
L 838.094662 288.770723 
L 841.081484 289.922616 
L 844.328029 290.940852 
L 847.96416 291.848617 
L 852.119738 292.649993 
L 856.924625 293.33866 
L 862.508684 293.906129 
L 869.261498 294.362705 
L 877.96224 294.71659 
L 889.260218 294.955197 
L 889.260218 294.955197 
" clip-path="url(#p9a60a1fd6c)" style="fill: none; stroke: #ff7f0e; stroke-width: 1.5; stroke-linecap: square"/>
   </g>
   <g id="line2d_80">
    <path d="M 629.536582 295.16832 
L 703.68768 295.057806 
L 708.102982 294.825982 
L 710.959942 294.468039 
L 713.037731 294.002867 
L 714.855796 293.365974 
L 716.414138 292.571904 
L 717.712756 291.673461 
L 719.011375 290.497881 
L 720.180131 289.146269 
L 721.348887 287.457714 
L 722.517644 285.369869 
L 723.6864 282.816426 
L 724.855156 279.729265 
L 726.023913 276.041159 
L 727.322531 271.161777 
L 728.621149 265.386652 
L 730.049629 257.928892 
L 731.478109 249.265609 
L 733.036451 238.423868 
L 734.724655 225.080509 
L 736.672582 207.768511 
L 738.880233 186.025494 
L 741.737193 155.496049 
L 748.360145 83.740875 
L 750.437935 64.052379 
L 752.126138 50.029632 
L 753.554618 39.840498 
L 754.853236 32.075702 
L 756.021993 26.400772 
L 757.060887 22.451039 
L 757.96992 19.863852 
L 758.749091 18.300919 
L 759.3984 17.462461 
L 759.917847 17.095216 
L 760.437295 16.99666 
L 760.956742 17.164981 
L 761.476189 17.597625 
L 762.125498 18.505068 
L 762.774807 19.812348 
L 763.553978 21.895075 
L 764.463011 25.008006 
L 765.501905 29.420024 
L 766.670662 35.394296 
L 768.099142 43.998597 
L 769.787345 55.73186 
L 771.865135 71.948504 
L 774.851956 97.281813 
L 780.565876 145.957366 
L 783.292975 167.059933 
L 785.630487 183.474622 
L 787.838138 197.451504 
L 789.915927 209.253174 
L 791.993716 219.794128 
L 794.071505 229.153795 
L 796.019433 236.939753 
L 797.96736 243.853597 
L 799.915287 249.97823 
L 801.863215 255.393578 
L 803.811142 260.174815 
L 805.759069 264.391428 
L 807.706996 268.106844 
L 809.784785 271.582039 
L 811.862575 274.614463 
L 813.940364 277.259339 
L 816.148015 279.699297 
L 818.355665 281.80794 
L 820.693178 283.728958 
L 823.160553 285.458404 
L 825.757789 286.997543 
L 828.484887 288.35202 
L 831.471709 289.579435 
L 834.718255 290.664363 
L 838.224524 291.600874 
L 842.25024 292.43861 
L 846.795404 293.150546 
L 852.119738 293.752115 
L 858.482967 294.240683 
L 866.5344 294.625221 
L 877.312931 294.903086 
L 889.260218 295.048472 
L 889.260218 295.048472 
" clip-path="url(#p9a60a1fd6c)" style="fill: none; stroke: #2ca02c; stroke-width: 1.5; stroke-linecap: square"/>
   </g>
   <g id="line2d_81">
    <path d="M 746.282356 295.16832 
L 746.282356 17.102504 
" clip-path="url(#p9a60a1fd6c)" style="fill: none; stroke-dasharray: 1.5,2.475; stroke-dashoffset: 0; stroke: #ff7f0e; stroke-width: 1.5"/>
   </g>
   <g id="patch_13">
    <path d="M 616.5504 295.16832 
L 616.5504 16.09344 
" style="fill: none; stroke: #000000; stroke-width: 0.8; stroke-linejoin: miter; stroke-linecap: square"/>
   </g>
   <g id="patch_14">
    <path d="M 902.2464 295.16832 
L 902.2464 16.09344 
" style="fill: none; stroke: #000000; stroke-width: 0.8; stroke-linejoin: miter; stroke-linecap: square"/>
   </g>
   <g id="patch_15">
    <path d="M 616.5504 295.16832 
L 902.2464 295.16832 
" style="fill: none; stroke: #000000; stroke-width: 0.8; stroke-linejoin: miter; stroke-linecap: square"/>
   </g>
   <g id="patch_16">
    <path d="M 616.5504 16.09344 
L 902.2464 16.09344 
" style="fill: none; stroke: #000000; stroke-width: 0.8; stroke-linejoin: miter; stroke-linecap: square"/>
   </g>
   <g id="line2d_82">
    <path d="M 760.307433 295.16832 
L 760.307433 16.996196 
" clip-path="url(#p9a60a1fd6c)" style="fill: none; stroke-dasharray: 1.5,2.475; stroke-dashoffset: 0; stroke: #2ca02c; stroke-width: 1.5"/>
   </g>
   <g id="text_37">
    <!-- \(|\Delta\Gamma|(C_c)\) -->
    <g transform="translate(736.72013 10.09344) scale(0.12 -0.12)">
     <use xlink:href="#CMSY10-6a" transform="scale(0.996264)"/>
     <use xlink:href="#CMR17-1" transform="translate(27.674085 0) scale(0.996264)"/>
     <use xlink:href="#CMR17-0" transform="translate(104.593675 0) scale(0.996264)"/>
     <use xlink:href="#CMSY10-6a" transform="translate(161.975082 0) scale(0.996264)"/>
     <use xlink:href="#CMR17-28" transform="translate(189.649167 0) scale(0.996264)"/>
     <use xlink:href="#CMMI12-43" transform="translate(224.929935 0) scale(0.996264)"/>
     <use xlink:href="#CMMI12-63" transform="translate(294.721972 -14.943915) scale(0.697382)"/>
     <use xlink:href="#CMR17-29" transform="translate(324.608235 0) scale(0.996264)"/>
    </g>
   </g>
   <g id="legend_1">
    <g id="patch_17">
     <path d="M 816.567427 79.842153 
L 895.2464 79.842153 
Q 897.2464 79.842153 897.2464 77.842153 
L 897.2464 23.09344 
Q 897.2464 21.09344 895.2464 21.09344 
L 816.567427 21.09344 
Q 814.567427 21.09344 814.567427 23.09344 
L 814.567427 77.842153 
Q 814.567427 79.842153 816.567427 79.842153 
z
" style="fill: #ffffff; opacity: 0.8; stroke: #cccccc; stroke-linejoin: miter"/>
    </g>
    <g id="line2d_83">
     <path d="M 818.567427 28.59344 
L 828.567427 28.59344 
L 838.567427 28.59344 
" style="fill: none; stroke: #1f77b4; stroke-width: 1.5; stroke-linecap: square"/>
    </g>
    <g id="text_38">
     <!-- \(\lambda_t=1\) -->
     <g transform="translate(846.567427 32.09344) scale(0.1 -0.1)">
      <defs>
       <path id="CMMI12-74" d="M 1286 2566 
L 1875 2566 
C 1997 2566 2061 2566 2061 2681 
C 2061 2752 2022 2752 1894 2752 
L 1331 2752 
L 1568 3692 
C 1594 3781 1594 3794 1594 3840 
C 1594 3943 1510 4000 1427 4000 
C 1376 4000 1229 3981 1178 3775 
L 928 2752 
L 326 2752 
C 198 2752 141 2752 141 2630 
C 141 2566 186 2566 307 2566 
L 877 2566 
L 454 881 
C 403 658 384 594 384 511 
C 384 211 595 -64 954 -64 
C 1600 -64 1946 868 1946 912 
C 1946 951 1920 970 1882 970 
C 1869 970 1843 970 1830 944 
C 1824 938 1818 931 1773 829 
C 1638 511 1344 64 973 64 
C 781 64 768 224 768 364 
C 768 370 768 492 787 568 
L 1286 2566 
z
" transform="scale(0.015625)"/>
       <path id="CMR17-3d" d="M 4115 2017 
C 4211 2017 4307 2017 4307 2125 
C 4307 2240 4198 2240 4090 2240 
L 512 2240 
C 403 2240 294 2240 294 2125 
C 294 2017 390 2017 486 2017 
L 4115 2017 
z
M 4090 896 
C 4198 896 4307 896 4307 1011 
C 4307 1119 4211 1119 4115 1119 
L 486 1119 
C 390 1119 294 1119 294 1011 
C 294 896 403 896 512 896 
L 4090 896 
z
" transform="scale(0.015625)"/>
      </defs>
      <use xlink:href="#CMMI12-15" transform="scale(0.996264)"/>
      <use xlink:href="#CMMI12-74" transform="translate(56.904072 -14.943915) scale(0.697382)"/>
      <use xlink:href="#CMR17-3d" transform="translate(109.734522 0) scale(0.996264)"/>
      <use xlink:href="#CMR17-31" transform="translate(209.123319 0) scale(0.996264)"/>
     </g>
    </g>
    <g id="line2d_84">
     <path d="M 818.567427 42.530618 
L 828.567427 42.530618 
L 838.567427 42.530618 
" style="fill: none; stroke: #ff7f0e; stroke-width: 1.5; stroke-linecap: square"/>
    </g>
    <g id="text_39">
     <!-- \(\lambda_t=\lambda\) -->
     <g transform="translate(846.567427 46.030618) scale(0.1 -0.1)">
      <use xlink:href="#CMMI12-15" transform="scale(0.996264)"/>
      <use xlink:href="#CMMI12-74" transform="translate(56.904072 -14.943915) scale(0.697382)"/>
      <use xlink:href="#CMR17-3d" transform="translate(109.734522 0) scale(0.996264)"/>
      <use xlink:href="#CMMI12-15" transform="translate(209.123319 0) scale(0.996264)"/>
     </g>
    </g>
    <g id="line2d_85">
     <path d="M 818.567427 56.467797 
L 828.567427 56.467797 
L 838.567427 56.467797 
" style="fill: none; stroke: #2ca02c; stroke-width: 1.5; stroke-linecap: square"/>
    </g>
    <g id="text_40">
     <!-- \(\lambda&lt;\lambda_t&lt;1\) -->
     <g transform="translate(846.567427 59.967797) scale(0.1 -0.1)">
      <defs>
       <path id="CMMI12-3c" d="M 4218 3104 
C 4333 3155 4346 3200 4346 3238 
C 4346 3309 4294 3360 4224 3360 
C 4211 3360 4205 3353 4115 3315 
L 653 1719 
C 538 1667 525 1622 525 1584 
C 525 1539 531 1501 653 1442 
L 4115 -154 
C 4198 -192 4211 -192 4224 -192 
C 4294 -192 4346 -141 4346 -70 
C 4346 -32 4333 13 4218 64 
L 922 1581 
L 4218 3104 
z
" transform="scale(0.015625)"/>
      </defs>
      <use xlink:href="#CMMI12-15" transform="scale(0.996264)"/>
      <use xlink:href="#CMMI12-3c" transform="translate(84.578081 0) scale(0.996264)"/>
      <use xlink:href="#CMMI12-15" transform="translate(188.124185 0) scale(0.996264)"/>
      <use xlink:href="#CMMI12-74" transform="translate(245.028257 -14.943915) scale(0.697382)"/>
      <use xlink:href="#CMMI12-3c" transform="translate(297.858707 0) scale(0.996264)"/>
      <use xlink:href="#CMR17-31" transform="translate(401.404812 0) scale(0.996264)"/>
     </g>
    </g>
    <g id="line2d_86">
     <path d="M 818.567427 70.404975 
L 828.567427 70.404975 
L 838.567427 70.404975 
" style="fill: none; stroke: #d62728; stroke-width: 1.5; stroke-linecap: square"/>
    </g>
    <g id="text_41">
     <!-- \(\lambda=1\) -->
     <g transform="translate(846.567427 73.904975) scale(0.1 -0.1)">
      <use xlink:href="#CMMI12-15" transform="scale(0.996264)"/>
      <use xlink:href="#CMR17-3d" transform="translate(84.578081 0) scale(0.996264)"/>
      <use xlink:href="#CMR17-31" transform="translate(183.966878 0) scale(0.996264)"/>
     </g>
    </g>
   </g>
  </g>
  <g id="axes_4">
   <g id="patch_18">
    <path d="M 156.672 335.5848 
L 755.712 335.5848 
L 755.712 330.0984 
L 156.672 330.0984 
z
" clip-path="url(#p848ed51c66)" style="fill: #d3d3d3"/>
   </g>
   <g id="patch_19">
    <path d="M 156.672 335.5848 
L 456.192 335.5848 
L 456.192 330.0984 
L 156.672 330.0984 
z
" clip-path="url(#p848ed51c66)" style="fill: #1f77b4"/>
   </g>
   <g id="line2d_87">
    <path d="M 456.192 338.328 
L 456.192 327.3552 
" clip-path="url(#pd711d98ec5)" style="fill: none; stroke: #ff0000; stroke-linecap: square"/>
   </g>
   <g id="line2d_88">
    <defs>
     <path id="mb9c2b2dded" d="M 0 5 
C 1.326016 5 2.597899 4.473168 3.535534 3.535534 
C 4.473168 2.597899 5 1.326016 5 0 
C 5 -1.326016 4.473168 -2.597899 3.535534 -3.535534 
C 2.597899 -4.473168 1.326016 -5 0 -5 
C -1.326016 -5 -2.597899 -4.473168 -3.535534 -3.535534 
C -4.473168 -2.597899 -5 -1.326016 -5 0 
C -5 1.326016 -4.473168 2.597899 -3.535534 3.535534 
C -2.597899 4.473168 -1.326016 5 0 5 
z
" style="stroke: #bfbfbf"/>
    </defs>
    <g>
     <use xlink:href="#mb9c2b2dded" x="456.192" y="332.8416" style="fill: #ffffff; stroke: #bfbfbf"/>
    </g>
   </g>
   <g id="text_42">
    <!-- \(\pi\) -->
    <g transform="translate(139.012225 335.33226) scale(0.1 -0.1)">
     <use xlink:href="#CMMI12-19" transform="scale(0.996264)"/>
    </g>
   </g>
   <g id="text_43">
    <!-- 1.00e+00 -->
    <g transform="translate(767.6928 335.33226) scale(0.1 -0.1)">
     <defs>
      <path id="CMR17-2e" d="M 1062 261 
C 1062 420 934 522 800 522 
C 672 522 538 420 538 261 
C 538 102 666 0 800 0 
C 928 0 1062 102 1062 261 
z
" transform="scale(0.015625)"/>
      <path id="CMR17-65" d="M 2438 1472 
C 2464 1498 2464 1511 2464 1576 
C 2464 2238 2118 2816 1389 2816 
C 710 2816 173 2169 173 1383 
C 173 551 781 -64 1459 -64 
C 2176 -64 2458 607 2458 740 
C 2458 784 2419 784 2406 784 
C 2362 784 2355 771 2330 696 
C 2189 265 1837 51 1504 51 
C 1229 51 954 203 781 480 
C 582 803 582 1176 582 1472 
L 2438 1472 
z
M 589 1568 
C 634 2505 1126 2714 1382 2714 
C 1818 2714 2112 2297 2118 1568 
L 589 1568 
z
" transform="scale(0.015625)"/>
      <path id="CMR17-2b" d="M 2413 1472 
L 4109 1472 
C 4198 1472 4307 1472 4307 1580 
C 4307 1695 4205 1695 4109 1695 
L 2413 1695 
L 2413 3386 
C 2413 3475 2413 3584 2304 3584 
C 2189 3584 2189 3482 2189 3386 
L 2189 1695 
L 493 1695 
C 403 1695 294 1695 294 1587 
C 294 1472 397 1472 493 1472 
L 2189 1472 
L 2189 -218 
C 2189 -307 2189 -416 2298 -416 
C 2413 -416 2413 -314 2413 -218 
L 2413 1472 
z
" transform="scale(0.015625)"/>
     </defs>
     <use xlink:href="#CMR17-31" transform="scale(0.996264)"/>
     <use xlink:href="#CMR17-2e" transform="translate(45.690477 0) scale(0.996264)"/>
     <use xlink:href="#CMR17-30" transform="translate(70.561536 0) scale(0.996264)"/>
     <use xlink:href="#CMR17-30" transform="translate(116.252013 0) scale(0.996264)"/>
     <use xlink:href="#CMR17-65" transform="translate(161.94249 0) scale(0.996264)"/>
     <use xlink:href="#CMR17-2b" transform="translate(202.42815 0) scale(0.996264)"/>
     <use xlink:href="#CMR17-30" transform="translate(274.142939 0) scale(0.996264)"/>
     <use xlink:href="#CMR17-30" transform="translate(319.833416 0) scale(0.996264)"/>
    </g>
   </g>
  </g>
  <g id="axes_5">
   <g id="patch_20">
    <path d="M 156.672 346.5576 
L 755.712 346.5576 
L 755.712 341.0712 
L 156.672 341.0712 
z
" clip-path="url(#pbb1b615b74)" style="fill: #d3d3d3"/>
   </g>
   <g id="patch_21">
    <path d="M 156.672 346.5576 
L 156.672 346.5576 
L 156.672 341.0712 
L 156.672 341.0712 
z
" clip-path="url(#pbb1b615b74)" style="fill: #1f77b4"/>
   </g>
   <g id="line2d_89">
    <path d="M 156.672 349.3008 
L 156.672 338.328 
" clip-path="url(#p759a09a2eb)" style="fill: none; stroke: #ff0000; stroke-linecap: square"/>
   </g>
   <g id="line2d_90">
    <g>
     <use xlink:href="#mb9c2b2dded" x="156.672" y="343.8144" style="fill: #ffffff; stroke: #bfbfbf"/>
    </g>
   </g>
   <g id="text_44">
    <!-- \(\lambda\) -->
    <g transform="translate(138.879635 346.30506) scale(0.1 -0.1)">
     <use xlink:href="#CMMI12-15" transform="scale(0.996264)"/>
    </g>
   </g>
   <g id="text_45">
    <!-- 1.00e-01 -->
    <g transform="translate(767.6928 346.30506) scale(0.1 -0.1)">
     <defs>
      <path id="CMR17-2d" d="M 1632 1216 
L 1632 1496 
L 26 1496 
L 26 1216 
L 1632 1216 
z
" transform="scale(0.015625)"/>
     </defs>
     <use xlink:href="#CMR17-31" transform="scale(0.996264)"/>
     <use xlink:href="#CMR17-2e" transform="translate(45.690477 0) scale(0.996264)"/>
     <use xlink:href="#CMR17-30" transform="translate(70.561536 0) scale(0.996264)"/>
     <use xlink:href="#CMR17-30" transform="translate(116.252013 0) scale(0.996264)"/>
     <use xlink:href="#CMR17-65" transform="translate(161.94249 0) scale(0.996264)"/>
     <use xlink:href="#CMR17-2d" transform="translate(202.42815 0) scale(0.996264)"/>
     <use xlink:href="#CMR17-30" transform="translate(232.504117 0) scale(0.996264)"/>
     <use xlink:href="#CMR17-31" transform="translate(278.194594 0) scale(0.996264)"/>
    </g>
   </g>
  </g>
  <g id="axes_6">
   <g id="patch_22">
    <path d="M 156.672 357.5304 
L 755.712 357.5304 
L 755.712 352.044 
L 156.672 352.044 
z
" clip-path="url(#p183dc79b28)" style="fill: #d3d3d3"/>
   </g>
   <g id="patch_23">
    <path d="M 156.672 357.5304 
L 456.192 357.5304 
L 456.192 352.044 
L 156.672 352.044 
z
" clip-path="url(#p183dc79b28)" style="fill: #1f77b4"/>
   </g>
   <g id="line2d_91">
    <path d="M 456.192 360.2736 
L 456.192 349.3008 
" clip-path="url(#p037be93172)" style="fill: none; stroke: #ff0000; stroke-linecap: square"/>
   </g>
   <g id="line2d_92">
    <g>
     <use xlink:href="#mb9c2b2dded" x="456.192" y="354.7872" style="fill: #ffffff; stroke: #bfbfbf"/>
    </g>
   </g>
   <g id="text_46">
    <!-- \(\lambda_t\) -->
    <g transform="translate(135.870077 357.27786) scale(0.1 -0.1)">
     <use xlink:href="#CMMI12-15" transform="scale(0.996264)"/>
     <use xlink:href="#CMMI12-74" transform="translate(56.904072 -14.943915) scale(0.697382)"/>
    </g>
   </g>
   <g id="text_47">
    <!-- 3.16e-01 -->
    <g transform="translate(767.6928 357.27786) scale(0.1 -0.1)">
     <use xlink:href="#CMR17-33" transform="scale(0.996264)"/>
     <use xlink:href="#CMR17-2e" transform="translate(45.690477 0) scale(0.996264)"/>
     <use xlink:href="#CMR17-31" transform="translate(70.561536 0) scale(0.996264)"/>
     <use xlink:href="#CMR17-36" transform="translate(116.252013 0) scale(0.996264)"/>
     <use xlink:href="#CMR17-65" transform="translate(161.94249 0) scale(0.996264)"/>
     <use xlink:href="#CMR17-2d" transform="translate(202.42815 0) scale(0.996264)"/>
     <use xlink:href="#CMR17-30" transform="translate(232.504117 0) scale(0.996264)"/>
     <use xlink:href="#CMR17-31" transform="translate(278.194594 0) scale(0.996264)"/>
    </g>
   </g>
  </g>
  <g id="axes_7">
   <g id="patch_24">
    <path d="M 18.432 351.1296 
L 110.592 351.1296 
L 110.592 336.4992 
L 18.432 336.4992 
z
" style="fill: #d9d9d9"/>
   </g>
   <g id="matplotlib.axis_7"/>
   <g id="matplotlib.axis_8"/>
   <g id="patch_25">
    <path d="M 18.432 351.1296 
L 18.432 336.4992 
" style="fill: none; stroke: #000000; stroke-width: 0.8; stroke-linejoin: miter; stroke-linecap: square"/>
   </g>
   <g id="patch_26">
    <path d="M 110.592 351.1296 
L 110.592 336.4992 
" style="fill: none; stroke: #000000; stroke-width: 0.8; stroke-linejoin: miter; stroke-linecap: square"/>
   </g>
   <g id="patch_27">
    <path d="M 18.432 351.1296 
L 110.592 351.1296 
" style="fill: none; stroke: #000000; stroke-width: 0.8; stroke-linejoin: miter; stroke-linecap: square"/>
   </g>
   <g id="patch_28">
    <path d="M 18.432 336.4992 
L 110.592 336.4992 
" style="fill: none; stroke: #000000; stroke-width: 0.8; stroke-linejoin: miter; stroke-linecap: square"/>
   </g>
   <g id="text_48">
    <!-- Reset -->
    <g transform="translate(52.515316 346.30506) scale(0.1 -0.1)">
     <defs>
      <path id="CMR17-52" d="M 2509 2146 
C 3117 2268 3629 2676 3629 3186 
C 3629 3785 2950 4326 2054 4326 
L 333 4326 
L 333 4160 
C 774 4160 845 4160 845 3873 
L 845 415 
C 845 128 774 128 333 128 
L 333 -26 
C 518 -26 851 -26 1050 -26 
C 1248 -26 1581 -26 1766 -26 
L 1766 128 
C 1325 128 1254 128 1254 417 
L 1254 2112 
L 2003 2112 
C 2368 2112 2573 1964 2662 1881 
C 2918 1632 2918 1459 2918 1024 
C 2918 595 2918 377 3110 160 
C 3354 -102 3680 -128 3821 -128 
C 4294 -128 4365 396 4365 503 
C 4365 540 4365 585 4307 585 
C 4256 585 4250 547 4250 522 
C 4218 112 4032 -26 3834 -26 
C 3482 -26 3443 375 3405 764 
C 3386 898 3373 993 3360 1133 
C 3322 1452 3270 1917 2509 2146 
z
M 1984 2214 
L 1254 2214 
L 1254 3913 
C 1254 4129 1267 4160 1523 4160 
L 1990 4160 
C 2522 4160 3142 3977 3142 3190 
C 3142 2372 2464 2214 1984 2214 
z
" transform="scale(0.015625)"/>
      <path id="CMR17-73" d="M 1978 2697 
C 1978 2813 1971 2819 1933 2819 
C 1907 2819 1901 2813 1824 2717 
C 1805 2691 1747 2626 1728 2601 
C 1523 2819 1235 2819 1126 2819 
C 416 2819 160 2447 160 2076 
C 160 1498 813 1365 998 1325 
C 1402 1243 1542 1217 1677 1101 
C 1760 1025 1901 884 1901 654 
C 1901 384 1747 38 1158 38 
C 602 38 403 460 288 1021 
C 269 1110 269 1117 218 1117 
C 166 1117 160 1110 160 983 
L 160 63 
C 160 -51 166 -58 205 -58 
C 237 -58 243 -51 275 0 
C 314 57 410 211 448 276 
C 576 103 800 -64 1158 -64 
C 1792 -64 2131 283 2131 784 
C 2131 1112 1958 1285 1875 1362 
C 1683 1561 1459 1606 1190 1657 
C 838 1735 390 1825 390 2217 
C 390 2383 480 2737 1126 2737 
C 1811 2737 1850 2094 1862 1888 
C 1869 1856 1901 1849 1920 1849 
C 1978 1849 1978 1869 1978 1978 
L 1978 2697 
z
" transform="scale(0.015625)"/>
     </defs>
     <use xlink:href="#CMR17-52" transform="scale(0.996264)"/>
     <use xlink:href="#CMR17-65" transform="translate(67.791102 0) scale(0.996264)"/>
     <use xlink:href="#CMR17-73" transform="translate(108.276762 0) scale(0.996264)"/>
     <use xlink:href="#CMR17-65" transform="translate(144.0781 0) scale(0.996264)"/>
     <use xlink:href="#CMR17-74" transform="translate(184.563761 0) scale(0.996264)"/>
    </g>
   </g>
  </g>
 </g>
 <defs>
  <clipPath id="p0fd002a3e7">
   <rect x="45.1584" y="16.09344" width="285.696" height="279.07488"/>
  </clipPath>
  <clipPath id="pf198e65f40">
   <rect x="330.8544" y="16.09344" width="285.696" height="279.07488"/>
  </clipPath>
  <clipPath id="p9a60a1fd6c">
   <rect x="616.5504" y="16.09344" width="285.696" height="279.07488"/>
  </clipPath>
  <clipPath id="p848ed51c66">
   <rect x="156.672" y="327.3552" width="599.04" height="10.9728"/>
  </clipPath>
  <clipPath id="pd711d98ec5">
   <path d="M 156.672 335.5848 
L 755.712 335.5848 
L 755.712 330.0984 
L 156.672 330.0984 
z
"/>
  </clipPath>
  <clipPath id="pbb1b615b74">
   <rect x="156.672" y="338.328" width="599.04" height="10.9728"/>
  </clipPath>
  <clipPath id="p759a09a2eb">
   <path d="M 156.672 346.5576 
L 755.712 346.5576 
L 755.712 341.0712 
L 156.672 341.0712 
z
"/>
  </clipPath>
  <clipPath id="p183dc79b28">
   <rect x="156.672" y="349.3008" width="599.04" height="10.9728"/>
  </clipPath>
  <clipPath id="p037be93172">
   <path d="M 156.672 357.5304 
L 755.712 357.5304 
L 755.712 352.044 
L 156.672 352.044 
z
"/>
  </clipPath>
 </defs>
</svg>
