<?xml version="1.0" encoding="utf-8" standalone="no"?>
<!DOCTYPE svg PUBLIC "-//W3C//DTD SVG 1.1//EN"
  "http://www.w3.org/Graphics/SVG/1.1/DTD/svg11.dtd">
<svg xmlns:xlink="http://www.w3.org/1999/xlink" width="488.16pt" height="292.32pt" viewBox="0 0 488.16 292.32" xmlns="http://www.w3.org/2000/svg" version="1.1">
 <metadata>
  <rdf:RDF xmlns:dc="http://purl.org/dc/elements/1.1/" xmlns:cc="http://creativecommons.org/ns#" xmlns:rdf="http://www.w3.org/1999/02/22-rdf-syntax-ns#">
   <cc:Work>
    <dc:type rdf:resource="http://purl.org/dc/dcmitype/StillImage"/>
    <dc:date>2024-09-09T23:59:48.695096</dc:date>
    <dc:format>image/svg+xml</dc:format>
    <dc:creator>
     <cc:Agent>
      <dc:title>Matplotlib v3.9.0, https://matplotlib.org/</dc:title>
     </cc:Agent>
    </dc:creator>
   </cc:Work>
  </rdf:RDF>
 </metadata>
 <defs>
  <style type="text/css">*{stroke-linejoin: round; stroke-linecap: butt}</style>
 </defs>
 <g id="figure_1">
  <g id="patch_1">
   <path d="M 0 292.32 
L 488.16 292.32 
L 488.16 0 
L 0 0 
z
" style="fill: #ffffff"/>
  </g>
  <g id="axes_1">
   <g id="patch_2">
    <path d="M 40.098857 230.376 
L 182.478857 230.376 
L 182.478857 16.008 
L 40.098857 16.008 
z
" style="fill: #ffffff"/>
   </g>
   <g id="line2d_1">
    <path d="M 46.570675 230.376 
L 46.570675 16.008 
" clip-path="url(#pedc7f3d76d)" style="fill: none; stroke-dasharray: 1.5,2.475; stroke-dashoffset: 0; stroke: #000000; stroke-width: 1.5"/>
   </g>
   <g id="matplotlib.axis_1">
    <g id="xtick_1">
     <g id="line2d_2">
      <defs>
       <path id="m2a734cddea" d="M 0 0 
L 0 3.5 
" style="stroke: #000000; stroke-width: 0.8"/>
      </defs>
      <g>
       <use xlink:href="#m2a734cddea" x="68.143403" y="230.376" style="stroke: #000000; stroke-width: 0.8"/>
      </g>
     </g>
     <g id="text_1">
      <!-- $\mathdefault{0.25}$ -->
      <g transform="translate(59.287695 244.294498) scale(0.1 -0.1)">
       <defs>
        <path id="CMR17-30" d="M 2688 2025 
C 2688 2416 2682 3080 2413 3591 
C 2176 4039 1798 4198 1466 4198 
C 1158 4198 768 4058 525 3597 
C 269 3118 243 2524 243 2025 
C 243 1661 250 1106 448 619 
C 723 -39 1216 -128 1466 -128 
C 1760 -128 2208 -7 2470 600 
C 2662 1042 2688 1559 2688 2025 
z
M 1466 -26 
C 1056 -26 813 325 723 812 
C 653 1188 653 1738 653 2096 
C 653 2588 653 2997 736 3387 
C 858 3929 1216 4096 1466 4096 
C 1728 4096 2067 3923 2189 3400 
C 2272 3036 2278 2607 2278 2096 
C 2278 1680 2278 1169 2202 792 
C 2067 95 1690 -26 1466 -26 
z
" transform="scale(0.015625)"/>
        <path id="CMMI12-3a" d="M 1178 307 
C 1178 492 1024 619 870 619 
C 685 619 557 466 557 313 
C 557 128 710 0 864 0 
C 1050 0 1178 153 1178 307 
z
" transform="scale(0.015625)"/>
        <path id="CMR17-32" d="M 2669 989 
L 2554 989 
C 2490 536 2438 459 2413 420 
C 2381 369 1920 369 1830 369 
L 602 369 
C 832 619 1280 1072 1824 1597 
C 2214 1967 2669 2402 2669 3035 
C 2669 3790 2067 4224 1395 4224 
C 691 4224 262 3604 262 3030 
C 262 2780 448 2748 525 2748 
C 589 2748 781 2787 781 3010 
C 781 3207 614 3264 525 3264 
C 486 3264 448 3258 422 3245 
C 544 3790 915 4058 1306 4058 
C 1862 4058 2227 3617 2227 3035 
C 2227 2479 1901 2000 1536 1584 
L 262 146 
L 262 0 
L 2515 0 
L 2669 989 
z
" transform="scale(0.015625)"/>
        <path id="CMR17-35" d="M 730 3692 
C 794 3666 1056 3584 1325 3584 
C 1920 3584 2246 3911 2432 4100 
C 2432 4157 2432 4192 2394 4192 
C 2387 4192 2374 4192 2323 4163 
C 2099 4058 1837 3973 1517 3973 
C 1325 3973 1037 3999 723 4139 
C 653 4171 640 4171 634 4171 
C 602 4171 595 4164 595 4037 
L 595 2203 
C 595 2089 595 2057 659 2057 
C 691 2057 704 2070 736 2114 
C 941 2401 1222 2522 1542 2522 
C 1766 2522 2246 2382 2246 1289 
C 2246 1085 2246 715 2054 421 
C 1894 159 1645 25 1370 25 
C 947 25 518 320 403 814 
C 429 807 480 795 506 795 
C 589 795 749 840 749 1038 
C 749 1210 627 1280 506 1280 
C 358 1280 262 1190 262 1011 
C 262 454 704 -128 1382 -128 
C 2042 -128 2669 440 2669 1264 
C 2669 2030 2170 2624 1549 2624 
C 1222 2624 947 2503 730 2274 
L 730 3692 
z
" transform="scale(0.015625)"/>
       </defs>
       <use xlink:href="#CMR17-30" transform="scale(0.996264)"/>
       <use xlink:href="#CMMI12-3a" transform="translate(45.690477 0) scale(0.996264)"/>
       <use xlink:href="#CMR17-32" transform="translate(72.787654 0) scale(0.996264)"/>
       <use xlink:href="#CMR17-35" transform="translate(118.478131 0) scale(0.996264)"/>
      </g>
     </g>
    </g>
    <g id="xtick_2">
     <g id="line2d_3">
      <g>
       <use xlink:href="#m2a734cddea" x="104.097948" y="230.376" style="stroke: #000000; stroke-width: 0.8"/>
      </g>
     </g>
     <g id="text_2">
      <!-- $\mathdefault{0.50}$ -->
      <g transform="translate(95.242241 244.294498) scale(0.1 -0.1)">
       <use xlink:href="#CMR17-30" transform="scale(0.996264)"/>
       <use xlink:href="#CMMI12-3a" transform="translate(45.690477 0) scale(0.996264)"/>
       <use xlink:href="#CMR17-35" transform="translate(72.787654 0) scale(0.996264)"/>
       <use xlink:href="#CMR17-30" transform="translate(118.478131 0) scale(0.996264)"/>
      </g>
     </g>
    </g>
    <g id="xtick_3">
     <g id="line2d_4">
      <g>
       <use xlink:href="#m2a734cddea" x="140.052494" y="230.376" style="stroke: #000000; stroke-width: 0.8"/>
      </g>
     </g>
     <g id="text_3">
      <!-- $\mathdefault{0.75}$ -->
      <g transform="translate(131.196786 244.294498) scale(0.1 -0.1)">
       <defs>
        <path id="CMR17-37" d="M 2886 3941 
L 2886 4081 
L 1382 4081 
C 634 4081 621 4165 595 4288 
L 480 4288 
L 294 3094 
L 410 3094 
C 429 3215 474 3540 550 3661 
C 589 3712 1062 3712 1171 3712 
L 2579 3712 
L 1869 2661 
C 1395 1954 1069 999 1069 165 
C 1069 89 1069 -128 1299 -128 
C 1530 -128 1530 89 1530 171 
L 1530 465 
C 1530 1508 1709 2196 2003 2636 
L 2886 3941 
z
" transform="scale(0.015625)"/>
       </defs>
       <use xlink:href="#CMR17-30" transform="scale(0.996264)"/>
       <use xlink:href="#CMMI12-3a" transform="translate(45.690477 0) scale(0.996264)"/>
       <use xlink:href="#CMR17-37" transform="translate(72.787654 0) scale(0.996264)"/>
       <use xlink:href="#CMR17-35" transform="translate(118.478131 0) scale(0.996264)"/>
      </g>
     </g>
    </g>
    <g id="xtick_4">
     <g id="line2d_5">
      <g>
       <use xlink:href="#m2a734cddea" x="176.007039" y="230.376" style="stroke: #000000; stroke-width: 0.8"/>
      </g>
     </g>
     <g id="text_4">
      <!-- $\mathdefault{1.00}$ -->
      <g transform="translate(167.151332 244.294498) scale(0.1 -0.1)">
       <defs>
        <path id="CMR17-31" d="M 1702 4058 
C 1702 4192 1696 4192 1606 4192 
C 1357 3916 979 3827 621 3827 
C 602 3827 570 3827 563 3808 
C 557 3795 557 3782 557 3648 
C 755 3648 1088 3686 1344 3839 
L 1344 461 
C 1344 236 1331 160 781 160 
L 589 160 
L 589 0 
C 896 0 1216 0 1523 0 
C 1830 0 2150 0 2458 0 
L 2458 160 
L 2266 160 
C 1715 160 1702 230 1702 458 
L 1702 4058 
z
" transform="scale(0.015625)"/>
       </defs>
       <use xlink:href="#CMR17-31" transform="scale(0.996264)"/>
       <use xlink:href="#CMMI12-3a" transform="translate(45.690477 0) scale(0.996264)"/>
       <use xlink:href="#CMR17-30" transform="translate(72.787654 0) scale(0.996264)"/>
       <use xlink:href="#CMR17-30" transform="translate(118.478131 0) scale(0.996264)"/>
      </g>
     </g>
    </g>
    <g id="text_5">
     <!-- \(\lambda\) -->
     <g transform="translate(108.383074 257.150175) scale(0.1 -0.1)">
      <defs>
       <path id="CMMI12-15" d="M 1978 3965 
C 1818 4416 1312 4416 1229 4416 
C 1190 4416 1120 4416 1120 4352 
C 1120 4302 1158 4295 1190 4289 
C 1286 4276 1363 4263 1466 4080 
C 1530 3959 2189 2059 2189 2046 
C 2189 2040 2182 2033 2131 1982 
L 467 311 
C 390 234 339 183 339 102 
C 339 12 416 -64 518 -64 
C 544 -64 614 -51 653 -13 
C 755 82 1670 1194 2253 1881 
C 2419 1383 2624 797 2822 261 
C 2854 166 2886 76 2976 -6 
C 3040 -64 3053 -64 3232 -64 
L 3354 -64 
C 3379 -64 3424 -64 3424 -13 
C 3424 13 3418 19 3392 45 
C 3334 115 3290 229 3264 306 
L 1978 3965 
z
" transform="scale(0.015625)"/>
      </defs>
      <use xlink:href="#CMMI12-15" transform="scale(0.996264)"/>
     </g>
    </g>
   </g>
   <g id="matplotlib.axis_2">
    <g id="ytick_1">
     <g id="line2d_6">
      <path d="M 40.098857 230.376 
L 182.478857 230.376 
" clip-path="url(#pedc7f3d76d)" style="fill: none; stroke: #b0b0b0; stroke-width: 0.8; stroke-linecap: square"/>
     </g>
     <g id="line2d_7">
      <defs>
       <path id="m24e9b2bba1" d="M 0 0 
L -3.5 0 
" style="stroke: #000000; stroke-width: 0.8"/>
      </defs>
      <g>
       <use xlink:href="#m24e9b2bba1" x="40.098857" y="230.376" style="stroke: #000000; stroke-width: 0.8"/>
      </g>
     </g>
     <g id="text_6">
      <!-- $\mathdefault{0.00}$ -->
      <g transform="translate(15.387443 233.835249) scale(0.1 -0.1)">
       <use xlink:href="#CMR17-30" transform="scale(0.996264)"/>
       <use xlink:href="#CMMI12-3a" transform="translate(45.690477 0) scale(0.996264)"/>
       <use xlink:href="#CMR17-30" transform="translate(72.787654 0) scale(0.996264)"/>
       <use xlink:href="#CMR17-30" transform="translate(118.478131 0) scale(0.996264)"/>
      </g>
     </g>
    </g>
    <g id="ytick_2">
     <g id="line2d_8">
      <path d="M 40.098857 203.58 
L 182.478857 203.58 
" clip-path="url(#pedc7f3d76d)" style="fill: none; stroke: #b0b0b0; stroke-width: 0.8; stroke-linecap: square"/>
     </g>
     <g id="line2d_9">
      <g>
       <use xlink:href="#m24e9b2bba1" x="40.098857" y="203.58" style="stroke: #000000; stroke-width: 0.8"/>
      </g>
     </g>
     <g id="text_7">
      <!-- $\mathdefault{0.25}$ -->
      <g transform="translate(15.387443 207.039249) scale(0.1 -0.1)">
       <use xlink:href="#CMR17-30" transform="scale(0.996264)"/>
       <use xlink:href="#CMMI12-3a" transform="translate(45.690477 0) scale(0.996264)"/>
       <use xlink:href="#CMR17-32" transform="translate(72.787654 0) scale(0.996264)"/>
       <use xlink:href="#CMR17-35" transform="translate(118.478131 0) scale(0.996264)"/>
      </g>
     </g>
    </g>
    <g id="ytick_3">
     <g id="line2d_10">
      <path d="M 40.098857 176.784 
L 182.478857 176.784 
" clip-path="url(#pedc7f3d76d)" style="fill: none; stroke: #b0b0b0; stroke-width: 0.8; stroke-linecap: square"/>
     </g>
     <g id="line2d_11">
      <g>
       <use xlink:href="#m24e9b2bba1" x="40.098857" y="176.784" style="stroke: #000000; stroke-width: 0.8"/>
      </g>
     </g>
     <g id="text_8">
      <!-- $\mathdefault{0.50}$ -->
      <g transform="translate(15.387443 180.243249) scale(0.1 -0.1)">
       <use xlink:href="#CMR17-30" transform="scale(0.996264)"/>
       <use xlink:href="#CMMI12-3a" transform="translate(45.690477 0) scale(0.996264)"/>
       <use xlink:href="#CMR17-35" transform="translate(72.787654 0) scale(0.996264)"/>
       <use xlink:href="#CMR17-30" transform="translate(118.478131 0) scale(0.996264)"/>
      </g>
     </g>
    </g>
    <g id="ytick_4">
     <g id="line2d_12">
      <path d="M 40.098857 149.988 
L 182.478857 149.988 
" clip-path="url(#pedc7f3d76d)" style="fill: none; stroke: #b0b0b0; stroke-width: 0.8; stroke-linecap: square"/>
     </g>
     <g id="line2d_13">
      <g>
       <use xlink:href="#m24e9b2bba1" x="40.098857" y="149.988" style="stroke: #000000; stroke-width: 0.8"/>
      </g>
     </g>
     <g id="text_9">
      <!-- $\mathdefault{0.75}$ -->
      <g transform="translate(15.387443 153.447249) scale(0.1 -0.1)">
       <use xlink:href="#CMR17-30" transform="scale(0.996264)"/>
       <use xlink:href="#CMMI12-3a" transform="translate(45.690477 0) scale(0.996264)"/>
       <use xlink:href="#CMR17-37" transform="translate(72.787654 0) scale(0.996264)"/>
       <use xlink:href="#CMR17-35" transform="translate(118.478131 0) scale(0.996264)"/>
      </g>
     </g>
    </g>
    <g id="ytick_5">
     <g id="line2d_14">
      <path d="M 40.098857 123.192 
L 182.478857 123.192 
" clip-path="url(#pedc7f3d76d)" style="fill: none; stroke: #b0b0b0; stroke-width: 0.8; stroke-linecap: square"/>
     </g>
     <g id="line2d_15">
      <g>
       <use xlink:href="#m24e9b2bba1" x="40.098857" y="123.192" style="stroke: #000000; stroke-width: 0.8"/>
      </g>
     </g>
     <g id="text_10">
      <!-- $\mathdefault{1.00}$ -->
      <g transform="translate(15.387443 126.651249) scale(0.1 -0.1)">
       <use xlink:href="#CMR17-31" transform="scale(0.996264)"/>
       <use xlink:href="#CMMI12-3a" transform="translate(45.690477 0) scale(0.996264)"/>
       <use xlink:href="#CMR17-30" transform="translate(72.787654 0) scale(0.996264)"/>
       <use xlink:href="#CMR17-30" transform="translate(118.478131 0) scale(0.996264)"/>
      </g>
     </g>
    </g>
    <g id="ytick_6">
     <g id="line2d_16">
      <path d="M 40.098857 96.396 
L 182.478857 96.396 
" clip-path="url(#pedc7f3d76d)" style="fill: none; stroke: #b0b0b0; stroke-width: 0.8; stroke-linecap: square"/>
     </g>
     <g id="line2d_17">
      <g>
       <use xlink:href="#m24e9b2bba1" x="40.098857" y="96.396" style="stroke: #000000; stroke-width: 0.8"/>
      </g>
     </g>
     <g id="text_11">
      <!-- $\mathdefault{1.25}$ -->
      <g transform="translate(15.387443 99.855249) scale(0.1 -0.1)">
       <use xlink:href="#CMR17-31" transform="scale(0.996264)"/>
       <use xlink:href="#CMMI12-3a" transform="translate(45.690477 0) scale(0.996264)"/>
       <use xlink:href="#CMR17-32" transform="translate(72.787654 0) scale(0.996264)"/>
       <use xlink:href="#CMR17-35" transform="translate(118.478131 0) scale(0.996264)"/>
      </g>
     </g>
    </g>
    <g id="ytick_7">
     <g id="line2d_18">
      <path d="M 40.098857 69.6 
L 182.478857 69.6 
" clip-path="url(#pedc7f3d76d)" style="fill: none; stroke: #b0b0b0; stroke-width: 0.8; stroke-linecap: square"/>
     </g>
     <g id="line2d_19">
      <g>
       <use xlink:href="#m24e9b2bba1" x="40.098857" y="69.6" style="stroke: #000000; stroke-width: 0.8"/>
      </g>
     </g>
     <g id="text_12">
      <!-- $\mathdefault{1.50}$ -->
      <g transform="translate(15.387443 73.059249) scale(0.1 -0.1)">
       <use xlink:href="#CMR17-31" transform="scale(0.996264)"/>
       <use xlink:href="#CMMI12-3a" transform="translate(45.690477 0) scale(0.996264)"/>
       <use xlink:href="#CMR17-35" transform="translate(72.787654 0) scale(0.996264)"/>
       <use xlink:href="#CMR17-30" transform="translate(118.478131 0) scale(0.996264)"/>
      </g>
     </g>
    </g>
    <g id="ytick_8">
     <g id="line2d_20">
      <path d="M 40.098857 42.804 
L 182.478857 42.804 
" clip-path="url(#pedc7f3d76d)" style="fill: none; stroke: #b0b0b0; stroke-width: 0.8; stroke-linecap: square"/>
     </g>
     <g id="line2d_21">
      <g>
       <use xlink:href="#m24e9b2bba1" x="40.098857" y="42.804" style="stroke: #000000; stroke-width: 0.8"/>
      </g>
     </g>
     <g id="text_13">
      <!-- $\mathdefault{1.75}$ -->
      <g transform="translate(15.387443 46.263249) scale(0.1 -0.1)">
       <use xlink:href="#CMR17-31" transform="scale(0.996264)"/>
       <use xlink:href="#CMMI12-3a" transform="translate(45.690477 0) scale(0.996264)"/>
       <use xlink:href="#CMR17-37" transform="translate(72.787654 0) scale(0.996264)"/>
       <use xlink:href="#CMR17-35" transform="translate(118.478131 0) scale(0.996264)"/>
      </g>
     </g>
    </g>
    <g id="ytick_9">
     <g id="line2d_22">
      <path d="M 40.098857 16.008 
L 182.478857 16.008 
" clip-path="url(#pedc7f3d76d)" style="fill: none; stroke: #b0b0b0; stroke-width: 0.8; stroke-linecap: square"/>
     </g>
     <g id="line2d_23">
      <g>
       <use xlink:href="#m24e9b2bba1" x="40.098857" y="16.008" style="stroke: #000000; stroke-width: 0.8"/>
      </g>
     </g>
     <g id="text_14">
      <!-- $\mathdefault{2.00}$ -->
      <g transform="translate(15.387443 19.467249) scale(0.1 -0.1)">
       <use xlink:href="#CMR17-32" transform="scale(0.996264)"/>
       <use xlink:href="#CMMI12-3a" transform="translate(45.690477 0) scale(0.996264)"/>
       <use xlink:href="#CMR17-30" transform="translate(72.787654 0) scale(0.996264)"/>
       <use xlink:href="#CMR17-30" transform="translate(118.478131 0) scale(0.996264)"/>
      </g>
     </g>
    </g>
    <g id="text_15">
     <!-- Max \(|\Delta\Gamma|\) -->
     <g transform="translate(8.896783 144.570221) rotate(-90) scale(0.1 -0.1)">
      <defs>
       <path id="CMR17-4d" d="M 1338 4224 
C 1299 4320 1293 4320 1158 4320 
L 339 4320 
L 339 4160 
C 781 4160 851 4160 851 3875 
L 851 610 
C 851 451 851 153 339 153 
L 339 -13 
C 486 0 755 0 915 0 
C 1075 0 1344 0 1491 -13 
L 1491 153 
C 979 153 979 451 979 610 
L 979 4135 
L 986 4135 
L 2490 89 
C 2515 25 2528 -13 2579 -13 
C 2630 -13 2643 25 2669 89 
L 4186 4166 
L 4192 4166 
L 4192 438 
C 4192 153 4122 153 3680 153 
L 3680 -13 
C 3853 0 4198 0 4384 0 
C 4570 0 4922 0 5094 -13 
L 5094 153 
C 4653 153 4582 153 4582 438 
L 4582 3875 
C 4582 4160 4653 4160 5094 4160 
L 5094 4320 
L 4282 4320 
C 4147 4320 4141 4314 4102 4218 
L 2720 502 
L 1338 4224 
z
" transform="scale(0.015625)"/>
       <path id="CMR17-61" d="M 2304 1653 
C 2304 2072 2304 2294 2035 2543 
C 1798 2752 1523 2816 1306 2816 
C 800 2816 435 2407 435 1971 
C 435 1728 627 1728 666 1728 
C 749 1728 896 1778 896 1954 
C 896 2112 774 2181 666 2181 
C 640 2181 608 2174 589 2168 
C 723 2592 1069 2714 1293 2714 
C 1613 2714 1965 2429 1965 1885 
L 1965 1600 
C 1587 1600 1133 1549 774 1357 
C 371 1133 256 813 256 570 
C 256 77 832 -64 1171 -64 
C 1523 -64 1850 139 1990 511 
C 2003 233 2182 -18 2464 -18 
C 2598 -18 2938 70 2938 567 
L 2938 920 
L 2822 920 
L 2822 562 
C 2822 178 2650 128 2566 128 
C 2304 128 2304 458 2304 738 
L 2304 1653 
z
M 1965 870 
C 1965 317 1568 38 1216 38 
C 896 38 646 275 646 570 
C 646 761 730 1100 1101 1305 
C 1408 1478 1760 1504 1965 1504 
L 1965 870 
z
" transform="scale(0.015625)"/>
       <path id="CMR17-78" d="M 1664 1477 
C 1856 1726 2074 2006 2253 2216 
C 2464 2458 2707 2560 2989 2560 
L 2989 2726 
C 2880 2726 2656 2726 2541 2726 
C 2368 2726 2170 2726 2022 2732 
L 2022 2566 
C 2112 2553 2163 2489 2163 2400 
C 2163 2285 2099 2215 2067 2171 
L 1594 1573 
L 1030 2306 
C 973 2376 973 2388 973 2420 
C 973 2497 1037 2560 1146 2560 
L 1146 2732 
C 992 2726 717 2726 557 2726 
C 384 2726 179 2726 38 2732 
L 38 2560 
C 384 2560 461 2534 614 2343 
L 1350 1395 
C 1363 1382 1395 1344 1395 1325 
C 1395 1299 838 619 768 530 
C 480 185 179 160 6 160 
L 6 0 
C 115 0 339 0 454 0 
C 582 0 864 0 979 -6 
L 979 160 
C 941 166 838 179 838 325 
C 838 440 890 510 947 586 
L 1478 1236 
L 2035 512 
C 2086 442 2163 346 2163 301 
C 2163 211 2086 160 1984 160 
L 1984 -6 
C 2138 0 2413 0 2573 0 
C 2746 0 2950 0 3091 -6 
L 3091 160 
C 2771 160 2675 172 2522 370 
L 1664 1477 
z
" transform="scale(0.015625)"/>
       <path id="CMSY10-6a" d="M 1018 4570 
C 1018 4685 1018 4800 890 4800 
C 762 4800 762 4685 762 4570 
L 762 -1370 
C 762 -1485 762 -1600 890 -1600 
C 1018 -1600 1018 -1485 1018 -1370 
L 1018 4570 
z
" transform="scale(0.015625)"/>
       <path id="CMR17-1" d="M 2598 4403 
C 2547 4512 2522 4512 2470 4512 
C 2394 4512 2387 4499 2342 4409 
L 269 109 
C 262 96 237 38 237 32 
C 237 6 243 0 358 0 
L 4576 0 
C 4691 0 4698 6 4698 32 
C 4698 38 4672 96 4666 109 
L 2598 4403 
z
M 2310 4038 
L 4083 358 
L 531 358 
L 2310 4038 
z
" transform="scale(0.015625)"/>
       <path id="CMR17-0" d="M 3315 4352 
L 326 4352 
L 326 4186 
C 768 4186 838 4186 838 3898 
L 838 448 
C 838 160 768 160 326 160 
L 326 0 
C 512 0 870 0 1069 0 
C 1331 0 1638 0 1901 0 
L 1901 160 
L 1760 160 
C 1274 160 1261 224 1261 455 
L 1261 3936 
C 1261 4154 1274 4186 1530 4186 
L 2234 4186 
C 3206 4186 3258 3738 3354 2938 
L 3469 2938 
L 3315 4352 
z
" transform="scale(0.015625)"/>
      </defs>
      <use xlink:href="#CMR17-4d" transform="scale(0.996264)"/>
      <use xlink:href="#CMR17-61" transform="translate(84.686941 0) scale(0.996264)"/>
      <use xlink:href="#CMR17-78" transform="translate(130.377418 0) scale(0.996264)"/>
      <use xlink:href="#CMSY10-6a" transform="translate(208.7463 0) scale(0.996264)"/>
      <use xlink:href="#CMR17-1" transform="translate(236.420385 0) scale(0.996264)"/>
      <use xlink:href="#CMR17-0" transform="translate(313.339974 0) scale(0.996264)"/>
      <use xlink:href="#CMSY10-6a" transform="translate(370.721382 0) scale(0.996264)"/>
     </g>
    </g>
   </g>
   <g id="line2d_24">
    <path d="M 46.570675 30.075185 
L 50.76348 30.475816 
L 54.692447 30.873844 
L 58.388823 31.268683 
L 61.878615 31.662542 
L 65.183697 32.054946 
L 68.322643 32.447623 
L 71.311359 32.839526 
L 74.16357 33.232894 
L 76.891203 33.62679 
L 79.504686 34.022018 
L 82.013192 34.419655 
L 84.424829 34.819329 
L 86.7468 35.220913 
L 88.985536 35.625766 
L 91.146798 36.034149 
L 93.235769 36.446206 
L 95.257129 36.86105 
L 97.215118 37.280245 
L 99.113588 37.704054 
L 100.956052 38.132743 
L 102.74572 38.566584 
L 104.485533 39.005851 
L 106.178194 39.449895 
L 107.826191 39.899825 
L 109.431821 40.35606 
L 110.997208 40.818902 
L 112.52432 41.28866 
L 114.014984 41.765653 
L 115.470899 42.250213 
L 116.893649 42.742682 
L 118.28471 43.243414 
L 119.645465 43.752779 
L 120.977205 44.270341 
L 122.281142 44.797277 
L 123.558412 45.334022 
L 124.810086 45.88101 
L 126.037168 46.43869 
L 127.240607 47.007536 
L 128.421296 47.588047 
L 129.58008 48.180744 
L 130.717756 48.786179 
L 131.83508 49.404933 
L 132.932768 50.037617 
L 134.011496 50.684883 
L 135.071911 51.346376 
L 136.114621 52.023507 
L 137.14021 52.717283 
L 138.149231 53.428516 
L 139.14221 54.158072 
L 140.119649 54.906873 
L 141.082027 55.675908 
L 142.029802 56.466237 
L 142.96341 57.278251 
L 143.883268 58.112112 
L 144.789775 58.970673 
L 145.683314 59.855331 
L 146.56425 60.767594 
L 147.432933 61.709099 
L 148.289701 62.679171 
L 149.134875 63.680431 
L 149.968765 64.716299 
L 150.791668 65.789032 
L 151.603871 66.898764 
L 152.405647 68.047037 
L 153.197261 69.239732 
L 153.978968 70.479363 
L 154.751012 71.763463 
L 155.51363 73.10197 
L 156.267048 74.496062 
L 157.011487 75.947195 
L 157.747157 77.466218 
L 158.474263 79.047776 
L 159.193001 80.708701 
L 159.903563 82.443335 
L 160.606133 84.268765 
L 161.300887 86.183766 
L 161.987998 88.200972 
L 162.667633 90.330921 
L 163.339952 92.578038 
L 164.005111 94.956527 
L 164.663261 97.480623 
L 165.314548 100.164377 
L 165.959114 103.024154 
L 166.597096 106.079133 
L 167.228627 109.351922 
L 167.853837 112.869278 
L 168.472851 116.651964 
L 169.08579 120.744469 
L 169.692772 125.176281 
L 170.293912 129.997439 
L 170.889322 135.253827 
L 171.479109 140.998021 
L 172.063379 147.286553 
L 172.642235 154.153518 
L 173.215775 161.615492 
L 173.784096 169.591941 
L 174.347293 177.804572 
L 174.905456 185.548935 
L 175.458676 191.432962 
L 176.007039 193.610143 
" clip-path="url(#pedc7f3d76d)" style="fill: none; stroke: #1f77b4; stroke-width: 1.5; stroke-linecap: square"/>
   </g>
   <g id="line2d_25">
    <path d="M 46.570675 16.783101 
L 50.76348 17.006602 
L 54.692447 17.254103 
L 58.388823 17.516606 
L 61.878615 17.78893 
L 65.183697 18.068415 
L 68.322643 18.353112 
L 71.311359 18.642395 
L 74.16357 18.935595 
L 76.891203 19.232457 
L 79.504686 19.532989 
L 82.013192 19.836658 
L 84.424829 20.144136 
L 86.7468 20.455041 
L 88.985536 20.770036 
L 91.146798 21.088463 
L 93.235769 21.411293 
L 95.257129 21.73853 
L 97.215118 22.069782 
L 99.113588 22.405925 
L 100.956052 22.747156 
L 102.74572 23.093689 
L 104.485533 23.445038 
L 106.178194 23.802137 
L 107.826191 24.165236 
L 109.431821 24.534594 
L 110.997208 24.910481 
L 112.52432 25.293182 
L 114.014984 25.682797 
L 115.470899 26.079469 
L 116.893649 26.48388 
L 118.28471 26.896373 
L 119.645465 27.317302 
L 120.977205 27.747045 
L 122.281142 28.185993 
L 123.558412 28.634562 
L 124.810086 29.093187 
L 126.037168 29.562329 
L 127.240607 30.042472 
L 128.421296 30.534129 
L 129.58008 31.037347 
L 130.717756 31.553069 
L 131.83508 32.081976 
L 132.932768 32.624707 
L 134.011496 33.18194 
L 135.071911 33.754398 
L 136.114621 34.342851 
L 137.14021 34.948121 
L 138.149231 35.571086 
L 139.14221 36.212686 
L 140.119649 36.87393 
L 141.082027 37.555181 
L 142.029802 38.257629 
L 142.96341 38.983045 
L 143.883268 39.732767 
L 144.789775 40.508239 
L 145.683314 41.311027 
L 146.56425 42.142831 
L 147.432933 43.004063 
L 148.289701 43.896864 
L 149.134875 44.824394 
L 149.968765 45.789027 
L 150.791668 46.793367 
L 151.603871 47.83716 
L 152.405647 48.925336 
L 153.197261 50.062157 
L 153.978968 51.250735 
L 154.751012 52.490842 
L 155.51363 53.791569 
L 156.267048 55.156826 
L 157.011487 56.587158 
L 157.747157 58.094549 
L 158.474263 59.679688 
L 159.193001 61.353302 
L 159.903563 63.120857 
L 160.606133 64.992744 
L 161.300887 66.976073 
L 161.987998 69.087336 
L 162.667633 71.32939 
L 163.339952 73.724627 
L 164.005111 76.288123 
L 164.663261 79.034006 
L 165.314548 81.984222 
L 165.959114 85.164313 
L 166.597096 88.601193 
L 167.228627 92.326117 
L 167.853837 96.37539 
L 168.472851 100.791084 
L 169.08579 105.615386 
L 169.692772 110.905401 
L 170.293912 116.72386 
L 170.889322 123.121935 
L 171.479109 130.173502 
L 172.063379 137.92635 
L 172.642235 146.404083 
L 173.215775 155.574209 
L 173.784096 165.273005 
L 174.347293 175.091653 
L 174.905456 184.170144 
L 175.458676 190.983057 
L 176.007039 193.610143 
" clip-path="url(#pedc7f3d76d)" style="fill: none; stroke: #ff7f0e; stroke-width: 1.5; stroke-linecap: square"/>
   </g>
   <g id="line2d_26">
    <path d="M 46.570675 16.701441 
L 50.76348 16.774117 
L 54.692447 16.850179 
L 58.388823 16.926862 
L 61.878615 17.007206 
L 65.183697 17.089296 
L 68.322643 17.174498 
L 71.311359 17.261782 
L 74.16357 17.353032 
L 76.891203 17.44799 
L 79.504686 17.546245 
L 82.013192 17.64882 
L 84.424829 17.755937 
L 86.7468 17.864684 
L 88.985536 17.97977 
L 91.146798 18.099335 
L 93.235769 18.221454 
L 95.257129 18.349223 
L 97.215118 18.482241 
L 99.113588 18.620467 
L 100.956052 18.764154 
L 102.74572 18.913803 
L 104.485533 19.070125 
L 106.178194 19.230373 
L 107.826191 19.396495 
L 109.431821 19.57123 
L 110.997208 19.752337 
L 112.52432 19.93885 
L 114.014984 20.136761 
L 115.470899 20.336964 
L 116.893649 20.550898 
L 118.28471 20.767481 
L 119.645465 20.997486 
L 120.977205 21.233781 
L 122.281142 21.480586 
L 123.558412 21.740481 
L 124.810086 22.005399 
L 126.037168 22.284136 
L 127.240607 22.57684 
L 128.421296 22.87746 
L 129.58008 23.191531 
L 130.717756 23.520718 
L 131.83508 23.865464 
L 132.932768 24.221138 
L 134.011496 24.592489 
L 135.071911 24.981349 
L 136.114621 25.38846 
L 137.14021 25.814646 
L 138.149231 26.257829 
L 139.14221 26.719829 
L 140.119649 27.203975 
L 141.082027 27.711452 
L 142.029802 28.243559 
L 142.96341 28.801715 
L 143.883268 29.387472 
L 144.789775 29.998575 
L 145.683314 30.639769 
L 146.56425 31.313953 
L 147.432933 32.0233 
L 148.289701 32.770191 
L 149.134875 33.557236 
L 149.968765 34.387304 
L 150.791668 35.258598 
L 151.603871 36.177744 
L 152.405647 37.14984 
L 153.197261 38.17906 
L 153.978968 39.270031 
L 154.751012 40.425499 
L 155.51363 41.646273 
L 156.267048 42.945106 
L 157.011487 44.329017 
L 157.747157 45.803564 
L 158.474263 47.368696 
L 159.193001 49.044191 
L 159.903563 50.84058 
L 160.606133 52.753988 
L 161.300887 54.813637 
L 161.987998 57.025366 
L 162.667633 59.404667 
L 163.339952 61.973893 
L 164.005111 64.746128 
L 164.663261 67.74925 
L 165.314548 71.00914 
L 165.959114 74.546058 
L 166.597096 78.403354 
L 167.228627 82.615385 
L 167.853837 87.212884 
L 168.472851 92.249596 
L 169.08579 97.77459 
L 169.692772 103.839994 
L 170.293912 110.499877 
L 170.889322 117.806584 
L 171.479109 125.8041 
L 172.063379 134.516521 
L 172.642235 143.928367 
L 173.215775 153.950857 
L 173.784096 164.362901 
L 174.347293 174.705333 
L 174.905456 184.092867 
L 175.458676 191.019805 
L 176.007039 193.610143 
" clip-path="url(#pedc7f3d76d)" style="fill: none; stroke: #2ca02c; stroke-width: 1.5; stroke-linecap: square"/>
   </g>
   <g id="patch_3">
    <path d="M 40.098857 230.376 
L 40.098857 16.008 
" style="fill: none; stroke: #000000; stroke-width: 0.8; stroke-linejoin: miter; stroke-linecap: square"/>
   </g>
   <g id="patch_4">
    <path d="M 182.478857 230.376 
L 182.478857 16.008 
" style="fill: none; stroke: #000000; stroke-width: 0.8; stroke-linejoin: miter; stroke-linecap: square"/>
   </g>
   <g id="patch_5">
    <path d="M 40.098857 230.376 
L 182.478857 230.376 
" style="fill: none; stroke: #000000; stroke-width: 0.8; stroke-linejoin: miter; stroke-linecap: square"/>
   </g>
   <g id="patch_6">
    <path d="M 40.098857 16.008 
L 182.478857 16.008 
" style="fill: none; stroke: #000000; stroke-width: 0.8; stroke-linejoin: miter; stroke-linecap: square"/>
   </g>
   <g id="text_16">
    <!-- \(|\Delta\Gamma_{\text{Opt}}|(\lambda)\) -->
    <g transform="translate(83.92555 10.008) scale(0.12 -0.12)">
     <defs>
      <path id="CMR17-4f" d="M 4307 2135 
C 4307 3437 3366 4416 2304 4416 
C 1216 4416 294 3424 294 2135 
C 294 845 1229 -128 2298 -128 
C 3392 -128 4307 864 4307 2135 
z
M 2304 -13 
C 1574 -13 781 711 781 2217 
C 781 3716 1651 4301 2298 4301 
C 2976 4301 3821 3698 3821 2217 
C 3821 686 3008 -13 2304 -13 
z
" transform="scale(0.015625)"/>
      <path id="CMR17-70" d="M 1408 -1063 
C 998 -1063 973 -1037 973 -789 
L 973 402 
C 1158 134 1427 -38 1766 -38 
C 2406 -38 3053 523 3053 1388 
C 3053 2191 2496 2802 1837 2802 
C 1453 2802 1139 2592 960 2338 
L 960 2802 
L 198 2732 
L 198 2567 
C 576 2567 634 2528 634 2223 
L 634 -789 
C 634 -1031 608 -1063 198 -1063 
L 198 -1228 
C 352 -1216 634 -1216 800 -1216 
C 966 -1216 1254 -1216 1408 -1228 
L 1408 -1063 
z
M 973 2012 
C 973 2102 973 2235 1222 2471 
C 1254 2497 1472 2688 1792 2688 
C 2259 2688 2643 2108 2643 1382 
C 2643 656 2234 64 1728 64 
C 1498 64 1248 172 1056 472 
C 973 612 973 650 973 752 
L 973 2012 
z
" transform="scale(0.015625)"/>
      <path id="CMR17-74" d="M 966 2560 
L 1862 2560 
L 1862 2725 
L 966 2725 
L 966 3904 
L 851 3904 
C 838 3245 614 2668 70 2668 
L 70 2560 
L 627 2560 
L 627 771 
C 627 650 627 -64 1370 -64 
C 1747 -64 1965 306 1965 777 
L 1965 1140 
L 1850 1140 
L 1850 783 
C 1850 344 1677 51 1408 51 
C 1222 51 966 178 966 758 
L 966 2560 
z
" transform="scale(0.015625)"/>
      <path id="CMR17-28" d="M 1958 -1561 
C 1958 -1555 1958 -1542 1939 -1523 
C 1645 -1224 858 -407 858 1581 
C 858 3569 1632 4379 1946 4697 
C 1946 4704 1958 4717 1958 4736 
C 1958 4755 1939 4768 1914 4768 
C 1843 4768 1299 4296 986 3594 
C 666 2887 576 2199 576 1588 
C 576 1128 621 351 1005 -471 
C 1312 -1135 1837 -1600 1914 -1600 
C 1946 -1600 1958 -1587 1958 -1561 
z
" transform="scale(0.015625)"/>
      <path id="CMR17-29" d="M 1683 1581 
C 1683 2040 1638 2817 1254 3639 
C 947 4303 422 4768 346 4768 
C 326 4768 301 4761 301 4729 
C 301 4717 307 4710 314 4697 
C 621 4378 1402 3568 1402 1584 
C 1402 -407 627 -1217 314 -1537 
C 307 -1549 301 -1556 301 -1568 
C 301 -1600 326 -1600 346 -1600 
C 416 -1600 960 -1128 1274 -426 
C 1594 281 1683 969 1683 1581 
z
" transform="scale(0.015625)"/>
     </defs>
     <use xlink:href="#CMSY10-6a" transform="scale(0.996264)"/>
     <use xlink:href="#CMR17-1" transform="translate(27.674085 0) scale(0.996264)"/>
     <use xlink:href="#CMR17-0" transform="translate(104.593675 0) scale(0.996264)"/>
     <use xlink:href="#CMR17-4f" transform="translate(161.975082 -14.943915) scale(0.697382)"/>
     <use xlink:href="#CMR17-70" transform="translate(212.175214 -14.943915) scale(0.697382)"/>
     <use xlink:href="#CMR17-74" transform="translate(247.801822 -14.943915) scale(0.697382)"/>
     <use xlink:href="#CMSY10-6a" transform="translate(272.996375 0) scale(0.996264)"/>
     <use xlink:href="#CMR17-28" transform="translate(300.670459 0) scale(0.996264)"/>
     <use xlink:href="#CMMI12-15" transform="translate(335.951227 0) scale(0.996264)"/>
     <use xlink:href="#CMR17-29" transform="translate(392.855299 0) scale(0.996264)"/>
    </g>
   </g>
  </g>
  <g id="axes_2">
   <g id="patch_7">
    <path d="M 182.478857 230.376 
L 324.858857 230.376 
L 324.858857 16.008 
L 182.478857 16.008 
z
" style="fill: #ffffff"/>
   </g>
   <g id="line2d_27">
    <path d="M 253.668857 230.376 
L 253.668857 16.008 
" clip-path="url(#p3f9b9de841)" style="fill: none; stroke-dasharray: 1.5,2.475; stroke-dashoffset: 0; stroke: #000000; stroke-width: 1.5"/>
   </g>
   <g id="line2d_28">
    <path d="M 188.950675 230.375995 
L 190.245039 230.375993 
L 191.539403 230.37599 
L 192.833766 230.375986 
L 194.12813 230.375981 
L 195.422494 230.375973 
L 196.716857 230.375963 
L 198.011221 230.375949 
L 199.305584 230.375929 
L 200.599948 230.375902 
L 201.894312 230.375865 
L 203.188675 230.375814 
L 204.483039 230.375743 
L 205.777403 230.375646 
L 207.071766 230.375511 
L 208.36613 230.375325 
L 209.660494 230.375069 
L 210.954857 230.374714 
L 212.249221 230.374225 
L 213.543584 230.37355 
L 214.837948 230.372619 
L 216.132312 230.371333 
L 217.426675 230.369557 
L 218.721039 230.367107 
L 220.015403 230.363724 
L 221.309766 230.359055 
L 222.60413 230.352611 
L 223.898494 230.343717 
L 225.192857 230.331443 
L 226.487221 230.314503 
L 227.781584 230.29113 
L 229.075948 230.258882 
L 230.370312 230.214399 
L 231.664675 230.153056 
L 232.959039 230.068494 
L 234.253403 229.951986 
L 235.547766 229.791575 
L 236.84213 229.570933 
L 238.136494 229.267851 
L 239.430857 228.852284 
L 240.725221 228.283905 
L 242.019584 227.509146 
L 243.313948 226.457883 
L 244.608312 225.040119 
L 245.902675 223.143489 
L 247.197039 220.632903 
L 248.491403 217.354309 
L 249.785766 213.144802 
L 251.08013 207.850699 
L 252.374494 201.353025 
L 253.668857 193.596266 
L 254.963221 184.612558 
L 256.257584 174.532484 
L 257.551948 163.576971 
L 258.846312 152.031548 
L 260.140675 140.210472 
L 261.435039 128.420616 
L 262.729403 116.933011 
L 264.023766 105.965669 
L 265.31813 95.677395 
L 266.612494 86.169958 
L 267.906857 77.495404 
L 269.201221 69.665676 
L 270.495584 62.662542 
L 271.789948 56.44663 
L 273.084312 50.965026 
L 274.378675 46.157274 
L 275.673039 41.95989 
L 276.967403 38.309583 
L 278.261766 35.145441 
L 279.55613 32.410307 
L 280.850494 30.051552 
L 282.144857 28.021415 
L 283.439221 26.277052 
L 284.733584 24.780369 
L 286.027948 23.497751 
L 287.322312 22.399707 
L 288.616675 21.460495 
L 289.911039 20.657734 
L 291.205403 19.97203 
L 292.499766 19.386627 
L 293.79413 18.88708 
L 295.088494 18.460962 
L 296.382857 18.097599 
L 297.677221 17.787834 
L 298.971584 17.523825 
L 300.265948 17.298858 
L 301.560312 17.107192 
L 302.854675 16.943922 
L 304.149039 16.804859 
L 305.443403 16.686425 
L 306.737766 16.585569 
L 308.03213 16.49969 
L 309.326494 16.426568 
L 310.620857 16.364311 
L 311.915221 16.311307 
L 313.209584 16.266183 
L 314.503948 16.227769 
L 315.798312 16.195068 
L 317.092675 16.167231 
L 318.387039 16.143535 
" clip-path="url(#p3f9b9de841)" style="fill: none; stroke: #d62728; stroke-width: 1.5; stroke-linecap: square"/>
   </g>
   <g id="line2d_29">
    <path d="M 188.950675 230.358463 
L 190.245039 230.351793 
L 191.539403 230.342586 
L 192.833766 230.329879 
L 194.12813 230.312342 
L 195.422494 230.28814 
L 196.716857 230.254743 
L 198.011221 230.208663 
L 199.305584 230.145097 
L 200.599948 230.057428 
L 201.894312 229.936563 
L 203.188675 229.770014 
L 204.483039 229.540678 
L 205.777403 229.225211 
L 207.071766 228.791916 
L 208.36613 228.19811 
L 209.660494 227.387011 
L 210.954857 226.284572 
L 212.249221 224.79714 
L 213.543584 222.81149 
L 214.837948 220.19942 
L 216.132312 216.828122 
L 217.426675 212.575746 
L 218.721039 207.34984 
L 220.015403 201.105167 
L 221.309766 193.855431 
L 222.60413 185.677257 
L 223.898494 176.700259 
L 225.192857 167.093247 
L 226.487221 157.04468 
L 227.781584 146.744772 
L 229.075948 136.379069 
L 230.370312 126.113816 
L 231.664675 116.098132 
L 232.959039 106.456075 
L 234.253403 97.290522 
L 235.547766 88.680443 
L 236.84213 80.679309 
L 238.136494 73.32384 
L 239.430857 66.629246 
L 240.725221 60.593662 
L 242.019584 55.204351 
L 243.313948 50.435006 
L 244.608312 46.254133 
L 245.902675 42.625364 
L 247.197039 39.50721 
L 248.491403 36.85809 
L 249.785766 34.633619 
L 251.08013 32.791054 
L 252.374494 31.286416 
L 253.668857 30.075185 
L 254.963221 29.115389 
L 256.257584 28.366307 
L 257.551948 27.788607 
L 258.846312 27.34953 
L 260.140675 27.019028 
L 261.435039 26.772353 
L 262.729403 26.589686 
L 264.023766 26.455367 
L 265.31813 26.356427 
L 266.612494 26.284666 
L 267.906857 26.231671 
L 269.201221 26.193263 
L 270.495584 26.165429 
L 271.789948 26.145261 
L 273.084312 26.130648 
L 274.378675 26.120061 
L 275.673039 26.112391 
L 276.967403 26.106833 
L 278.261766 26.102807 
L 279.55613 26.099891 
L 280.850494 26.097778 
L 282.144857 26.096247 
L 283.439221 26.095131 
L 284.733584 26.094312 
L 286.027948 26.093719 
L 287.322312 26.093289 
L 288.616675 26.092978 
L 289.911039 26.092752 
L 291.205403 26.092589 
L 292.499766 26.092471 
L 293.79413 26.092385 
L 295.088494 26.092323 
L 296.382857 26.092278 
L 297.677221 26.092245 
L 298.971584 26.092222 
L 300.265948 26.092204 
L 301.560312 26.092192 
L 302.854675 26.092183 
L 304.149039 26.092177 
L 305.443403 26.092172 
L 306.737766 26.092168 
L 308.03213 26.092166 
L 309.326494 26.092164 
L 310.620857 26.092163 
L 311.915221 26.092162 
L 313.209584 26.092161 
L 314.503948 26.092161 
L 315.798312 26.09216 
L 317.092675 26.09216 
L 318.387039 26.09216 
" clip-path="url(#p3f9b9de841)" style="fill: none; stroke: #1f77b4; stroke-width: 1.5; stroke-linecap: square"/>
   </g>
   <g id="matplotlib.axis_3">
    <g id="xtick_5">
     <g id="line2d_30">
      <g>
       <use xlink:href="#m2a734cddea" x="216.687039" y="230.376" style="stroke: #000000; stroke-width: 0.8"/>
      </g>
     </g>
     <g id="text_17">
      <!-- $\mathdefault{10^{-4}}$ -->
      <g transform="translate(206.606752 244.294498) scale(0.1 -0.1)">
       <defs>
        <path id="CMSY10-0" d="M 4218 1472 
C 4326 1472 4442 1472 4442 1600 
C 4442 1728 4326 1728 4218 1728 
L 755 1728 
C 646 1728 531 1728 531 1600 
C 531 1472 646 1472 755 1472 
L 4218 1472 
z
" transform="scale(0.015625)"/>
        <path id="CMR17-34" d="M 2150 4122 
C 2150 4256 2144 4256 2029 4256 
L 128 1254 
L 128 1088 
L 1779 1088 
L 1779 457 
C 1779 224 1766 160 1318 160 
L 1197 160 
L 1197 0 
C 1402 0 1747 0 1965 0 
C 2182 0 2528 0 2733 0 
L 2733 160 
L 2611 160 
C 2163 160 2150 224 2150 457 
L 2150 1088 
L 2803 1088 
L 2803 1254 
L 2150 1254 
L 2150 4122 
z
M 1798 3703 
L 1798 1254 
L 256 1254 
L 1798 3703 
z
" transform="scale(0.015625)"/>
       </defs>
       <use xlink:href="#CMR17-31" transform="scale(0.996264)"/>
       <use xlink:href="#CMR17-30" transform="translate(45.690477 0) scale(0.996264)"/>
       <use xlink:href="#CMSY10-0" transform="translate(91.380954 36.153639) scale(0.697382)"/>
       <use xlink:href="#CMR17-34" transform="translate(145.621947 36.153639) scale(0.697382)"/>
      </g>
     </g>
    </g>
    <g id="xtick_6">
     <g id="line2d_31">
      <g>
       <use xlink:href="#m2a734cddea" x="253.668857" y="230.376" style="stroke: #000000; stroke-width: 0.8"/>
      </g>
     </g>
     <g id="text_18">
      <!-- $\mathdefault{10^{0}}$ -->
      <g transform="translate(246.701903 244.294498) scale(0.1 -0.1)">
       <use xlink:href="#CMR17-31" transform="scale(0.996264)"/>
       <use xlink:href="#CMR17-30" transform="translate(45.690477 0) scale(0.996264)"/>
       <use xlink:href="#CMR17-30" transform="translate(91.380954 36.153639) scale(0.697382)"/>
      </g>
     </g>
    </g>
    <g id="xtick_7">
     <g id="line2d_32">
      <g>
       <use xlink:href="#m2a734cddea" x="290.650675" y="230.376" style="stroke: #000000; stroke-width: 0.8"/>
      </g>
     </g>
     <g id="text_19">
      <!-- $\mathdefault{10^{4}}$ -->
      <g transform="translate(283.683721 244.294498) scale(0.1 -0.1)">
       <use xlink:href="#CMR17-31" transform="scale(0.996264)"/>
       <use xlink:href="#CMR17-30" transform="translate(45.690477 0) scale(0.996264)"/>
       <use xlink:href="#CMR17-34" transform="translate(91.380954 36.153639) scale(0.697382)"/>
      </g>
     </g>
    </g>
    <g id="text_20">
     <!-- \(\pi\) -->
     <g transform="translate(250.829369 257.150175) scale(0.1 -0.1)">
      <defs>
       <path id="CMMI12-19" d="M 1658 2408 
L 2381 2408 
C 2208 1692 2099 1226 2099 716 
C 2099 626 2099 -64 2362 -64 
C 2496 -64 2611 57 2611 166 
C 2611 197 2611 210 2566 306 
C 2394 747 2394 1296 2394 1341 
C 2394 1379 2394 1832 2528 2408 
L 3245 2408 
C 3328 2408 3539 2408 3539 2612 
C 3539 2752 3418 2752 3302 2752 
L 1197 2752 
C 1050 2752 832 2752 538 2440 
C 371 2254 166 1916 166 1878 
C 166 1840 198 1827 237 1827 
C 282 1827 288 1846 320 1884 
C 653 2408 986 2408 1146 2408 
L 1510 2408 
C 1370 1929 1210 1373 685 256 
C 634 154 634 140 634 102 
C 634 -32 749 -64 806 -64 
C 992 -64 1043 102 1120 370 
C 1222 696 1222 709 1286 964 
L 1658 2408 
z
" transform="scale(0.015625)"/>
      </defs>
      <use xlink:href="#CMMI12-19" transform="scale(0.996264)"/>
     </g>
    </g>
   </g>
   <g id="matplotlib.axis_4">
    <g id="ytick_10">
     <g id="line2d_33">
      <path d="M 182.478857 230.376 
L 324.858857 230.376 
" clip-path="url(#p3f9b9de841)" style="fill: none; stroke: #b0b0b0; stroke-width: 0.8; stroke-linecap: square"/>
     </g>
    </g>
    <g id="ytick_11">
     <g id="line2d_34">
      <path d="M 182.478857 203.58 
L 324.858857 203.58 
" clip-path="url(#p3f9b9de841)" style="fill: none; stroke: #b0b0b0; stroke-width: 0.8; stroke-linecap: square"/>
     </g>
    </g>
    <g id="ytick_12">
     <g id="line2d_35">
      <path d="M 182.478857 176.784 
L 324.858857 176.784 
" clip-path="url(#p3f9b9de841)" style="fill: none; stroke: #b0b0b0; stroke-width: 0.8; stroke-linecap: square"/>
     </g>
    </g>
    <g id="ytick_13">
     <g id="line2d_36">
      <path d="M 182.478857 149.988 
L 324.858857 149.988 
" clip-path="url(#p3f9b9de841)" style="fill: none; stroke: #b0b0b0; stroke-width: 0.8; stroke-linecap: square"/>
     </g>
    </g>
    <g id="ytick_14">
     <g id="line2d_37">
      <path d="M 182.478857 123.192 
L 324.858857 123.192 
" clip-path="url(#p3f9b9de841)" style="fill: none; stroke: #b0b0b0; stroke-width: 0.8; stroke-linecap: square"/>
     </g>
    </g>
    <g id="ytick_15">
     <g id="line2d_38">
      <path d="M 182.478857 96.396 
L 324.858857 96.396 
" clip-path="url(#p3f9b9de841)" style="fill: none; stroke: #b0b0b0; stroke-width: 0.8; stroke-linecap: square"/>
     </g>
    </g>
    <g id="ytick_16">
     <g id="line2d_39">
      <path d="M 182.478857 69.6 
L 324.858857 69.6 
" clip-path="url(#p3f9b9de841)" style="fill: none; stroke: #b0b0b0; stroke-width: 0.8; stroke-linecap: square"/>
     </g>
    </g>
    <g id="ytick_17">
     <g id="line2d_40">
      <path d="M 182.478857 42.804 
L 324.858857 42.804 
" clip-path="url(#p3f9b9de841)" style="fill: none; stroke: #b0b0b0; stroke-width: 0.8; stroke-linecap: square"/>
     </g>
    </g>
    <g id="ytick_18">
     <g id="line2d_41">
      <path d="M 182.478857 16.008 
L 324.858857 16.008 
" clip-path="url(#p3f9b9de841)" style="fill: none; stroke: #b0b0b0; stroke-width: 0.8; stroke-linecap: square"/>
     </g>
    </g>
   </g>
   <g id="line2d_42">
    <path d="M 188.950675 230.361392 
L 190.245039 230.35361 
L 191.539403 230.34324 
L 192.833766 230.329882 
L 194.12813 230.312342 
L 195.422494 230.28814 
L 196.716857 230.254743 
L 198.011221 230.208662 
L 199.305584 230.145093 
L 200.599948 230.05742 
L 201.894312 229.93654 
L 203.188675 229.769954 
L 204.483039 229.540522 
L 205.777403 229.224806 
L 207.071766 228.790865 
L 208.36613 228.195392 
L 209.660494 227.380062 
L 210.954857 226.267079 
L 212.249221 224.753975 
L 213.543584 222.708328 
L 214.837948 219.963217 
L 216.132312 216.315694 
L 217.426675 211.531495 
L 218.721039 205.360032 
L 220.015403 197.563908 
L 221.309766 187.964306 
L 222.60413 176.496951 
L 223.898494 163.265399 
L 225.192857 148.572593 
L 226.487221 132.913299 
L 227.781584 116.922166 
L 229.075948 101.280941 
L 230.370312 86.615585 
L 231.664675 73.403284 
L 232.959039 61.925368 
L 234.253403 52.263953 
L 235.547766 44.343359 
L 236.84213 37.984897 
L 238.136494 32.961899 
L 239.430857 29.040091 
L 240.725221 26.003777 
L 242.019584 23.666198 
L 243.313948 21.873566 
L 244.608312 20.502371 
L 245.902675 19.455591 
L 247.197039 18.658001 
L 248.491403 18.05129 
L 249.785766 17.59103 
L 251.08013 17.242752 
L 252.374494 16.980207 
L 253.668857 16.783101 
L 254.963221 16.635663 
L 256.257584 16.525916 
L 257.551948 16.4446 
L 258.846312 16.384574 
L 260.140675 16.34047 
L 261.435039 16.308114 
L 262.729403 16.284448 
L 264.023766 16.267233 
L 265.31813 16.254646 
L 266.612494 16.245527 
L 267.906857 16.238921 
L 269.201221 16.234088 
L 270.495584 16.230582 
L 271.789948 16.228042 
L 273.084312 16.226202 
L 274.378675 16.224869 
L 275.673039 16.223904 
L 276.967403 16.223204 
L 278.261766 16.222697 
L 279.55613 16.22233 
L 280.850494 16.222064 
L 282.144857 16.221871 
L 283.439221 16.213956 
L 284.733584 16.185618 
L 286.027948 16.160987 
L 287.322312 16.139655 
L 288.616675 16.121189 
L 289.911039 16.105244 
L 291.205403 16.091502 
L 292.499766 16.079674 
L 293.79413 16.069505 
L 295.088494 16.060775 
L 296.382857 16.053296 
L 297.677221 16.046899 
L 298.971584 16.041435 
L 300.265948 16.036782 
L 301.560312 16.032833 
L 302.854675 16.02949 
L 304.149039 16.026675 
L 305.443403 16.024315 
L 306.737766 16.022352 
L 308.03213 16.020734 
L 309.326494 16.019411 
L 310.620857 16.018344 
L 311.915221 16.017493 
L 313.209584 16.016823 
L 314.503948 16.016303 
L 315.798312 16.015903 
L 317.092675 16.015601 
L 318.387039 16.015373 
" clip-path="url(#p3f9b9de841)" style="fill: none; stroke: #ff7f0e; stroke-width: 1.5; stroke-linecap: square"/>
   </g>
   <g id="patch_8">
    <path d="M 182.478857 230.376 
L 182.478857 16.008 
" style="fill: none; stroke: #000000; stroke-width: 0.8; stroke-linejoin: miter; stroke-linecap: square"/>
   </g>
   <g id="patch_9">
    <path d="M 324.858857 230.376 
L 324.858857 16.008 
" style="fill: none; stroke: #000000; stroke-width: 0.8; stroke-linejoin: miter; stroke-linecap: square"/>
   </g>
   <g id="patch_10">
    <path d="M 182.478857 230.376 
L 324.858857 230.376 
" style="fill: none; stroke: #000000; stroke-width: 0.8; stroke-linejoin: miter; stroke-linecap: square"/>
   </g>
   <g id="patch_11">
    <path d="M 182.478857 16.008 
L 324.858857 16.008 
" style="fill: none; stroke: #000000; stroke-width: 0.8; stroke-linejoin: miter; stroke-linecap: square"/>
   </g>
   <g id="line2d_43">
    <path d="M 188.950675 230.35896 
L 190.245039 230.351824 
L 191.539403 230.342586 
L 192.833766 230.329879 
L 194.12813 230.312342 
L 195.422494 230.28814 
L 196.716857 230.254742 
L 198.011221 230.208662 
L 199.305584 230.145093 
L 200.599948 230.05742 
L 201.894312 229.936542 
L 203.188675 229.769959 
L 204.483039 229.540532 
L 205.777403 229.22483 
L 207.071766 228.790928 
L 208.36613 228.195558 
L 209.660494 227.380498 
L 210.954857 226.268164 
L 212.249221 224.756722 
L 213.543584 222.715124 
L 214.837948 219.979593 
L 216.132312 216.353865 
L 217.426675 211.616672 
L 218.721039 205.539488 
L 220.015403 197.916008 
L 221.309766 188.599917 
L 222.60413 177.542775 
L 223.898494 164.82335 
L 225.192857 150.664543 
L 226.487221 135.435554 
L 227.781584 119.640205 
L 229.075948 103.876415 
L 230.370312 88.773866 
L 231.664675 74.90161 
L 232.959039 62.677182 
L 234.253403 52.314151 
L 235.547766 43.826825 
L 236.84213 37.072618 
L 238.136494 31.820603 
L 239.430857 27.811113 
L 240.725221 24.789914 
L 242.019584 22.53909 
L 243.313948 20.872095 
L 244.608312 19.64819 
L 245.902675 18.749512 
L 247.197039 18.093949 
L 248.491403 17.616636 
L 249.785766 17.269587 
L 251.08013 17.017503 
L 252.374494 16.834533 
L 253.668857 16.701441 
L 254.963221 16.604776 
L 256.257584 16.534696 
L 257.551948 16.483901 
L 258.846312 16.447089 
L 260.140675 16.420413 
L 261.435039 16.401085 
L 262.729403 16.387081 
L 264.023766 16.376934 
L 265.31813 16.369583 
L 266.612494 16.364258 
L 267.906857 16.3604 
L 269.201221 16.357604 
L 270.495584 16.35558 
L 271.789948 16.354113 
L 273.084312 16.35305 
L 274.378675 16.35228 
L 275.673039 16.351722 
L 276.967403 16.351318 
L 278.261766 16.351026 
L 279.55613 16.350813 
L 280.850494 16.35066 
L 282.144857 16.350549 
L 283.439221 16.350468 
L 284.733584 16.35041 
L 286.027948 16.350367 
L 287.322312 16.350337 
L 288.616675 16.350314 
L 289.911039 16.350298 
L 291.205403 16.350287 
L 292.499766 16.350278 
L 293.79413 16.350272 
L 295.088494 16.350268 
L 296.382857 16.350264 
L 297.677221 16.350262 
L 298.971584 16.35026 
L 300.265948 16.350259 
L 301.560312 16.350258 
L 302.854675 16.350258 
L 304.149039 16.350257 
L 305.443403 16.350257 
L 306.737766 16.350257 
L 308.03213 16.350256 
L 309.326494 16.350256 
L 310.620857 16.350256 
L 311.915221 16.350256 
L 313.209584 16.350256 
L 314.503948 16.350256 
L 315.798312 16.350256 
L 317.092675 16.350256 
L 318.387039 16.350256 
" clip-path="url(#p3f9b9de841)" style="fill: none; stroke: #2ca02c; stroke-width: 1.5; stroke-linecap: square"/>
   </g>
   <g id="text_21">
    <!-- \(|\Delta\Gamma_{\text{Opt}}|(\pi)\) -->
    <g transform="translate(226.18516 10.008) scale(0.12 -0.12)">
     <use xlink:href="#CMSY10-6a" transform="scale(0.996264)"/>
     <use xlink:href="#CMR17-1" transform="translate(27.674085 0) scale(0.996264)"/>
     <use xlink:href="#CMR17-0" transform="translate(104.593675 0) scale(0.996264)"/>
     <use xlink:href="#CMR17-4f" transform="translate(161.975082 -14.943915) scale(0.697382)"/>
     <use xlink:href="#CMR17-70" transform="translate(212.175214 -14.943915) scale(0.697382)"/>
     <use xlink:href="#CMR17-74" transform="translate(247.801822 -14.943915) scale(0.697382)"/>
     <use xlink:href="#CMSY10-6a" transform="translate(272.996375 0) scale(0.996264)"/>
     <use xlink:href="#CMR17-28" transform="translate(300.670459 0) scale(0.996264)"/>
     <use xlink:href="#CMMI12-19" transform="translate(335.951227 0) scale(0.996264)"/>
     <use xlink:href="#CMR17-29" transform="translate(394.861828 0) scale(0.996264)"/>
    </g>
   </g>
  </g>
  <g id="axes_3">
   <g id="patch_12">
    <path d="M 324.858857 230.376 
L 467.238857 230.376 
L 467.238857 16.008 
L 324.858857 16.008 
z
" style="fill: #ffffff"/>
   </g>
   <g id="line2d_44">
    <path d="M 331.330675 230.376 
L 364.013357 230.265627 
L 366.149057 230.035252 
L 367.508139 229.68217 
L 368.54363 229.190105 
L 369.384966 228.553115 
L 370.161584 227.682322 
L 370.873484 226.551229 
L 371.585384 224.996309 
L 372.297284 222.903524 
L 373.073903 219.882234 
L 373.915239 215.655661 
L 375.015448 208.829688 
L 376.762839 197.882053 
L 377.410021 195.172741 
L 377.863048 194.042814 
L 378.186639 193.663772 
L 378.445512 193.620917 
L 378.704384 193.803916 
L 379.027975 194.333042 
L 379.481003 195.575367 
L 380.128184 198.153445 
L 381.163675 203.393357 
L 383.105221 213.195824 
L 384.20543 217.554366 
L 385.176203 220.566206 
L 386.146975 222.89915 
L 387.117748 224.682553 
L 388.153239 226.115468 
L 389.18873 227.18258 
L 390.353657 228.061913 
L 391.648021 228.753708 
L 393.136539 229.294501 
L 395.013366 229.725172 
L 397.407939 230.034289 
L 400.902721 230.242016 
L 407.050948 230.350076 
L 426.984148 230.375873 
L 460.767039 230.376 
L 460.767039 230.376 
" clip-path="url(#p243869d572)" style="fill: none; stroke: #d62728; stroke-width: 1.5; stroke-linecap: square"/>
   </g>
   <g id="line2d_45">
    <path d="M 378.380794 230.376 
L 378.380794 193.610143 
" clip-path="url(#p243869d572)" style="fill: none; stroke-dasharray: 1.5,2.475; stroke-dashoffset: 0; stroke: #d62728; stroke-width: 1.5"/>
   </g>
   <g id="line2d_46">
    <path d="M 388.865139 230.376 
L 388.865139 30.075185 
" clip-path="url(#p243869d572)" style="fill: none; stroke-dasharray: 1.5,2.475; stroke-dashoffset: 0; stroke: #1f77b4; stroke-width: 1.5"/>
   </g>
   <g id="matplotlib.axis_5">
    <g id="xtick_8">
     <g id="line2d_47">
      <g>
       <use xlink:href="#m2a734cddea" x="357.217948" y="230.376" style="stroke: #000000; stroke-width: 0.8"/>
      </g>
     </g>
     <g id="text_22">
      <!-- $\mathdefault{10^{-3}}$ -->
      <g transform="translate(347.137661 244.294498) scale(0.1 -0.1)">
       <defs>
        <path id="CMR17-33" d="M 1414 2157 
C 1984 2157 2234 1662 2234 1090 
C 2234 320 1824 25 1453 25 
C 1114 25 563 194 390 693 
C 422 680 454 680 486 680 
C 640 680 755 782 755 948 
C 755 1133 614 1216 486 1216 
C 378 1216 211 1165 211 926 
C 211 335 787 -128 1466 -128 
C 2176 -128 2720 430 2720 1085 
C 2720 1707 2208 2157 1600 2227 
C 2086 2328 2554 2756 2554 3329 
C 2554 3820 2048 4179 1472 4179 
C 890 4179 378 3829 378 3329 
C 378 3110 544 3072 627 3072 
C 762 3072 877 3155 877 3321 
C 877 3486 762 3569 627 3569 
C 602 3569 570 3569 544 3557 
C 730 3959 1235 4032 1459 4032 
C 1683 4032 2106 3925 2106 3320 
C 2106 3143 2080 2828 1862 2550 
C 1670 2304 1453 2304 1242 2284 
C 1210 2284 1062 2269 1037 2269 
C 992 2263 966 2257 966 2208 
C 966 2163 973 2157 1101 2157 
L 1414 2157 
z
" transform="scale(0.015625)"/>
       </defs>
       <use xlink:href="#CMR17-31" transform="scale(0.996264)"/>
       <use xlink:href="#CMR17-30" transform="translate(45.690477 0) scale(0.996264)"/>
       <use xlink:href="#CMSY10-0" transform="translate(91.380954 36.153639) scale(0.697382)"/>
       <use xlink:href="#CMR17-33" transform="translate(145.621947 36.153639) scale(0.697382)"/>
      </g>
     </g>
    </g>
    <g id="xtick_9">
     <g id="line2d_48">
      <g>
       <use xlink:href="#m2a734cddea" x="391.734312" y="230.376" style="stroke: #000000; stroke-width: 0.8"/>
      </g>
     </g>
     <g id="text_23">
      <!-- $\mathdefault{10^{1}}$ -->
      <g transform="translate(384.767358 244.294498) scale(0.1 -0.1)">
       <use xlink:href="#CMR17-31" transform="scale(0.996264)"/>
       <use xlink:href="#CMR17-30" transform="translate(45.690477 0) scale(0.996264)"/>
       <use xlink:href="#CMR17-31" transform="translate(91.380954 36.153639) scale(0.697382)"/>
      </g>
     </g>
    </g>
    <g id="xtick_10">
     <g id="line2d_49">
      <g>
       <use xlink:href="#m2a734cddea" x="426.250675" y="230.376" style="stroke: #000000; stroke-width: 0.8"/>
      </g>
     </g>
     <g id="text_24">
      <!-- $\mathdefault{10^{5}}$ -->
      <g transform="translate(419.283721 244.294498) scale(0.1 -0.1)">
       <use xlink:href="#CMR17-31" transform="scale(0.996264)"/>
       <use xlink:href="#CMR17-30" transform="translate(45.690477 0) scale(0.996264)"/>
       <use xlink:href="#CMR17-35" transform="translate(91.380954 36.153639) scale(0.697382)"/>
      </g>
     </g>
    </g>
    <g id="xtick_11">
     <g id="line2d_50">
      <g>
       <use xlink:href="#m2a734cddea" x="460.767039" y="230.376" style="stroke: #000000; stroke-width: 0.8"/>
      </g>
     </g>
     <g id="text_25">
      <!-- $\mathdefault{10^{9}}$ -->
      <g transform="translate(453.800085 244.294498) scale(0.1 -0.1)">
       <defs>
        <path id="CMR17-39" d="M 2253 1864 
C 2253 464 1670 31 1190 31 
C 1043 31 685 31 538 294 
C 704 268 826 357 826 518 
C 826 692 685 749 595 749 
C 538 749 365 723 365 506 
C 365 71 742 -128 1203 -128 
C 1939 -128 2688 674 2688 2073 
C 2688 3817 1971 4179 1485 4179 
C 851 4179 243 3628 243 2778 
C 243 1991 762 1408 1414 1408 
C 1952 1408 2189 1903 2253 2112 
L 2253 1864 
z
M 1427 1510 
C 1254 1510 1011 1542 813 1922 
C 678 2169 678 2461 678 2771 
C 678 3146 678 3405 858 3684 
C 947 3817 1114 4032 1485 4032 
C 2240 4032 2240 2885 2240 2632 
C 2240 2182 2035 1510 1427 1510 
z
" transform="scale(0.015625)"/>
       </defs>
       <use xlink:href="#CMR17-31" transform="scale(0.996264)"/>
       <use xlink:href="#CMR17-30" transform="translate(45.690477 0) scale(0.996264)"/>
       <use xlink:href="#CMR17-39" transform="translate(91.380954 36.153639) scale(0.697382)"/>
      </g>
     </g>
    </g>
    <g id="text_26">
     <!-- \(C_c(\unit{\pico\farad})\) -->
     <g transform="translate(380.565849 257.703657) scale(0.1 -0.1)">
      <defs>
       <path id="CMMI12-43" d="M 4781 4423 
C 4781 4480 4736 4480 4723 4480 
C 4710 4480 4685 4480 4634 4416 
L 4192 3882 
C 3968 4264 3616 4480 3136 4480 
C 1754 4480 320 3088 320 1595 
C 320 533 1069 -128 2003 -128 
C 2515 -128 2963 88 3334 400 
C 3891 863 4058 1481 4058 1531 
C 4058 1588 4006 1588 3987 1588 
C 3930 1588 3923 1550 3910 1524 
C 3616 534 2752 57 2112 57 
C 1434 57 845 489 845 1391 
C 845 1595 909 2700 1632 3532 
C 1984 3939 2586 4295 3194 4295 
C 3898 4295 4211 3717 4211 3068 
C 4211 2903 4192 2764 4192 2738 
C 4192 2681 4256 2681 4275 2681 
C 4346 2681 4352 2687 4378 2801 
L 4781 4423 
z
" transform="scale(0.015625)"/>
       <path id="CMMI12-63" d="M 2502 2431 
C 2381 2431 2323 2431 2234 2355 
C 2195 2323 2125 2227 2125 2125 
C 2125 1997 2221 1920 2342 1920 
C 2496 1920 2669 2044 2669 2292 
C 2669 2588 2374 2816 1933 2816 
C 1094 2816 256 1903 256 996 
C 256 441 602 -64 1254 -64 
C 2125 -64 2675 622 2675 706 
C 2675 744 2637 776 2611 776 
C 2592 776 2586 770 2528 713 
C 2118 162 1510 64 1267 64 
C 826 64 685 446 685 764 
C 685 988 794 1605 1024 2039 
C 1190 2338 1536 2682 1939 2682 
C 2022 2682 2374 2682 2502 2431 
z
" transform="scale(0.015625)"/>
       <path id="CMR17-46" d="M 3482 4325 
L 326 4325 
L 326 4160 
C 768 4160 838 4160 838 3874 
L 838 446 
C 838 160 768 160 326 160 
L 326 0 
C 512 0 870 0 1069 0 
C 1331 0 1638 0 1901 0 
L 1901 160 
L 1760 160 
C 1274 160 1261 223 1261 452 
L 1261 2075 
L 1837 2075 
C 2432 2075 2490 1865 2490 1332 
L 2605 1332 
L 2605 2987 
L 2490 2987 
C 2490 2450 2432 2240 1837 2240 
L 1261 2240 
L 1261 3911 
C 1261 4128 1274 4160 1530 4160 
L 2355 4160 
C 3322 4160 3430 3765 3520 2916 
L 3635 2916 
L 3482 4325 
z
" transform="scale(0.015625)"/>
      </defs>
      <use xlink:href="#CMMI12-43" transform="scale(0.996264)"/>
      <use xlink:href="#CMMI12-63" transform="translate(69.792037 -14.943915) scale(0.697382)"/>
      <use xlink:href="#CMR17-28" transform="translate(99.6783 0) scale(0.996264)"/>
      <use xlink:href="#CMR17-70" transform="translate(134.959068 0) scale(0.996264)"/>
      <use xlink:href="#CMR17-46" transform="translate(185.854437 0) scale(0.996264)"/>
      <use xlink:href="#CMR17-29" transform="translate(245.838284 0) scale(0.996264)"/>
     </g>
    </g>
   </g>
   <g id="matplotlib.axis_6">
    <g id="ytick_19">
     <g id="line2d_51">
      <path d="M 324.858857 230.376 
L 467.238857 230.376 
" clip-path="url(#p243869d572)" style="fill: none; stroke: #b0b0b0; stroke-width: 0.8; stroke-linecap: square"/>
     </g>
     <g id="line2d_52">
      <defs>
       <path id="mc400c3ca82" d="M 0 0 
L 3.5 0 
" style="stroke: #000000; stroke-width: 0.8"/>
      </defs>
      <g>
       <use xlink:href="#mc400c3ca82" x="467.238857" y="230.376" style="stroke: #000000; stroke-width: 0.8"/>
      </g>
     </g>
    </g>
    <g id="ytick_20">
     <g id="line2d_53">
      <path d="M 324.858857 203.58 
L 467.238857 203.58 
" clip-path="url(#p243869d572)" style="fill: none; stroke: #b0b0b0; stroke-width: 0.8; stroke-linecap: square"/>
     </g>
     <g id="line2d_54">
      <g>
       <use xlink:href="#mc400c3ca82" x="467.238857" y="203.58" style="stroke: #000000; stroke-width: 0.8"/>
      </g>
     </g>
    </g>
    <g id="ytick_21">
     <g id="line2d_55">
      <path d="M 324.858857 176.784 
L 467.238857 176.784 
" clip-path="url(#p243869d572)" style="fill: none; stroke: #b0b0b0; stroke-width: 0.8; stroke-linecap: square"/>
     </g>
     <g id="line2d_56">
      <g>
       <use xlink:href="#mc400c3ca82" x="467.238857" y="176.784" style="stroke: #000000; stroke-width: 0.8"/>
      </g>
     </g>
    </g>
    <g id="ytick_22">
     <g id="line2d_57">
      <path d="M 324.858857 149.988 
L 467.238857 149.988 
" clip-path="url(#p243869d572)" style="fill: none; stroke: #b0b0b0; stroke-width: 0.8; stroke-linecap: square"/>
     </g>
     <g id="line2d_58">
      <g>
       <use xlink:href="#mc400c3ca82" x="467.238857" y="149.988" style="stroke: #000000; stroke-width: 0.8"/>
      </g>
     </g>
    </g>
    <g id="ytick_23">
     <g id="line2d_59">
      <path d="M 324.858857 123.192 
L 467.238857 123.192 
" clip-path="url(#p243869d572)" style="fill: none; stroke: #b0b0b0; stroke-width: 0.8; stroke-linecap: square"/>
     </g>
     <g id="line2d_60">
      <g>
       <use xlink:href="#mc400c3ca82" x="467.238857" y="123.192" style="stroke: #000000; stroke-width: 0.8"/>
      </g>
     </g>
    </g>
    <g id="ytick_24">
     <g id="line2d_61">
      <path d="M 324.858857 96.396 
L 467.238857 96.396 
" clip-path="url(#p243869d572)" style="fill: none; stroke: #b0b0b0; stroke-width: 0.8; stroke-linecap: square"/>
     </g>
     <g id="line2d_62">
      <g>
       <use xlink:href="#mc400c3ca82" x="467.238857" y="96.396" style="stroke: #000000; stroke-width: 0.8"/>
      </g>
     </g>
    </g>
    <g id="ytick_25">
     <g id="line2d_63">
      <path d="M 324.858857 69.6 
L 467.238857 69.6 
" clip-path="url(#p243869d572)" style="fill: none; stroke: #b0b0b0; stroke-width: 0.8; stroke-linecap: square"/>
     </g>
     <g id="line2d_64">
      <g>
       <use xlink:href="#mc400c3ca82" x="467.238857" y="69.6" style="stroke: #000000; stroke-width: 0.8"/>
      </g>
     </g>
    </g>
    <g id="ytick_26">
     <g id="line2d_65">
      <path d="M 324.858857 42.804 
L 467.238857 42.804 
" clip-path="url(#p243869d572)" style="fill: none; stroke: #b0b0b0; stroke-width: 0.8; stroke-linecap: square"/>
     </g>
     <g id="line2d_66">
      <g>
       <use xlink:href="#mc400c3ca82" x="467.238857" y="42.804" style="stroke: #000000; stroke-width: 0.8"/>
      </g>
     </g>
    </g>
    <g id="ytick_27">
     <g id="line2d_67">
      <path d="M 324.858857 16.008 
L 467.238857 16.008 
" clip-path="url(#p243869d572)" style="fill: none; stroke: #b0b0b0; stroke-width: 0.8; stroke-linecap: square"/>
     </g>
     <g id="line2d_68">
      <g>
       <use xlink:href="#mc400c3ca82" x="467.238857" y="16.008" style="stroke: #000000; stroke-width: 0.8"/>
      </g>
     </g>
    </g>
    <g id="text_27">
     <!-- \(|\Delta\Gamma|\) -->
     <g transform="translate(482.210837 133.223854) rotate(-90) scale(0.1 -0.1)">
      <use xlink:href="#CMSY10-6a" transform="scale(0.996264)"/>
      <use xlink:href="#CMR17-1" transform="translate(27.674085 0) scale(0.996264)"/>
      <use xlink:href="#CMR17-0" transform="translate(104.593675 0) scale(0.996264)"/>
      <use xlink:href="#CMSY10-6a" transform="translate(161.975082 0) scale(0.996264)"/>
     </g>
    </g>
   </g>
   <g id="line2d_69">
    <path d="M 331.330675 230.376 
L 364.013357 230.265513 
L 366.149057 230.034163 
L 367.508139 229.677633 
L 368.54363 229.17676 
L 369.384966 228.521295 
L 370.161584 227.611948 
L 370.873484 226.406921 
L 371.520666 224.88375 
L 372.167848 222.813804 
L 372.81503 220.028454 
L 373.52693 215.897688 
L 374.23883 210.357063 
L 375.015448 202.347805 
L 375.792066 191.978991 
L 376.698121 176.752059 
L 377.863048 152.897626 
L 381.163675 82.396568 
L 382.199166 66.149954 
L 383.169939 54.358388 
L 384.075994 46.033135 
L 384.91733 40.254166 
L 385.693948 36.303586 
L 386.470566 33.460213 
L 387.182466 31.67979 
L 387.76493 30.737461 
L 388.282675 30.252201 
L 388.735703 30.081898 
L 389.18873 30.13794 
L 389.641757 30.413109 
L 390.159503 30.990315 
L 390.741966 31.971516 
L 391.453866 33.649811 
L 392.230484 36.093005 
L 393.071821 39.483379 
L 394.042594 44.390468 
L 395.078084 50.829361 
L 396.243012 59.548319 
L 397.602094 71.54537 
L 399.284766 88.545926 
L 405.432994 152.759508 
L 407.050948 166.346629 
L 408.539466 177.098367 
L 410.027984 186.247883 
L 411.451784 193.636858 
L 412.875584 199.851809 
L 414.234666 204.83543 
L 415.593748 209.025142 
L 416.95283 212.539152 
L 418.37663 215.609033 
L 419.80043 218.154752 
L 421.22423 220.263988 
L 422.712748 222.08236 
L 424.265984 223.632973 
L 425.883939 224.941247 
L 427.63133 226.070916 
L 429.572875 227.053104 
L 431.708575 227.876867 
L 434.103148 228.560262 
L 436.950748 229.134172 
L 440.380812 229.590193 
L 444.781648 229.939165 
L 450.865157 230.181992 
L 460.637603 230.323329 
L 460.767039 230.324231 
L 460.767039 230.324231 
" clip-path="url(#p243869d572)" style="fill: none; stroke: #1f77b4; stroke-width: 1.5; stroke-linecap: square"/>
   </g>
   <g id="line2d_70">
    <path d="M 331.330675 230.376 
L 358.382875 230.265481 
L 360.518575 230.031606 
L 361.877657 229.667394 
L 362.84843 229.191454 
L 363.689766 228.530013 
L 364.401666 227.693714 
L 365.113566 226.487312 
L 365.760748 224.940081 
L 366.40793 222.803526 
L 367.055112 219.876107 
L 367.702294 215.906855 
L 368.414194 209.982745 
L 369.126094 202.010751 
L 369.902712 190.519143 
L 370.744048 174.466051 
L 371.779539 149.99929 
L 375.015448 69.660626 
L 375.921503 54.269022 
L 376.762839 43.576363 
L 377.539457 36.311754 
L 378.316075 31.019617 
L 379.092694 27.216385 
L 379.869312 24.498381 
L 380.64593 22.550933 
L 381.487266 21.04052 
L 382.393321 19.877705 
L 383.428812 18.923015 
L 384.658457 18.108717 
L 386.082257 17.444579 
L 387.570775 16.997702 
L 388.994575 16.797608 
L 390.353657 16.831236 
L 391.583303 17.077808 
L 392.74823 17.535685 
L 393.848439 18.210962 
L 394.88393 19.111173 
L 395.854703 20.241773 
L 396.825475 21.712435 
L 397.796248 23.597662 
L 398.767021 25.984829 
L 399.737794 28.972403 
L 400.773284 32.939665 
L 401.808775 37.836699 
L 402.908984 44.181703 
L 404.073912 52.275268 
L 405.368275 62.934164 
L 406.856794 77.134281 
L 408.927775 99.242736 
L 412.810866 140.876099 
L 414.622975 157.658226 
L 416.24093 170.574181 
L 417.729448 180.716566 
L 419.153248 188.96002 
L 420.577048 195.924241 
L 422.000848 201.769271 
L 423.35993 206.449332 
L 424.719012 210.379873 
L 426.078094 213.674178 
L 427.501894 216.550672 
L 428.925694 218.935173 
L 430.414212 220.991576 
L 431.90273 222.679518 
L 433.455966 224.118714 
L 435.138639 225.376206 
L 436.950748 226.44958 
L 438.957012 227.37147 
L 441.15743 228.135756 
L 443.681439 228.776233 
L 446.723194 229.309862 
L 450.476848 229.729875 
L 455.39543 230.040789 
L 460.767039 230.212292 
L 460.767039 230.212292 
" clip-path="url(#p243869d572)" style="fill: none; stroke: #ff7f0e; stroke-width: 1.5; stroke-linecap: square"/>
   </g>
   <g id="line2d_71">
    <path d="M 331.330675 230.376 
L 368.802503 230.265006 
L 371.067639 230.022937 
L 372.491439 229.65866 
L 373.591648 229.152428 
L 374.497703 228.498171 
L 375.339039 227.611556 
L 376.115657 226.468349 
L 376.892275 224.917177 
L 377.668894 222.849438 
L 378.445512 220.145725 
L 379.286848 216.355701 
L 380.128184 211.523884 
L 381.034239 205.008606 
L 382.005012 196.396075 
L 383.105221 184.534315 
L 384.334866 168.73795 
L 385.823384 146.539256 
L 388.023803 109.835345 
L 390.806684 64.024848 
L 392.165766 45.225016 
L 393.265975 32.965223 
L 394.17203 25.268981 
L 394.88393 20.891513 
L 395.466394 18.452244 
L 395.984139 17.162478 
L 396.372448 16.739271 
L 396.631321 16.71497 
L 396.890194 16.895228 
L 397.213784 17.40496 
L 397.666812 18.639569 
L 398.184557 20.772001 
L 398.831739 24.465356 
L 399.608357 30.285541 
L 400.57913 39.416609 
L 401.808775 53.309904 
L 403.620884 76.641771 
L 407.309821 124.439851 
L 409.057212 143.91254 
L 410.610448 158.832084 
L 412.098966 171.031224 
L 413.522766 180.920551 
L 414.946566 189.259426 
L 416.305648 195.957384 
L 417.66473 201.594676 
L 419.023812 206.326502 
L 420.382894 210.290817 
L 421.741975 213.607737 
L 423.165775 216.500445 
L 424.589575 218.896317 
L 426.078094 220.961283 
L 427.566612 222.655544 
L 429.119848 224.099716 
L 430.802521 225.361304 
L 432.61463 226.438025 
L 434.620894 227.362703 
L 436.821312 228.129255 
L 439.345321 228.771606 
L 442.387075 229.306784 
L 446.14073 229.728011 
L 450.994594 230.036907 
L 458.048875 230.243697 
L 460.767039 230.28394 
L 460.767039 230.28394 
" clip-path="url(#p243869d572)" style="fill: none; stroke: #2ca02c; stroke-width: 1.5; stroke-linecap: square"/>
   </g>
   <g id="line2d_72">
    <path d="M 389.512321 230.376 
L 389.512321 16.783101 
" clip-path="url(#p243869d572)" style="fill: none; stroke-dasharray: 1.5,2.475; stroke-dashoffset: 0; stroke: #ff7f0e; stroke-width: 1.5"/>
   </g>
   <g id="patch_13">
    <path d="M 324.858857 230.376 
L 324.858857 16.008 
" style="fill: none; stroke: #000000; stroke-width: 0.8; stroke-linejoin: miter; stroke-linecap: square"/>
   </g>
   <g id="patch_14">
    <path d="M 467.238857 230.376 
L 467.238857 16.008 
" style="fill: none; stroke: #000000; stroke-width: 0.8; stroke-linejoin: miter; stroke-linecap: square"/>
   </g>
   <g id="patch_15">
    <path d="M 324.858857 230.376 
L 467.238857 230.376 
" style="fill: none; stroke: #000000; stroke-width: 0.8; stroke-linejoin: miter; stroke-linecap: square"/>
   </g>
   <g id="patch_16">
    <path d="M 324.858857 16.008 
L 467.238857 16.008 
" style="fill: none; stroke: #000000; stroke-width: 0.8; stroke-linejoin: miter; stroke-linecap: square"/>
   </g>
   <g id="line2d_73">
    <path d="M 396.501884 230.376 
L 396.501884 16.701441 
" clip-path="url(#p243869d572)" style="fill: none; stroke-dasharray: 1.5,2.475; stroke-dashoffset: 0; stroke: #2ca02c; stroke-width: 1.5"/>
   </g>
   <g id="text_28">
    <!-- \(|\Delta\Gamma|(C_c)\) -->
    <g transform="translate(373.370587 10.008) scale(0.12 -0.12)">
     <use xlink:href="#CMSY10-6a" transform="scale(0.996264)"/>
     <use xlink:href="#CMR17-1" transform="translate(27.674085 0) scale(0.996264)"/>
     <use xlink:href="#CMR17-0" transform="translate(104.593675 0) scale(0.996264)"/>
     <use xlink:href="#CMSY10-6a" transform="translate(161.975082 0) scale(0.996264)"/>
     <use xlink:href="#CMR17-28" transform="translate(189.649167 0) scale(0.996264)"/>
     <use xlink:href="#CMMI12-43" transform="translate(224.929935 0) scale(0.996264)"/>
     <use xlink:href="#CMMI12-63" transform="translate(294.721972 -14.943915) scale(0.697382)"/>
     <use xlink:href="#CMR17-29" transform="translate(324.608235 0) scale(0.996264)"/>
    </g>
   </g>
   <g id="legend_1">
    <g id="patch_17">
     <path d="M 381.559884 79.756713 
L 460.238857 79.756713 
Q 462.238857 79.756713 462.238857 77.756713 
L 462.238857 23.008 
Q 462.238857 21.008 460.238857 21.008 
L 381.559884 21.008 
Q 379.559884 21.008 379.559884 23.008 
L 379.559884 77.756713 
Q 379.559884 79.756713 381.559884 79.756713 
z
" style="fill: #ffffff; opacity: 0.8; stroke: #cccccc; stroke-linejoin: miter"/>
    </g>
    <g id="line2d_74">
     <path d="M 383.559884 28.508 
L 393.559884 28.508 
L 403.559884 28.508 
" style="fill: none; stroke: #1f77b4; stroke-width: 1.5; stroke-linecap: square"/>
    </g>
    <g id="text_29">
     <!-- \(\lambda_t=1\) -->
     <g transform="translate(411.559884 32.008) scale(0.1 -0.1)">
      <defs>
       <path id="CMMI12-74" d="M 1286 2566 
L 1875 2566 
C 1997 2566 2061 2566 2061 2681 
C 2061 2752 2022 2752 1894 2752 
L 1331 2752 
L 1568 3692 
C 1594 3781 1594 3794 1594 3840 
C 1594 3943 1510 4000 1427 4000 
C 1376 4000 1229 3981 1178 3775 
L 928 2752 
L 326 2752 
C 198 2752 141 2752 141 2630 
C 141 2566 186 2566 307 2566 
L 877 2566 
L 454 881 
C 403 658 384 594 384 511 
C 384 211 595 -64 954 -64 
C 1600 -64 1946 868 1946 912 
C 1946 951 1920 970 1882 970 
C 1869 970 1843 970 1830 944 
C 1824 938 1818 931 1773 829 
C 1638 511 1344 64 973 64 
C 781 64 768 224 768 364 
C 768 370 768 492 787 568 
L 1286 2566 
z
" transform="scale(0.015625)"/>
       <path id="CMR17-3d" d="M 4115 2017 
C 4211 2017 4307 2017 4307 2125 
C 4307 2240 4198 2240 4090 2240 
L 512 2240 
C 403 2240 294 2240 294 2125 
C 294 2017 390 2017 486 2017 
L 4115 2017 
z
M 4090 896 
C 4198 896 4307 896 4307 1011 
C 4307 1119 4211 1119 4115 1119 
L 486 1119 
C 390 1119 294 1119 294 1011 
C 294 896 403 896 512 896 
L 4090 896 
z
" transform="scale(0.015625)"/>
      </defs>
      <use xlink:href="#CMMI12-15" transform="scale(0.996264)"/>
      <use xlink:href="#CMMI12-74" transform="translate(56.904072 -14.943915) scale(0.697382)"/>
      <use xlink:href="#CMR17-3d" transform="translate(109.734522 0) scale(0.996264)"/>
      <use xlink:href="#CMR17-31" transform="translate(209.123319 0) scale(0.996264)"/>
     </g>
    </g>
    <g id="line2d_75">
     <path d="M 383.559884 42.445178 
L 393.559884 42.445178 
L 403.559884 42.445178 
" style="fill: none; stroke: #ff7f0e; stroke-width: 1.5; stroke-linecap: square"/>
    </g>
    <g id="text_30">
     <!-- \(\lambda_t=\lambda\) -->
     <g transform="translate(411.559884 45.945178) scale(0.1 -0.1)">
      <use xlink:href="#CMMI12-15" transform="scale(0.996264)"/>
      <use xlink:href="#CMMI12-74" transform="translate(56.904072 -14.943915) scale(0.697382)"/>
      <use xlink:href="#CMR17-3d" transform="translate(109.734522 0) scale(0.996264)"/>
      <use xlink:href="#CMMI12-15" transform="translate(209.123319 0) scale(0.996264)"/>
     </g>
    </g>
    <g id="line2d_76">
     <path d="M 383.559884 56.382357 
L 393.559884 56.382357 
L 403.559884 56.382357 
" style="fill: none; stroke: #2ca02c; stroke-width: 1.5; stroke-linecap: square"/>
    </g>
    <g id="text_31">
     <!-- \(\lambda&lt;\lambda_t&lt;1\) -->
     <g transform="translate(411.559884 59.882357) scale(0.1 -0.1)">
      <defs>
       <path id="CMMI12-3c" d="M 4218 3104 
C 4333 3155 4346 3200 4346 3238 
C 4346 3309 4294 3360 4224 3360 
C 4211 3360 4205 3353 4115 3315 
L 653 1719 
C 538 1667 525 1622 525 1584 
C 525 1539 531 1501 653 1442 
L 4115 -154 
C 4198 -192 4211 -192 4224 -192 
C 4294 -192 4346 -141 4346 -70 
C 4346 -32 4333 13 4218 64 
L 922 1581 
L 4218 3104 
z
" transform="scale(0.015625)"/>
      </defs>
      <use xlink:href="#CMMI12-15" transform="scale(0.996264)"/>
      <use xlink:href="#CMMI12-3c" transform="translate(84.578081 0) scale(0.996264)"/>
      <use xlink:href="#CMMI12-15" transform="translate(188.124185 0) scale(0.996264)"/>
      <use xlink:href="#CMMI12-74" transform="translate(245.028257 -14.943915) scale(0.697382)"/>
      <use xlink:href="#CMMI12-3c" transform="translate(297.858707 0) scale(0.996264)"/>
      <use xlink:href="#CMR17-31" transform="translate(401.404812 0) scale(0.996264)"/>
     </g>
    </g>
    <g id="line2d_77">
     <path d="M 383.559884 70.319535 
L 393.559884 70.319535 
L 403.559884 70.319535 
" style="fill: none; stroke: #d62728; stroke-width: 1.5; stroke-linecap: square"/>
    </g>
    <g id="text_32">
     <!-- \(\lambda=1\) -->
     <g transform="translate(411.559884 73.819535) scale(0.1 -0.1)">
      <use xlink:href="#CMMI12-15" transform="scale(0.996264)"/>
      <use xlink:href="#CMR17-3d" transform="translate(84.578081 0) scale(0.996264)"/>
      <use xlink:href="#CMR17-31" transform="translate(183.966878 0) scale(0.996264)"/>
     </g>
    </g>
   </g>
  </g>
  <g id="axes_4">
   <g id="patch_18">
    <path d="M 82.9872 268.2036 
L 400.2912 268.2036 
L 400.2912 263.8188 
L 82.9872 263.8188 
z
" clip-path="url(#pc75f9bd67b)" style="fill: #d3d3d3"/>
   </g>
   <g id="patch_19">
    <path d="M 82.9872 268.2036 
L 241.6392 268.2036 
L 241.6392 263.8188 
L 82.9872 263.8188 
z
" clip-path="url(#pc75f9bd67b)" style="fill: #1f77b4"/>
   </g>
   <g id="line2d_78">
    <path d="M 241.6392 270.396 
L 241.6392 261.6264 
" clip-path="url(#p78a815fc2e)" style="fill: none; stroke: #ff0000; stroke-linecap: square"/>
   </g>
   <g id="line2d_79">
    <defs>
     <path id="mb75f52386f" d="M 0 5 
C 1.326016 5 2.597899 4.473168 3.535534 3.535534 
C 4.473168 2.597899 5 1.326016 5 0 
C 5 -1.326016 4.473168 -2.597899 3.535534 -3.535534 
C 2.597899 -4.473168 1.326016 -5 0 -5 
C -1.326016 -5 -2.597899 -4.473168 -3.535534 -3.535534 
C -4.473168 -2.597899 -5 -1.326016 -5 0 
C -5 1.326016 -4.473168 2.597899 -3.535534 3.535534 
C -2.597899 4.473168 -1.326016 5 0 5 
z
" style="stroke: #bfbfbf"/>
    </defs>
    <g>
     <use xlink:href="#mb75f52386f" x="241.6392" y="266.0112" style="fill: #ffffff; stroke: #bfbfbf"/>
    </g>
   </g>
   <g id="text_33">
    <!-- \(\pi\) -->
    <g transform="translate(70.962145 268.50186) scale(0.1 -0.1)">
     <use xlink:href="#CMMI12-19" transform="scale(0.996264)"/>
    </g>
   </g>
   <g id="text_34">
    <!-- 1.00e+00 -->
    <g transform="translate(406.63728 268.50186) scale(0.1 -0.1)">
     <defs>
      <path id="CMR17-2e" d="M 1062 261 
C 1062 420 934 522 800 522 
C 672 522 538 420 538 261 
C 538 102 666 0 800 0 
C 928 0 1062 102 1062 261 
z
" transform="scale(0.015625)"/>
      <path id="CMR17-65" d="M 2438 1472 
C 2464 1498 2464 1511 2464 1576 
C 2464 2238 2118 2816 1389 2816 
C 710 2816 173 2169 173 1383 
C 173 551 781 -64 1459 -64 
C 2176 -64 2458 607 2458 740 
C 2458 784 2419 784 2406 784 
C 2362 784 2355 771 2330 696 
C 2189 265 1837 51 1504 51 
C 1229 51 954 203 781 480 
C 582 803 582 1176 582 1472 
L 2438 1472 
z
M 589 1568 
C 634 2505 1126 2714 1382 2714 
C 1818 2714 2112 2297 2118 1568 
L 589 1568 
z
" transform="scale(0.015625)"/>
      <path id="CMR17-2b" d="M 2413 1472 
L 4109 1472 
C 4198 1472 4307 1472 4307 1580 
C 4307 1695 4205 1695 4109 1695 
L 2413 1695 
L 2413 3386 
C 2413 3475 2413 3584 2304 3584 
C 2189 3584 2189 3482 2189 3386 
L 2189 1695 
L 493 1695 
C 403 1695 294 1695 294 1587 
C 294 1472 397 1472 493 1472 
L 2189 1472 
L 2189 -218 
C 2189 -307 2189 -416 2298 -416 
C 2413 -416 2413 -314 2413 -218 
L 2413 1472 
z
" transform="scale(0.015625)"/>
     </defs>
     <use xlink:href="#CMR17-31" transform="scale(0.996264)"/>
     <use xlink:href="#CMR17-2e" transform="translate(45.690477 0) scale(0.996264)"/>
     <use xlink:href="#CMR17-30" transform="translate(70.561536 0) scale(0.996264)"/>
     <use xlink:href="#CMR17-30" transform="translate(116.252013 0) scale(0.996264)"/>
     <use xlink:href="#CMR17-65" transform="translate(161.94249 0) scale(0.996264)"/>
     <use xlink:href="#CMR17-2b" transform="translate(202.42815 0) scale(0.996264)"/>
     <use xlink:href="#CMR17-30" transform="translate(274.142939 0) scale(0.996264)"/>
     <use xlink:href="#CMR17-30" transform="translate(319.833416 0) scale(0.996264)"/>
    </g>
   </g>
  </g>
  <g id="axes_5">
   <g id="patch_20">
    <path d="M 82.9872 276.9732 
L 400.2912 276.9732 
L 400.2912 272.5884 
L 82.9872 272.5884 
z
" clip-path="url(#p6ebf2f60dd)" style="fill: #d3d3d3"/>
   </g>
   <g id="patch_21">
    <path d="M 82.9872 276.9732 
L 82.9872 276.9732 
L 82.9872 272.5884 
L 82.9872 272.5884 
z
" clip-path="url(#p6ebf2f60dd)" style="fill: #1f77b4"/>
   </g>
   <g id="line2d_80">
    <path d="M 82.9872 279.1656 
L 82.9872 270.396 
" clip-path="url(#p04d611fb2c)" style="fill: none; stroke: #ff0000; stroke-linecap: square"/>
   </g>
   <g id="line2d_81">
    <g>
     <use xlink:href="#mb75f52386f" x="82.9872" y="274.7808" style="fill: #ffffff; stroke: #bfbfbf"/>
    </g>
   </g>
   <g id="text_35">
    <!-- \(\lambda\) -->
    <g transform="translate(70.829555 277.27146) scale(0.1 -0.1)">
     <use xlink:href="#CMMI12-15" transform="scale(0.996264)"/>
    </g>
   </g>
   <g id="text_36">
    <!-- 1.00e-01 -->
    <g transform="translate(406.63728 277.27146) scale(0.1 -0.1)">
     <defs>
      <path id="CMR17-2d" d="M 1632 1216 
L 1632 1496 
L 26 1496 
L 26 1216 
L 1632 1216 
z
" transform="scale(0.015625)"/>
     </defs>
     <use xlink:href="#CMR17-31" transform="scale(0.996264)"/>
     <use xlink:href="#CMR17-2e" transform="translate(45.690477 0) scale(0.996264)"/>
     <use xlink:href="#CMR17-30" transform="translate(70.561536 0) scale(0.996264)"/>
     <use xlink:href="#CMR17-30" transform="translate(116.252013 0) scale(0.996264)"/>
     <use xlink:href="#CMR17-65" transform="translate(161.94249 0) scale(0.996264)"/>
     <use xlink:href="#CMR17-2d" transform="translate(202.42815 0) scale(0.996264)"/>
     <use xlink:href="#CMR17-30" transform="translate(232.504117 0) scale(0.996264)"/>
     <use xlink:href="#CMR17-31" transform="translate(278.194594 0) scale(0.996264)"/>
    </g>
   </g>
  </g>
  <g id="axes_6">
   <g id="patch_22">
    <path d="M 82.9872 285.7428 
L 400.2912 285.7428 
L 400.2912 281.358 
L 82.9872 281.358 
z
" clip-path="url(#p8457167933)" style="fill: #d3d3d3"/>
   </g>
   <g id="patch_23">
    <path d="M 82.9872 285.7428 
L 241.6392 285.7428 
L 241.6392 281.358 
L 82.9872 281.358 
z
" clip-path="url(#p8457167933)" style="fill: #1f77b4"/>
   </g>
   <g id="line2d_82">
    <path d="M 241.6392 287.9352 
L 241.6392 279.1656 
" clip-path="url(#p07850e8429)" style="fill: none; stroke: #ff0000; stroke-linecap: square"/>
   </g>
   <g id="line2d_83">
    <g>
     <use xlink:href="#mb75f52386f" x="241.6392" y="283.5504" style="fill: #ffffff; stroke: #bfbfbf"/>
    </g>
   </g>
   <g id="text_37">
    <!-- \(\lambda_t\) -->
    <g transform="translate(67.819997 286.04106) scale(0.1 -0.1)">
     <use xlink:href="#CMMI12-15" transform="scale(0.996264)"/>
     <use xlink:href="#CMMI12-74" transform="translate(56.904072 -14.943915) scale(0.697382)"/>
    </g>
   </g>
   <g id="text_38">
    <!-- 3.16e-01 -->
    <g transform="translate(406.63728 286.04106) scale(0.1 -0.1)">
     <defs>
      <path id="CMR17-36" d="M 678 2176 
C 678 3690 1395 4032 1811 4032 
C 1946 4032 2272 4009 2400 3776 
C 2298 3776 2106 3776 2106 3553 
C 2106 3381 2246 3323 2336 3323 
C 2394 3323 2566 3348 2566 3560 
C 2566 3954 2246 4179 1805 4179 
C 1043 4179 243 3390 243 1984 
C 243 253 966 -128 1478 -128 
C 2099 -128 2688 427 2688 1283 
C 2688 2081 2170 2662 1517 2662 
C 1126 2662 838 2407 678 1960 
L 678 2176 
z
M 1478 25 
C 691 25 691 1200 691 1436 
C 691 1896 909 2560 1504 2560 
C 1613 2560 1926 2560 2138 2120 
C 2253 1870 2253 1609 2253 1289 
C 2253 944 2253 690 2118 434 
C 1978 171 1773 25 1478 25 
z
" transform="scale(0.015625)"/>
     </defs>
     <use xlink:href="#CMR17-33" transform="scale(0.996264)"/>
     <use xlink:href="#CMR17-2e" transform="translate(45.690477 0) scale(0.996264)"/>
     <use xlink:href="#CMR17-31" transform="translate(70.561536 0) scale(0.996264)"/>
     <use xlink:href="#CMR17-36" transform="translate(116.252013 0) scale(0.996264)"/>
     <use xlink:href="#CMR17-65" transform="translate(161.94249 0) scale(0.996264)"/>
     <use xlink:href="#CMR17-2d" transform="translate(202.42815 0) scale(0.996264)"/>
     <use xlink:href="#CMR17-30" transform="translate(232.504117 0) scale(0.996264)"/>
     <use xlink:href="#CMR17-31" transform="translate(278.194594 0) scale(0.996264)"/>
    </g>
   </g>
  </g>
  <g id="axes_7">
   <g id="patch_24">
    <path d="M 9.7632 280.6272 
L 58.5792 280.6272 
L 58.5792 268.9344 
L 9.7632 268.9344 
z
" style="fill: #d9d9d9"/>
   </g>
   <g id="matplotlib.axis_7"/>
   <g id="matplotlib.axis_8"/>
   <g id="patch_25">
    <path d="M 9.7632 280.6272 
L 9.7632 268.9344 
" style="fill: none; stroke: #000000; stroke-width: 0.8; stroke-linejoin: miter; stroke-linecap: square"/>
   </g>
   <g id="patch_26">
    <path d="M 58.5792 280.6272 
L 58.5792 268.9344 
" style="fill: none; stroke: #000000; stroke-width: 0.8; stroke-linejoin: miter; stroke-linecap: square"/>
   </g>
   <g id="patch_27">
    <path d="M 9.7632 280.6272 
L 58.5792 280.6272 
" style="fill: none; stroke: #000000; stroke-width: 0.8; stroke-linejoin: miter; stroke-linecap: square"/>
   </g>
   <g id="patch_28">
    <path d="M 9.7632 268.9344 
L 58.5792 268.9344 
" style="fill: none; stroke: #000000; stroke-width: 0.8; stroke-linejoin: miter; stroke-linecap: square"/>
   </g>
   <g id="text_39">
    <!-- Reset -->
    <g transform="translate(22.174516 277.27146) scale(0.1 -0.1)">
     <defs>
      <path id="CMR17-52" d="M 2509 2146 
C 3117 2268 3629 2676 3629 3186 
C 3629 3785 2950 4326 2054 4326 
L 333 4326 
L 333 4160 
C 774 4160 845 4160 845 3873 
L 845 415 
C 845 128 774 128 333 128 
L 333 -26 
C 518 -26 851 -26 1050 -26 
C 1248 -26 1581 -26 1766 -26 
L 1766 128 
C 1325 128 1254 128 1254 417 
L 1254 2112 
L 2003 2112 
C 2368 2112 2573 1964 2662 1881 
C 2918 1632 2918 1459 2918 1024 
C 2918 595 2918 377 3110 160 
C 3354 -102 3680 -128 3821 -128 
C 4294 -128 4365 396 4365 503 
C 4365 540 4365 585 4307 585 
C 4256 585 4250 547 4250 522 
C 4218 112 4032 -26 3834 -26 
C 3482 -26 3443 375 3405 764 
C 3386 898 3373 993 3360 1133 
C 3322 1452 3270 1917 2509 2146 
z
M 1984 2214 
L 1254 2214 
L 1254 3913 
C 1254 4129 1267 4160 1523 4160 
L 1990 4160 
C 2522 4160 3142 3977 3142 3190 
C 3142 2372 2464 2214 1984 2214 
z
" transform="scale(0.015625)"/>
      <path id="CMR17-73" d="M 1978 2697 
C 1978 2813 1971 2819 1933 2819 
C 1907 2819 1901 2813 1824 2717 
C 1805 2691 1747 2626 1728 2601 
C 1523 2819 1235 2819 1126 2819 
C 416 2819 160 2447 160 2076 
C 160 1498 813 1365 998 1325 
C 1402 1243 1542 1217 1677 1101 
C 1760 1025 1901 884 1901 654 
C 1901 384 1747 38 1158 38 
C 602 38 403 460 288 1021 
C 269 1110 269 1117 218 1117 
C 166 1117 160 1110 160 983 
L 160 63 
C 160 -51 166 -58 205 -58 
C 237 -58 243 -51 275 0 
C 314 57 410 211 448 276 
C 576 103 800 -64 1158 -64 
C 1792 -64 2131 283 2131 784 
C 2131 1112 1958 1285 1875 1362 
C 1683 1561 1459 1606 1190 1657 
C 838 1735 390 1825 390 2217 
C 390 2383 480 2737 1126 2737 
C 1811 2737 1850 2094 1862 1888 
C 1869 1856 1901 1849 1920 1849 
C 1978 1849 1978 1869 1978 1978 
L 1978 2697 
z
" transform="scale(0.015625)"/>
     </defs>
     <use xlink:href="#CMR17-52" transform="scale(0.996264)"/>
     <use xlink:href="#CMR17-65" transform="translate(67.791102 0) scale(0.996264)"/>
     <use xlink:href="#CMR17-73" transform="translate(108.276762 0) scale(0.996264)"/>
     <use xlink:href="#CMR17-65" transform="translate(144.0781 0) scale(0.996264)"/>
     <use xlink:href="#CMR17-74" transform="translate(184.563761 0) scale(0.996264)"/>
    </g>
   </g>
  </g>
 </g>
 <defs>
  <clipPath id="pedc7f3d76d">
   <rect x="40.098857" y="16.008" width="142.38" height="214.368"/>
  </clipPath>
  <clipPath id="p3f9b9de841">
   <rect x="182.478857" y="16.008" width="142.38" height="214.368"/>
  </clipPath>
  <clipPath id="p243869d572">
   <rect x="324.858857" y="16.008" width="142.38" height="214.368"/>
  </clipPath>
  <clipPath id="pc75f9bd67b">
   <rect x="82.9872" y="261.6264" width="317.304" height="8.7696"/>
  </clipPath>
  <clipPath id="p78a815fc2e">
   <path d="M 82.9872 268.2036 
L 400.2912 268.2036 
L 400.2912 263.8188 
L 82.9872 263.8188 
z
"/>
  </clipPath>
  <clipPath id="p6ebf2f60dd">
   <rect x="82.9872" y="270.396" width="317.304" height="8.7696"/>
  </clipPath>
  <clipPath id="p04d611fb2c">
   <path d="M 82.9872 276.9732 
L 400.2912 276.9732 
L 400.2912 272.5884 
L 82.9872 272.5884 
z
"/>
  </clipPath>
  <clipPath id="p8457167933">
   <rect x="82.9872" y="279.1656" width="317.304" height="8.7696"/>
  </clipPath>
  <clipPath id="p07850e8429">
   <path d="M 82.9872 285.7428 
L 400.2912 285.7428 
L 400.2912 281.358 
L 82.9872 281.358 
z
"/>
  </clipPath>
 </defs>
</svg>
