<?xml version="1.0" encoding="utf-8" standalone="no"?>
<!DOCTYPE svg PUBLIC "-//W3C//DTD SVG 1.1//EN"
  "http://www.w3.org/Graphics/SVG/1.1/DTD/svg11.dtd">
<svg xmlns:xlink="http://www.w3.org/1999/xlink" width="921.6pt" height="310.32pt" viewBox="0 0 921.6 310.32" xmlns="http://www.w3.org/2000/svg" version="1.1">
 <metadata>
  <rdf:RDF xmlns:dc="http://purl.org/dc/elements/1.1/" xmlns:cc="http://creativecommons.org/ns#" xmlns:rdf="http://www.w3.org/1999/02/22-rdf-syntax-ns#">
   <cc:Work>
    <dc:type rdf:resource="http://purl.org/dc/dcmitype/StillImage"/>
    <dc:date>2024-09-02T23:39:47.948895</dc:date>
    <dc:format>image/svg+xml</dc:format>
    <dc:creator>
     <cc:Agent>
      <dc:title>Matplotlib v3.9.0, https://matplotlib.org/</dc:title>
     </cc:Agent>
    </dc:creator>
   </cc:Work>
  </rdf:RDF>
 </metadata>
 <defs>
  <style type="text/css">*{stroke-linejoin: round; stroke-linecap: butt}</style>
 </defs>
 <g id="figure_1">
  <g id="patch_1">
   <path d="M 0 310.32 
L 921.6 310.32 
L 921.6 0 
L 0 0 
z
" style="fill: #ffffff"/>
  </g>
  <g id="axes_1">
   <g id="patch_2">
    <path d="M 42.788571 244.561714 
L 329.508571 244.561714 
L 329.508571 18.840857 
L 42.788571 18.840857 
z
" style="fill: #ffffff"/>
   </g>
   <g id="line2d_1">
    <path d="M 55.821299 244.561714 
L 55.821299 18.840857 
" clip-path="url(#p70e9b4e7b0)" style="fill: none; stroke-dasharray: 1.5,2.475; stroke-dashoffset: 0; stroke: #000000; stroke-width: 1.5"/>
   </g>
   <g id="matplotlib.axis_1">
    <g id="xtick_1">
     <g id="line2d_2">
      <defs>
       <path id="m665b759235" d="M 0 0 
L 0 3.5 
" style="stroke: #000000; stroke-width: 0.8"/>
      </defs>
      <g>
       <use xlink:href="#m665b759235" x="84.782915" y="244.561714" style="stroke: #000000; stroke-width: 0.8"/>
      </g>
     </g>
     <g id="text_1">
      <!-- $\mathdefault{0.2}$ -->
      <g transform="translate(78.417875 258.480213) scale(0.1 -0.1)">
       <defs>
        <path id="CMR17-30" d="M 2688 2025 
C 2688 2416 2682 3080 2413 3591 
C 2176 4039 1798 4198 1466 4198 
C 1158 4198 768 4058 525 3597 
C 269 3118 243 2524 243 2025 
C 243 1661 250 1106 448 619 
C 723 -39 1216 -128 1466 -128 
C 1760 -128 2208 -7 2470 600 
C 2662 1042 2688 1559 2688 2025 
z
M 1466 -26 
C 1056 -26 813 325 723 812 
C 653 1188 653 1738 653 2096 
C 653 2588 653 2997 736 3387 
C 858 3929 1216 4096 1466 4096 
C 1728 4096 2067 3923 2189 3400 
C 2272 3036 2278 2607 2278 2096 
C 2278 1680 2278 1169 2202 792 
C 2067 95 1690 -26 1466 -26 
z
" transform="scale(0.015625)"/>
        <path id="CMMI12-3a" d="M 1178 307 
C 1178 492 1024 619 870 619 
C 685 619 557 466 557 313 
C 557 128 710 0 864 0 
C 1050 0 1178 153 1178 307 
z
" transform="scale(0.015625)"/>
        <path id="CMR17-32" d="M 2669 989 
L 2554 989 
C 2490 536 2438 459 2413 420 
C 2381 369 1920 369 1830 369 
L 602 369 
C 832 619 1280 1072 1824 1597 
C 2214 1967 2669 2402 2669 3035 
C 2669 3790 2067 4224 1395 4224 
C 691 4224 262 3604 262 3030 
C 262 2780 448 2748 525 2748 
C 589 2748 781 2787 781 3010 
C 781 3207 614 3264 525 3264 
C 486 3264 448 3258 422 3245 
C 544 3790 915 4058 1306 4058 
C 1862 4058 2227 3617 2227 3035 
C 2227 2479 1901 2000 1536 1584 
L 262 146 
L 262 0 
L 2515 0 
L 2669 989 
z
" transform="scale(0.015625)"/>
       </defs>
       <use xlink:href="#CMR17-30" transform="scale(0.996264)"/>
       <use xlink:href="#CMMI12-3a" transform="translate(45.690477 0) scale(0.996264)"/>
       <use xlink:href="#CMR17-32" transform="translate(72.787654 0) scale(0.996264)"/>
      </g>
     </g>
    </g>
    <g id="xtick_2">
     <g id="line2d_3">
      <g>
       <use xlink:href="#m665b759235" x="142.706147" y="244.561714" style="stroke: #000000; stroke-width: 0.8"/>
      </g>
     </g>
     <g id="text_2">
      <!-- $\mathdefault{0.4}$ -->
      <g transform="translate(136.341108 258.480213) scale(0.1 -0.1)">
       <defs>
        <path id="CMR17-34" d="M 2150 4122 
C 2150 4256 2144 4256 2029 4256 
L 128 1254 
L 128 1088 
L 1779 1088 
L 1779 457 
C 1779 224 1766 160 1318 160 
L 1197 160 
L 1197 0 
C 1402 0 1747 0 1965 0 
C 2182 0 2528 0 2733 0 
L 2733 160 
L 2611 160 
C 2163 160 2150 224 2150 457 
L 2150 1088 
L 2803 1088 
L 2803 1254 
L 2150 1254 
L 2150 4122 
z
M 1798 3703 
L 1798 1254 
L 256 1254 
L 1798 3703 
z
" transform="scale(0.015625)"/>
       </defs>
       <use xlink:href="#CMR17-30" transform="scale(0.996264)"/>
       <use xlink:href="#CMMI12-3a" transform="translate(45.690477 0) scale(0.996264)"/>
       <use xlink:href="#CMR17-34" transform="translate(72.787654 0) scale(0.996264)"/>
      </g>
     </g>
    </g>
    <g id="xtick_3">
     <g id="line2d_4">
      <g>
       <use xlink:href="#m665b759235" x="200.62938" y="244.561714" style="stroke: #000000; stroke-width: 0.8"/>
      </g>
     </g>
     <g id="text_3">
      <!-- $\mathdefault{0.6}$ -->
      <g transform="translate(194.26434 258.480213) scale(0.1 -0.1)">
       <defs>
        <path id="CMR17-36" d="M 678 2176 
C 678 3690 1395 4032 1811 4032 
C 1946 4032 2272 4009 2400 3776 
C 2298 3776 2106 3776 2106 3553 
C 2106 3381 2246 3323 2336 3323 
C 2394 3323 2566 3348 2566 3560 
C 2566 3954 2246 4179 1805 4179 
C 1043 4179 243 3390 243 1984 
C 243 253 966 -128 1478 -128 
C 2099 -128 2688 427 2688 1283 
C 2688 2081 2170 2662 1517 2662 
C 1126 2662 838 2407 678 1960 
L 678 2176 
z
M 1478 25 
C 691 25 691 1200 691 1436 
C 691 1896 909 2560 1504 2560 
C 1613 2560 1926 2560 2138 2120 
C 2253 1870 2253 1609 2253 1289 
C 2253 944 2253 690 2118 434 
C 1978 171 1773 25 1478 25 
z
" transform="scale(0.015625)"/>
       </defs>
       <use xlink:href="#CMR17-30" transform="scale(0.996264)"/>
       <use xlink:href="#CMMI12-3a" transform="translate(45.690477 0) scale(0.996264)"/>
       <use xlink:href="#CMR17-36" transform="translate(72.787654 0) scale(0.996264)"/>
      </g>
     </g>
    </g>
    <g id="xtick_4">
     <g id="line2d_5">
      <g>
       <use xlink:href="#m665b759235" x="258.552612" y="244.561714" style="stroke: #000000; stroke-width: 0.8"/>
      </g>
     </g>
     <g id="text_4">
      <!-- $\mathdefault{0.8}$ -->
      <g transform="translate(252.187572 258.480213) scale(0.1 -0.1)">
       <defs>
        <path id="CMR17-38" d="M 1741 2264 
C 2144 2467 2554 2773 2554 3263 
C 2554 3841 1990 4179 1472 4179 
C 890 4179 378 3759 378 3180 
C 378 3021 416 2747 666 2505 
C 730 2442 998 2251 1171 2130 
C 883 1983 211 1634 211 934 
C 211 279 838 -128 1459 -128 
C 2144 -128 2720 362 2720 1010 
C 2720 1590 2330 1857 2074 2029 
L 1741 2264 
z
M 902 2822 
C 851 2854 595 3051 595 3351 
C 595 3739 998 4032 1459 4032 
C 1965 4032 2336 3676 2336 3262 
C 2336 2669 1670 2331 1638 2331 
C 1632 2331 1626 2331 1574 2370 
L 902 2822 
z
M 2080 1519 
C 2176 1449 2483 1240 2483 851 
C 2483 381 2010 25 1472 25 
C 890 25 448 438 448 940 
C 448 1443 838 1862 1280 2060 
L 2080 1519 
z
" transform="scale(0.015625)"/>
       </defs>
       <use xlink:href="#CMR17-30" transform="scale(0.996264)"/>
       <use xlink:href="#CMMI12-3a" transform="translate(45.690477 0) scale(0.996264)"/>
       <use xlink:href="#CMR17-38" transform="translate(72.787654 0) scale(0.996264)"/>
      </g>
     </g>
    </g>
    <g id="xtick_5">
     <g id="line2d_6">
      <g>
       <use xlink:href="#m665b759235" x="316.475844" y="244.561714" style="stroke: #000000; stroke-width: 0.8"/>
      </g>
     </g>
     <g id="text_5">
      <!-- $\mathdefault{1.0}$ -->
      <g transform="translate(310.110805 258.480213) scale(0.1 -0.1)">
       <defs>
        <path id="CMR17-31" d="M 1702 4058 
C 1702 4192 1696 4192 1606 4192 
C 1357 3916 979 3827 621 3827 
C 602 3827 570 3827 563 3808 
C 557 3795 557 3782 557 3648 
C 755 3648 1088 3686 1344 3839 
L 1344 461 
C 1344 236 1331 160 781 160 
L 589 160 
L 589 0 
C 896 0 1216 0 1523 0 
C 1830 0 2150 0 2458 0 
L 2458 160 
L 2266 160 
C 1715 160 1702 230 1702 458 
L 1702 4058 
z
" transform="scale(0.015625)"/>
       </defs>
       <use xlink:href="#CMR17-31" transform="scale(0.996264)"/>
       <use xlink:href="#CMMI12-3a" transform="translate(45.690477 0) scale(0.996264)"/>
       <use xlink:href="#CMR17-30" transform="translate(72.787654 0) scale(0.996264)"/>
      </g>
     </g>
    </g>
    <g id="text_6">
     <!-- \(\lambda\) -->
     <g transform="translate(183.242789 271.335889) scale(0.1 -0.1)">
      <defs>
       <path id="CMMI12-15" d="M 1978 3965 
C 1818 4416 1312 4416 1229 4416 
C 1190 4416 1120 4416 1120 4352 
C 1120 4302 1158 4295 1190 4289 
C 1286 4276 1363 4263 1466 4080 
C 1530 3959 2189 2059 2189 2046 
C 2189 2040 2182 2033 2131 1982 
L 467 311 
C 390 234 339 183 339 102 
C 339 12 416 -64 518 -64 
C 544 -64 614 -51 653 -13 
C 755 82 1670 1194 2253 1881 
C 2419 1383 2624 797 2822 261 
C 2854 166 2886 76 2976 -6 
C 3040 -64 3053 -64 3232 -64 
L 3354 -64 
C 3379 -64 3424 -64 3424 -13 
C 3424 13 3418 19 3392 45 
C 3334 115 3290 229 3264 306 
L 1978 3965 
z
" transform="scale(0.015625)"/>
      </defs>
      <use xlink:href="#CMMI12-15" transform="scale(0.996264)"/>
     </g>
    </g>
   </g>
   <g id="matplotlib.axis_2">
    <g id="ytick_1">
     <g id="line2d_7">
      <path d="M 42.788571 244.561714 
L 329.508571 244.561714 
" clip-path="url(#p70e9b4e7b0)" style="fill: none; stroke: #b0b0b0; stroke-width: 0.8; stroke-linecap: square"/>
     </g>
     <g id="line2d_8">
      <defs>
       <path id="m285fdbb167" d="M 0 0 
L -3.5 0 
" style="stroke: #000000; stroke-width: 0.8"/>
      </defs>
      <g>
       <use xlink:href="#m285fdbb167" x="42.788571" y="244.561714" style="stroke: #000000; stroke-width: 0.8"/>
      </g>
     </g>
     <g id="text_7">
      <!-- $\mathdefault{0.00}$ -->
      <g transform="translate(18.077157 248.020963) scale(0.1 -0.1)">
       <use xlink:href="#CMR17-30" transform="scale(0.996264)"/>
       <use xlink:href="#CMMI12-3a" transform="translate(45.690477 0) scale(0.996264)"/>
       <use xlink:href="#CMR17-30" transform="translate(72.787654 0) scale(0.996264)"/>
       <use xlink:href="#CMR17-30" transform="translate(118.478131 0) scale(0.996264)"/>
      </g>
     </g>
    </g>
    <g id="ytick_2">
     <g id="line2d_9">
      <path d="M 42.788571 216.346607 
L 329.508571 216.346607 
" clip-path="url(#p70e9b4e7b0)" style="fill: none; stroke: #b0b0b0; stroke-width: 0.8; stroke-linecap: square"/>
     </g>
     <g id="line2d_10">
      <g>
       <use xlink:href="#m285fdbb167" x="42.788571" y="216.346607" style="stroke: #000000; stroke-width: 0.8"/>
      </g>
     </g>
     <g id="text_8">
      <!-- $\mathdefault{0.25}$ -->
      <g transform="translate(18.077157 219.805856) scale(0.1 -0.1)">
       <defs>
        <path id="CMR17-35" d="M 730 3692 
C 794 3666 1056 3584 1325 3584 
C 1920 3584 2246 3911 2432 4100 
C 2432 4157 2432 4192 2394 4192 
C 2387 4192 2374 4192 2323 4163 
C 2099 4058 1837 3973 1517 3973 
C 1325 3973 1037 3999 723 4139 
C 653 4171 640 4171 634 4171 
C 602 4171 595 4164 595 4037 
L 595 2203 
C 595 2089 595 2057 659 2057 
C 691 2057 704 2070 736 2114 
C 941 2401 1222 2522 1542 2522 
C 1766 2522 2246 2382 2246 1289 
C 2246 1085 2246 715 2054 421 
C 1894 159 1645 25 1370 25 
C 947 25 518 320 403 814 
C 429 807 480 795 506 795 
C 589 795 749 840 749 1038 
C 749 1210 627 1280 506 1280 
C 358 1280 262 1190 262 1011 
C 262 454 704 -128 1382 -128 
C 2042 -128 2669 440 2669 1264 
C 2669 2030 2170 2624 1549 2624 
C 1222 2624 947 2503 730 2274 
L 730 3692 
z
" transform="scale(0.015625)"/>
       </defs>
       <use xlink:href="#CMR17-30" transform="scale(0.996264)"/>
       <use xlink:href="#CMMI12-3a" transform="translate(45.690477 0) scale(0.996264)"/>
       <use xlink:href="#CMR17-32" transform="translate(72.787654 0) scale(0.996264)"/>
       <use xlink:href="#CMR17-35" transform="translate(118.478131 0) scale(0.996264)"/>
      </g>
     </g>
    </g>
    <g id="ytick_3">
     <g id="line2d_11">
      <path d="M 42.788571 188.1315 
L 329.508571 188.1315 
" clip-path="url(#p70e9b4e7b0)" style="fill: none; stroke: #b0b0b0; stroke-width: 0.8; stroke-linecap: square"/>
     </g>
     <g id="line2d_12">
      <g>
       <use xlink:href="#m285fdbb167" x="42.788571" y="188.1315" style="stroke: #000000; stroke-width: 0.8"/>
      </g>
     </g>
     <g id="text_9">
      <!-- $\mathdefault{0.50}$ -->
      <g transform="translate(18.077157 191.590749) scale(0.1 -0.1)">
       <use xlink:href="#CMR17-30" transform="scale(0.996264)"/>
       <use xlink:href="#CMMI12-3a" transform="translate(45.690477 0) scale(0.996264)"/>
       <use xlink:href="#CMR17-35" transform="translate(72.787654 0) scale(0.996264)"/>
       <use xlink:href="#CMR17-30" transform="translate(118.478131 0) scale(0.996264)"/>
      </g>
     </g>
    </g>
    <g id="ytick_4">
     <g id="line2d_13">
      <path d="M 42.788571 159.916393 
L 329.508571 159.916393 
" clip-path="url(#p70e9b4e7b0)" style="fill: none; stroke: #b0b0b0; stroke-width: 0.8; stroke-linecap: square"/>
     </g>
     <g id="line2d_14">
      <g>
       <use xlink:href="#m285fdbb167" x="42.788571" y="159.916393" style="stroke: #000000; stroke-width: 0.8"/>
      </g>
     </g>
     <g id="text_10">
      <!-- $\mathdefault{0.75}$ -->
      <g transform="translate(18.077157 163.375642) scale(0.1 -0.1)">
       <defs>
        <path id="CMR17-37" d="M 2886 3941 
L 2886 4081 
L 1382 4081 
C 634 4081 621 4165 595 4288 
L 480 4288 
L 294 3094 
L 410 3094 
C 429 3215 474 3540 550 3661 
C 589 3712 1062 3712 1171 3712 
L 2579 3712 
L 1869 2661 
C 1395 1954 1069 999 1069 165 
C 1069 89 1069 -128 1299 -128 
C 1530 -128 1530 89 1530 171 
L 1530 465 
C 1530 1508 1709 2196 2003 2636 
L 2886 3941 
z
" transform="scale(0.015625)"/>
       </defs>
       <use xlink:href="#CMR17-30" transform="scale(0.996264)"/>
       <use xlink:href="#CMMI12-3a" transform="translate(45.690477 0) scale(0.996264)"/>
       <use xlink:href="#CMR17-37" transform="translate(72.787654 0) scale(0.996264)"/>
       <use xlink:href="#CMR17-35" transform="translate(118.478131 0) scale(0.996264)"/>
      </g>
     </g>
    </g>
    <g id="ytick_5">
     <g id="line2d_15">
      <path d="M 42.788571 131.701286 
L 329.508571 131.701286 
" clip-path="url(#p70e9b4e7b0)" style="fill: none; stroke: #b0b0b0; stroke-width: 0.8; stroke-linecap: square"/>
     </g>
     <g id="line2d_16">
      <g>
       <use xlink:href="#m285fdbb167" x="42.788571" y="131.701286" style="stroke: #000000; stroke-width: 0.8"/>
      </g>
     </g>
     <g id="text_11">
      <!-- $\mathdefault{1.00}$ -->
      <g transform="translate(18.077157 135.160535) scale(0.1 -0.1)">
       <use xlink:href="#CMR17-31" transform="scale(0.996264)"/>
       <use xlink:href="#CMMI12-3a" transform="translate(45.690477 0) scale(0.996264)"/>
       <use xlink:href="#CMR17-30" transform="translate(72.787654 0) scale(0.996264)"/>
       <use xlink:href="#CMR17-30" transform="translate(118.478131 0) scale(0.996264)"/>
      </g>
     </g>
    </g>
    <g id="ytick_6">
     <g id="line2d_17">
      <path d="M 42.788571 103.486179 
L 329.508571 103.486179 
" clip-path="url(#p70e9b4e7b0)" style="fill: none; stroke: #b0b0b0; stroke-width: 0.8; stroke-linecap: square"/>
     </g>
     <g id="line2d_18">
      <g>
       <use xlink:href="#m285fdbb167" x="42.788571" y="103.486179" style="stroke: #000000; stroke-width: 0.8"/>
      </g>
     </g>
     <g id="text_12">
      <!-- $\mathdefault{1.25}$ -->
      <g transform="translate(18.077157 106.945428) scale(0.1 -0.1)">
       <use xlink:href="#CMR17-31" transform="scale(0.996264)"/>
       <use xlink:href="#CMMI12-3a" transform="translate(45.690477 0) scale(0.996264)"/>
       <use xlink:href="#CMR17-32" transform="translate(72.787654 0) scale(0.996264)"/>
       <use xlink:href="#CMR17-35" transform="translate(118.478131 0) scale(0.996264)"/>
      </g>
     </g>
    </g>
    <g id="ytick_7">
     <g id="line2d_19">
      <path d="M 42.788571 75.271071 
L 329.508571 75.271071 
" clip-path="url(#p70e9b4e7b0)" style="fill: none; stroke: #b0b0b0; stroke-width: 0.8; stroke-linecap: square"/>
     </g>
     <g id="line2d_20">
      <g>
       <use xlink:href="#m285fdbb167" x="42.788571" y="75.271071" style="stroke: #000000; stroke-width: 0.8"/>
      </g>
     </g>
     <g id="text_13">
      <!-- $\mathdefault{1.50}$ -->
      <g transform="translate(18.077157 78.730321) scale(0.1 -0.1)">
       <use xlink:href="#CMR17-31" transform="scale(0.996264)"/>
       <use xlink:href="#CMMI12-3a" transform="translate(45.690477 0) scale(0.996264)"/>
       <use xlink:href="#CMR17-35" transform="translate(72.787654 0) scale(0.996264)"/>
       <use xlink:href="#CMR17-30" transform="translate(118.478131 0) scale(0.996264)"/>
      </g>
     </g>
    </g>
    <g id="ytick_8">
     <g id="line2d_21">
      <path d="M 42.788571 47.055964 
L 329.508571 47.055964 
" clip-path="url(#p70e9b4e7b0)" style="fill: none; stroke: #b0b0b0; stroke-width: 0.8; stroke-linecap: square"/>
     </g>
     <g id="line2d_22">
      <g>
       <use xlink:href="#m285fdbb167" x="42.788571" y="47.055964" style="stroke: #000000; stroke-width: 0.8"/>
      </g>
     </g>
     <g id="text_14">
      <!-- $\mathdefault{1.75}$ -->
      <g transform="translate(18.077157 50.515213) scale(0.1 -0.1)">
       <use xlink:href="#CMR17-31" transform="scale(0.996264)"/>
       <use xlink:href="#CMMI12-3a" transform="translate(45.690477 0) scale(0.996264)"/>
       <use xlink:href="#CMR17-37" transform="translate(72.787654 0) scale(0.996264)"/>
       <use xlink:href="#CMR17-35" transform="translate(118.478131 0) scale(0.996264)"/>
      </g>
     </g>
    </g>
    <g id="ytick_9">
     <g id="line2d_23">
      <path d="M 42.788571 18.840857 
L 329.508571 18.840857 
" clip-path="url(#p70e9b4e7b0)" style="fill: none; stroke: #b0b0b0; stroke-width: 0.8; stroke-linecap: square"/>
     </g>
     <g id="line2d_24">
      <g>
       <use xlink:href="#m285fdbb167" x="42.788571" y="18.840857" style="stroke: #000000; stroke-width: 0.8"/>
      </g>
     </g>
     <g id="text_15">
      <!-- $\mathdefault{2.00}$ -->
      <g transform="translate(18.077157 22.300106) scale(0.1 -0.1)">
       <use xlink:href="#CMR17-32" transform="scale(0.996264)"/>
       <use xlink:href="#CMMI12-3a" transform="translate(45.690477 0) scale(0.996264)"/>
       <use xlink:href="#CMR17-30" transform="translate(72.787654 0) scale(0.996264)"/>
       <use xlink:href="#CMR17-30" transform="translate(118.478131 0) scale(0.996264)"/>
      </g>
     </g>
    </g>
    <g id="text_16">
     <!-- Max \(|\Delta\Gamma|\) -->
     <g transform="translate(11.586497 153.079507) rotate(-90) scale(0.1 -0.1)">
      <defs>
       <path id="CMR17-4d" d="M 1338 4224 
C 1299 4320 1293 4320 1158 4320 
L 339 4320 
L 339 4160 
C 781 4160 851 4160 851 3875 
L 851 610 
C 851 451 851 153 339 153 
L 339 -13 
C 486 0 755 0 915 0 
C 1075 0 1344 0 1491 -13 
L 1491 153 
C 979 153 979 451 979 610 
L 979 4135 
L 986 4135 
L 2490 89 
C 2515 25 2528 -13 2579 -13 
C 2630 -13 2643 25 2669 89 
L 4186 4166 
L 4192 4166 
L 4192 438 
C 4192 153 4122 153 3680 153 
L 3680 -13 
C 3853 0 4198 0 4384 0 
C 4570 0 4922 0 5094 -13 
L 5094 153 
C 4653 153 4582 153 4582 438 
L 4582 3875 
C 4582 4160 4653 4160 5094 4160 
L 5094 4320 
L 4282 4320 
C 4147 4320 4141 4314 4102 4218 
L 2720 502 
L 1338 4224 
z
" transform="scale(0.015625)"/>
       <path id="CMR17-61" d="M 2304 1653 
C 2304 2072 2304 2294 2035 2543 
C 1798 2752 1523 2816 1306 2816 
C 800 2816 435 2407 435 1971 
C 435 1728 627 1728 666 1728 
C 749 1728 896 1778 896 1954 
C 896 2112 774 2181 666 2181 
C 640 2181 608 2174 589 2168 
C 723 2592 1069 2714 1293 2714 
C 1613 2714 1965 2429 1965 1885 
L 1965 1600 
C 1587 1600 1133 1549 774 1357 
C 371 1133 256 813 256 570 
C 256 77 832 -64 1171 -64 
C 1523 -64 1850 139 1990 511 
C 2003 233 2182 -18 2464 -18 
C 2598 -18 2938 70 2938 567 
L 2938 920 
L 2822 920 
L 2822 562 
C 2822 178 2650 128 2566 128 
C 2304 128 2304 458 2304 738 
L 2304 1653 
z
M 1965 870 
C 1965 317 1568 38 1216 38 
C 896 38 646 275 646 570 
C 646 761 730 1100 1101 1305 
C 1408 1478 1760 1504 1965 1504 
L 1965 870 
z
" transform="scale(0.015625)"/>
       <path id="CMR17-78" d="M 1664 1477 
C 1856 1726 2074 2006 2253 2216 
C 2464 2458 2707 2560 2989 2560 
L 2989 2726 
C 2880 2726 2656 2726 2541 2726 
C 2368 2726 2170 2726 2022 2732 
L 2022 2566 
C 2112 2553 2163 2489 2163 2400 
C 2163 2285 2099 2215 2067 2171 
L 1594 1573 
L 1030 2306 
C 973 2376 973 2388 973 2420 
C 973 2497 1037 2560 1146 2560 
L 1146 2732 
C 992 2726 717 2726 557 2726 
C 384 2726 179 2726 38 2732 
L 38 2560 
C 384 2560 461 2534 614 2343 
L 1350 1395 
C 1363 1382 1395 1344 1395 1325 
C 1395 1299 838 619 768 530 
C 480 185 179 160 6 160 
L 6 0 
C 115 0 339 0 454 0 
C 582 0 864 0 979 -6 
L 979 160 
C 941 166 838 179 838 325 
C 838 440 890 510 947 586 
L 1478 1236 
L 2035 512 
C 2086 442 2163 346 2163 301 
C 2163 211 2086 160 1984 160 
L 1984 -6 
C 2138 0 2413 0 2573 0 
C 2746 0 2950 0 3091 -6 
L 3091 160 
C 2771 160 2675 172 2522 370 
L 1664 1477 
z
" transform="scale(0.015625)"/>
       <path id="CMSY10-6a" d="M 1018 4570 
C 1018 4685 1018 4800 890 4800 
C 762 4800 762 4685 762 4570 
L 762 -1370 
C 762 -1485 762 -1600 890 -1600 
C 1018 -1600 1018 -1485 1018 -1370 
L 1018 4570 
z
" transform="scale(0.015625)"/>
       <path id="CMR17-1" d="M 2598 4403 
C 2547 4512 2522 4512 2470 4512 
C 2394 4512 2387 4499 2342 4409 
L 269 109 
C 262 96 237 38 237 32 
C 237 6 243 0 358 0 
L 4576 0 
C 4691 0 4698 6 4698 32 
C 4698 38 4672 96 4666 109 
L 2598 4403 
z
M 2310 4038 
L 4083 358 
L 531 358 
L 2310 4038 
z
" transform="scale(0.015625)"/>
       <path id="CMR17-0" d="M 3315 4352 
L 326 4352 
L 326 4186 
C 768 4186 838 4186 838 3898 
L 838 448 
C 838 160 768 160 326 160 
L 326 0 
C 512 0 870 0 1069 0 
C 1331 0 1638 0 1901 0 
L 1901 160 
L 1760 160 
C 1274 160 1261 224 1261 455 
L 1261 3936 
C 1261 4154 1274 4186 1530 4186 
L 2234 4186 
C 3206 4186 3258 3738 3354 2938 
L 3469 2938 
L 3315 4352 
z
" transform="scale(0.015625)"/>
      </defs>
      <use xlink:href="#CMR17-4d" transform="scale(0.996264)"/>
      <use xlink:href="#CMR17-61" transform="translate(84.686941 0) scale(0.996264)"/>
      <use xlink:href="#CMR17-78" transform="translate(130.377418 0) scale(0.996264)"/>
      <use xlink:href="#CMSY10-6a" transform="translate(208.7463 0) scale(0.996264)"/>
      <use xlink:href="#CMR17-1" transform="translate(236.420385 0) scale(0.996264)"/>
      <use xlink:href="#CMR17-0" transform="translate(313.339974 0) scale(0.996264)"/>
      <use xlink:href="#CMSY10-6a" transform="translate(370.721382 0) scale(0.996264)"/>
     </g>
    </g>
   </g>
   <g id="line2d_25">
    <path d="M 55.821299 33.653035 
L 64.264626 34.074883 
L 72.176645 34.493991 
L 79.620283 34.909741 
L 86.647907 35.324458 
L 93.303569 35.737644 
L 99.624671 36.151117 
L 105.643245 36.563775 
L 111.386931 36.977976 
L 116.879745 37.392732 
L 122.14269 37.808891 
L 127.194233 38.227587 
L 132.050705 38.648427 
L 136.726613 39.07128 
L 141.234903 39.497574 
L 145.587178 39.927585 
L 149.793877 40.361464 
L 153.864423 40.798278 
L 157.807354 41.239673 
L 161.630429 41.685927 
L 165.34072 42.137319 
L 168.944692 42.594136 
L 172.448269 43.056667 
L 175.856891 43.524227 
L 179.175572 43.997985 
L 182.408936 44.478382 
L 185.561259 44.965736 
L 188.636504 45.460372 
L 191.638352 45.962627 
L 194.570225 46.472849 
L 197.43531 46.991399 
L 200.236583 47.518649 
L 202.976824 48.054991 
L 205.658636 48.599962 
L 208.28446 49.154804 
L 210.856584 49.719976 
L 213.377162 50.295931 
L 215.848219 50.883146 
L 218.271663 51.482119 
L 220.649295 52.093373 
L 222.982814 52.717459 
L 225.273828 53.354958 
L 227.523857 54.00648 
L 229.734342 54.672672 
L 231.906649 55.354216 
L 234.042075 56.050741 
L 236.141851 56.763733 
L 238.207147 57.494251 
L 240.239078 58.243151 
L 242.238705 59.011344 
L 244.207039 59.799801 
L 246.145044 60.609564 
L 248.05364 61.441748 
L 249.933708 62.296767 
L 251.786087 63.174788 
L 253.61158 64.078819 
L 255.410958 65.010328 
L 257.184957 65.970904 
L 258.934282 66.96227 
L 260.659612 67.983717 
L 262.361594 69.038004 
L 264.040854 70.128731 
L 265.697988 71.258276 
L 267.333574 72.426778 
L 268.948164 73.635864 
L 270.54229 74.891724 
L 272.116464 76.197005 
L 273.671181 77.549111 
L 275.206914 78.958505 
L 276.724122 80.426427 
L 278.223247 81.954412 
L 279.704715 83.553881 
L 281.168936 85.219198 
L 282.616307 86.968085 
L 284.047213 88.794585 
L 285.462023 90.71669 
L 286.861096 92.733108 
L 288.244777 94.857145 
L 289.613402 97.099895 
L 290.967295 99.466019 
L 292.30677 101.970472 
L 293.63213 104.628243 
L 294.94367 107.454128 
L 296.241675 110.465357 
L 297.526421 113.682127 
L 298.798178 117.128242 
L 300.057204 120.831876 
L 301.303752 124.814892 
L 302.538068 129.124134 
L 303.760388 133.790653 
L 304.970944 138.867138 
L 306.16996 144.401903 
L 307.357653 150.450308 
L 308.534237 157.071878 
L 309.699916 164.302516 
L 310.854891 172.159673 
L 311.999357 180.558552 
L 313.133504 189.206122 
L 314.257515 197.360623 
L 315.37157 203.556266 
L 316.475844 205.848749 
" clip-path="url(#p70e9b4e7b0)" style="fill: none; stroke: #1f77b4; stroke-width: 1.5; stroke-linecap: square"/>
   </g>
   <g id="line2d_26">
    <path d="M 55.821299 19.657007 
L 64.264626 19.892345 
L 72.176645 20.152954 
L 79.620283 20.429358 
L 86.647907 20.716104 
L 93.303569 21.010391 
L 99.624671 21.310165 
L 105.643245 21.614769 
L 111.386931 21.923496 
L 116.879745 22.23608 
L 122.14269 22.552529 
L 127.194233 22.872279 
L 132.050705 23.196042 
L 136.726613 23.523412 
L 141.234903 23.855089 
L 145.587178 24.19038 
L 149.793877 24.530307 
L 153.864423 24.874874 
L 157.807354 25.223669 
L 161.630429 25.577614 
L 165.34072 25.936917 
L 168.944692 26.301801 
L 172.448269 26.671758 
L 175.856891 27.047769 
L 179.175572 27.430098 
L 182.408936 27.819016 
L 185.561259 28.214811 
L 188.636504 28.61778 
L 191.638352 29.028028 
L 194.570225 29.445707 
L 197.43531 29.871537 
L 200.236583 30.305874 
L 202.976824 30.749096 
L 205.658636 31.201598 
L 208.28446 31.663793 
L 210.856584 32.136118 
L 213.377162 32.619032 
L 215.848219 33.113019 
L 218.271663 33.61859 
L 220.649295 34.136285 
L 222.982814 34.666153 
L 225.273828 35.209188 
L 227.523857 35.766105 
L 229.734342 36.337579 
L 231.906649 36.924323 
L 234.042075 37.527099 
L 236.141851 38.146716 
L 238.207147 38.784041 
L 240.239078 39.439998 
L 242.238705 40.115577 
L 244.207039 40.81184 
L 246.145044 41.529169 
L 248.05364 42.268819 
L 249.933708 43.032653 
L 251.786087 43.82208 
L 253.61158 44.63862 
L 255.410958 45.483924 
L 257.184957 46.35978 
L 258.934282 47.266622 
L 260.659612 48.206706 
L 262.361594 49.183357 
L 264.040854 50.199077 
L 265.697988 51.256607 
L 267.333574 52.355679 
L 268.948164 53.501484 
L 270.54229 54.698511 
L 272.116464 55.950035 
L 273.671181 57.255818 
L 275.206914 58.625431 
L 276.724122 60.062992 
L 278.223247 61.569073 
L 279.704715 63.156296 
L 281.168936 64.825383 
L 282.616307 66.587631 
L 284.047213 68.448795 
L 285.462023 70.419817 
L 286.861096 72.508182 
L 288.244777 74.731257 
L 289.613402 77.09205 
L 290.967295 79.614137 
L 292.30677 82.313395 
L 293.63213 85.204699 
L 294.94367 88.311158 
L 296.241675 91.659665 
L 297.526421 95.278561 
L 298.798178 99.200755 
L 300.057204 103.464477 
L 301.303752 108.114025 
L 302.538068 113.19382 
L 303.760388 118.763993 
L 304.970944 124.890595 
L 306.16996 131.62751 
L 307.357653 139.052526 
L 308.534237 147.215962 
L 309.699916 156.142673 
L 310.854891 165.798445 
L 311.999357 176.010887 
L 313.133504 186.349527 
L 314.257515 195.908812 
L 315.37157 203.082535 
L 316.475844 205.848749 
" clip-path="url(#p70e9b4e7b0)" style="fill: none; stroke: #ff7f0e; stroke-width: 1.5; stroke-linecap: square"/>
   </g>
   <g id="line2d_27">
    <path d="M 55.821299 19.571023 
L 64.264626 19.647547 
L 72.176645 19.727638 
L 79.620283 19.808382 
L 86.647907 19.892981 
L 93.303569 19.979418 
L 99.624671 20.069133 
L 105.643245 20.161039 
L 111.386931 20.257122 
L 116.879745 20.357109 
L 122.14269 20.460567 
L 127.194233 20.568574 
L 132.050705 20.681364 
L 136.726613 20.79587 
L 141.234903 20.917051 
L 145.587178 21.042948 
L 149.793877 21.171535 
L 153.864423 21.30607 
L 157.807354 21.446133 
L 161.630429 21.591679 
L 165.34072 21.742976 
L 168.944692 21.90055 
L 172.448269 22.065152 
L 175.856891 22.233886 
L 179.175572 22.408806 
L 182.408936 22.592795 
L 185.561259 22.783493 
L 188.636504 22.979883 
L 191.638352 23.188276 
L 194.570225 23.399081 
L 197.43531 23.624345 
L 200.236583 23.852399 
L 202.976824 24.094584 
L 205.658636 24.343394 
L 208.28446 24.60327 
L 210.856584 24.876929 
L 213.377162 25.155876 
L 215.848219 25.449376 
L 218.271663 25.757581 
L 220.649295 26.074122 
L 222.982814 26.404826 
L 225.273828 26.751447 
L 227.523857 27.11445 
L 229.734342 27.48896 
L 231.906649 27.879977 
L 234.042075 28.289432 
L 236.141851 28.718103 
L 238.207147 29.166859 
L 240.239078 29.633513 
L 242.238705 30.119981 
L 244.207039 30.629767 
L 246.145044 31.16412 
L 248.05364 31.724407 
L 249.933708 32.312123 
L 251.786087 32.928901 
L 253.61158 33.572368 
L 255.410958 34.247519 
L 257.184957 34.957408 
L 258.934282 35.704322 
L 260.659612 36.490768 
L 262.361594 37.319495 
L 264.040854 38.193523 
L 265.697988 39.11096 
L 267.333574 40.078784 
L 268.948164 41.102362 
L 270.54229 42.186089 
L 272.116464 43.334837 
L 273.671181 44.551499 
L 275.206914 45.836925 
L 276.724122 47.204543 
L 278.223247 48.661746 
L 279.704715 50.214385 
L 281.168936 51.862405 
L 282.616307 53.626634 
L 284.047213 55.518158 
L 285.462023 57.532901 
L 286.861096 59.701627 
L 288.244777 62.030489 
L 289.613402 64.535797 
L 290.967295 67.241088 
L 292.30677 70.16014 
L 293.63213 73.322307 
L 294.94367 76.754839 
L 296.241675 80.479071 
L 297.526421 84.540648 
L 298.798178 88.975747 
L 300.057204 93.816728 
L 301.303752 99.120183 
L 302.538068 104.937778 
L 303.760388 111.324404 
L 304.970944 118.336992 
L 306.16996 126.03066 
L 307.357653 134.451722 
L 308.534237 143.625549 
L 309.699916 153.535844 
L 310.854891 164.089122 
L 311.999357 175.052584 
L 313.133504 185.942747 
L 314.257515 195.827442 
L 315.37157 203.121229 
L 316.475844 205.848749 
" clip-path="url(#p70e9b4e7b0)" style="fill: none; stroke: #2ca02c; stroke-width: 1.5; stroke-linecap: square"/>
   </g>
   <g id="patch_3">
    <path d="M 42.788571 244.561714 
L 42.788571 18.840857 
" style="fill: none; stroke: #000000; stroke-width: 0.8; stroke-linejoin: miter; stroke-linecap: square"/>
   </g>
   <g id="patch_4">
    <path d="M 329.508571 244.561714 
L 329.508571 18.840857 
" style="fill: none; stroke: #000000; stroke-width: 0.8; stroke-linejoin: miter; stroke-linecap: square"/>
   </g>
   <g id="patch_5">
    <path d="M 42.788571 244.561714 
L 329.508571 244.561714 
" style="fill: none; stroke: #000000; stroke-width: 0.8; stroke-linejoin: miter; stroke-linecap: square"/>
   </g>
   <g id="patch_6">
    <path d="M 42.788571 18.840857 
L 329.508571 18.840857 
" style="fill: none; stroke: #000000; stroke-width: 0.8; stroke-linejoin: miter; stroke-linecap: square"/>
   </g>
   <g id="text_17">
    <!-- \(|\Delta\Gamma|(\lambda)\) -->
    <g transform="translate(166.326534 12.840857) scale(0.12 -0.12)">
     <defs>
      <path id="CMR17-28" d="M 1958 -1561 
C 1958 -1555 1958 -1542 1939 -1523 
C 1645 -1224 858 -407 858 1581 
C 858 3569 1632 4379 1946 4697 
C 1946 4704 1958 4717 1958 4736 
C 1958 4755 1939 4768 1914 4768 
C 1843 4768 1299 4296 986 3594 
C 666 2887 576 2199 576 1588 
C 576 1128 621 351 1005 -471 
C 1312 -1135 1837 -1600 1914 -1600 
C 1946 -1600 1958 -1587 1958 -1561 
z
" transform="scale(0.015625)"/>
      <path id="CMR17-29" d="M 1683 1581 
C 1683 2040 1638 2817 1254 3639 
C 947 4303 422 4768 346 4768 
C 326 4768 301 4761 301 4729 
C 301 4717 307 4710 314 4697 
C 621 4378 1402 3568 1402 1584 
C 1402 -407 627 -1217 314 -1537 
C 307 -1549 301 -1556 301 -1568 
C 301 -1600 326 -1600 346 -1600 
C 416 -1600 960 -1128 1274 -426 
C 1594 281 1683 969 1683 1581 
z
" transform="scale(0.015625)"/>
     </defs>
     <use xlink:href="#CMSY10-6a" transform="scale(0.996264)"/>
     <use xlink:href="#CMR17-1" transform="translate(27.674085 0) scale(0.996264)"/>
     <use xlink:href="#CMR17-0" transform="translate(104.593675 0) scale(0.996264)"/>
     <use xlink:href="#CMSY10-6a" transform="translate(161.975082 0) scale(0.996264)"/>
     <use xlink:href="#CMR17-28" transform="translate(189.649167 0) scale(0.996264)"/>
     <use xlink:href="#CMMI12-15" transform="translate(224.929935 0) scale(0.996264)"/>
     <use xlink:href="#CMR17-29" transform="translate(281.834007 0) scale(0.996264)"/>
    </g>
   </g>
  </g>
  <g id="axes_2">
   <g id="patch_7">
    <path d="M 329.508571 244.561714 
L 616.228571 244.561714 
L 616.228571 18.840857 
L 329.508571 18.840857 
z
" style="fill: #ffffff"/>
   </g>
   <g id="line2d_28">
    <path d="M 472.868571 244.561714 
L 472.868571 18.840857 
" clip-path="url(#p45aeafc331)" style="fill: none; stroke-dasharray: 1.5,2.475; stroke-dashoffset: 0; stroke: #000000; stroke-width: 1.5"/>
   </g>
   <g id="line2d_29">
    <path d="M 342.541299 244.561709 
L 345.147844 244.561706 
L 347.75439 244.561704 
L 350.360935 244.561699 
L 352.967481 244.561694 
L 355.574026 244.561686 
L 358.180571 244.561675 
L 360.787117 244.56166 
L 363.393662 244.56164 
L 366.000208 244.561612 
L 368.606753 244.561573 
L 371.213299 244.561519 
L 373.819844 244.561444 
L 376.42639 244.561341 
L 379.032935 244.5612 
L 381.639481 244.561004 
L 384.246026 244.560734 
L 386.852571 244.560361 
L 389.459117 244.559846 
L 392.065662 244.559135 
L 394.672208 244.558154 
L 397.278753 244.5568 
L 399.885299 244.55493 
L 402.491844 244.55235 
L 405.09839 244.548788 
L 407.704935 244.543872 
L 410.311481 244.537087 
L 412.918026 244.527722 
L 415.524571 244.514797 
L 418.131117 244.496961 
L 420.737662 244.472349 
L 423.344208 244.438393 
L 425.950753 244.391555 
L 428.557299 244.326963 
L 431.163844 244.237923 
L 433.77039 244.115245 
L 436.376935 243.946338 
L 438.983481 243.714012 
L 441.590026 243.394878 
L 444.196571 242.957303 
L 446.803117 242.358822 
L 449.409662 241.543033 
L 452.016208 240.436095 
L 454.622753 238.943247 
L 457.229299 236.946172 
L 459.835844 234.302626 
L 462.44239 230.850399 
L 465.048935 226.417958 
L 467.655481 220.843481 
L 470.262026 214.001693 
L 472.868571 205.834138 
L 475.475117 196.374656 
L 478.081662 185.760745 
L 480.688208 174.225031 
L 483.294753 162.068166 
L 485.901299 149.62105 
L 488.507844 137.206808 
L 491.11439 125.110823 
L 493.720935 113.562655 
L 496.327481 102.729517 
L 498.934026 92.718569 
L 501.540571 83.584613 
L 504.147117 75.340226 
L 506.753662 67.966208 
L 509.360208 61.421104 
L 511.966753 55.649195 
L 514.573299 50.586827 
L 517.179844 46.16715 
L 519.78639 42.323524 
L 522.392935 38.991811 
L 524.999481 36.111825 
L 527.606026 33.62815 
L 530.212571 31.490499 
L 532.819117 29.653755 
L 535.425662 28.077808 
L 538.032208 26.727263 
L 540.638753 25.571067 
L 543.245299 24.582115 
L 545.851844 23.736839 
L 548.45839 23.014821 
L 551.064935 22.398415 
L 553.671481 21.872413 
L 556.278026 21.423727 
L 558.884571 21.04112 
L 561.491117 20.714951 
L 564.097662 20.43696 
L 566.704208 20.200078 
L 569.310753 19.998262 
L 571.917299 19.826346 
L 574.523844 19.679917 
L 577.13039 19.555211 
L 579.736935 19.449014 
L 582.343481 19.358587 
L 584.950026 19.281592 
L 587.556571 19.216038 
L 590.163117 19.160227 
L 592.769662 19.112714 
L 595.376208 19.072265 
L 597.982753 19.037833 
L 600.589299 19.008521 
L 603.195844 18.98357 
" clip-path="url(#p45aeafc331)" style="fill: none; stroke: #d62728; stroke-width: 1.5; stroke-linecap: square"/>
   </g>
   <g id="line2d_30">
    <path d="M 342.541299 244.543248 
L 345.147844 244.536225 
L 347.75439 244.526531 
L 350.360935 244.513151 
L 352.967481 244.494685 
L 355.574026 244.469201 
L 358.180571 244.434035 
L 360.787117 244.385515 
L 363.393662 244.318583 
L 366.000208 244.226271 
L 368.606753 244.099004 
L 371.213299 243.923635 
L 373.819844 243.682154 
L 376.42639 243.34998 
L 379.032935 242.893738 
L 381.639481 242.268484 
L 384.246026 241.414429 
L 386.852571 240.253606 
L 389.459117 238.6874 
L 392.065662 236.596591 
L 394.672208 233.846186 
L 397.278753 230.296346 
L 399.885299 225.818765 
L 402.491844 220.316097 
L 405.09839 213.740708 
L 407.704935 206.107028 
L 410.311481 197.495741 
L 412.918026 188.043324 
L 415.524571 177.927528 
L 418.131117 167.346792 
L 420.737662 156.501404 
L 423.344208 145.586737 
L 425.950753 134.777841 
L 428.557299 124.231729 
L 431.163844 114.079032 
L 433.77039 104.428074 
L 436.376935 95.362008 
L 438.983481 86.937137 
L 441.590026 79.192125 
L 444.196571 72.142988 
L 446.803117 65.78776 
L 449.409662 60.113034 
L 452.016208 55.091106 
L 454.622753 50.688816 
L 457.229299 46.867868 
L 459.835844 43.584578 
L 462.44239 40.795161 
L 465.048935 38.452882 
L 467.655481 36.512736 
L 470.262026 34.928413 
L 472.868571 33.653035 
L 475.475117 32.642409 
L 478.081662 31.853656 
L 480.688208 31.245361 
L 483.294753 30.783031 
L 485.901299 30.435026 
L 488.507844 30.175286 
L 491.11439 29.982945 
L 493.720935 29.841514 
L 496.327481 29.737333 
L 498.934026 29.661772 
L 501.540571 29.60597 
L 504.147117 29.565528 
L 506.753662 29.536221 
L 509.360208 29.514984 
L 511.966753 29.499598 
L 514.573299 29.48845 
L 517.179844 29.480373 
L 519.78639 29.474521 
L 522.392935 29.470282 
L 524.999481 29.467211 
L 527.606026 29.464986 
L 530.212571 29.463374 
L 532.819117 29.462199 
L 535.425662 29.461337 
L 538.032208 29.460712 
L 540.638753 29.46026 
L 543.245299 29.459932 
L 545.851844 29.459695 
L 548.45839 29.459523 
L 551.064935 29.459398 
L 553.671481 29.459308 
L 556.278026 29.459242 
L 558.884571 29.459195 
L 561.491117 29.459161 
L 564.097662 29.459136 
L 566.704208 29.459118 
L 569.310753 29.459105 
L 571.917299 29.459095 
L 574.523844 29.459088 
L 577.13039 29.459083 
L 579.736935 29.45908 
L 582.343481 29.459077 
L 584.950026 29.459075 
L 587.556571 29.459074 
L 590.163117 29.459073 
L 592.769662 29.459072 
L 595.376208 29.459072 
L 597.982753 29.459071 
L 600.589299 29.459071 
L 603.195844 29.459071 
" clip-path="url(#p45aeafc331)" style="fill: none; stroke: #1f77b4; stroke-width: 1.5; stroke-linecap: square"/>
   </g>
   <g id="matplotlib.axis_3">
    <g id="xtick_6">
     <g id="line2d_31">
      <g>
       <use xlink:href="#m665b759235" x="361.159481" y="244.561714" style="stroke: #000000; stroke-width: 0.8"/>
      </g>
     </g>
     <g id="text_18">
      <!-- $\mathdefault{10^{-6}}$ -->
      <g transform="translate(351.079194 258.480213) scale(0.1 -0.1)">
       <defs>
        <path id="CMSY10-0" d="M 4218 1472 
C 4326 1472 4442 1472 4442 1600 
C 4442 1728 4326 1728 4218 1728 
L 755 1728 
C 646 1728 531 1728 531 1600 
C 531 1472 646 1472 755 1472 
L 4218 1472 
z
" transform="scale(0.015625)"/>
       </defs>
       <use xlink:href="#CMR17-31" transform="scale(0.996264)"/>
       <use xlink:href="#CMR17-30" transform="translate(45.690477 0) scale(0.996264)"/>
       <use xlink:href="#CMSY10-0" transform="translate(91.380954 36.153639) scale(0.697382)"/>
       <use xlink:href="#CMR17-36" transform="translate(145.621947 36.153639) scale(0.697382)"/>
      </g>
     </g>
    </g>
    <g id="xtick_7">
     <g id="line2d_32">
      <g>
       <use xlink:href="#m665b759235" x="398.395844" y="244.561714" style="stroke: #000000; stroke-width: 0.8"/>
      </g>
     </g>
     <g id="text_19">
      <!-- $\mathdefault{10^{-4}}$ -->
      <g transform="translate(388.315557 258.480213) scale(0.1 -0.1)">
       <use xlink:href="#CMR17-31" transform="scale(0.996264)"/>
       <use xlink:href="#CMR17-30" transform="translate(45.690477 0) scale(0.996264)"/>
       <use xlink:href="#CMSY10-0" transform="translate(91.380954 36.153639) scale(0.697382)"/>
       <use xlink:href="#CMR17-34" transform="translate(145.621947 36.153639) scale(0.697382)"/>
      </g>
     </g>
    </g>
    <g id="xtick_8">
     <g id="line2d_33">
      <g>
       <use xlink:href="#m665b759235" x="435.632208" y="244.561714" style="stroke: #000000; stroke-width: 0.8"/>
      </g>
     </g>
     <g id="text_20">
      <!-- $\mathdefault{10^{-2}}$ -->
      <g transform="translate(425.551921 258.480213) scale(0.1 -0.1)">
       <use xlink:href="#CMR17-31" transform="scale(0.996264)"/>
       <use xlink:href="#CMR17-30" transform="translate(45.690477 0) scale(0.996264)"/>
       <use xlink:href="#CMSY10-0" transform="translate(91.380954 36.153639) scale(0.697382)"/>
       <use xlink:href="#CMR17-32" transform="translate(145.621947 36.153639) scale(0.697382)"/>
      </g>
     </g>
    </g>
    <g id="xtick_9">
     <g id="line2d_34">
      <g>
       <use xlink:href="#m665b759235" x="472.868571" y="244.561714" style="stroke: #000000; stroke-width: 0.8"/>
      </g>
     </g>
     <g id="text_21">
      <!-- $\mathdefault{10^{0}}$ -->
      <g transform="translate(465.901617 258.480213) scale(0.1 -0.1)">
       <use xlink:href="#CMR17-31" transform="scale(0.996264)"/>
       <use xlink:href="#CMR17-30" transform="translate(45.690477 0) scale(0.996264)"/>
       <use xlink:href="#CMR17-30" transform="translate(91.380954 36.153639) scale(0.697382)"/>
      </g>
     </g>
    </g>
    <g id="xtick_10">
     <g id="line2d_35">
      <g>
       <use xlink:href="#m665b759235" x="510.104935" y="244.561714" style="stroke: #000000; stroke-width: 0.8"/>
      </g>
     </g>
     <g id="text_22">
      <!-- $\mathdefault{10^{2}}$ -->
      <g transform="translate(503.137981 258.480213) scale(0.1 -0.1)">
       <use xlink:href="#CMR17-31" transform="scale(0.996264)"/>
       <use xlink:href="#CMR17-30" transform="translate(45.690477 0) scale(0.996264)"/>
       <use xlink:href="#CMR17-32" transform="translate(91.380954 36.153639) scale(0.697382)"/>
      </g>
     </g>
    </g>
    <g id="xtick_11">
     <g id="line2d_36">
      <g>
       <use xlink:href="#m665b759235" x="547.341299" y="244.561714" style="stroke: #000000; stroke-width: 0.8"/>
      </g>
     </g>
     <g id="text_23">
      <!-- $\mathdefault{10^{4}}$ -->
      <g transform="translate(540.374345 258.480213) scale(0.1 -0.1)">
       <use xlink:href="#CMR17-31" transform="scale(0.996264)"/>
       <use xlink:href="#CMR17-30" transform="translate(45.690477 0) scale(0.996264)"/>
       <use xlink:href="#CMR17-34" transform="translate(91.380954 36.153639) scale(0.697382)"/>
      </g>
     </g>
    </g>
    <g id="xtick_12">
     <g id="line2d_37">
      <g>
       <use xlink:href="#m665b759235" x="584.577662" y="244.561714" style="stroke: #000000; stroke-width: 0.8"/>
      </g>
     </g>
     <g id="text_24">
      <!-- $\mathdefault{10^{6}}$ -->
      <g transform="translate(577.610708 258.480213) scale(0.1 -0.1)">
       <use xlink:href="#CMR17-31" transform="scale(0.996264)"/>
       <use xlink:href="#CMR17-30" transform="translate(45.690477 0) scale(0.996264)"/>
       <use xlink:href="#CMR17-36" transform="translate(91.380954 36.153639) scale(0.697382)"/>
      </g>
     </g>
    </g>
    <g id="text_25">
     <!-- \(\pi\) -->
     <g transform="translate(470.029084 271.335889) scale(0.1 -0.1)">
      <defs>
       <path id="CMMI12-19" d="M 1658 2408 
L 2381 2408 
C 2208 1692 2099 1226 2099 716 
C 2099 626 2099 -64 2362 -64 
C 2496 -64 2611 57 2611 166 
C 2611 197 2611 210 2566 306 
C 2394 747 2394 1296 2394 1341 
C 2394 1379 2394 1832 2528 2408 
L 3245 2408 
C 3328 2408 3539 2408 3539 2612 
C 3539 2752 3418 2752 3302 2752 
L 1197 2752 
C 1050 2752 832 2752 538 2440 
C 371 2254 166 1916 166 1878 
C 166 1840 198 1827 237 1827 
C 282 1827 288 1846 320 1884 
C 653 2408 986 2408 1146 2408 
L 1510 2408 
C 1370 1929 1210 1373 685 256 
C 634 154 634 140 634 102 
C 634 -32 749 -64 806 -64 
C 992 -64 1043 102 1120 370 
C 1222 696 1222 709 1286 964 
L 1658 2408 
z
" transform="scale(0.015625)"/>
      </defs>
      <use xlink:href="#CMMI12-19" transform="scale(0.996264)"/>
     </g>
    </g>
   </g>
   <g id="matplotlib.axis_4">
    <g id="ytick_10">
     <g id="line2d_38">
      <path d="M 329.508571 244.561714 
L 616.228571 244.561714 
" clip-path="url(#p45aeafc331)" style="fill: none; stroke: #b0b0b0; stroke-width: 0.8; stroke-linecap: square"/>
     </g>
    </g>
    <g id="ytick_11">
     <g id="line2d_39">
      <path d="M 329.508571 216.346607 
L 616.228571 216.346607 
" clip-path="url(#p45aeafc331)" style="fill: none; stroke: #b0b0b0; stroke-width: 0.8; stroke-linecap: square"/>
     </g>
    </g>
    <g id="ytick_12">
     <g id="line2d_40">
      <path d="M 329.508571 188.1315 
L 616.228571 188.1315 
" clip-path="url(#p45aeafc331)" style="fill: none; stroke: #b0b0b0; stroke-width: 0.8; stroke-linecap: square"/>
     </g>
    </g>
    <g id="ytick_13">
     <g id="line2d_41">
      <path d="M 329.508571 159.916393 
L 616.228571 159.916393 
" clip-path="url(#p45aeafc331)" style="fill: none; stroke: #b0b0b0; stroke-width: 0.8; stroke-linecap: square"/>
     </g>
    </g>
    <g id="ytick_14">
     <g id="line2d_42">
      <path d="M 329.508571 131.701286 
L 616.228571 131.701286 
" clip-path="url(#p45aeafc331)" style="fill: none; stroke: #b0b0b0; stroke-width: 0.8; stroke-linecap: square"/>
     </g>
    </g>
    <g id="ytick_15">
     <g id="line2d_43">
      <path d="M 329.508571 103.486179 
L 616.228571 103.486179 
" clip-path="url(#p45aeafc331)" style="fill: none; stroke: #b0b0b0; stroke-width: 0.8; stroke-linecap: square"/>
     </g>
    </g>
    <g id="ytick_16">
     <g id="line2d_44">
      <path d="M 329.508571 75.271071 
L 616.228571 75.271071 
" clip-path="url(#p45aeafc331)" style="fill: none; stroke: #b0b0b0; stroke-width: 0.8; stroke-linecap: square"/>
     </g>
    </g>
    <g id="ytick_17">
     <g id="line2d_45">
      <path d="M 329.508571 47.055964 
L 616.228571 47.055964 
" clip-path="url(#p45aeafc331)" style="fill: none; stroke: #b0b0b0; stroke-width: 0.8; stroke-linecap: square"/>
     </g>
    </g>
    <g id="ytick_18">
     <g id="line2d_46">
      <path d="M 329.508571 18.840857 
L 616.228571 18.840857 
" clip-path="url(#p45aeafc331)" style="fill: none; stroke: #b0b0b0; stroke-width: 0.8; stroke-linecap: square"/>
     </g>
    </g>
   </g>
   <g id="line2d_47">
    <path d="M 342.541299 244.546333 
L 345.147844 244.538139 
L 347.75439 244.527219 
L 350.360935 244.513154 
L 352.967481 244.494685 
L 355.574026 244.469201 
L 358.180571 244.434035 
L 360.787117 244.385514 
L 363.393662 244.318579 
L 366.000208 244.226262 
L 368.606753 244.098981 
L 371.213299 243.923572 
L 373.819844 243.68199 
L 376.42639 243.349553 
L 379.032935 242.892631 
L 381.639481 242.265622 
L 384.246026 241.407112 
L 386.852571 240.235186 
L 389.459117 238.641949 
L 392.065662 236.487965 
L 394.672208 233.597473 
L 397.278753 229.756779 
L 399.885299 224.719211 
L 402.491844 218.220909 
L 405.09839 210.011905 
L 407.704935 199.903911 
L 410.311481 187.829248 
L 412.918026 173.896958 
L 415.524571 158.426026 
L 418.131117 141.937421 
L 420.737662 125.099403 
L 423.344208 108.629824 
L 425.950753 93.187796 
L 428.557299 79.275776 
L 431.163844 67.189994 
L 433.77039 57.016913 
L 436.376935 48.676847 
L 438.983481 41.981643 
L 441.590026 36.692629 
L 444.196571 32.563123 
L 446.803117 29.366007 
L 449.409662 26.904631 
L 452.016208 25.017061 
L 454.622753 23.573248 
L 457.229299 22.471032 
L 459.835844 21.631201 
L 462.44239 20.992359 
L 465.048935 20.507724 
L 467.655481 20.141001 
L 470.262026 19.864552 
L 472.868571 19.657007 
L 475.475117 19.501761 
L 478.081662 19.386201 
L 480.688208 19.300579 
L 483.294753 19.237374 
L 485.901299 19.190935 
L 488.507844 19.156865 
L 491.11439 19.131946 
L 493.720935 19.113819 
L 496.327481 19.100566 
L 498.934026 19.090964 
L 501.540571 19.084008 
L 504.147117 19.078918 
L 506.753662 19.075227 
L 509.360208 19.072553 
L 511.966753 19.070615 
L 514.573299 19.069212 
L 517.179844 19.068195 
L 519.78639 19.067458 
L 522.392935 19.066925 
L 524.999481 19.066538 
L 527.606026 19.066258 
L 530.212571 19.066055 
L 532.819117 19.05772 
L 535.425662 19.027882 
L 538.032208 19.001946 
L 540.638753 18.979484 
L 543.245299 18.960041 
L 545.851844 18.943251 
L 548.45839 18.928781 
L 551.064935 18.916327 
L 553.671481 18.905619 
L 556.278026 18.896427 
L 558.884571 18.888552 
L 561.491117 18.881816 
L 564.097662 18.876063 
L 566.704208 18.871163 
L 569.310753 18.867005 
L 571.917299 18.863485 
L 574.523844 18.860521 
L 577.13039 18.858036 
L 579.736935 18.85597 
L 582.343481 18.854266 
L 584.950026 18.852873 
L 587.556571 18.851749 
L 590.163117 18.850853 
L 592.769662 18.850147 
L 595.376208 18.8496 
L 597.982753 18.849179 
L 600.589299 18.84886 
L 603.195844 18.848621 
" clip-path="url(#p45aeafc331)" style="fill: none; stroke: #ff7f0e; stroke-width: 1.5; stroke-linecap: square"/>
   </g>
   <g id="patch_8">
    <path d="M 329.508571 244.561714 
L 329.508571 18.840857 
" style="fill: none; stroke: #000000; stroke-width: 0.8; stroke-linejoin: miter; stroke-linecap: square"/>
   </g>
   <g id="patch_9">
    <path d="M 616.228571 244.561714 
L 616.228571 18.840857 
" style="fill: none; stroke: #000000; stroke-width: 0.8; stroke-linejoin: miter; stroke-linecap: square"/>
   </g>
   <g id="patch_10">
    <path d="M 329.508571 244.561714 
L 616.228571 244.561714 
" style="fill: none; stroke: #000000; stroke-width: 0.8; stroke-linejoin: miter; stroke-linecap: square"/>
   </g>
   <g id="patch_11">
    <path d="M 329.508571 18.840857 
L 616.228571 18.840857 
" style="fill: none; stroke: #000000; stroke-width: 0.8; stroke-linejoin: miter; stroke-linecap: square"/>
   </g>
   <g id="line2d_48">
    <path d="M 342.541299 244.543772 
L 345.147844 244.536258 
L 347.75439 244.526531 
L 350.360935 244.513151 
L 352.967481 244.494685 
L 355.574026 244.469201 
L 358.180571 244.434035 
L 360.787117 244.385514 
L 363.393662 244.318579 
L 366.000208 244.226262 
L 368.606753 244.098983 
L 371.213299 243.923577 
L 373.819844 243.682 
L 376.42639 243.349578 
L 379.032935 242.892697 
L 381.639481 242.265797 
L 384.246026 241.407572 
L 386.852571 240.236328 
L 389.459117 238.644841 
L 392.065662 236.49512 
L 394.672208 233.614717 
L 397.278753 229.796972 
L 399.885299 224.808899 
L 402.491844 218.409869 
L 405.09839 210.382652 
L 407.704935 200.573184 
L 410.311481 188.93046 
L 412.918026 175.537418 
L 415.524571 160.628765 
L 418.131117 144.593254 
L 420.737662 127.961389 
L 423.344208 111.362753 
L 425.950753 95.460378 
L 428.557299 80.853452 
L 431.163844 67.981623 
L 433.77039 57.06977 
L 436.376935 48.132958 
L 438.983481 41.02105 
L 441.590026 35.490891 
L 444.196571 31.269059 
L 446.803117 28.087858 
L 449.409662 25.717832 
L 452.016208 23.962553 
L 454.622753 22.67383 
L 457.229299 21.727559 
L 459.835844 21.037277 
L 462.44239 20.534686 
L 465.048935 20.169257 
L 467.655481 19.903823 
L 470.262026 19.711163 
L 472.868571 19.571023 
L 475.475117 19.469238 
L 478.081662 19.395447 
L 480.688208 19.341962 
L 483.294753 19.3032 
L 485.901299 19.275112 
L 488.507844 19.25476 
L 491.11439 19.240014 
L 493.720935 19.22933 
L 496.327481 19.22159 
L 498.934026 19.215982 
L 501.540571 19.21192 
L 504.147117 19.208977 
L 506.753662 19.206844 
L 509.360208 19.2053 
L 511.966753 19.204181 
L 514.573299 19.20337 
L 517.179844 19.202783 
L 519.78639 19.202357 
L 522.392935 19.202049 
L 524.999481 19.201826 
L 527.606026 19.201664 
L 530.212571 19.201547 
L 532.819117 19.201462 
L 535.425662 19.201401 
L 538.032208 19.201356 
L 540.638753 19.201324 
L 543.245299 19.2013 
L 545.851844 19.201283 
L 548.45839 19.201271 
L 551.064935 19.201262 
L 553.671481 19.201256 
L 556.278026 19.201251 
L 558.884571 19.201248 
L 561.491117 19.201245 
L 564.097662 19.201244 
L 566.704208 19.201242 
L 569.310753 19.201241 
L 571.917299 19.201241 
L 574.523844 19.20124 
L 577.13039 19.20124 
L 579.736935 19.20124 
L 582.343481 19.201239 
L 584.950026 19.201239 
L 587.556571 19.201239 
L 590.163117 19.201239 
L 592.769662 19.201239 
L 595.376208 19.201239 
L 597.982753 19.201239 
L 600.589299 19.201239 
L 603.195844 19.201239 
" clip-path="url(#p45aeafc331)" style="fill: none; stroke: #2ca02c; stroke-width: 1.5; stroke-linecap: square"/>
   </g>
   <g id="text_26">
    <!-- \(|\Delta\Gamma|(\pi)\) -->
    <g transform="translate(452.926144 12.840857) scale(0.12 -0.12)">
     <use xlink:href="#CMSY10-6a" transform="scale(0.996264)"/>
     <use xlink:href="#CMR17-1" transform="translate(27.674085 0) scale(0.996264)"/>
     <use xlink:href="#CMR17-0" transform="translate(104.593675 0) scale(0.996264)"/>
     <use xlink:href="#CMSY10-6a" transform="translate(161.975082 0) scale(0.996264)"/>
     <use xlink:href="#CMR17-28" transform="translate(189.649167 0) scale(0.996264)"/>
     <use xlink:href="#CMMI12-19" transform="translate(224.929935 0) scale(0.996264)"/>
     <use xlink:href="#CMR17-29" transform="translate(283.840536 0) scale(0.996264)"/>
    </g>
   </g>
  </g>
  <g id="axes_3">
   <g id="patch_12">
    <path d="M 616.228571 244.561714 
L 902.948571 244.561714 
L 902.948571 18.840857 
L 616.228571 18.840857 
z
" style="fill: #ffffff"/>
   </g>
   <g id="line2d_49">
    <path d="M 629.261299 244.561714 
L 694.815917 244.453197 
L 699.247044 244.21492 
L 701.983917 243.855345 
L 703.938826 243.393517 
L 705.633081 242.7644 
L 707.066681 241.987405 
L 708.369953 241.013047 
L 709.542899 239.852584 
L 710.715844 238.357402 
L 711.88879 236.460987 
L 713.061735 234.103322 
L 714.234681 231.245643 
L 715.537953 227.48976 
L 717.232208 221.874316 
L 720.229735 211.801552 
L 721.272353 209.058652 
L 722.184644 207.280535 
L 722.836281 206.429844 
L 723.487917 205.954477 
L 724.009226 205.848749 
L 724.530535 205.98286 
L 725.051844 206.346593 
L 725.703481 207.100294 
L 726.485444 208.390645 
L 727.528062 210.632663 
L 728.961662 214.342912 
L 733.262462 225.860624 
L 734.82639 229.303559 
L 736.390317 232.205454 
L 737.823917 234.416932 
L 739.257517 236.248265 
L 740.821444 237.876447 
L 742.385371 239.185154 
L 744.079626 240.312201 
L 745.904208 241.259013 
L 747.989444 242.081238 
L 750.335335 242.760331 
L 753.072208 243.31829 
L 756.460717 243.773604 
L 760.761517 244.118441 
L 766.756571 244.362235 
L 776.40079 244.506274 
L 798.817081 244.558874 
L 889.915844 244.561714 
L 889.915844 244.561714 
" clip-path="url(#p36607b489e)" style="fill: none; stroke: #d62728; stroke-width: 1.5; stroke-linecap: square"/>
   </g>
   <g id="line2d_50">
    <path d="M 724.009226 244.561714 
L 724.009226 205.848749 
" clip-path="url(#p36607b489e)" style="fill: none; stroke-dasharray: 1.5,2.475; stroke-dashoffset: 0; stroke: #d62728; stroke-width: 1.5"/>
   </g>
   <g id="line2d_51">
    <path d="M 745.122244 244.561714 
L 745.122244 33.653035 
" clip-path="url(#p36607b489e)" style="fill: none; stroke-dasharray: 1.5,2.475; stroke-dashoffset: 0; stroke: #1f77b4; stroke-width: 1.5"/>
   </g>
   <g id="matplotlib.axis_5">
    <g id="xtick_13">
     <g id="line2d_52">
      <g>
       <use xlink:href="#m665b759235" x="646.638268" y="244.561714" style="stroke: #000000; stroke-width: 0.8"/>
      </g>
     </g>
     <g id="text_27">
      <!-- $\mathdefault{10^{-5}}$ -->
      <g transform="translate(636.557982 258.480213) scale(0.1 -0.1)">
       <use xlink:href="#CMR17-31" transform="scale(0.996264)"/>
       <use xlink:href="#CMR17-30" transform="translate(45.690477 0) scale(0.996264)"/>
       <use xlink:href="#CMSY10-0" transform="translate(91.380954 36.153639) scale(0.697382)"/>
       <use xlink:href="#CMR17-35" transform="translate(145.621947 36.153639) scale(0.697382)"/>
      </g>
     </g>
    </g>
    <g id="xtick_14">
     <g id="line2d_53">
      <g>
       <use xlink:href="#m665b759235" x="681.392208" y="244.561714" style="stroke: #000000; stroke-width: 0.8"/>
      </g>
     </g>
     <g id="text_28">
      <!-- $\mathdefault{10^{-3}}$ -->
      <g transform="translate(671.311921 258.480213) scale(0.1 -0.1)">
       <defs>
        <path id="CMR17-33" d="M 1414 2157 
C 1984 2157 2234 1662 2234 1090 
C 2234 320 1824 25 1453 25 
C 1114 25 563 194 390 693 
C 422 680 454 680 486 680 
C 640 680 755 782 755 948 
C 755 1133 614 1216 486 1216 
C 378 1216 211 1165 211 926 
C 211 335 787 -128 1466 -128 
C 2176 -128 2720 430 2720 1085 
C 2720 1707 2208 2157 1600 2227 
C 2086 2328 2554 2756 2554 3329 
C 2554 3820 2048 4179 1472 4179 
C 890 4179 378 3829 378 3329 
C 378 3110 544 3072 627 3072 
C 762 3072 877 3155 877 3321 
C 877 3486 762 3569 627 3569 
C 602 3569 570 3569 544 3557 
C 730 3959 1235 4032 1459 4032 
C 1683 4032 2106 3925 2106 3320 
C 2106 3143 2080 2828 1862 2550 
C 1670 2304 1453 2304 1242 2284 
C 1210 2284 1062 2269 1037 2269 
C 992 2263 966 2257 966 2208 
C 966 2163 973 2157 1101 2157 
L 1414 2157 
z
" transform="scale(0.015625)"/>
       </defs>
       <use xlink:href="#CMR17-31" transform="scale(0.996264)"/>
       <use xlink:href="#CMR17-30" transform="translate(45.690477 0) scale(0.996264)"/>
       <use xlink:href="#CMSY10-0" transform="translate(91.380954 36.153639) scale(0.697382)"/>
       <use xlink:href="#CMR17-33" transform="translate(145.621947 36.153639) scale(0.697382)"/>
      </g>
     </g>
    </g>
    <g id="xtick_15">
     <g id="line2d_54">
      <g>
       <use xlink:href="#m665b759235" x="716.146147" y="244.561714" style="stroke: #000000; stroke-width: 0.8"/>
      </g>
     </g>
     <g id="text_29">
      <!-- $\mathdefault{10^{-1}}$ -->
      <g transform="translate(706.06586 258.480213) scale(0.1 -0.1)">
       <use xlink:href="#CMR17-31" transform="scale(0.996264)"/>
       <use xlink:href="#CMR17-30" transform="translate(45.690477 0) scale(0.996264)"/>
       <use xlink:href="#CMSY10-0" transform="translate(91.380954 36.153639) scale(0.697382)"/>
       <use xlink:href="#CMR17-31" transform="translate(145.621947 36.153639) scale(0.697382)"/>
      </g>
     </g>
    </g>
    <g id="xtick_16">
     <g id="line2d_55">
      <g>
       <use xlink:href="#m665b759235" x="750.900087" y="244.561714" style="stroke: #000000; stroke-width: 0.8"/>
      </g>
     </g>
     <g id="text_30">
      <!-- $\mathdefault{10^{1}}$ -->
      <g transform="translate(743.933133 258.480213) scale(0.1 -0.1)">
       <use xlink:href="#CMR17-31" transform="scale(0.996264)"/>
       <use xlink:href="#CMR17-30" transform="translate(45.690477 0) scale(0.996264)"/>
       <use xlink:href="#CMR17-31" transform="translate(91.380954 36.153639) scale(0.697382)"/>
      </g>
     </g>
    </g>
    <g id="xtick_17">
     <g id="line2d_56">
      <g>
       <use xlink:href="#m665b759235" x="785.654026" y="244.561714" style="stroke: #000000; stroke-width: 0.8"/>
      </g>
     </g>
     <g id="text_31">
      <!-- $\mathdefault{10^{3}}$ -->
      <g transform="translate(778.687072 258.480213) scale(0.1 -0.1)">
       <use xlink:href="#CMR17-31" transform="scale(0.996264)"/>
       <use xlink:href="#CMR17-30" transform="translate(45.690477 0) scale(0.996264)"/>
       <use xlink:href="#CMR17-33" transform="translate(91.380954 36.153639) scale(0.697382)"/>
      </g>
     </g>
    </g>
    <g id="xtick_18">
     <g id="line2d_57">
      <g>
       <use xlink:href="#m665b759235" x="820.407965" y="244.561714" style="stroke: #000000; stroke-width: 0.8"/>
      </g>
     </g>
     <g id="text_32">
      <!-- $\mathdefault{10^{5}}$ -->
      <g transform="translate(813.441011 258.480213) scale(0.1 -0.1)">
       <use xlink:href="#CMR17-31" transform="scale(0.996264)"/>
       <use xlink:href="#CMR17-30" transform="translate(45.690477 0) scale(0.996264)"/>
       <use xlink:href="#CMR17-35" transform="translate(91.380954 36.153639) scale(0.697382)"/>
      </g>
     </g>
    </g>
    <g id="xtick_19">
     <g id="line2d_58">
      <g>
       <use xlink:href="#m665b759235" x="855.161905" y="244.561714" style="stroke: #000000; stroke-width: 0.8"/>
      </g>
     </g>
     <g id="text_33">
      <!-- $\mathdefault{10^{7}}$ -->
      <g transform="translate(848.194951 258.480213) scale(0.1 -0.1)">
       <use xlink:href="#CMR17-31" transform="scale(0.996264)"/>
       <use xlink:href="#CMR17-30" transform="translate(45.690477 0) scale(0.996264)"/>
       <use xlink:href="#CMR17-37" transform="translate(91.380954 36.153639) scale(0.697382)"/>
      </g>
     </g>
    </g>
    <g id="xtick_20">
     <g id="line2d_59">
      <g>
       <use xlink:href="#m665b759235" x="889.915844" y="244.561714" style="stroke: #000000; stroke-width: 0.8"/>
      </g>
     </g>
     <g id="text_34">
      <!-- $\mathdefault{10^{9}}$ -->
      <g transform="translate(882.94889 258.480213) scale(0.1 -0.1)">
       <defs>
        <path id="CMR17-39" d="M 2253 1864 
C 2253 464 1670 31 1190 31 
C 1043 31 685 31 538 294 
C 704 268 826 357 826 518 
C 826 692 685 749 595 749 
C 538 749 365 723 365 506 
C 365 71 742 -128 1203 -128 
C 1939 -128 2688 674 2688 2073 
C 2688 3817 1971 4179 1485 4179 
C 851 4179 243 3628 243 2778 
C 243 1991 762 1408 1414 1408 
C 1952 1408 2189 1903 2253 2112 
L 2253 1864 
z
M 1427 1510 
C 1254 1510 1011 1542 813 1922 
C 678 2169 678 2461 678 2771 
C 678 3146 678 3405 858 3684 
C 947 3817 1114 4032 1485 4032 
C 2240 4032 2240 2885 2240 2632 
C 2240 2182 2035 1510 1427 1510 
z
" transform="scale(0.015625)"/>
       </defs>
       <use xlink:href="#CMR17-31" transform="scale(0.996264)"/>
       <use xlink:href="#CMR17-30" transform="translate(45.690477 0) scale(0.996264)"/>
       <use xlink:href="#CMR17-39" transform="translate(91.380954 36.153639) scale(0.697382)"/>
      </g>
     </g>
    </g>
    <g id="text_35">
     <!-- \(C_c(\unit{\pico\farad})\) -->
     <g transform="translate(744.105564 271.889371) scale(0.1 -0.1)">
      <defs>
       <path id="CMMI12-43" d="M 4781 4423 
C 4781 4480 4736 4480 4723 4480 
C 4710 4480 4685 4480 4634 4416 
L 4192 3882 
C 3968 4264 3616 4480 3136 4480 
C 1754 4480 320 3088 320 1595 
C 320 533 1069 -128 2003 -128 
C 2515 -128 2963 88 3334 400 
C 3891 863 4058 1481 4058 1531 
C 4058 1588 4006 1588 3987 1588 
C 3930 1588 3923 1550 3910 1524 
C 3616 534 2752 57 2112 57 
C 1434 57 845 489 845 1391 
C 845 1595 909 2700 1632 3532 
C 1984 3939 2586 4295 3194 4295 
C 3898 4295 4211 3717 4211 3068 
C 4211 2903 4192 2764 4192 2738 
C 4192 2681 4256 2681 4275 2681 
C 4346 2681 4352 2687 4378 2801 
L 4781 4423 
z
" transform="scale(0.015625)"/>
       <path id="CMMI12-63" d="M 2502 2431 
C 2381 2431 2323 2431 2234 2355 
C 2195 2323 2125 2227 2125 2125 
C 2125 1997 2221 1920 2342 1920 
C 2496 1920 2669 2044 2669 2292 
C 2669 2588 2374 2816 1933 2816 
C 1094 2816 256 1903 256 996 
C 256 441 602 -64 1254 -64 
C 2125 -64 2675 622 2675 706 
C 2675 744 2637 776 2611 776 
C 2592 776 2586 770 2528 713 
C 2118 162 1510 64 1267 64 
C 826 64 685 446 685 764 
C 685 988 794 1605 1024 2039 
C 1190 2338 1536 2682 1939 2682 
C 2022 2682 2374 2682 2502 2431 
z
" transform="scale(0.015625)"/>
       <path id="CMR17-70" d="M 1408 -1063 
C 998 -1063 973 -1037 973 -789 
L 973 402 
C 1158 134 1427 -38 1766 -38 
C 2406 -38 3053 523 3053 1388 
C 3053 2191 2496 2802 1837 2802 
C 1453 2802 1139 2592 960 2338 
L 960 2802 
L 198 2732 
L 198 2567 
C 576 2567 634 2528 634 2223 
L 634 -789 
C 634 -1031 608 -1063 198 -1063 
L 198 -1228 
C 352 -1216 634 -1216 800 -1216 
C 966 -1216 1254 -1216 1408 -1228 
L 1408 -1063 
z
M 973 2012 
C 973 2102 973 2235 1222 2471 
C 1254 2497 1472 2688 1792 2688 
C 2259 2688 2643 2108 2643 1382 
C 2643 656 2234 64 1728 64 
C 1498 64 1248 172 1056 472 
C 973 612 973 650 973 752 
L 973 2012 
z
" transform="scale(0.015625)"/>
       <path id="CMR17-46" d="M 3482 4325 
L 326 4325 
L 326 4160 
C 768 4160 838 4160 838 3874 
L 838 446 
C 838 160 768 160 326 160 
L 326 0 
C 512 0 870 0 1069 0 
C 1331 0 1638 0 1901 0 
L 1901 160 
L 1760 160 
C 1274 160 1261 223 1261 452 
L 1261 2075 
L 1837 2075 
C 2432 2075 2490 1865 2490 1332 
L 2605 1332 
L 2605 2987 
L 2490 2987 
C 2490 2450 2432 2240 1837 2240 
L 1261 2240 
L 1261 3911 
C 1261 4128 1274 4160 1530 4160 
L 2355 4160 
C 3322 4160 3430 3765 3520 2916 
L 3635 2916 
L 3482 4325 
z
" transform="scale(0.015625)"/>
      </defs>
      <use xlink:href="#CMMI12-43" transform="scale(0.996264)"/>
      <use xlink:href="#CMMI12-63" transform="translate(69.792037 -14.943915) scale(0.697382)"/>
      <use xlink:href="#CMR17-28" transform="translate(99.6783 0) scale(0.996264)"/>
      <use xlink:href="#CMR17-70" transform="translate(134.959068 0) scale(0.996264)"/>
      <use xlink:href="#CMR17-46" transform="translate(185.854437 0) scale(0.996264)"/>
      <use xlink:href="#CMR17-29" transform="translate(245.838284 0) scale(0.996264)"/>
     </g>
    </g>
   </g>
   <g id="matplotlib.axis_6">
    <g id="ytick_19">
     <g id="line2d_60">
      <path d="M 616.228571 244.561714 
L 902.948571 244.561714 
" clip-path="url(#p36607b489e)" style="fill: none; stroke: #b0b0b0; stroke-width: 0.8; stroke-linecap: square"/>
     </g>
     <g id="line2d_61">
      <defs>
       <path id="m1443e475e8" d="M 0 0 
L 3.5 0 
" style="stroke: #000000; stroke-width: 0.8"/>
      </defs>
      <g>
       <use xlink:href="#m1443e475e8" x="902.948571" y="244.561714" style="stroke: #000000; stroke-width: 0.8"/>
      </g>
     </g>
    </g>
    <g id="ytick_20">
     <g id="line2d_62">
      <path d="M 616.228571 216.346607 
L 902.948571 216.346607 
" clip-path="url(#p36607b489e)" style="fill: none; stroke: #b0b0b0; stroke-width: 0.8; stroke-linecap: square"/>
     </g>
     <g id="line2d_63">
      <g>
       <use xlink:href="#m1443e475e8" x="902.948571" y="216.346607" style="stroke: #000000; stroke-width: 0.8"/>
      </g>
     </g>
    </g>
    <g id="ytick_21">
     <g id="line2d_64">
      <path d="M 616.228571 188.1315 
L 902.948571 188.1315 
" clip-path="url(#p36607b489e)" style="fill: none; stroke: #b0b0b0; stroke-width: 0.8; stroke-linecap: square"/>
     </g>
     <g id="line2d_65">
      <g>
       <use xlink:href="#m1443e475e8" x="902.948571" y="188.1315" style="stroke: #000000; stroke-width: 0.8"/>
      </g>
     </g>
    </g>
    <g id="ytick_22">
     <g id="line2d_66">
      <path d="M 616.228571 159.916393 
L 902.948571 159.916393 
" clip-path="url(#p36607b489e)" style="fill: none; stroke: #b0b0b0; stroke-width: 0.8; stroke-linecap: square"/>
     </g>
     <g id="line2d_67">
      <g>
       <use xlink:href="#m1443e475e8" x="902.948571" y="159.916393" style="stroke: #000000; stroke-width: 0.8"/>
      </g>
     </g>
    </g>
    <g id="ytick_23">
     <g id="line2d_68">
      <path d="M 616.228571 131.701286 
L 902.948571 131.701286 
" clip-path="url(#p36607b489e)" style="fill: none; stroke: #b0b0b0; stroke-width: 0.8; stroke-linecap: square"/>
     </g>
     <g id="line2d_69">
      <g>
       <use xlink:href="#m1443e475e8" x="902.948571" y="131.701286" style="stroke: #000000; stroke-width: 0.8"/>
      </g>
     </g>
    </g>
    <g id="ytick_24">
     <g id="line2d_70">
      <path d="M 616.228571 103.486179 
L 902.948571 103.486179 
" clip-path="url(#p36607b489e)" style="fill: none; stroke: #b0b0b0; stroke-width: 0.8; stroke-linecap: square"/>
     </g>
     <g id="line2d_71">
      <g>
       <use xlink:href="#m1443e475e8" x="902.948571" y="103.486179" style="stroke: #000000; stroke-width: 0.8"/>
      </g>
     </g>
    </g>
    <g id="ytick_25">
     <g id="line2d_72">
      <path d="M 616.228571 75.271071 
L 902.948571 75.271071 
" clip-path="url(#p36607b489e)" style="fill: none; stroke: #b0b0b0; stroke-width: 0.8; stroke-linecap: square"/>
     </g>
     <g id="line2d_73">
      <g>
       <use xlink:href="#m1443e475e8" x="902.948571" y="75.271071" style="stroke: #000000; stroke-width: 0.8"/>
      </g>
     </g>
    </g>
    <g id="ytick_26">
     <g id="line2d_74">
      <path d="M 616.228571 47.055964 
L 902.948571 47.055964 
" clip-path="url(#p36607b489e)" style="fill: none; stroke: #b0b0b0; stroke-width: 0.8; stroke-linecap: square"/>
     </g>
     <g id="line2d_75">
      <g>
       <use xlink:href="#m1443e475e8" x="902.948571" y="47.055964" style="stroke: #000000; stroke-width: 0.8"/>
      </g>
     </g>
    </g>
    <g id="ytick_27">
     <g id="line2d_76">
      <path d="M 616.228571 18.840857 
L 902.948571 18.840857 
" clip-path="url(#p36607b489e)" style="fill: none; stroke: #b0b0b0; stroke-width: 0.8; stroke-linecap: square"/>
     </g>
     <g id="line2d_77">
      <g>
       <use xlink:href="#m1443e475e8" x="902.948571" y="18.840857" style="stroke: #000000; stroke-width: 0.8"/>
      </g>
     </g>
    </g>
    <g id="text_36">
     <!-- \(|\Delta\Gamma|\) -->
     <g transform="translate(917.920552 141.73314) rotate(-90) scale(0.1 -0.1)">
      <use xlink:href="#CMSY10-6a" transform="scale(0.996264)"/>
      <use xlink:href="#CMR17-1" transform="translate(27.674085 0) scale(0.996264)"/>
      <use xlink:href="#CMR17-0" transform="translate(104.593675 0) scale(0.996264)"/>
      <use xlink:href="#CMSY10-6a" transform="translate(161.975082 0) scale(0.996264)"/>
     </g>
    </g>
   </g>
   <g id="line2d_78">
    <path d="M 629.261299 244.561714 
L 694.815917 244.453093 
L 699.247044 244.213849 
L 701.983917 243.850882 
L 703.938826 243.381233 
L 705.502753 242.795179 
L 706.936353 242.012591 
L 708.109299 241.129191 
L 709.282244 239.952586 
L 710.324862 238.589199 
L 711.367481 236.847675 
L 712.410099 234.637096 
L 713.452717 231.852318 
L 714.495335 228.375929 
L 715.537953 224.082907 
L 716.580571 218.848844 
L 717.753517 211.697934 
L 718.926462 203.103051 
L 720.229735 191.823892 
L 721.663335 177.461854 
L 723.618244 155.389124 
L 728.179699 102.813728 
L 729.873953 86.384037 
L 731.307553 74.534792 
L 732.610826 65.425656 
L 733.914099 57.813316 
L 735.217371 51.558246 
L 736.390317 46.957106 
L 737.563262 43.210244 
L 738.736208 40.211291 
L 739.778826 38.097847 
L 740.821444 36.446 
L 741.864062 35.209384 
L 742.776353 34.438194 
L 743.688644 33.935875 
L 744.600935 33.686607 
L 745.513226 33.678435 
L 746.425517 33.902852 
L 747.337808 34.354381 
L 748.380426 35.144972 
L 749.423044 36.227864 
L 750.59599 37.798551 
L 751.768935 39.749016 
L 753.072208 42.372627 
L 754.375481 45.48958 
L 755.809081 49.501975 
L 757.373008 54.586953 
L 759.067262 60.925684 
L 760.891844 68.68161 
L 762.977081 78.618344 
L 765.453299 91.629839 
L 768.972135 111.496261 
L 774.445881 142.373437 
L 777.313081 157.184523 
L 779.789299 168.80689 
L 782.004862 178.195538 
L 784.220426 186.618323 
L 786.305662 193.690771 
L 788.390899 199.982139 
L 790.476135 205.551331 
L 792.561371 210.462546 
L 794.646608 214.780847 
L 796.731844 218.569272 
L 798.817081 221.887109 
L 800.902317 224.788985 
L 802.987553 227.324497 
L 805.203117 229.666805 
L 807.418681 231.693233 
L 809.764571 233.540868 
L 812.24079 235.205309 
L 814.847335 236.687315 
L 817.584208 237.991986 
L 820.581735 239.174585 
L 823.839917 240.220107 
L 827.489081 241.152289 
L 831.529226 241.952849 
L 836.221008 242.649815 
L 841.694753 243.231343 
L 848.341444 243.705214 
L 856.812717 244.073085 
L 868.281517 244.333165 
L 886.136353 244.491693 
L 889.915844 244.507204 
L 889.915844 244.507204 
" clip-path="url(#p36607b489e)" style="fill: none; stroke: #1f77b4; stroke-width: 1.5; stroke-linecap: square"/>
   </g>
   <g id="line2d_79">
    <path d="M 629.261299 244.561714 
L 683.477444 244.453096 
L 687.778244 244.223194 
L 690.515117 243.865066 
L 692.470026 243.396905 
L 694.033953 242.80682 
L 695.337226 242.095651 
L 696.510171 241.216875 
L 697.55279 240.18237 
L 698.595408 238.83791 
L 699.638026 237.097235 
L 700.680644 234.854404 
L 701.592935 232.380471 
L 702.505226 229.326288 
L 703.547844 224.9844 
L 704.590462 219.567176 
L 705.633081 212.902248 
L 706.675699 204.840614 
L 707.848644 193.985074 
L 709.151917 179.713006 
L 710.715844 159.928281 
L 713.843699 116.423606 
L 715.798608 91.163249 
L 717.232208 75.334909 
L 718.535481 63.30666 
L 719.708426 54.392353 
L 720.881371 47.139088 
L 722.054317 41.335873 
L 723.096935 37.20754 
L 724.139553 33.883816 
L 725.182171 31.220619 
L 726.22479 29.091871 
L 727.397735 27.203151 
L 728.570681 25.730302 
L 729.873953 24.460999 
L 731.307553 23.391235 
L 732.871481 22.499106 
L 734.82639 21.655793 
L 737.172281 20.905398 
L 739.909153 20.27774 
L 742.776353 19.853994 
L 745.513226 19.668516 
L 748.119771 19.707691 
L 750.59599 19.967321 
L 752.811553 20.41586 
L 754.89679 21.062193 
L 756.851699 21.907315 
L 758.676281 22.949292 
L 760.370535 24.1803 
L 761.934462 25.584183 
L 763.49839 27.289733 
L 765.062317 29.346056 
L 766.626244 31.806843 
L 768.190171 34.728842 
L 769.754099 38.169431 
L 771.318026 42.183192 
L 772.881953 46.817476 
L 774.576208 52.578267 
L 776.270462 59.12824 
L 778.095044 67.050052 
L 780.180281 77.122365 
L 782.656499 90.250492 
L 786.175335 110.25019 
L 791.779408 142.04433 
L 794.516281 156.267989 
L 796.992499 167.992832 
L 799.208062 177.469982 
L 801.423626 185.976175 
L 803.508862 193.121318 
L 805.594099 199.479183 
L 807.679335 205.10852 
L 809.764571 210.073661 
L 811.849808 214.439982 
L 813.935044 218.270944 
L 816.020281 221.626311 
L 818.105517 224.561196 
L 820.190753 227.125674 
L 822.406317 229.49483 
L 824.621881 231.544546 
L 826.967771 233.413456 
L 829.44399 235.097091 
L 832.050535 236.596208 
L 834.787408 237.915955 
L 837.784935 239.112229 
L 841.043117 240.169846 
L 844.692281 241.112816 
L 848.732426 241.922643 
L 853.424208 242.627678 
L 858.897953 243.215938 
L 865.544644 243.695297 
L 873.88559 244.063141 
L 885.224062 244.326491 
L 889.915844 244.389337 
L 889.915844 244.389337 
" clip-path="url(#p36607b489e)" style="fill: none; stroke: #ff7f0e; stroke-width: 1.5; stroke-linecap: square"/>
   </g>
   <g id="line2d_80">
    <path d="M 629.261299 244.561714 
L 704.460135 244.452408 
L 709.02159 244.213443 
L 711.88879 243.852988 
L 714.104353 243.3509 
L 715.928935 242.70048 
L 717.492862 241.896641 
L 718.926462 240.89087 
L 720.229735 239.690969 
L 721.402681 238.325235 
L 722.575626 236.636548 
L 723.748571 234.571277 
L 724.921517 232.074324 
L 726.22479 228.7276 
L 727.528062 224.711196 
L 728.831335 219.964816 
L 730.264935 213.845466 
L 731.698535 206.748769 
L 733.262462 197.882552 
L 734.956717 186.989737 
L 736.911626 172.883566 
L 739.12719 155.202802 
L 742.124717 129.279139 
L 748.380426 74.609859 
L 750.465662 58.567745 
L 752.159917 47.102847 
L 753.593517 38.741241 
L 754.89679 32.340877 
L 756.069735 27.636198 
L 757.112353 24.335813 
L 758.024644 22.148774 
L 758.806608 20.8029 
L 759.458244 20.056476 
L 760.109881 19.651112 
L 760.63119 19.571398 
L 761.152499 19.707539 
L 761.673808 20.05747 
L 762.325444 20.791426 
L 763.107408 22.098389 
L 763.889371 23.857158 
L 764.801662 26.457774 
L 765.844281 30.11513 
L 767.017226 35.038624 
L 768.450826 42.095734 
L 770.145081 51.679641 
L 772.230317 64.877249 
L 775.358171 86.332443 
L 780.70159 123.026706 
L 783.438462 140.169494 
L 785.784353 153.519179 
L 787.999917 164.895018 
L 790.085153 174.505831 
L 792.17039 183.093574 
L 794.255626 190.721399 
L 796.210535 197.068252 
L 798.165444 202.705219 
L 800.120353 207.699442 
L 802.075262 212.11578 
L 804.030171 216.015322 
L 806.115408 219.668802 
L 808.200644 222.860989 
L 810.285881 225.647993 
L 812.371117 228.07983 
L 814.586681 230.323984 
L 816.802244 232.263899 
L 819.148135 234.031543 
L 821.624353 235.623147 
L 824.230899 237.039772 
L 827.098099 238.340466 
L 830.225953 239.504487 
L 833.614462 240.521196 
L 837.393953 241.41611 
L 841.694753 242.195982 
L 846.64719 242.857702 
L 852.511917 243.406329 
L 859.679917 243.843128 
L 868.933153 244.172463 
L 881.965881 244.397568 
L 889.915844 244.464779 
L 889.915844 244.464779 
" clip-path="url(#p36607b489e)" style="fill: none; stroke: #2ca02c; stroke-width: 1.5; stroke-linecap: square"/>
   </g>
   <g id="line2d_81">
    <path d="M 746.425517 244.561714 
L 746.425517 19.657007 
" clip-path="url(#p36607b489e)" style="fill: none; stroke-dasharray: 1.5,2.475; stroke-dashoffset: 0; stroke: #ff7f0e; stroke-width: 1.5"/>
   </g>
   <g id="patch_13">
    <path d="M 616.228571 244.561714 
L 616.228571 18.840857 
" style="fill: none; stroke: #000000; stroke-width: 0.8; stroke-linejoin: miter; stroke-linecap: square"/>
   </g>
   <g id="patch_14">
    <path d="M 902.948571 244.561714 
L 902.948571 18.840857 
" style="fill: none; stroke: #000000; stroke-width: 0.8; stroke-linejoin: miter; stroke-linecap: square"/>
   </g>
   <g id="patch_15">
    <path d="M 616.228571 244.561714 
L 902.948571 244.561714 
" style="fill: none; stroke: #000000; stroke-width: 0.8; stroke-linejoin: miter; stroke-linecap: square"/>
   </g>
   <g id="patch_16">
    <path d="M 616.228571 18.840857 
L 902.948571 18.840857 
" style="fill: none; stroke: #000000; stroke-width: 0.8; stroke-linejoin: miter; stroke-linecap: square"/>
   </g>
   <g id="line2d_82">
    <path d="M 760.500862 244.561714 
L 760.500862 19.571023 
" clip-path="url(#p36607b489e)" style="fill: none; stroke-dasharray: 1.5,2.475; stroke-dashoffset: 0; stroke: #2ca02c; stroke-width: 1.5"/>
   </g>
   <g id="text_37">
    <!-- \(|\Delta\Gamma|(C_c)\) -->
    <g transform="translate(736.910302 12.840857) scale(0.12 -0.12)">
     <use xlink:href="#CMSY10-6a" transform="scale(0.996264)"/>
     <use xlink:href="#CMR17-1" transform="translate(27.674085 0) scale(0.996264)"/>
     <use xlink:href="#CMR17-0" transform="translate(104.593675 0) scale(0.996264)"/>
     <use xlink:href="#CMSY10-6a" transform="translate(161.975082 0) scale(0.996264)"/>
     <use xlink:href="#CMR17-28" transform="translate(189.649167 0) scale(0.996264)"/>
     <use xlink:href="#CMMI12-43" transform="translate(224.929935 0) scale(0.996264)"/>
     <use xlink:href="#CMMI12-63" transform="translate(294.721972 -14.943915) scale(0.697382)"/>
     <use xlink:href="#CMR17-29" transform="translate(324.608235 0) scale(0.996264)"/>
    </g>
   </g>
   <g id="legend_1">
    <g id="patch_17">
     <path d="M 817.269598 82.58957 
L 895.948571 82.58957 
Q 897.948571 82.58957 897.948571 80.58957 
L 897.948571 25.840857 
Q 897.948571 23.840857 895.948571 23.840857 
L 817.269598 23.840857 
Q 815.269598 23.840857 815.269598 25.840857 
L 815.269598 80.58957 
Q 815.269598 82.58957 817.269598 82.58957 
z
" style="fill: #ffffff; opacity: 0.8; stroke: #cccccc; stroke-linejoin: miter"/>
    </g>
    <g id="line2d_83">
     <path d="M 819.269598 31.340857 
L 829.269598 31.340857 
L 839.269598 31.340857 
" style="fill: none; stroke: #1f77b4; stroke-width: 1.5; stroke-linecap: square"/>
    </g>
    <g id="text_38">
     <!-- \(\lambda_t=1\) -->
     <g transform="translate(847.269598 34.840857) scale(0.1 -0.1)">
      <defs>
       <path id="CMMI12-74" d="M 1286 2566 
L 1875 2566 
C 1997 2566 2061 2566 2061 2681 
C 2061 2752 2022 2752 1894 2752 
L 1331 2752 
L 1568 3692 
C 1594 3781 1594 3794 1594 3840 
C 1594 3943 1510 4000 1427 4000 
C 1376 4000 1229 3981 1178 3775 
L 928 2752 
L 326 2752 
C 198 2752 141 2752 141 2630 
C 141 2566 186 2566 307 2566 
L 877 2566 
L 454 881 
C 403 658 384 594 384 511 
C 384 211 595 -64 954 -64 
C 1600 -64 1946 868 1946 912 
C 1946 951 1920 970 1882 970 
C 1869 970 1843 970 1830 944 
C 1824 938 1818 931 1773 829 
C 1638 511 1344 64 973 64 
C 781 64 768 224 768 364 
C 768 370 768 492 787 568 
L 1286 2566 
z
" transform="scale(0.015625)"/>
       <path id="CMR17-3d" d="M 4115 2017 
C 4211 2017 4307 2017 4307 2125 
C 4307 2240 4198 2240 4090 2240 
L 512 2240 
C 403 2240 294 2240 294 2125 
C 294 2017 390 2017 486 2017 
L 4115 2017 
z
M 4090 896 
C 4198 896 4307 896 4307 1011 
C 4307 1119 4211 1119 4115 1119 
L 486 1119 
C 390 1119 294 1119 294 1011 
C 294 896 403 896 512 896 
L 4090 896 
z
" transform="scale(0.015625)"/>
      </defs>
      <use xlink:href="#CMMI12-15" transform="scale(0.996264)"/>
      <use xlink:href="#CMMI12-74" transform="translate(56.904072 -14.943915) scale(0.697382)"/>
      <use xlink:href="#CMR17-3d" transform="translate(109.734522 0) scale(0.996264)"/>
      <use xlink:href="#CMR17-31" transform="translate(209.123319 0) scale(0.996264)"/>
     </g>
    </g>
    <g id="line2d_84">
     <path d="M 819.269598 45.278035 
L 829.269598 45.278035 
L 839.269598 45.278035 
" style="fill: none; stroke: #ff7f0e; stroke-width: 1.5; stroke-linecap: square"/>
    </g>
    <g id="text_39">
     <!-- \(\lambda_t=\lambda\) -->
     <g transform="translate(847.269598 48.778035) scale(0.1 -0.1)">
      <use xlink:href="#CMMI12-15" transform="scale(0.996264)"/>
      <use xlink:href="#CMMI12-74" transform="translate(56.904072 -14.943915) scale(0.697382)"/>
      <use xlink:href="#CMR17-3d" transform="translate(109.734522 0) scale(0.996264)"/>
      <use xlink:href="#CMMI12-15" transform="translate(209.123319 0) scale(0.996264)"/>
     </g>
    </g>
    <g id="line2d_85">
     <path d="M 819.269598 59.215214 
L 829.269598 59.215214 
L 839.269598 59.215214 
" style="fill: none; stroke: #2ca02c; stroke-width: 1.5; stroke-linecap: square"/>
    </g>
    <g id="text_40">
     <!-- \(\lambda&lt;\lambda_t&lt;1\) -->
     <g transform="translate(847.269598 62.715214) scale(0.1 -0.1)">
      <defs>
       <path id="CMMI12-3c" d="M 4218 3104 
C 4333 3155 4346 3200 4346 3238 
C 4346 3309 4294 3360 4224 3360 
C 4211 3360 4205 3353 4115 3315 
L 653 1719 
C 538 1667 525 1622 525 1584 
C 525 1539 531 1501 653 1442 
L 4115 -154 
C 4198 -192 4211 -192 4224 -192 
C 4294 -192 4346 -141 4346 -70 
C 4346 -32 4333 13 4218 64 
L 922 1581 
L 4218 3104 
z
" transform="scale(0.015625)"/>
      </defs>
      <use xlink:href="#CMMI12-15" transform="scale(0.996264)"/>
      <use xlink:href="#CMMI12-3c" transform="translate(84.578081 0) scale(0.996264)"/>
      <use xlink:href="#CMMI12-15" transform="translate(188.124185 0) scale(0.996264)"/>
      <use xlink:href="#CMMI12-74" transform="translate(245.028257 -14.943915) scale(0.697382)"/>
      <use xlink:href="#CMMI12-3c" transform="translate(297.858707 0) scale(0.996264)"/>
      <use xlink:href="#CMR17-31" transform="translate(401.404812 0) scale(0.996264)"/>
     </g>
    </g>
    <g id="line2d_86">
     <path d="M 819.269598 73.152392 
L 829.269598 73.152392 
L 839.269598 73.152392 
" style="fill: none; stroke: #d62728; stroke-width: 1.5; stroke-linecap: square"/>
    </g>
    <g id="text_41">
     <!-- \(\lambda=1\) -->
     <g transform="translate(847.269598 76.652392) scale(0.1 -0.1)">
      <use xlink:href="#CMMI12-15" transform="scale(0.996264)"/>
      <use xlink:href="#CMR17-3d" transform="translate(84.578081 0) scale(0.996264)"/>
      <use xlink:href="#CMR17-31" transform="translate(183.966878 0) scale(0.996264)"/>
     </g>
    </g>
   </g>
  </g>
  <g id="axes_4">
   <g id="patch_18">
    <path d="M 156.672 284.7186 
L 755.712 284.7186 
L 755.712 280.0638 
L 156.672 280.0638 
z
" clip-path="url(#p81c0a439de)" style="fill: #d3d3d3"/>
   </g>
   <g id="patch_19">
    <path d="M 156.672 284.7186 
L 456.192 284.7186 
L 456.192 280.0638 
L 156.672 280.0638 
z
" clip-path="url(#p81c0a439de)" style="fill: #1f77b4"/>
   </g>
   <g id="line2d_87">
    <path d="M 456.192 287.046 
L 456.192 277.7364 
" clip-path="url(#pd29952fe64)" style="fill: none; stroke: #ff0000; stroke-linecap: square"/>
   </g>
   <g id="line2d_88">
    <defs>
     <path id="m96ead365dd" d="M 0 5 
C 1.326016 5 2.597899 4.473168 3.535534 3.535534 
C 4.473168 2.597899 5 1.326016 5 0 
C 5 -1.326016 4.473168 -2.597899 3.535534 -3.535534 
C 2.597899 -4.473168 1.326016 -5 0 -5 
C -1.326016 -5 -2.597899 -4.473168 -3.535534 -3.535534 
C -4.473168 -2.597899 -5 -1.326016 -5 0 
C -5 1.326016 -4.473168 2.597899 -3.535534 3.535534 
C -2.597899 4.473168 -1.326016 5 0 5 
z
" style="stroke: #bfbfbf"/>
    </defs>
    <g>
     <use xlink:href="#m96ead365dd" x="456.192" y="282.3912" style="fill: #ffffff; stroke: #bfbfbf"/>
    </g>
   </g>
   <g id="text_42">
    <!-- \(\pi\) -->
    <g transform="translate(139.012225 284.88186) scale(0.1 -0.1)">
     <use xlink:href="#CMMI12-19" transform="scale(0.996264)"/>
    </g>
   </g>
   <g id="text_43">
    <!-- 1.00e+00 -->
    <g transform="translate(767.6928 284.88186) scale(0.1 -0.1)">
     <defs>
      <path id="CMR17-2e" d="M 1062 261 
C 1062 420 934 522 800 522 
C 672 522 538 420 538 261 
C 538 102 666 0 800 0 
C 928 0 1062 102 1062 261 
z
" transform="scale(0.015625)"/>
      <path id="CMR17-65" d="M 2438 1472 
C 2464 1498 2464 1511 2464 1576 
C 2464 2238 2118 2816 1389 2816 
C 710 2816 173 2169 173 1383 
C 173 551 781 -64 1459 -64 
C 2176 -64 2458 607 2458 740 
C 2458 784 2419 784 2406 784 
C 2362 784 2355 771 2330 696 
C 2189 265 1837 51 1504 51 
C 1229 51 954 203 781 480 
C 582 803 582 1176 582 1472 
L 2438 1472 
z
M 589 1568 
C 634 2505 1126 2714 1382 2714 
C 1818 2714 2112 2297 2118 1568 
L 589 1568 
z
" transform="scale(0.015625)"/>
      <path id="CMR17-2b" d="M 2413 1472 
L 4109 1472 
C 4198 1472 4307 1472 4307 1580 
C 4307 1695 4205 1695 4109 1695 
L 2413 1695 
L 2413 3386 
C 2413 3475 2413 3584 2304 3584 
C 2189 3584 2189 3482 2189 3386 
L 2189 1695 
L 493 1695 
C 403 1695 294 1695 294 1587 
C 294 1472 397 1472 493 1472 
L 2189 1472 
L 2189 -218 
C 2189 -307 2189 -416 2298 -416 
C 2413 -416 2413 -314 2413 -218 
L 2413 1472 
z
" transform="scale(0.015625)"/>
     </defs>
     <use xlink:href="#CMR17-31" transform="scale(0.996264)"/>
     <use xlink:href="#CMR17-2e" transform="translate(45.690477 0) scale(0.996264)"/>
     <use xlink:href="#CMR17-30" transform="translate(70.561536 0) scale(0.996264)"/>
     <use xlink:href="#CMR17-30" transform="translate(116.252013 0) scale(0.996264)"/>
     <use xlink:href="#CMR17-65" transform="translate(161.94249 0) scale(0.996264)"/>
     <use xlink:href="#CMR17-2b" transform="translate(202.42815 0) scale(0.996264)"/>
     <use xlink:href="#CMR17-30" transform="translate(274.142939 0) scale(0.996264)"/>
     <use xlink:href="#CMR17-30" transform="translate(319.833416 0) scale(0.996264)"/>
    </g>
   </g>
  </g>
  <g id="axes_5">
   <g id="patch_20">
    <path d="M 156.672 294.0282 
L 755.712 294.0282 
L 755.712 289.3734 
L 156.672 289.3734 
z
" clip-path="url(#p43f80a7302)" style="fill: #d3d3d3"/>
   </g>
   <g id="patch_21">
    <path d="M 156.672 294.0282 
L 156.672 294.0282 
L 156.672 289.3734 
L 156.672 289.3734 
z
" clip-path="url(#p43f80a7302)" style="fill: #1f77b4"/>
   </g>
   <g id="line2d_89">
    <path d="M 156.672 296.3556 
L 156.672 287.046 
" clip-path="url(#p165e3659e0)" style="fill: none; stroke: #ff0000; stroke-linecap: square"/>
   </g>
   <g id="line2d_90">
    <g>
     <use xlink:href="#m96ead365dd" x="156.672" y="291.7008" style="fill: #ffffff; stroke: #bfbfbf"/>
    </g>
   </g>
   <g id="text_44">
    <!-- \(\lambda\) -->
    <g transform="translate(138.879635 294.19146) scale(0.1 -0.1)">
     <use xlink:href="#CMMI12-15" transform="scale(0.996264)"/>
    </g>
   </g>
   <g id="text_45">
    <!-- 1.00e-01 -->
    <g transform="translate(767.6928 294.19146) scale(0.1 -0.1)">
     <defs>
      <path id="CMR17-2d" d="M 1632 1216 
L 1632 1496 
L 26 1496 
L 26 1216 
L 1632 1216 
z
" transform="scale(0.015625)"/>
     </defs>
     <use xlink:href="#CMR17-31" transform="scale(0.996264)"/>
     <use xlink:href="#CMR17-2e" transform="translate(45.690477 0) scale(0.996264)"/>
     <use xlink:href="#CMR17-30" transform="translate(70.561536 0) scale(0.996264)"/>
     <use xlink:href="#CMR17-30" transform="translate(116.252013 0) scale(0.996264)"/>
     <use xlink:href="#CMR17-65" transform="translate(161.94249 0) scale(0.996264)"/>
     <use xlink:href="#CMR17-2d" transform="translate(202.42815 0) scale(0.996264)"/>
     <use xlink:href="#CMR17-30" transform="translate(232.504117 0) scale(0.996264)"/>
     <use xlink:href="#CMR17-31" transform="translate(278.194594 0) scale(0.996264)"/>
    </g>
   </g>
  </g>
  <g id="axes_6">
   <g id="patch_22">
    <path d="M 156.672 303.3378 
L 755.712 303.3378 
L 755.712 298.683 
L 156.672 298.683 
z
" clip-path="url(#p8ff671061d)" style="fill: #d3d3d3"/>
   </g>
   <g id="patch_23">
    <path d="M 156.672 303.3378 
L 456.192 303.3378 
L 456.192 298.683 
L 156.672 298.683 
z
" clip-path="url(#p8ff671061d)" style="fill: #1f77b4"/>
   </g>
   <g id="line2d_91">
    <path d="M 456.192 305.6652 
L 456.192 296.3556 
" clip-path="url(#p7f589d9372)" style="fill: none; stroke: #ff0000; stroke-linecap: square"/>
   </g>
   <g id="line2d_92">
    <g>
     <use xlink:href="#m96ead365dd" x="456.192" y="301.0104" style="fill: #ffffff; stroke: #bfbfbf"/>
    </g>
   </g>
   <g id="text_46">
    <!-- \(\lambda_t\) -->
    <g transform="translate(135.870077 303.50106) scale(0.1 -0.1)">
     <use xlink:href="#CMMI12-15" transform="scale(0.996264)"/>
     <use xlink:href="#CMMI12-74" transform="translate(56.904072 -14.943915) scale(0.697382)"/>
    </g>
   </g>
   <g id="text_47">
    <!-- 3.16e-01 -->
    <g transform="translate(767.6928 303.50106) scale(0.1 -0.1)">
     <use xlink:href="#CMR17-33" transform="scale(0.996264)"/>
     <use xlink:href="#CMR17-2e" transform="translate(45.690477 0) scale(0.996264)"/>
     <use xlink:href="#CMR17-31" transform="translate(70.561536 0) scale(0.996264)"/>
     <use xlink:href="#CMR17-36" transform="translate(116.252013 0) scale(0.996264)"/>
     <use xlink:href="#CMR17-65" transform="translate(161.94249 0) scale(0.996264)"/>
     <use xlink:href="#CMR17-2d" transform="translate(202.42815 0) scale(0.996264)"/>
     <use xlink:href="#CMR17-30" transform="translate(232.504117 0) scale(0.996264)"/>
     <use xlink:href="#CMR17-31" transform="translate(278.194594 0) scale(0.996264)"/>
    </g>
   </g>
  </g>
  <g id="axes_7">
   <g id="patch_24">
    <path d="M 18.432 297.9072 
L 110.592 297.9072 
L 110.592 285.4944 
L 18.432 285.4944 
z
" style="fill: #d9d9d9"/>
   </g>
   <g id="matplotlib.axis_7"/>
   <g id="matplotlib.axis_8"/>
   <g id="patch_25">
    <path d="M 18.432 297.9072 
L 18.432 285.4944 
" style="fill: none; stroke: #000000; stroke-width: 0.8; stroke-linejoin: miter; stroke-linecap: square"/>
   </g>
   <g id="patch_26">
    <path d="M 110.592 297.9072 
L 110.592 285.4944 
" style="fill: none; stroke: #000000; stroke-width: 0.8; stroke-linejoin: miter; stroke-linecap: square"/>
   </g>
   <g id="patch_27">
    <path d="M 18.432 297.9072 
L 110.592 297.9072 
" style="fill: none; stroke: #000000; stroke-width: 0.8; stroke-linejoin: miter; stroke-linecap: square"/>
   </g>
   <g id="patch_28">
    <path d="M 18.432 285.4944 
L 110.592 285.4944 
" style="fill: none; stroke: #000000; stroke-width: 0.8; stroke-linejoin: miter; stroke-linecap: square"/>
   </g>
   <g id="text_48">
    <!-- Reset -->
    <g transform="translate(52.515316 294.19146) scale(0.1 -0.1)">
     <defs>
      <path id="CMR17-52" d="M 2509 2146 
C 3117 2268 3629 2676 3629 3186 
C 3629 3785 2950 4326 2054 4326 
L 333 4326 
L 333 4160 
C 774 4160 845 4160 845 3873 
L 845 415 
C 845 128 774 128 333 128 
L 333 -26 
C 518 -26 851 -26 1050 -26 
C 1248 -26 1581 -26 1766 -26 
L 1766 128 
C 1325 128 1254 128 1254 417 
L 1254 2112 
L 2003 2112 
C 2368 2112 2573 1964 2662 1881 
C 2918 1632 2918 1459 2918 1024 
C 2918 595 2918 377 3110 160 
C 3354 -102 3680 -128 3821 -128 
C 4294 -128 4365 396 4365 503 
C 4365 540 4365 585 4307 585 
C 4256 585 4250 547 4250 522 
C 4218 112 4032 -26 3834 -26 
C 3482 -26 3443 375 3405 764 
C 3386 898 3373 993 3360 1133 
C 3322 1452 3270 1917 2509 2146 
z
M 1984 2214 
L 1254 2214 
L 1254 3913 
C 1254 4129 1267 4160 1523 4160 
L 1990 4160 
C 2522 4160 3142 3977 3142 3190 
C 3142 2372 2464 2214 1984 2214 
z
" transform="scale(0.015625)"/>
      <path id="CMR17-73" d="M 1978 2697 
C 1978 2813 1971 2819 1933 2819 
C 1907 2819 1901 2813 1824 2717 
C 1805 2691 1747 2626 1728 2601 
C 1523 2819 1235 2819 1126 2819 
C 416 2819 160 2447 160 2076 
C 160 1498 813 1365 998 1325 
C 1402 1243 1542 1217 1677 1101 
C 1760 1025 1901 884 1901 654 
C 1901 384 1747 38 1158 38 
C 602 38 403 460 288 1021 
C 269 1110 269 1117 218 1117 
C 166 1117 160 1110 160 983 
L 160 63 
C 160 -51 166 -58 205 -58 
C 237 -58 243 -51 275 0 
C 314 57 410 211 448 276 
C 576 103 800 -64 1158 -64 
C 1792 -64 2131 283 2131 784 
C 2131 1112 1958 1285 1875 1362 
C 1683 1561 1459 1606 1190 1657 
C 838 1735 390 1825 390 2217 
C 390 2383 480 2737 1126 2737 
C 1811 2737 1850 2094 1862 1888 
C 1869 1856 1901 1849 1920 1849 
C 1978 1849 1978 1869 1978 1978 
L 1978 2697 
z
" transform="scale(0.015625)"/>
      <path id="CMR17-74" d="M 966 2560 
L 1862 2560 
L 1862 2725 
L 966 2725 
L 966 3904 
L 851 3904 
C 838 3245 614 2668 70 2668 
L 70 2560 
L 627 2560 
L 627 771 
C 627 650 627 -64 1370 -64 
C 1747 -64 1965 306 1965 777 
L 1965 1140 
L 1850 1140 
L 1850 783 
C 1850 344 1677 51 1408 51 
C 1222 51 966 178 966 758 
L 966 2560 
z
" transform="scale(0.015625)"/>
     </defs>
     <use xlink:href="#CMR17-52" transform="scale(0.996264)"/>
     <use xlink:href="#CMR17-65" transform="translate(67.791102 0) scale(0.996264)"/>
     <use xlink:href="#CMR17-73" transform="translate(108.276762 0) scale(0.996264)"/>
     <use xlink:href="#CMR17-65" transform="translate(144.0781 0) scale(0.996264)"/>
     <use xlink:href="#CMR17-74" transform="translate(184.563761 0) scale(0.996264)"/>
    </g>
   </g>
  </g>
 </g>
 <defs>
  <clipPath id="p70e9b4e7b0">
   <rect x="42.788571" y="18.840857" width="286.72" height="225.720857"/>
  </clipPath>
  <clipPath id="p45aeafc331">
   <rect x="329.508571" y="18.840857" width="286.72" height="225.720857"/>
  </clipPath>
  <clipPath id="p36607b489e">
   <rect x="616.228571" y="18.840857" width="286.72" height="225.720857"/>
  </clipPath>
  <clipPath id="p81c0a439de">
   <rect x="156.672" y="277.7364" width="599.04" height="9.3096"/>
  </clipPath>
  <clipPath id="pd29952fe64">
   <path d="M 156.672 284.7186 
L 755.712 284.7186 
L 755.712 280.0638 
L 156.672 280.0638 
z
"/>
  </clipPath>
  <clipPath id="p43f80a7302">
   <rect x="156.672" y="287.046" width="599.04" height="9.3096"/>
  </clipPath>
  <clipPath id="p165e3659e0">
   <path d="M 156.672 294.0282 
L 755.712 294.0282 
L 755.712 289.3734 
L 156.672 289.3734 
z
"/>
  </clipPath>
  <clipPath id="p8ff671061d">
   <rect x="156.672" y="296.3556" width="599.04" height="9.3096"/>
  </clipPath>
  <clipPath id="p7f589d9372">
   <path d="M 156.672 303.3378 
L 755.712 303.3378 
L 755.712 298.683 
L 156.672 298.683 
z
"/>
  </clipPath>
 </defs>
</svg>
