<?xml version="1.0" encoding="utf-8" standalone="no"?>
<!DOCTYPE svg PUBLIC "-//W3C//DTD SVG 1.1//EN"
  "http://www.w3.org/Graphics/SVG/1.1/DTD/svg11.dtd">
<svg xmlns:xlink="http://www.w3.org/1999/xlink" width="542.16pt" height="285.84pt" viewBox="0 0 542.16 285.84" xmlns="http://www.w3.org/2000/svg" version="1.1">
 <metadata>
  <rdf:RDF xmlns:dc="http://purl.org/dc/elements/1.1/" xmlns:cc="http://creativecommons.org/ns#" xmlns:rdf="http://www.w3.org/1999/02/22-rdf-syntax-ns#">
   <cc:Work>
    <dc:type rdf:resource="http://purl.org/dc/dcmitype/StillImage"/>
    <dc:date>2024-09-02T23:47:27.980788</dc:date>
    <dc:format>image/svg+xml</dc:format>
    <dc:creator>
     <cc:Agent>
      <dc:title>Matplotlib v3.9.0, https://matplotlib.org/</dc:title>
     </cc:Agent>
    </dc:creator>
   </cc:Work>
  </rdf:RDF>
 </metadata>
 <defs>
  <style type="text/css">*{stroke-linejoin: round; stroke-linecap: butt}</style>
 </defs>
 <g id="figure_1">
  <g id="patch_1">
   <path d="M 0 285.84 
L 542.16 285.84 
L 542.16 0 
L 0 0 
z
" style="fill: #ffffff"/>
  </g>
  <g id="axes_1">
   <g id="patch_2">
    <path d="M 46.470857 230.67288 
L 530.77464 230.67288 
L 530.77464 12.57696 
L 46.470857 12.57696 
z
" style="fill: #ffffff"/>
   </g>
   <g id="line2d_1">
    <path d="M 68.484665 211.765747 
L 100.184549 211.6176 
L 113.524917 211.346318 
L 122.286413 210.956728 
L 128.890555 210.448329 
L 134.217897 209.821116 
L 138.708714 209.073451 
L 142.627172 208.199294 
L 146.105354 207.200518 
L 149.275342 206.064637 
L 152.225192 204.776588 
L 155.04296 203.30413 
L 157.728644 201.650371 
L 160.370301 199.758381 
L 162.967931 197.617689 
L 165.521532 195.222796 
L 168.075134 192.524959 
L 170.716791 189.404709 
L 173.358448 185.94518 
L 176.132188 181.951135 
L 179.126066 177.238984 
L 182.340082 171.747874 
L 185.774236 165.438291 
L 189.824777 157.504247 
L 194.75587 147.309921 
L 202.020427 131.72001 
L 212.278861 109.855705 
L 217.253982 99.789185 
L 221.480633 91.680956 
L 225.883395 83.756557 
L 229.66977 77.421541 
L 233.191979 71.960126 
L 236.582106 67.119458 
L 239.620011 63.143526 
L 242.613889 59.569771 
L 245.519712 56.441423 
L 248.381507 53.69748 
L 251.111219 51.402644 
L 253.532738 49.639925 
L 255.822174 48.21722 
L 258.155638 47.022444 
L 260.312991 46.155539 
L 262.382289 45.548784 
L 264.319504 45.187132 
L 266.344775 45.034805 
L 268.193934 45.10355 
L 269.999067 45.371443 
L 271.848227 45.859028 
L 273.697387 46.570595 
L 275.502519 47.488602 
L 277.483762 48.757775 
L 279.509032 50.347851 
L 281.446247 52.148227 
L 283.559573 54.430922 
L 285.672898 57.043275 
L 287.786224 59.984336 
L 290.295798 63.889518 
L 292.805372 68.224722 
L 295.491057 73.299679 
L 298.617018 79.709813 
L 302.051172 87.263885 
L 307.07032 98.983961 
L 323.712759 138.280593 
L 327.234968 145.857462 
L 330.845233 153.169313 
L 334.719663 160.468648 
L 338.021734 166.223295 
L 341.103668 171.205871 
L 344.75796 176.63609 
L 347.619755 180.540683 
L 350.701688 184.410534 
L 354.311953 188.53107 
L 357.922217 192.234646 
L 360.82804 194.935861 
L 363.954001 197.578801 
L 367.608293 200.353182 
L 371.438695 202.929384 
L 374.696739 204.880529 
L 378.615197 206.959826 
L 382.137406 208.609848 
L 386.628223 210.444404 
L 391.295151 212.071467 
L 396.402354 213.574073 
L 401.421502 214.808595 
L 407.365231 216.013651 
L 413.308959 216.987685 
L 420.353378 217.902117 
L 427.838072 218.648759 
L 436.423458 219.287362 
L 446.593837 219.82177 
L 459.449901 220.257792 
L 475.211788 220.556009 
L 497.269624 220.727507 
L 508.760832 220.759429 
L 508.760832 220.759429 
" clip-path="url(#p01ce154e2f)" style="fill: none; stroke: #1f77b4; stroke-width: 1.5; stroke-linecap: square"/>
   </g>
   <g id="matplotlib.axis_1">
    <g id="xtick_1">
     <g id="line2d_2">
      <defs>
       <path id="mab1b05d3cc" d="M 0 0 
L 0 3.5 
" style="stroke: #000000; stroke-width: 0.8"/>
      </defs>
      <g>
       <use xlink:href="#mab1b05d3cc" x="99.932963" y="230.67288" style="stroke: #000000; stroke-width: 0.8"/>
      </g>
     </g>
     <g id="text_1">
      <!-- $\mathdefault{10^{-6}}$ -->
      <g transform="translate(89.852676 244.591378) scale(0.1 -0.1)">
       <defs>
        <path id="CMR17-31" d="M 1702 4058 
C 1702 4192 1696 4192 1606 4192 
C 1357 3916 979 3827 621 3827 
C 602 3827 570 3827 563 3808 
C 557 3795 557 3782 557 3648 
C 755 3648 1088 3686 1344 3839 
L 1344 461 
C 1344 236 1331 160 781 160 
L 589 160 
L 589 0 
C 896 0 1216 0 1523 0 
C 1830 0 2150 0 2458 0 
L 2458 160 
L 2266 160 
C 1715 160 1702 230 1702 458 
L 1702 4058 
z
" transform="scale(0.015625)"/>
        <path id="CMR17-30" d="M 2688 2025 
C 2688 2416 2682 3080 2413 3591 
C 2176 4039 1798 4198 1466 4198 
C 1158 4198 768 4058 525 3597 
C 269 3118 243 2524 243 2025 
C 243 1661 250 1106 448 619 
C 723 -39 1216 -128 1466 -128 
C 1760 -128 2208 -7 2470 600 
C 2662 1042 2688 1559 2688 2025 
z
M 1466 -26 
C 1056 -26 813 325 723 812 
C 653 1188 653 1738 653 2096 
C 653 2588 653 2997 736 3387 
C 858 3929 1216 4096 1466 4096 
C 1728 4096 2067 3923 2189 3400 
C 2272 3036 2278 2607 2278 2096 
C 2278 1680 2278 1169 2202 792 
C 2067 95 1690 -26 1466 -26 
z
" transform="scale(0.015625)"/>
        <path id="CMSY10-0" d="M 4218 1472 
C 4326 1472 4442 1472 4442 1600 
C 4442 1728 4326 1728 4218 1728 
L 755 1728 
C 646 1728 531 1728 531 1600 
C 531 1472 646 1472 755 1472 
L 4218 1472 
z
" transform="scale(0.015625)"/>
        <path id="CMR17-36" d="M 678 2176 
C 678 3690 1395 4032 1811 4032 
C 1946 4032 2272 4009 2400 3776 
C 2298 3776 2106 3776 2106 3553 
C 2106 3381 2246 3323 2336 3323 
C 2394 3323 2566 3348 2566 3560 
C 2566 3954 2246 4179 1805 4179 
C 1043 4179 243 3390 243 1984 
C 243 253 966 -128 1478 -128 
C 2099 -128 2688 427 2688 1283 
C 2688 2081 2170 2662 1517 2662 
C 1126 2662 838 2407 678 1960 
L 678 2176 
z
M 1478 25 
C 691 25 691 1200 691 1436 
C 691 1896 909 2560 1504 2560 
C 1613 2560 1926 2560 2138 2120 
C 2253 1870 2253 1609 2253 1289 
C 2253 944 2253 690 2118 434 
C 1978 171 1773 25 1478 25 
z
" transform="scale(0.015625)"/>
       </defs>
       <use xlink:href="#CMR17-31" transform="scale(0.996264)"/>
       <use xlink:href="#CMR17-30" transform="translate(45.690477 0) scale(0.996264)"/>
       <use xlink:href="#CMSY10-0" transform="translate(91.380954 36.153639) scale(0.697382)"/>
       <use xlink:href="#CMR17-36" transform="translate(145.621947 36.153639) scale(0.697382)"/>
      </g>
     </g>
    </g>
    <g id="xtick_2">
     <g id="line2d_3">
      <g>
       <use xlink:href="#mab1b05d3cc" x="162.829558" y="230.67288" style="stroke: #000000; stroke-width: 0.8"/>
      </g>
     </g>
     <g id="text_2">
      <!-- $\mathdefault{10^{-4}}$ -->
      <g transform="translate(152.749272 244.591378) scale(0.1 -0.1)">
       <defs>
        <path id="CMR17-34" d="M 2150 4122 
C 2150 4256 2144 4256 2029 4256 
L 128 1254 
L 128 1088 
L 1779 1088 
L 1779 457 
C 1779 224 1766 160 1318 160 
L 1197 160 
L 1197 0 
C 1402 0 1747 0 1965 0 
C 2182 0 2528 0 2733 0 
L 2733 160 
L 2611 160 
C 2163 160 2150 224 2150 457 
L 2150 1088 
L 2803 1088 
L 2803 1254 
L 2150 1254 
L 2150 4122 
z
M 1798 3703 
L 1798 1254 
L 256 1254 
L 1798 3703 
z
" transform="scale(0.015625)"/>
       </defs>
       <use xlink:href="#CMR17-31" transform="scale(0.996264)"/>
       <use xlink:href="#CMR17-30" transform="translate(45.690477 0) scale(0.996264)"/>
       <use xlink:href="#CMSY10-0" transform="translate(91.380954 36.153639) scale(0.697382)"/>
       <use xlink:href="#CMR17-34" transform="translate(145.621947 36.153639) scale(0.697382)"/>
      </g>
     </g>
    </g>
    <g id="xtick_3">
     <g id="line2d_4">
      <g>
       <use xlink:href="#mab1b05d3cc" x="225.726153" y="230.67288" style="stroke: #000000; stroke-width: 0.8"/>
      </g>
     </g>
     <g id="text_3">
      <!-- $\mathdefault{10^{-2}}$ -->
      <g transform="translate(215.645867 244.591378) scale(0.1 -0.1)">
       <defs>
        <path id="CMR17-32" d="M 2669 989 
L 2554 989 
C 2490 536 2438 459 2413 420 
C 2381 369 1920 369 1830 369 
L 602 369 
C 832 619 1280 1072 1824 1597 
C 2214 1967 2669 2402 2669 3035 
C 2669 3790 2067 4224 1395 4224 
C 691 4224 262 3604 262 3030 
C 262 2780 448 2748 525 2748 
C 589 2748 781 2787 781 3010 
C 781 3207 614 3264 525 3264 
C 486 3264 448 3258 422 3245 
C 544 3790 915 4058 1306 4058 
C 1862 4058 2227 3617 2227 3035 
C 2227 2479 1901 2000 1536 1584 
L 262 146 
L 262 0 
L 2515 0 
L 2669 989 
z
" transform="scale(0.015625)"/>
       </defs>
       <use xlink:href="#CMR17-31" transform="scale(0.996264)"/>
       <use xlink:href="#CMR17-30" transform="translate(45.690477 0) scale(0.996264)"/>
       <use xlink:href="#CMSY10-0" transform="translate(91.380954 36.153639) scale(0.697382)"/>
       <use xlink:href="#CMR17-32" transform="translate(145.621947 36.153639) scale(0.697382)"/>
      </g>
     </g>
    </g>
    <g id="xtick_4">
     <g id="line2d_5">
      <g>
       <use xlink:href="#mab1b05d3cc" x="288.622749" y="230.67288" style="stroke: #000000; stroke-width: 0.8"/>
      </g>
     </g>
     <g id="text_4">
      <!-- $\mathdefault{10^{0}}$ -->
      <g transform="translate(281.655795 244.591378) scale(0.1 -0.1)">
       <use xlink:href="#CMR17-31" transform="scale(0.996264)"/>
       <use xlink:href="#CMR17-30" transform="translate(45.690477 0) scale(0.996264)"/>
       <use xlink:href="#CMR17-30" transform="translate(91.380954 36.153639) scale(0.697382)"/>
      </g>
     </g>
    </g>
    <g id="xtick_5">
     <g id="line2d_6">
      <g>
       <use xlink:href="#mab1b05d3cc" x="351.519344" y="230.67288" style="stroke: #000000; stroke-width: 0.8"/>
      </g>
     </g>
     <g id="text_5">
      <!-- $\mathdefault{10^{2}}$ -->
      <g transform="translate(344.55239 244.591378) scale(0.1 -0.1)">
       <use xlink:href="#CMR17-31" transform="scale(0.996264)"/>
       <use xlink:href="#CMR17-30" transform="translate(45.690477 0) scale(0.996264)"/>
       <use xlink:href="#CMR17-32" transform="translate(91.380954 36.153639) scale(0.697382)"/>
      </g>
     </g>
    </g>
    <g id="xtick_6">
     <g id="line2d_7">
      <g>
       <use xlink:href="#mab1b05d3cc" x="414.415939" y="230.67288" style="stroke: #000000; stroke-width: 0.8"/>
      </g>
     </g>
     <g id="text_6">
      <!-- $\mathdefault{10^{4}}$ -->
      <g transform="translate(407.448985 244.591378) scale(0.1 -0.1)">
       <use xlink:href="#CMR17-31" transform="scale(0.996264)"/>
       <use xlink:href="#CMR17-30" transform="translate(45.690477 0) scale(0.996264)"/>
       <use xlink:href="#CMR17-34" transform="translate(91.380954 36.153639) scale(0.697382)"/>
      </g>
     </g>
    </g>
    <g id="xtick_7">
     <g id="line2d_8">
      <g>
       <use xlink:href="#mab1b05d3cc" x="477.312534" y="230.67288" style="stroke: #000000; stroke-width: 0.8"/>
      </g>
     </g>
     <g id="text_7">
      <!-- $\mathdefault{10^{6}}$ -->
      <g transform="translate(470.34558 244.591378) scale(0.1 -0.1)">
       <use xlink:href="#CMR17-31" transform="scale(0.996264)"/>
       <use xlink:href="#CMR17-30" transform="translate(45.690477 0) scale(0.996264)"/>
       <use xlink:href="#CMR17-36" transform="translate(91.380954 36.153639) scale(0.697382)"/>
      </g>
     </g>
    </g>
    <g id="text_8">
     <!-- \(\pi\) -->
     <g transform="translate(285.783261 257.447055) scale(0.1 -0.1)">
      <defs>
       <path id="CMMI12-19" d="M 1658 2408 
L 2381 2408 
C 2208 1692 2099 1226 2099 716 
C 2099 626 2099 -64 2362 -64 
C 2496 -64 2611 57 2611 166 
C 2611 197 2611 210 2566 306 
C 2394 747 2394 1296 2394 1341 
C 2394 1379 2394 1832 2528 2408 
L 3245 2408 
C 3328 2408 3539 2408 3539 2612 
C 3539 2752 3418 2752 3302 2752 
L 1197 2752 
C 1050 2752 832 2752 538 2440 
C 371 2254 166 1916 166 1878 
C 166 1840 198 1827 237 1827 
C 282 1827 288 1846 320 1884 
C 653 2408 986 2408 1146 2408 
L 1510 2408 
C 1370 1929 1210 1373 685 256 
C 634 154 634 140 634 102 
C 634 -32 749 -64 806 -64 
C 992 -64 1043 102 1120 370 
C 1222 696 1222 709 1286 964 
L 1658 2408 
z
" transform="scale(0.015625)"/>
      </defs>
      <use xlink:href="#CMMI12-19" transform="scale(0.996264)"/>
     </g>
    </g>
   </g>
   <g id="matplotlib.axis_2">
    <g id="ytick_1">
     <g id="line2d_9">
      <path d="M 46.470857 211.781892 
L 530.77464 211.781892 
" clip-path="url(#p01ce154e2f)" style="fill: none; stroke: #b0b0b0; stroke-width: 0.8; stroke-linecap: square"/>
     </g>
     <g id="line2d_10">
      <defs>
       <path id="mc295e8b4ae" d="M 0 0 
L -3.5 0 
" style="stroke: #000000; stroke-width: 0.8"/>
      </defs>
      <g>
       <use xlink:href="#mc295e8b4ae" x="46.470857" y="211.781892" style="stroke: #000000; stroke-width: 0.8"/>
      </g>
     </g>
     <g id="text_9">
      <!-- $\mathdefault{0.00}$ -->
      <g transform="translate(21.759443 215.241141) scale(0.1 -0.1)">
       <defs>
        <path id="CMMI12-3a" d="M 1178 307 
C 1178 492 1024 619 870 619 
C 685 619 557 466 557 313 
C 557 128 710 0 864 0 
C 1050 0 1178 153 1178 307 
z
" transform="scale(0.015625)"/>
       </defs>
       <use xlink:href="#CMR17-30" transform="scale(0.996264)"/>
       <use xlink:href="#CMMI12-3a" transform="translate(45.690477 0) scale(0.996264)"/>
       <use xlink:href="#CMR17-30" transform="translate(72.787654 0) scale(0.996264)"/>
       <use xlink:href="#CMR17-30" transform="translate(118.478131 0) scale(0.996264)"/>
      </g>
     </g>
    </g>
    <g id="ytick_2">
     <g id="line2d_11">
      <path d="M 46.470857 187.114458 
L 530.77464 187.114458 
" clip-path="url(#p01ce154e2f)" style="fill: none; stroke: #b0b0b0; stroke-width: 0.8; stroke-linecap: square"/>
     </g>
     <g id="line2d_12">
      <g>
       <use xlink:href="#mc295e8b4ae" x="46.470857" y="187.114458" style="stroke: #000000; stroke-width: 0.8"/>
      </g>
     </g>
     <g id="text_10">
      <!-- $\mathdefault{0.25}$ -->
      <g transform="translate(21.759443 190.573707) scale(0.1 -0.1)">
       <defs>
        <path id="CMR17-35" d="M 730 3692 
C 794 3666 1056 3584 1325 3584 
C 1920 3584 2246 3911 2432 4100 
C 2432 4157 2432 4192 2394 4192 
C 2387 4192 2374 4192 2323 4163 
C 2099 4058 1837 3973 1517 3973 
C 1325 3973 1037 3999 723 4139 
C 653 4171 640 4171 634 4171 
C 602 4171 595 4164 595 4037 
L 595 2203 
C 595 2089 595 2057 659 2057 
C 691 2057 704 2070 736 2114 
C 941 2401 1222 2522 1542 2522 
C 1766 2522 2246 2382 2246 1289 
C 2246 1085 2246 715 2054 421 
C 1894 159 1645 25 1370 25 
C 947 25 518 320 403 814 
C 429 807 480 795 506 795 
C 589 795 749 840 749 1038 
C 749 1210 627 1280 506 1280 
C 358 1280 262 1190 262 1011 
C 262 454 704 -128 1382 -128 
C 2042 -128 2669 440 2669 1264 
C 2669 2030 2170 2624 1549 2624 
C 1222 2624 947 2503 730 2274 
L 730 3692 
z
" transform="scale(0.015625)"/>
       </defs>
       <use xlink:href="#CMR17-30" transform="scale(0.996264)"/>
       <use xlink:href="#CMMI12-3a" transform="translate(45.690477 0) scale(0.996264)"/>
       <use xlink:href="#CMR17-32" transform="translate(72.787654 0) scale(0.996264)"/>
       <use xlink:href="#CMR17-35" transform="translate(118.478131 0) scale(0.996264)"/>
      </g>
     </g>
    </g>
    <g id="ytick_3">
     <g id="line2d_13">
      <path d="M 46.470857 162.447023 
L 530.77464 162.447023 
" clip-path="url(#p01ce154e2f)" style="fill: none; stroke: #b0b0b0; stroke-width: 0.8; stroke-linecap: square"/>
     </g>
     <g id="line2d_14">
      <g>
       <use xlink:href="#mc295e8b4ae" x="46.470857" y="162.447023" style="stroke: #000000; stroke-width: 0.8"/>
      </g>
     </g>
     <g id="text_11">
      <!-- $\mathdefault{0.50}$ -->
      <g transform="translate(21.759443 165.906273) scale(0.1 -0.1)">
       <use xlink:href="#CMR17-30" transform="scale(0.996264)"/>
       <use xlink:href="#CMMI12-3a" transform="translate(45.690477 0) scale(0.996264)"/>
       <use xlink:href="#CMR17-35" transform="translate(72.787654 0) scale(0.996264)"/>
       <use xlink:href="#CMR17-30" transform="translate(118.478131 0) scale(0.996264)"/>
      </g>
     </g>
    </g>
    <g id="ytick_4">
     <g id="line2d_15">
      <path d="M 46.470857 137.779589 
L 530.77464 137.779589 
" clip-path="url(#p01ce154e2f)" style="fill: none; stroke: #b0b0b0; stroke-width: 0.8; stroke-linecap: square"/>
     </g>
     <g id="line2d_16">
      <g>
       <use xlink:href="#mc295e8b4ae" x="46.470857" y="137.779589" style="stroke: #000000; stroke-width: 0.8"/>
      </g>
     </g>
     <g id="text_12">
      <!-- $\mathdefault{0.75}$ -->
      <g transform="translate(21.759443 141.238838) scale(0.1 -0.1)">
       <defs>
        <path id="CMR17-37" d="M 2886 3941 
L 2886 4081 
L 1382 4081 
C 634 4081 621 4165 595 4288 
L 480 4288 
L 294 3094 
L 410 3094 
C 429 3215 474 3540 550 3661 
C 589 3712 1062 3712 1171 3712 
L 2579 3712 
L 1869 2661 
C 1395 1954 1069 999 1069 165 
C 1069 89 1069 -128 1299 -128 
C 1530 -128 1530 89 1530 171 
L 1530 465 
C 1530 1508 1709 2196 2003 2636 
L 2886 3941 
z
" transform="scale(0.015625)"/>
       </defs>
       <use xlink:href="#CMR17-30" transform="scale(0.996264)"/>
       <use xlink:href="#CMMI12-3a" transform="translate(45.690477 0) scale(0.996264)"/>
       <use xlink:href="#CMR17-37" transform="translate(72.787654 0) scale(0.996264)"/>
       <use xlink:href="#CMR17-35" transform="translate(118.478131 0) scale(0.996264)"/>
      </g>
     </g>
    </g>
    <g id="ytick_5">
     <g id="line2d_17">
      <path d="M 46.470857 113.112155 
L 530.77464 113.112155 
" clip-path="url(#p01ce154e2f)" style="fill: none; stroke: #b0b0b0; stroke-width: 0.8; stroke-linecap: square"/>
     </g>
     <g id="line2d_18">
      <g>
       <use xlink:href="#mc295e8b4ae" x="46.470857" y="113.112155" style="stroke: #000000; stroke-width: 0.8"/>
      </g>
     </g>
     <g id="text_13">
      <!-- $\mathdefault{1.00}$ -->
      <g transform="translate(21.759443 116.571404) scale(0.1 -0.1)">
       <use xlink:href="#CMR17-31" transform="scale(0.996264)"/>
       <use xlink:href="#CMMI12-3a" transform="translate(45.690477 0) scale(0.996264)"/>
       <use xlink:href="#CMR17-30" transform="translate(72.787654 0) scale(0.996264)"/>
       <use xlink:href="#CMR17-30" transform="translate(118.478131 0) scale(0.996264)"/>
      </g>
     </g>
    </g>
    <g id="ytick_6">
     <g id="line2d_19">
      <path d="M 46.470857 88.444721 
L 530.77464 88.444721 
" clip-path="url(#p01ce154e2f)" style="fill: none; stroke: #b0b0b0; stroke-width: 0.8; stroke-linecap: square"/>
     </g>
     <g id="line2d_20">
      <g>
       <use xlink:href="#mc295e8b4ae" x="46.470857" y="88.444721" style="stroke: #000000; stroke-width: 0.8"/>
      </g>
     </g>
     <g id="text_14">
      <!-- $\mathdefault{1.25}$ -->
      <g transform="translate(21.759443 91.90397) scale(0.1 -0.1)">
       <use xlink:href="#CMR17-31" transform="scale(0.996264)"/>
       <use xlink:href="#CMMI12-3a" transform="translate(45.690477 0) scale(0.996264)"/>
       <use xlink:href="#CMR17-32" transform="translate(72.787654 0) scale(0.996264)"/>
       <use xlink:href="#CMR17-35" transform="translate(118.478131 0) scale(0.996264)"/>
      </g>
     </g>
    </g>
    <g id="ytick_7">
     <g id="line2d_21">
      <path d="M 46.470857 63.777287 
L 530.77464 63.777287 
" clip-path="url(#p01ce154e2f)" style="fill: none; stroke: #b0b0b0; stroke-width: 0.8; stroke-linecap: square"/>
     </g>
     <g id="line2d_22">
      <g>
       <use xlink:href="#mc295e8b4ae" x="46.470857" y="63.777287" style="stroke: #000000; stroke-width: 0.8"/>
      </g>
     </g>
     <g id="text_15">
      <!-- $\mathdefault{1.50}$ -->
      <g transform="translate(21.759443 67.236536) scale(0.1 -0.1)">
       <use xlink:href="#CMR17-31" transform="scale(0.996264)"/>
       <use xlink:href="#CMMI12-3a" transform="translate(45.690477 0) scale(0.996264)"/>
       <use xlink:href="#CMR17-35" transform="translate(72.787654 0) scale(0.996264)"/>
       <use xlink:href="#CMR17-30" transform="translate(118.478131 0) scale(0.996264)"/>
      </g>
     </g>
    </g>
    <g id="ytick_8">
     <g id="line2d_23">
      <path d="M 46.470857 39.109853 
L 530.77464 39.109853 
" clip-path="url(#p01ce154e2f)" style="fill: none; stroke: #b0b0b0; stroke-width: 0.8; stroke-linecap: square"/>
     </g>
     <g id="line2d_24">
      <g>
       <use xlink:href="#mc295e8b4ae" x="46.470857" y="39.109853" style="stroke: #000000; stroke-width: 0.8"/>
      </g>
     </g>
     <g id="text_16">
      <!-- $\mathdefault{1.75}$ -->
      <g transform="translate(21.759443 42.569102) scale(0.1 -0.1)">
       <use xlink:href="#CMR17-31" transform="scale(0.996264)"/>
       <use xlink:href="#CMMI12-3a" transform="translate(45.690477 0) scale(0.996264)"/>
       <use xlink:href="#CMR17-37" transform="translate(72.787654 0) scale(0.996264)"/>
       <use xlink:href="#CMR17-35" transform="translate(118.478131 0) scale(0.996264)"/>
      </g>
     </g>
    </g>
    <g id="ytick_9">
     <g id="line2d_25">
      <path d="M 46.470857 14.442419 
L 530.77464 14.442419 
" clip-path="url(#p01ce154e2f)" style="fill: none; stroke: #b0b0b0; stroke-width: 0.8; stroke-linecap: square"/>
     </g>
     <g id="line2d_26">
      <g>
       <use xlink:href="#mc295e8b4ae" x="46.470857" y="14.442419" style="stroke: #000000; stroke-width: 0.8"/>
      </g>
     </g>
     <g id="text_17">
      <!-- $\mathdefault{2.00}$ -->
      <g transform="translate(21.759443 17.901668) scale(0.1 -0.1)">
       <use xlink:href="#CMR17-32" transform="scale(0.996264)"/>
       <use xlink:href="#CMMI12-3a" transform="translate(45.690477 0) scale(0.996264)"/>
       <use xlink:href="#CMR17-30" transform="translate(72.787654 0) scale(0.996264)"/>
       <use xlink:href="#CMR17-30" transform="translate(118.478131 0) scale(0.996264)"/>
      </g>
     </g>
    </g>
    <g id="text_18">
     <!-- \(\Delta|\Delta\Gamma|\) -->
     <g transform="translate(15.268783 135.807887) rotate(-90) scale(0.1 -0.1)">
      <defs>
       <path id="CMR17-1" d="M 2598 4403 
C 2547 4512 2522 4512 2470 4512 
C 2394 4512 2387 4499 2342 4409 
L 269 109 
C 262 96 237 38 237 32 
C 237 6 243 0 358 0 
L 4576 0 
C 4691 0 4698 6 4698 32 
C 4698 38 4672 96 4666 109 
L 2598 4403 
z
M 2310 4038 
L 4083 358 
L 531 358 
L 2310 4038 
z
" transform="scale(0.015625)"/>
       <path id="CMSY10-6a" d="M 1018 4570 
C 1018 4685 1018 4800 890 4800 
C 762 4800 762 4685 762 4570 
L 762 -1370 
C 762 -1485 762 -1600 890 -1600 
C 1018 -1600 1018 -1485 1018 -1370 
L 1018 4570 
z
" transform="scale(0.015625)"/>
       <path id="CMR17-0" d="M 3315 4352 
L 326 4352 
L 326 4186 
C 768 4186 838 4186 838 3898 
L 838 448 
C 838 160 768 160 326 160 
L 326 0 
C 512 0 870 0 1069 0 
C 1331 0 1638 0 1901 0 
L 1901 160 
L 1760 160 
C 1274 160 1261 224 1261 455 
L 1261 3936 
C 1261 4154 1274 4186 1530 4186 
L 2234 4186 
C 3206 4186 3258 3738 3354 2938 
L 3469 2938 
L 3315 4352 
z
" transform="scale(0.015625)"/>
      </defs>
      <use xlink:href="#CMR17-1" transform="scale(0.996264)"/>
      <use xlink:href="#CMSY10-6a" transform="translate(76.91959 0) scale(0.996264)"/>
      <use xlink:href="#CMR17-1" transform="translate(104.593675 0) scale(0.996264)"/>
      <use xlink:href="#CMR17-0" transform="translate(181.513264 0) scale(0.996264)"/>
      <use xlink:href="#CMSY10-6a" transform="translate(238.894672 0) scale(0.996264)"/>
     </g>
    </g>
   </g>
   <g id="line2d_27">
    <path d="M 68.484665 211.768444 
L 100.53677 211.613311 
L 113.745055 211.339233 
L 122.418496 210.948572 
L 128.978611 210.43903 
L 134.261925 209.812514 
L 138.708714 209.067351 
L 142.583144 208.196708 
L 146.017298 207.20077 
L 149.143259 206.064123 
L 152.005054 204.788667 
L 154.690739 203.347797 
L 157.244341 201.720822 
L 159.665859 199.910903 
L 161.999323 197.886792 
L 164.244732 195.64774 
L 166.49014 193.091626 
L 168.735549 190.187708 
L 170.936929 186.974757 
L 173.182338 183.298022 
L 175.471774 179.110965 
L 177.805238 174.370939 
L 180.226756 168.939342 
L 182.780358 162.650869 
L 185.466043 155.442909 
L 188.459921 146.755304 
L 191.98213 135.804593 
L 196.693085 120.34734 
L 205.366526 91.781968 
L 208.932762 80.86953 
L 211.970668 72.250723 
L 214.744408 65.020394 
L 217.342037 58.845531 
L 219.851611 53.44458 
L 222.229103 48.8377 
L 224.562566 44.786296 
L 226.89603 41.180598 
L 229.141439 38.109097 
L 231.386847 35.402543 
L 233.676283 32.992482 
L 235.921691 30.945149 
L 238.211128 29.154989 
L 240.544591 27.614628 
L 242.878055 26.338905 
L 245.255546 25.291296 
L 247.633037 24.481514 
L 250.098584 23.879588 
L 252.564131 23.510224 
L 255.029677 23.368192 
L 257.451196 23.449256 
L 259.828687 23.745034 
L 262.250206 24.273468 
L 264.627698 25.025545 
L 267.005189 26.022364 
L 269.294625 27.22732 
L 271.540033 28.657928 
L 273.785442 30.349716 
L 276.118905 32.401296 
L 278.320286 34.62439 
L 280.65375 37.29978 
L 283.075269 40.433032 
L 285.496788 43.935517 
L 288.006362 47.954694 
L 290.648019 52.603297 
L 293.421759 57.921665 
L 296.415637 64.119082 
L 299.585625 71.130225 
L 304.12047 81.770597 
L 311.473082 99.802437 
L 319.706246 119.733594 
L 324.98956 131.721442 
L 329.040101 140.286189 
L 332.73842 147.564568 
L 335.776326 153.147365 
L 339.298535 159.151245 
L 342.864772 164.726662 
L 346.519064 169.930515 
L 349.38086 173.661704 
L 352.462793 177.352095 
L 356.073057 181.273588 
L 359.815405 184.913792 
L 362.85331 187.574665 
L 366.287464 190.288601 
L 369.633563 192.658083 
L 372.847579 194.704909 
L 376.677982 196.87317 
L 380.904633 198.964552 
L 384.955174 200.70309 
L 389.534046 202.393722 
L 394.465139 203.913159 
L 399.308177 205.169063 
L 404.811629 206.357499 
L 410.755357 207.403489 
L 417.3595 208.332087 
L 424.315863 209.097619 
L 432.725138 209.797103 
L 442.411213 210.374409 
L 454.166587 210.842622 
L 468.563618 211.184979 
L 487.715631 211.402643 
L 508.760832 211.483102 
L 508.760832 211.483102 
" clip-path="url(#p01ce154e2f)" style="fill: none; stroke: #ff7f0e; stroke-width: 1.5; stroke-linecap: square"/>
   </g>
   <g id="patch_3">
    <path d="M 46.470857 230.67288 
L 46.470857 12.57696 
" style="fill: none; stroke: #000000; stroke-width: 0.8; stroke-linejoin: miter; stroke-linecap: square"/>
   </g>
   <g id="patch_4">
    <path d="M 530.77464 230.67288 
L 530.77464 12.57696 
" style="fill: none; stroke: #000000; stroke-width: 0.8; stroke-linejoin: miter; stroke-linecap: square"/>
   </g>
   <g id="patch_5">
    <path d="M 46.470857 230.67288 
L 530.77464 230.67288 
" style="fill: none; stroke: #000000; stroke-width: 0.8; stroke-linejoin: miter; stroke-linecap: square"/>
   </g>
   <g id="patch_6">
    <path d="M 46.470857 12.57696 
L 530.77464 12.57696 
" style="fill: none; stroke: #000000; stroke-width: 0.8; stroke-linejoin: miter; stroke-linecap: square"/>
   </g>
   <g id="line2d_28">
    <path d="M 68.484665 211.766205 
L 100.53677 211.613311 
L 113.745055 211.339235 
L 122.462523 210.945906 
L 129.022638 210.434777 
L 134.305952 209.80638 
L 138.752742 209.059113 
L 142.627172 208.18625 
L 146.061326 207.188191 
L 149.187287 206.049716 
L 152.049082 204.773194 
L 154.734766 203.332502 
L 157.244341 201.738116 
L 159.665859 199.938529 
L 162.043351 197.888884 
L 164.332787 195.619124 
L 166.578195 193.08167 
L 168.823604 190.20833 
L 171.069012 186.973649 
L 173.358448 183.280662 
L 175.691912 179.086947 
L 178.113431 174.262603 
L 180.623005 168.749279 
L 183.220634 162.498877 
L 185.994374 155.238881 
L 189.076307 146.519632 
L 192.466434 136.248268 
L 196.649057 122.848416 
L 209.329011 81.699243 
L 212.587055 72.146188 
L 215.44885 64.408259 
L 218.090507 57.882518 
L 220.600081 52.266607 
L 222.933545 47.565754 
L 225.267008 43.362857 
L 227.512417 39.772166 
L 229.757825 36.606935 
L 231.915178 33.943211 
L 234.072532 31.624042 
L 236.273912 29.585822 
L 238.475293 27.852996 
L 240.676674 26.401219 
L 242.878055 25.206609 
L 245.167491 24.215275 
L 247.456927 23.461993 
L 249.834418 22.914678 
L 252.21191 22.592951 
L 254.633429 22.490577 
L 257.098975 22.615453 
L 259.520494 22.961307 
L 261.942013 23.53508 
L 264.319504 24.328585 
L 266.696995 25.362135 
L 268.986432 26.597191 
L 271.187812 28.020943 
L 273.433221 29.725649 
L 275.766685 31.783302 
L 278.100148 34.149692 
L 280.433612 36.837025 
L 282.723048 39.796852 
L 285.100539 43.215607 
L 287.566086 47.132925 
L 290.163715 51.662063 
L 292.893427 56.845778 
L 295.79925 62.802942 
L 298.925211 69.654089 
L 303.372 80.019181 
L 310.328364 97.050346 
L 318.165279 116.185989 
L 323.756787 129.098804 
L 327.278996 136.739886 
L 330.933288 144.186547 
L 334.895774 151.679214 
L 338.373955 157.736159 
L 341.852137 163.309471 
L 345.330319 168.409809 
L 348.8085 173.054953 
L 352.242655 177.217203 
L 355.588753 180.890883 
L 358.714714 184.003124 
L 362.457062 187.357854 
L 365.494967 189.806436 
L 368.929121 192.299376 
L 372.27522 194.472614 
L 375.533264 196.372952 
L 379.407694 198.375609 
L 383.766428 200.336805 
L 388.125162 202.024832 
L 392.527924 203.489174 
L 397.062768 204.779359 
L 401.905806 205.947946 
L 407.409258 207.052947 
L 413.397014 208.031994 
L 420.529488 208.953891 
L 428.234321 209.714719 
L 437.348038 210.376661 
L 447.6505 210.898278 
L 460.814757 211.324183 
L 477.281086 211.61368 
L 499.867253 211.76887 
L 508.760832 211.791383 
L 508.760832 211.791383 
" clip-path="url(#p01ce154e2f)" style="fill: none; stroke: #2ca02c; stroke-width: 1.5; stroke-linecap: square"/>
   </g>
   <g id="legend_1">
    <g id="patch_7">
     <path d="M 445.095667 62.388495 
L 523.77464 62.388495 
Q 525.77464 62.388495 525.77464 60.388495 
L 525.77464 19.57696 
Q 525.77464 17.57696 523.77464 17.57696 
L 445.095667 17.57696 
Q 443.095667 17.57696 443.095667 19.57696 
L 443.095667 60.388495 
Q 443.095667 62.388495 445.095667 62.388495 
z
" style="fill: #ffffff; opacity: 0.8; stroke: #cccccc; stroke-linejoin: miter"/>
    </g>
    <g id="line2d_29">
     <path d="M 447.095667 25.07696 
L 457.095667 25.07696 
L 467.095667 25.07696 
" style="fill: none; stroke: #1f77b4; stroke-width: 1.5; stroke-linecap: square"/>
    </g>
    <g id="text_19">
     <!-- \(\lambda_t=1\) -->
     <g transform="translate(475.095667 28.57696) scale(0.1 -0.1)">
      <defs>
       <path id="CMMI12-15" d="M 1978 3965 
C 1818 4416 1312 4416 1229 4416 
C 1190 4416 1120 4416 1120 4352 
C 1120 4302 1158 4295 1190 4289 
C 1286 4276 1363 4263 1466 4080 
C 1530 3959 2189 2059 2189 2046 
C 2189 2040 2182 2033 2131 1982 
L 467 311 
C 390 234 339 183 339 102 
C 339 12 416 -64 518 -64 
C 544 -64 614 -51 653 -13 
C 755 82 1670 1194 2253 1881 
C 2419 1383 2624 797 2822 261 
C 2854 166 2886 76 2976 -6 
C 3040 -64 3053 -64 3232 -64 
L 3354 -64 
C 3379 -64 3424 -64 3424 -13 
C 3424 13 3418 19 3392 45 
C 3334 115 3290 229 3264 306 
L 1978 3965 
z
" transform="scale(0.015625)"/>
       <path id="CMMI12-74" d="M 1286 2566 
L 1875 2566 
C 1997 2566 2061 2566 2061 2681 
C 2061 2752 2022 2752 1894 2752 
L 1331 2752 
L 1568 3692 
C 1594 3781 1594 3794 1594 3840 
C 1594 3943 1510 4000 1427 4000 
C 1376 4000 1229 3981 1178 3775 
L 928 2752 
L 326 2752 
C 198 2752 141 2752 141 2630 
C 141 2566 186 2566 307 2566 
L 877 2566 
L 454 881 
C 403 658 384 594 384 511 
C 384 211 595 -64 954 -64 
C 1600 -64 1946 868 1946 912 
C 1946 951 1920 970 1882 970 
C 1869 970 1843 970 1830 944 
C 1824 938 1818 931 1773 829 
C 1638 511 1344 64 973 64 
C 781 64 768 224 768 364 
C 768 370 768 492 787 568 
L 1286 2566 
z
" transform="scale(0.015625)"/>
       <path id="CMR17-3d" d="M 4115 2017 
C 4211 2017 4307 2017 4307 2125 
C 4307 2240 4198 2240 4090 2240 
L 512 2240 
C 403 2240 294 2240 294 2125 
C 294 2017 390 2017 486 2017 
L 4115 2017 
z
M 4090 896 
C 4198 896 4307 896 4307 1011 
C 4307 1119 4211 1119 4115 1119 
L 486 1119 
C 390 1119 294 1119 294 1011 
C 294 896 403 896 512 896 
L 4090 896 
z
" transform="scale(0.015625)"/>
      </defs>
      <use xlink:href="#CMMI12-15" transform="scale(0.996264)"/>
      <use xlink:href="#CMMI12-74" transform="translate(56.904072 -14.943915) scale(0.697382)"/>
      <use xlink:href="#CMR17-3d" transform="translate(109.734522 0) scale(0.996264)"/>
      <use xlink:href="#CMR17-31" transform="translate(209.123319 0) scale(0.996264)"/>
     </g>
    </g>
    <g id="line2d_30">
     <path d="M 447.095667 39.014138 
L 457.095667 39.014138 
L 467.095667 39.014138 
" style="fill: none; stroke: #ff7f0e; stroke-width: 1.5; stroke-linecap: square"/>
    </g>
    <g id="text_20">
     <!-- \(\lambda_t=\lambda\) -->
     <g transform="translate(475.095667 42.514138) scale(0.1 -0.1)">
      <use xlink:href="#CMMI12-15" transform="scale(0.996264)"/>
      <use xlink:href="#CMMI12-74" transform="translate(56.904072 -14.943915) scale(0.697382)"/>
      <use xlink:href="#CMR17-3d" transform="translate(109.734522 0) scale(0.996264)"/>
      <use xlink:href="#CMMI12-15" transform="translate(209.123319 0) scale(0.996264)"/>
     </g>
    </g>
    <g id="line2d_31">
     <path d="M 447.095667 52.951317 
L 457.095667 52.951317 
L 467.095667 52.951317 
" style="fill: none; stroke: #2ca02c; stroke-width: 1.5; stroke-linecap: square"/>
    </g>
    <g id="text_21">
     <!-- \(\lambda&lt;\lambda_t&lt;1\) -->
     <g transform="translate(475.095667 56.451317) scale(0.1 -0.1)">
      <defs>
       <path id="CMMI12-3c" d="M 4218 3104 
C 4333 3155 4346 3200 4346 3238 
C 4346 3309 4294 3360 4224 3360 
C 4211 3360 4205 3353 4115 3315 
L 653 1719 
C 538 1667 525 1622 525 1584 
C 525 1539 531 1501 653 1442 
L 4115 -154 
C 4198 -192 4211 -192 4224 -192 
C 4294 -192 4346 -141 4346 -70 
C 4346 -32 4333 13 4218 64 
L 922 1581 
L 4218 3104 
z
" transform="scale(0.015625)"/>
      </defs>
      <use xlink:href="#CMMI12-15" transform="scale(0.996264)"/>
      <use xlink:href="#CMMI12-3c" transform="translate(84.578081 0) scale(0.996264)"/>
      <use xlink:href="#CMMI12-15" transform="translate(188.124185 0) scale(0.996264)"/>
      <use xlink:href="#CMMI12-74" transform="translate(245.028257 -14.943915) scale(0.697382)"/>
      <use xlink:href="#CMMI12-3c" transform="translate(297.858707 0) scale(0.996264)"/>
      <use xlink:href="#CMR17-31" transform="translate(401.404812 0) scale(0.996264)"/>
     </g>
    </g>
   </g>
  </g>
  <g id="axes_2">
   <g id="patch_8">
    <path d="M 92.1672 270.8334 
L 444.5712 270.8334 
L 444.5712 266.5458 
L 92.1672 266.5458 
z
" clip-path="url(#p0e8b2279b7)" style="fill: #d3d3d3"/>
   </g>
   <g id="patch_9">
    <path d="M 92.1672 270.8334 
L 92.1672 270.8334 
L 92.1672 266.5458 
L 92.1672 266.5458 
z
" clip-path="url(#p0e8b2279b7)" style="fill: #1f77b4"/>
   </g>
   <g id="line2d_32">
    <path d="M 92.1672 272.9772 
L 92.1672 264.402 
" clip-path="url(#pebe14a4c1f)" style="fill: none; stroke: #ff0000; stroke-linecap: square"/>
   </g>
   <g id="line2d_33">
    <defs>
     <path id="m3ce5baa184" d="M 0 5 
C 1.326016 5 2.597899 4.473168 3.535534 3.535534 
C 4.473168 2.597899 5 1.326016 5 0 
C 5 -1.326016 4.473168 -2.597899 3.535534 -3.535534 
C 2.597899 -4.473168 1.326016 -5 0 -5 
C -1.326016 -5 -2.597899 -4.473168 -3.535534 -3.535534 
C -4.473168 -2.597899 -5 -1.326016 -5 0 
C -5 1.326016 -4.473168 2.597899 -3.535534 3.535534 
C -2.597899 4.473168 -1.326016 5 0 5 
z
" style="stroke: #bfbfbf"/>
    </defs>
    <g>
     <use xlink:href="#m3ce5baa184" x="92.1672" y="268.6896" style="fill: #ffffff; stroke: #bfbfbf"/>
    </g>
   </g>
   <g id="text_22">
    <!-- \(\lambda\) -->
    <g transform="translate(79.307555 271.18026) scale(0.1 -0.1)">
     <use xlink:href="#CMMI12-15" transform="scale(0.996264)"/>
    </g>
   </g>
   <g id="text_23">
    <!-- 1.00e-01 -->
    <g transform="translate(451.61928 271.18026) scale(0.1 -0.1)">
     <defs>
      <path id="CMR17-2e" d="M 1062 261 
C 1062 420 934 522 800 522 
C 672 522 538 420 538 261 
C 538 102 666 0 800 0 
C 928 0 1062 102 1062 261 
z
" transform="scale(0.015625)"/>
      <path id="CMR17-65" d="M 2438 1472 
C 2464 1498 2464 1511 2464 1576 
C 2464 2238 2118 2816 1389 2816 
C 710 2816 173 2169 173 1383 
C 173 551 781 -64 1459 -64 
C 2176 -64 2458 607 2458 740 
C 2458 784 2419 784 2406 784 
C 2362 784 2355 771 2330 696 
C 2189 265 1837 51 1504 51 
C 1229 51 954 203 781 480 
C 582 803 582 1176 582 1472 
L 2438 1472 
z
M 589 1568 
C 634 2505 1126 2714 1382 2714 
C 1818 2714 2112 2297 2118 1568 
L 589 1568 
z
" transform="scale(0.015625)"/>
      <path id="CMR17-2d" d="M 1632 1216 
L 1632 1496 
L 26 1496 
L 26 1216 
L 1632 1216 
z
" transform="scale(0.015625)"/>
     </defs>
     <use xlink:href="#CMR17-31" transform="scale(0.996264)"/>
     <use xlink:href="#CMR17-2e" transform="translate(45.690477 0) scale(0.996264)"/>
     <use xlink:href="#CMR17-30" transform="translate(70.561536 0) scale(0.996264)"/>
     <use xlink:href="#CMR17-30" transform="translate(116.252013 0) scale(0.996264)"/>
     <use xlink:href="#CMR17-65" transform="translate(161.94249 0) scale(0.996264)"/>
     <use xlink:href="#CMR17-2d" transform="translate(202.42815 0) scale(0.996264)"/>
     <use xlink:href="#CMR17-30" transform="translate(232.504117 0) scale(0.996264)"/>
     <use xlink:href="#CMR17-31" transform="translate(278.194594 0) scale(0.996264)"/>
    </g>
   </g>
  </g>
  <g id="axes_3">
   <g id="patch_10">
    <path d="M 92.1672 279.4086 
L 444.5712 279.4086 
L 444.5712 275.121 
L 92.1672 275.121 
z
" clip-path="url(#pd16a29d35d)" style="fill: #d3d3d3"/>
   </g>
   <g id="patch_11">
    <path d="M 92.1672 279.4086 
L 268.3692 279.4086 
L 268.3692 275.121 
L 92.1672 275.121 
z
" clip-path="url(#pd16a29d35d)" style="fill: #1f77b4"/>
   </g>
   <g id="line2d_34">
    <path d="M 268.3692 281.5524 
L 268.3692 272.9772 
" clip-path="url(#pa87fee0315)" style="fill: none; stroke: #ff0000; stroke-linecap: square"/>
   </g>
   <g id="line2d_35">
    <g>
     <use xlink:href="#m3ce5baa184" x="268.3692" y="277.2648" style="fill: #ffffff; stroke: #bfbfbf"/>
    </g>
   </g>
   <g id="text_24">
    <!-- \(\lambda_t\) -->
    <g transform="translate(76.297997 279.75546) scale(0.1 -0.1)">
     <use xlink:href="#CMMI12-15" transform="scale(0.996264)"/>
     <use xlink:href="#CMMI12-74" transform="translate(56.904072 -14.943915) scale(0.697382)"/>
    </g>
   </g>
   <g id="text_25">
    <!-- 3.16e-01 -->
    <g transform="translate(451.61928 279.75546) scale(0.1 -0.1)">
     <defs>
      <path id="CMR17-33" d="M 1414 2157 
C 1984 2157 2234 1662 2234 1090 
C 2234 320 1824 25 1453 25 
C 1114 25 563 194 390 693 
C 422 680 454 680 486 680 
C 640 680 755 782 755 948 
C 755 1133 614 1216 486 1216 
C 378 1216 211 1165 211 926 
C 211 335 787 -128 1466 -128 
C 2176 -128 2720 430 2720 1085 
C 2720 1707 2208 2157 1600 2227 
C 2086 2328 2554 2756 2554 3329 
C 2554 3820 2048 4179 1472 4179 
C 890 4179 378 3829 378 3329 
C 378 3110 544 3072 627 3072 
C 762 3072 877 3155 877 3321 
C 877 3486 762 3569 627 3569 
C 602 3569 570 3569 544 3557 
C 730 3959 1235 4032 1459 4032 
C 1683 4032 2106 3925 2106 3320 
C 2106 3143 2080 2828 1862 2550 
C 1670 2304 1453 2304 1242 2284 
C 1210 2284 1062 2269 1037 2269 
C 992 2263 966 2257 966 2208 
C 966 2163 973 2157 1101 2157 
L 1414 2157 
z
" transform="scale(0.015625)"/>
     </defs>
     <use xlink:href="#CMR17-33" transform="scale(0.996264)"/>
     <use xlink:href="#CMR17-2e" transform="translate(45.690477 0) scale(0.996264)"/>
     <use xlink:href="#CMR17-31" transform="translate(70.561536 0) scale(0.996264)"/>
     <use xlink:href="#CMR17-36" transform="translate(116.252013 0) scale(0.996264)"/>
     <use xlink:href="#CMR17-65" transform="translate(161.94249 0) scale(0.996264)"/>
     <use xlink:href="#CMR17-2d" transform="translate(202.42815 0) scale(0.996264)"/>
     <use xlink:href="#CMR17-30" transform="translate(232.504117 0) scale(0.996264)"/>
     <use xlink:href="#CMR17-31" transform="translate(278.194594 0) scale(0.996264)"/>
    </g>
   </g>
  </g>
  <g id="axes_4">
   <g id="patch_12">
    <path d="M 10.8432 274.4064 
L 65.0592 274.4064 
L 65.0592 262.9728 
L 10.8432 262.9728 
z
" style="fill: #d9d9d9"/>
   </g>
   <g id="matplotlib.axis_3"/>
   <g id="matplotlib.axis_4"/>
   <g id="patch_13">
    <path d="M 10.8432 274.4064 
L 10.8432 262.9728 
" style="fill: none; stroke: #000000; stroke-width: 0.8; stroke-linejoin: miter; stroke-linecap: square"/>
   </g>
   <g id="patch_14">
    <path d="M 65.0592 274.4064 
L 65.0592 262.9728 
" style="fill: none; stroke: #000000; stroke-width: 0.8; stroke-linejoin: miter; stroke-linecap: square"/>
   </g>
   <g id="patch_15">
    <path d="M 10.8432 274.4064 
L 65.0592 274.4064 
" style="fill: none; stroke: #000000; stroke-width: 0.8; stroke-linejoin: miter; stroke-linecap: square"/>
   </g>
   <g id="patch_16">
    <path d="M 10.8432 262.9728 
L 65.0592 262.9728 
" style="fill: none; stroke: #000000; stroke-width: 0.8; stroke-linejoin: miter; stroke-linecap: square"/>
   </g>
   <g id="text_26">
    <!-- Reset -->
    <g transform="translate(25.954516 271.18026) scale(0.1 -0.1)">
     <defs>
      <path id="CMR17-52" d="M 2509 2146 
C 3117 2268 3629 2676 3629 3186 
C 3629 3785 2950 4326 2054 4326 
L 333 4326 
L 333 4160 
C 774 4160 845 4160 845 3873 
L 845 415 
C 845 128 774 128 333 128 
L 333 -26 
C 518 -26 851 -26 1050 -26 
C 1248 -26 1581 -26 1766 -26 
L 1766 128 
C 1325 128 1254 128 1254 417 
L 1254 2112 
L 2003 2112 
C 2368 2112 2573 1964 2662 1881 
C 2918 1632 2918 1459 2918 1024 
C 2918 595 2918 377 3110 160 
C 3354 -102 3680 -128 3821 -128 
C 4294 -128 4365 396 4365 503 
C 4365 540 4365 585 4307 585 
C 4256 585 4250 547 4250 522 
C 4218 112 4032 -26 3834 -26 
C 3482 -26 3443 375 3405 764 
C 3386 898 3373 993 3360 1133 
C 3322 1452 3270 1917 2509 2146 
z
M 1984 2214 
L 1254 2214 
L 1254 3913 
C 1254 4129 1267 4160 1523 4160 
L 1990 4160 
C 2522 4160 3142 3977 3142 3190 
C 3142 2372 2464 2214 1984 2214 
z
" transform="scale(0.015625)"/>
      <path id="CMR17-73" d="M 1978 2697 
C 1978 2813 1971 2819 1933 2819 
C 1907 2819 1901 2813 1824 2717 
C 1805 2691 1747 2626 1728 2601 
C 1523 2819 1235 2819 1126 2819 
C 416 2819 160 2447 160 2076 
C 160 1498 813 1365 998 1325 
C 1402 1243 1542 1217 1677 1101 
C 1760 1025 1901 884 1901 654 
C 1901 384 1747 38 1158 38 
C 602 38 403 460 288 1021 
C 269 1110 269 1117 218 1117 
C 166 1117 160 1110 160 983 
L 160 63 
C 160 -51 166 -58 205 -58 
C 237 -58 243 -51 275 0 
C 314 57 410 211 448 276 
C 576 103 800 -64 1158 -64 
C 1792 -64 2131 283 2131 784 
C 2131 1112 1958 1285 1875 1362 
C 1683 1561 1459 1606 1190 1657 
C 838 1735 390 1825 390 2217 
C 390 2383 480 2737 1126 2737 
C 1811 2737 1850 2094 1862 1888 
C 1869 1856 1901 1849 1920 1849 
C 1978 1849 1978 1869 1978 1978 
L 1978 2697 
z
" transform="scale(0.015625)"/>
      <path id="CMR17-74" d="M 966 2560 
L 1862 2560 
L 1862 2725 
L 966 2725 
L 966 3904 
L 851 3904 
C 838 3245 614 2668 70 2668 
L 70 2560 
L 627 2560 
L 627 771 
C 627 650 627 -64 1370 -64 
C 1747 -64 1965 306 1965 777 
L 1965 1140 
L 1850 1140 
L 1850 783 
C 1850 344 1677 51 1408 51 
C 1222 51 966 178 966 758 
L 966 2560 
z
" transform="scale(0.015625)"/>
     </defs>
     <use xlink:href="#CMR17-52" transform="scale(0.996264)"/>
     <use xlink:href="#CMR17-65" transform="translate(67.791102 0) scale(0.996264)"/>
     <use xlink:href="#CMR17-73" transform="translate(108.276762 0) scale(0.996264)"/>
     <use xlink:href="#CMR17-65" transform="translate(144.0781 0) scale(0.996264)"/>
     <use xlink:href="#CMR17-74" transform="translate(184.563761 0) scale(0.996264)"/>
    </g>
   </g>
  </g>
 </g>
 <defs>
  <clipPath id="p01ce154e2f">
   <rect x="46.470857" y="12.57696" width="484.303783" height="218.09592"/>
  </clipPath>
  <clipPath id="p0e8b2279b7">
   <rect x="92.1672" y="264.402" width="352.404" height="8.5752"/>
  </clipPath>
  <clipPath id="pebe14a4c1f">
   <path d="M 92.1672 270.8334 
L 444.5712 270.8334 
L 444.5712 266.5458 
L 92.1672 266.5458 
z
"/>
  </clipPath>
  <clipPath id="pd16a29d35d">
   <rect x="92.1672" y="272.9772" width="352.404" height="8.5752"/>
  </clipPath>
  <clipPath id="pa87fee0315">
   <path d="M 92.1672 279.4086 
L 444.5712 279.4086 
L 444.5712 275.121 
L 92.1672 275.121 
z
"/>
  </clipPath>
 </defs>
</svg>
